<?xml version="1.0" encoding="UTF-8" standalone="no"?>
<!DOCTYPE svg PUBLIC "-//W3C//DTD SVG 1.1//EN"
 "http://www.w3.org/Graphics/SVG/1.1/DTD/svg11.dtd">
<!-- Generated by graphviz version 12.2.1 (20241206.2353)
 -->
<!-- Title: React Agent Pages: 1 -->
<svg width="453pt" height="564pt"
 viewBox="0.00 0.00 452.80 563.50" xmlns="http://www.w3.org/2000/svg" xmlns:xlink="http://www.w3.org/1999/xlink">
<g id="graph0" class="graph" transform="scale(1 1) rotate(0) translate(4 559.5)">
<title>React Agent</title>
<polygon fill="white" stroke="none" points="-4,4 -4,-559.5 448.8,-559.5 448.8,4 -4,4"/>
<text text-anchor="middle" x="222.4" y="-538.2" font-family="Times,serif" font-size="14.00">React Agent</text>
<!-- node_0 -->
<g id="node1" class="node">
<title>node_0</title>
<polygon fill="#ececff" stroke="#9370db" points="277.12,-442.5 114.88,-442.5 114.88,-352 277.12,-352 277.12,-442.5"/>
<text text-anchor="middle" x="196" y="-425.2" font-family="Times,serif" font-size="14.00">thinker[</text>
<text text-anchor="middle" x="196" y="-408.7" font-family="Times,serif" font-size="14.00">Chat(model=&#39;gpt&#45;4o&#45;mini&#39;,</text>
<text text-anchor="middle" x="196" y="-392.2" font-family="Times,serif" font-size="14.00">output_schema=Thought,</text>
<text text-anchor="middle" x="196" y="-375.7" font-family="Times,serif" font-size="14.00">seed=42,</text>
<text text-anchor="middle" x="196" y="-359.2" font-family="Times,serif" font-size="14.00">save_history=True) ]</text>
</g>
<!-- node_2 -->
<g id="node3" class="node">
<title>node_2</title>
<polygon fill="#ececff" stroke="#9370db" points="54,-247.5 0,-247.5 0,-211.5 54,-211.5 54,-247.5"/>
<text text-anchor="middle" x="27" y="-224.45" font-family="Times,serif" font-size="14.00">End</text>
</g>
<!-- node_0&#45;&gt;node_2 -->
<g id="edge1" class="edge">
<title>node_0&#45;&gt;node_2</title>
<path fill="none" stroke="blue" stroke-width="2" d="M114.41,-353.03C106.26,-347.17 98.44,-340.8 91.5,-334 69.02,-311.97 50.9,-280.62 39.65,-258.2"/>
<polygon fill="blue" stroke="blue" stroke-width="2" points="43.53,-258.19 36.02,-250.72 37.24,-261.25 43.53,-258.19"/>
<text text-anchor="middle" x="141.75" y="-312.45" font-family="Times,serif" font-size="14.00">?(is_final_answer)</text>
</g>
<!-- node_3 -->
<g id="node4" class="node">
<title>node_3</title>
<polygon fill="#ececff" stroke="#9370db" points="319.5,-283 72.5,-283 72.5,-176 319.5,-176 319.5,-283"/>
<text text-anchor="middle" x="196" y="-265.7" font-family="Times,serif" font-size="14.00">use_tool[</text>
<text text-anchor="middle" x="196" y="-249.2" font-family="Times,serif" font-size="14.00">Chat(model=&#39;gpt&#45;4o&#45;mini&#39;,</text>
<text text-anchor="middle" x="196" y="-232.7" font-family="Times,serif" font-size="14.00">required_keys={&#39;thought&#39;},</text>
<text text-anchor="middle" x="196" y="-216.2" font-family="Times,serif" font-size="14.00">tools=wikipedia_search,run_python_code,</text>
<text text-anchor="middle" x="196" y="-199.7" font-family="Times,serif" font-size="14.00">call_function=True,</text>
<text text-anchor="middle" x="196" y="-183.2" font-family="Times,serif" font-size="14.00">seed=42) ]</text>
</g>
<!-- node_0&#45;&gt;node_3 -->
<g id="edge2" class="edge">
<title>node_0&#45;&gt;node_3</title>
<path fill="none" stroke="blue" stroke-width="2" d="M196,-351.83C196,-334.28 196,-313.77 196,-294.66"/>
<polygon fill="blue" stroke="blue" stroke-width="2" points="199.5,-296.32 196,-286.32 192.5,-296.32 199.5,-296.32"/>
<text text-anchor="middle" x="236.12" y="-320.7" font-family="Times,serif" font-size="14.00">content.text &#45;&gt;</text>
<text text-anchor="middle" x="236.12" y="-304.2" font-family="Times,serif" font-size="14.00">thought</text>
</g>
<!-- node_1 -->
<g id="node2" class="node">
<title>node_1</title>
<polygon fill="#ececff" stroke="#9370db" points="223,-531 169,-531 169,-495 223,-495 223,-531"/>
<text text-anchor="middle" x="196" y="-507.95" font-family="Times,serif" font-size="14.00">Start</text>
</g>
<!-- node_1&#45;&gt;node_0 -->
<g id="edge3" class="edge">
<title>node_1&#45;&gt;node_0</title>
<path fill="none" stroke="blue" stroke-width="2" d="M196,-494.72C196,-483.73 196,-468.81 196,-454"/>
<polygon fill="blue" stroke="blue" stroke-width="2" points="199.5,-455.79 196,-445.79 192.5,-455.79 199.5,-455.79"/>
<text text-anchor="middle" x="233.88" y="-463.7" font-family="Times,serif" font-size="14.00">. &#45;&gt; messages</text>
</g>
<!-- node_4 -->
<g id="node5" class="node">
<title>node_4</title>
<polygon fill="#ececff" stroke="#9370db" points="334.62,-41 217.38,-41 217.38,0 334.62,0 334.62,-41"/>
<text text-anchor="middle" x="276" y="-23.7" font-family="Times,serif" font-size="14.00">format_tool_call[</text>
<text text-anchor="middle" x="276" y="-7.2" font-family="Times,serif" font-size="14.00">react_cot_format ]</text>
</g>
<!-- node_3&#45;&gt;node_4 -->
<g id="edge4" class="edge">
<title>node_3&#45;&gt;node_4</title>
<path fill="none" stroke="blue" stroke-width="2" d="M206.88,-175.86C215.22,-141.42 228.54,-96.11 247.5,-59 248.97,-56.13 250.65,-53.26 252.46,-50.45"/>
<polygon fill="blue" stroke="blue" stroke-width="2" points="254.3,-53.93 257.18,-43.73 248.57,-49.9 254.3,-53.93"/>
<text text-anchor="middle" x="294.75" y="-144.7" font-family="Times,serif" font-size="14.00">content.name &#45;&gt;</text>
<text text-anchor="middle" x="294.75" y="-128.2" font-family="Times,serif" font-size="14.00">tool_name,</text>
<text text-anchor="middle" x="294.75" y="-111.7" font-family="Times,serif" font-size="14.00">content.input &#45;&gt;</text>
<text text-anchor="middle" x="294.75" y="-95.2" font-family="Times,serif" font-size="14.00">input,</text>
<text text-anchor="middle" x="294.75" y="-78.7" font-family="Times,serif" font-size="14.00">content.output &#45;&gt;</text>
<text text-anchor="middle" x="294.75" y="-62.2" font-family="Times,serif" font-size="14.00">output</text>
</g>
<!-- node_4&#45;&gt;node_0 -->
<g id="edge5" class="edge">
<title>node_4&#45;&gt;node_0</title>
<path fill="none" stroke="blue" stroke-width="2" d="M325.18,-41.3C331.9,-46.1 337.89,-51.94 342,-59 392.16,-145.19 370.98,-192.54 329,-283 317.88,-306.95 298.95,-327.71 278.79,-344.68"/>
<polygon fill="blue" stroke="blue" stroke-width="2" points="278.02,-340.8 272.45,-349.81 282.43,-346.24 278.02,-340.8"/>
<text text-anchor="middle" x="406.92" y="-224.45" font-family="Times,serif" font-size="14.00">. &#45;&gt; messages</text>
</g>
</g>
</svg>
