<?xml version="1.0" encoding="UTF-8" standalone="no"?>
<!DOCTYPE svg PUBLIC "-//W3C//DTD SVG 1.1//EN"
 "http://www.w3.org/Graphics/SVG/1.1/DTD/svg11.dtd">
<!-- Generated by graphviz version 12.2.1 (20241206.2353)
 -->
<!-- Title: hello world Pages: 1 -->
<svg width="277pt" height="251pt"
 viewBox="0.00 0.00 277.33 250.50" xmlns="http://www.w3.org/2000/svg" xmlns:xlink="http://www.w3.org/1999/xlink">
<g id="graph0" class="graph" transform="scale(1 1) rotate(0) translate(4 246.5)">
<title>hello world</title>
<polygon fill="white" stroke="none" points="-4,4 -4,-246.5 273.33,-246.5 273.33,4 -4,4"/>
<text text-anchor="middle" x="134.67" y="-225.2" font-family="Times,serif" font-size="14.00">hello world</text>
<!-- node_0 -->
<g id="node1" class="node">
<title>node_0</title>
<polygon fill="#ececff" stroke="#9370db" points="109,-127 0,-127 0,-91 109,-91 109,-127"/>
<text text-anchor="middle" x="54.5" y="-103.95" font-family="Times,serif" font-size="14.00">add[ async_add ]</text>
</g>
<!-- node_2 -->
<g id="node3" class="node">
<title>node_2</title>
<polygon fill="#ececff" stroke="#9370db" points="150.5,-36 96.5,-36 96.5,0 150.5,0 150.5,-36"/>
<text text-anchor="middle" x="123.5" y="-12.95" font-family="Times,serif" font-size="14.00">End</text>
</g>
<!-- node_0&#45;&gt;node_2 -->
<g id="edge1" class="edge">
<title>node_0&#45;&gt;node_2</title>
<path fill="none" stroke="black" d="M61.2,-90.93C66.06,-79.77 73.34,-65.23 82.25,-54 85,-50.54 88.13,-47.17 91.4,-43.97"/>
<polygon fill="black" stroke="black" points="93.55,-46.76 98.61,-37.45 88.85,-41.57 93.55,-46.76"/>
<text text-anchor="middle" x="122.38" y="-57.2" font-family="Times,serif" font-size="14.00">. &#45;&gt; add_result</text>
</g>
<!-- node_1 -->
<g id="node2" class="node">
<title>node_1</title>
<polygon fill="#ececff" stroke="#9370db" points="150.5,-218 96.5,-218 96.5,-182 150.5,-182 150.5,-218"/>
<text text-anchor="middle" x="123.5" y="-194.95" font-family="Times,serif" font-size="14.00">Start</text>
</g>
<!-- node_1&#45;&gt;node_0 -->
<g id="edge2" class="edge">
<title>node_1&#45;&gt;node_0</title>
<path fill="none" stroke="black" d="M110.2,-181.84C100.14,-168.87 86.17,-150.85 74.73,-136.1"/>
<polygon fill="black" stroke="black" points="77.82,-134.37 68.93,-128.61 72.29,-138.65 77.82,-134.37"/>
<text text-anchor="middle" x="113.93" y="-150.7" font-family="Times,serif" font-size="14.00">. &#45;&gt; **</text>
</g>
<!-- node_3 -->
<g id="node4" class="node">
<title>node_3</title>
<polygon fill="#ececff" stroke="#9370db" points="260,-129.5 127,-129.5 127,-88.5 260,-88.5 260,-129.5"/>
<text text-anchor="middle" x="193.5" y="-112.2" font-family="Times,serif" font-size="14.00">square[ AsyncPow(2)</text>
<text text-anchor="middle" x="193.5" y="-95.7" font-family="Times,serif" font-size="14.00">]</text>
</g>
<!-- node_1&#45;&gt;node_3 -->
<g id="edge3" class="edge">
<title>node_1&#45;&gt;node_3</title>
<path fill="none" stroke="black" d="M137,-181.84C146.58,-169.66 159.67,-153.01 170.84,-138.81"/>
<polygon fill="black" stroke="black" points="173.48,-141.12 176.91,-131.09 167.98,-136.79 173.48,-141.12"/>
<text text-anchor="middle" x="179.19" y="-150.7" font-family="Times,serif" font-size="14.00">b &#45;&gt; a</text>
</g>
<!-- node_3&#45;&gt;node_2 -->
<g id="edge4" class="edge">
<title>node_3&#45;&gt;node_2</title>
<path fill="none" stroke="black" d="M184,-88.05C178.47,-77.42 170.93,-64.42 162.5,-54 159.75,-50.6 156.65,-47.24 153.44,-44.02"/>
<polygon fill="black" stroke="black" points="156.12,-41.74 146.44,-37.43 151.32,-46.84 156.12,-41.74"/>
<text text-anchor="middle" x="221.33" y="-57.2" font-family="Times,serif" font-size="14.00">. &#45;&gt; square_result</text>
</g>
</g>
</svg>
