<?xml version="1.0" encoding="UTF-8" standalone="no"?>
<!DOCTYPE svg PUBLIC "-//W3C//DTD SVG 1.1//EN"
 "http://www.w3.org/Graphics/SVG/1.1/DTD/svg11.dtd">
<!-- Generated by graphviz version 12.2.1 (20241206.2353)
 -->
<!-- Title: batch_adding Pages: 1 -->
<svg width="297pt" height="412pt"
 viewBox="0.00 0.00 297.12 411.50" xmlns="http://www.w3.org/2000/svg" xmlns:xlink="http://www.w3.org/1999/xlink">
<g id="graph0" class="graph" transform="scale(1 1) rotate(0) translate(4 407.5)">
<title>batch_adding</title>
<polygon fill="white" stroke="none" points="-4,4 -4,-407.5 293.12,-407.5 293.12,4 -4,4"/>
<text text-anchor="middle" x="144.56" y="-386.2" font-family="Times,serif" font-size="14.00">batch_adding</text>
<!-- node_0 -->
<g id="node1" class="node">
<title>node_0</title>
<polygon fill="#ececff" stroke="#9370db" points="237.88,-290.5 152.88,-290.5 152.88,-249.5 237.88,-249.5 237.88,-290.5"/>
<text text-anchor="middle" x="195.38" y="-273.2" font-family="Times,serif" font-size="14.00">task_list1[</text>
<text text-anchor="middle" x="195.38" y="-256.7" font-family="Times,serif" font-size="14.00">Range(2,1) ]</text>
</g>
<!-- node_2 -->
<g id="node3" class="node">
<title>node_2</title>
<polygon fill="#ececff" stroke="#9370db" stroke-width="2" points="171.88,-197 38.88,-197 38.88,-156 171.88,-156 171.88,-197"/>
<text text-anchor="middle" x="105.38" y="-179.7" font-family="Times,serif" font-size="14.00">add_task[ async_add,</text>
<text text-anchor="middle" x="105.38" y="-163.2" font-family="Times,serif" font-size="14.00">foreach=[a] ]</text>
</g>
<!-- node_0&#45;&gt;node_2 -->
<g id="edge3" class="edge">
<title>node_0&#45;&gt;node_2</title>
<path fill="none" stroke="black" d="M175.85,-249.15C163.23,-236.32 146.62,-219.44 132.7,-205.28"/>
<polygon fill="black" stroke="black" points="135.43,-203.07 125.93,-198.39 130.44,-207.98 135.43,-203.07"/>
<text text-anchor="middle" x="173.44" y="-218.2" font-family="Times,serif" font-size="14.00">. &#45;&gt; a</text>
</g>
<!-- node_1 -->
<g id="node2" class="node">
<title>node_1</title>
<polygon fill="#ececff" stroke="#9370db" points="222.38,-379 168.38,-379 168.38,-343 222.38,-343 222.38,-379"/>
<text text-anchor="middle" x="195.38" y="-355.95" font-family="Times,serif" font-size="14.00">Start</text>
</g>
<!-- node_1&#45;&gt;node_0 -->
<g id="edge4" class="edge">
<title>node_1&#45;&gt;node_0</title>
<path fill="none" stroke="black" d="M195.38,-342.84C195.38,-331.35 195.38,-315.9 195.38,-302.27"/>
<polygon fill="black" stroke="black" points="198.88,-302.42 195.38,-292.42 191.88,-302.42 198.88,-302.42"/>
<text text-anchor="middle" x="242.25" y="-311.7" font-family="Times,serif" font-size="14.00">a &#45;&gt; initial_value</text>
</g>
<!-- node_5 -->
<g id="node6" class="node">
<title>node_5</title>
<polygon fill="#ececff" stroke="#9370db" points="165.88,-119 44.88,-119 44.88,-78 165.88,-78 165.88,-119"/>
<text text-anchor="middle" x="105.38" y="-101.7" font-family="Times,serif" font-size="14.00">sort_task[ &lt;built&#45;in</text>
<text text-anchor="middle" x="105.38" y="-85.2" font-family="Times,serif" font-size="14.00">function sorted&gt; ]</text>
</g>
<!-- node_2&#45;&gt;node_5 -->
<g id="edge5" class="edge">
<title>node_2&#45;&gt;node_5</title>
<path fill="none" stroke="black" d="M105.38,-155.53C105.38,-147.94 105.38,-139.1 105.38,-130.71"/>
<polygon fill="black" stroke="black" points="108.88,-130.85 105.38,-120.85 101.88,-130.85 108.88,-130.85"/>
</g>
<!-- node_3 -->
<g id="node4" class="node">
<title>node_3</title>
<path fill="#ececff" stroke="#9370db" d="M58.75,-284.73C58.75,-286.53 45.58,-288 29.38,-288 13.17,-288 0,-286.53 0,-284.73 0,-284.73 0,-255.27 0,-255.27 0,-253.47 13.17,-252 29.38,-252 45.58,-252 58.75,-253.47 58.75,-255.27 58.75,-255.27 58.75,-284.73 58.75,-284.73"/>
<path fill="none" stroke="#9370db" d="M58.75,-284.73C58.75,-282.92 45.58,-281.45 29.38,-281.45 13.17,-281.45 0,-282.92 0,-284.73"/>
<text text-anchor="middle" x="29.38" y="-264.95" font-family="Times,serif" font-size="14.00">State[b]</text>
</g>
<!-- node_3&#45;&gt;node_2 -->
<g id="edge1" class="edge">
<title>node_3&#45;&gt;node_2</title>
<path fill="none" stroke="black" stroke-dasharray="5,2" d="M41.97,-251.65C49.94,-240.9 60.59,-226.91 70.62,-215 73.16,-211.99 75.86,-208.9 78.59,-205.84"/>
<polygon fill="black" stroke="black" points="81.09,-208.29 85.24,-198.54 75.92,-203.58 81.09,-208.29"/>
<text text-anchor="middle" x="86" y="-218.2" font-family="Times,serif" font-size="14.00">. &#45;&gt; b</text>
</g>
<!-- node_4 -->
<g id="node5" class="node">
<title>node_4</title>
<path fill="#ececff" stroke="#9370db" d="M134.38,-284.73C134.38,-286.53 121.38,-288 105.38,-288 89.37,-288 76.38,-286.53 76.38,-284.73 76.38,-284.73 76.38,-255.27 76.38,-255.27 76.38,-253.47 89.37,-252 105.38,-252 121.38,-252 134.38,-253.47 134.38,-255.27 134.38,-255.27 134.38,-284.73 134.38,-284.73"/>
<path fill="none" stroke="#9370db" d="M134.38,-284.73C134.38,-282.92 121.38,-281.45 105.38,-281.45 89.37,-281.45 76.38,-282.92 76.38,-284.73"/>
<text text-anchor="middle" x="105.38" y="-264.95" font-family="Times,serif" font-size="14.00">State[c]</text>
</g>
<!-- node_4&#45;&gt;node_2 -->
<g id="edge2" class="edge">
<title>node_4&#45;&gt;node_2</title>
<path fill="none" stroke="black" stroke-dasharray="5,2" d="M105.38,-251.79C105.38,-239.66 105.38,-223.06 105.38,-208.64"/>
<polygon fill="black" stroke="black" points="108.88,-208.69 105.38,-198.69 101.88,-208.69 108.88,-208.69"/>
<text text-anchor="middle" x="120.38" y="-218.2" font-family="Times,serif" font-size="14.00">. &#45;&gt; c</text>
</g>
<!-- node_6 -->
<g id="node7" class="node">
<title>node_6</title>
<polygon fill="#ececff" stroke="#9370db" points="176.38,-41 34.38,-41 34.38,0 176.38,0 176.38,-41"/>
<text text-anchor="middle" x="105.38" y="-23.7" font-family="Times,serif" font-size="14.00">End[ OutputQueue.add</text>
<text text-anchor="middle" x="105.38" y="-7.2" font-family="Times,serif" font-size="14.00">]</text>
</g>
<!-- node_5&#45;&gt;node_6 -->
<g id="edge6" class="edge">
<title>node_5&#45;&gt;node_6</title>
<path fill="none" stroke="black" d="M105.38,-77.53C105.38,-69.94 105.38,-61.1 105.38,-52.71"/>
<polygon fill="black" stroke="black" points="108.88,-52.85 105.38,-42.85 101.88,-52.85 108.88,-52.85"/>
</g>
</g>
</svg>
