<?xml version="1.0" encoding="UTF-8" standalone="no"?>
<!DOCTYPE svg PUBLIC "-//W3C//DTD SVG 1.1//EN"
 "http://www.w3.org/Graphics/SVG/1.1/DTD/svg11.dtd">
<!-- Generated by graphviz version 12.2.1 (20241206.2353)
 -->
<!-- Title: multiedge Pages: 1 -->
<svg width="121pt" height="230pt"
 viewBox="0.00 0.00 121.00 230.00" xmlns="http://www.w3.org/2000/svg" xmlns:xlink="http://www.w3.org/1999/xlink">
<g id="graph0" class="graph" transform="scale(1 1) rotate(0) translate(4 226)">
<title>multiedge</title>
<polygon fill="white" stroke="none" points="-4,4 -4,-226 117,-226 117,4 -4,4"/>
<text text-anchor="middle" x="56.5" y="-204.7" font-family="Times,serif" font-size="14.00">multiedge</text>
<!-- node_0 -->
<g id="node1" class="node">
<title>node_0</title>
<polygon fill="#ececff" stroke="#9370db" points="77.5,-109 0,-109 0,-73 77.5,-73 77.5,-109"/>
<text text-anchor="middle" x="38.75" y="-85.95" font-family="Times,serif" font-size="14.00">plus[ plus ]</text>
</g>
<!-- node_2 -->
<g id="node3" class="node">
<title>node_2</title>
<polygon fill="#ececff" stroke="#9370db" points="65.75,-36 11.75,-36 11.75,0 65.75,0 65.75,-36"/>
<text text-anchor="middle" x="38.75" y="-12.95" font-family="Times,serif" font-size="14.00">End</text>
</g>
<!-- node_0&#45;&gt;node_2 -->
<g id="edge1" class="edge">
<title>node_0&#45;&gt;node_2</title>
<path fill="none" stroke="black" d="M38.75,-72.81C38.75,-65.23 38.75,-56.1 38.75,-47.54"/>
<polygon fill="black" stroke="black" points="42.25,-47.54 38.75,-37.54 35.25,-47.54 42.25,-47.54"/>
</g>
<!-- node_1 -->
<g id="node2" class="node">
<title>node_1</title>
<polygon fill="#ececff" stroke="#9370db" points="65.75,-197.5 11.75,-197.5 11.75,-161.5 65.75,-161.5 65.75,-197.5"/>
<text text-anchor="middle" x="38.75" y="-174.45" font-family="Times,serif" font-size="14.00">Start</text>
</g>
<!-- node_1&#45;&gt;node_0 -->
<g id="edge2" class="edge">
<title>node_1&#45;&gt;node_0</title>
<path fill="none" stroke="black" d="M38.75,-161.41C38.75,-149.76 38.75,-134.05 38.75,-120.52"/>
<polygon fill="black" stroke="black" points="42.25,-120.86 38.75,-110.86 35.25,-120.86 42.25,-120.86"/>
<text text-anchor="middle" x="75.88" y="-130.2" font-family="Times,serif" font-size="14.00">a &#45;&gt; x, b &#45;&gt; y</text>
</g>
</g>
</svg>
