<?xml version="1.0" encoding="UTF-8" standalone="no"?>
<!DOCTYPE svg PUBLIC "-//W3C//DTD SVG 1.1//EN"
 "http://www.w3.org/Graphics/SVG/1.1/DTD/svg11.dtd">
<!-- Generated by graphviz version 12.2.1 (20241206.2353)
 -->
<!-- Title: test_state_read Pages: 1 -->
<svg width="230pt" height="230pt"
 viewBox="0.00 0.00 229.88 230.00" xmlns="http://www.w3.org/2000/svg" xmlns:xlink="http://www.w3.org/1999/xlink">
<g id="graph0" class="graph" transform="scale(1 1) rotate(0) translate(4 226)">
<title>test_state_read</title>
<polygon fill="white" stroke="none" points="-4,4 -4,-226 225.88,-226 225.88,4 -4,4"/>
<text text-anchor="middle" x="110.94" y="-204.7" font-family="Times,serif" font-size="14.00">test_state_read</text>
<!-- node_0 -->
<g id="node1" class="node">
<title>node_0</title>
<polygon fill="#ececff" stroke="#9370db" points="221.88,-124.5 140.62,-124.5 140.62,-88.5 221.88,-88.5 221.88,-124.5"/>
<text text-anchor="middle" x="181.25" y="-101.45" font-family="Times,serif" font-size="14.00">add[ plus1 ]</text>
</g>
<!-- node_2 -->
<g id="node3" class="node">
<title>node_2</title>
<polygon fill="#ececff" stroke="#9370db" points="138.25,-36 84.25,-36 84.25,0 138.25,0 138.25,-36"/>
<text text-anchor="middle" x="111.25" y="-12.95" font-family="Times,serif" font-size="14.00">End</text>
</g>
<!-- node_0&#45;&gt;node_2 -->
<g id="edge2" class="edge">
<title>node_0&#45;&gt;node_2</title>
<path fill="none" stroke="blue" stroke-width="2" d="M171.96,-88.02C166.09,-77.66 157.97,-64.54 149.25,-54 146.44,-50.6 143.3,-47.21 140.07,-43.96"/>
<polygon fill="blue" stroke="blue" stroke-width="2" points="143.81,-42.69 134.16,-38.31 138.97,-47.75 143.81,-42.69"/>
<text text-anchor="middle" x="184.29" y="-57.2" font-family="Times,serif" font-size="14.00">. &#45;&gt; data</text>
</g>
<!-- node_1 -->
<g id="node2" class="node">
<title>node_1</title>
<polygon fill="#ececff" stroke="#9370db" points="208.25,-197.5 154.25,-197.5 154.25,-161.5 208.25,-161.5 208.25,-197.5"/>
<text text-anchor="middle" x="181.25" y="-174.45" font-family="Times,serif" font-size="14.00">Start</text>
</g>
<!-- node_1&#45;&gt;node_0 -->
<g id="edge3" class="edge">
<title>node_1&#45;&gt;node_0</title>
<path fill="none" stroke="blue" stroke-width="2" d="M181.25,-161.31C181.25,-153.73 181.25,-144.6 181.25,-136.04"/>
<polygon fill="blue" stroke="blue" stroke-width="2" points="184.75,-137.56 181.25,-127.56 177.75,-137.56 184.75,-137.56"/>
</g>
<!-- node_3 -->
<g id="node4" class="node">
<title>node_3</title>
<path fill="#ececff" stroke="#9370db" d="M122.5,-121.23C122.5,-123.03 95.05,-124.5 61.25,-124.5 27.45,-124.5 0,-123.03 0,-121.23 0,-121.23 0,-91.77 0,-91.77 0,-89.97 27.45,-88.5 61.25,-88.5 95.05,-88.5 122.5,-89.97 122.5,-91.77 122.5,-91.77 122.5,-121.23 122.5,-121.23"/>
<path fill="none" stroke="#9370db" d="M122.5,-121.23C122.5,-119.42 95.05,-117.95 61.25,-117.95 27.45,-117.95 0,-119.42 0,-121.23"/>
<text text-anchor="middle" x="61.25" y="-101.45" font-family="Times,serif" font-size="14.00">State[outside_state]</text>
</g>
<!-- node_3&#45;&gt;node_2 -->
<g id="edge1" class="edge">
<title>node_3&#45;&gt;node_2</title>
<path fill="none" stroke="black" stroke-dasharray="5,2" d="M61.8,-88.29C62.79,-77.79 65.26,-64.42 71.25,-54 73.19,-50.62 75.59,-47.4 78.23,-44.38"/>
<polygon fill="black" stroke="black" points="80.5,-47.06 85.09,-37.51 75.55,-42.11 80.5,-47.06"/>
<text text-anchor="middle" x="110.25" y="-57.2" font-family="Times,serif" font-size="14.00">. &#45;&gt; state_data</text>
</g>
</g>
</svg>
