<?xml version="1.0" encoding="UTF-8" standalone="no"?>
<!DOCTYPE svg PUBLIC "-//W3C//DTD SVG 1.1//EN"
 "http://www.w3.org/Graphics/SVG/1.1/DTD/svg11.dtd">
<!-- Generated by graphviz version 12.2.1 (20241206.2353)
 -->
<!-- Title: far ancestor writing to state Pages: 1 -->
<svg width="262pt" height="423pt"
 viewBox="0.00 0.00 262.00 422.50" xmlns="http://www.w3.org/2000/svg" xmlns:xlink="http://www.w3.org/1999/xlink">
<g id="graph0" class="graph" transform="scale(1 1) rotate(0) translate(4 418.5)">
<title>far ancestor writing to state</title>
<polygon fill="white" stroke="none" points="-4,4 -4,-418.5 258,-418.5 258,4 -4,4"/>
<text text-anchor="middle" x="127" y="-397.2" font-family="Times,serif" font-size="14.00">far ancestor writing to state</text>
<!-- node_0 -->
<g id="node1" class="node">
<title>node_0</title>
<polygon fill="#ececff" stroke="#9370db" points="136,-301.5 0,-301.5 0,-265.5 136,-265.5 136,-301.5"/>
<text text-anchor="middle" x="68" y="-278.45" font-family="Times,serif" font-size="14.00">a[ MessageAdder(0) ]</text>
</g>
<!-- node_1 -->
<g id="node2" class="node">
<title>node_1</title>
<path fill="#ececff" stroke="#9370db" d="M134.75,-32.73C134.75,-34.53 114.69,-36 90,-36 65.31,-36 45.25,-34.53 45.25,-32.73 45.25,-32.73 45.25,-3.27 45.25,-3.27 45.25,-1.47 65.31,0 90,0 114.69,0 134.75,-1.47 134.75,-3.27 134.75,-3.27 134.75,-32.73 134.75,-32.73"/>
<path fill="none" stroke="#9370db" d="M134.75,-32.73C134.75,-30.92 114.69,-29.45 90,-29.45 65.31,-29.45 45.25,-30.92 45.25,-32.73"/>
<text text-anchor="middle" x="90" y="-12.95" font-family="Times,serif" font-size="14.00">State[history]</text>
</g>
<!-- node_0&#45;&gt;node_1 -->
<g id="edge1" class="edge">
<title>node_0&#45;&gt;node_1</title>
<path fill="none" stroke="black" stroke-dasharray="5,2" d="M68.01,-265.3C68.13,-244.39 68.7,-208.06 71,-177 74.37,-131.56 81.28,-79.09 85.78,-47.51"/>
<polygon fill="black" stroke="black" points="89.19,-48.38 87.15,-37.98 82.26,-47.38 89.19,-48.38"/>
</g>
<!-- node_2 -->
<g id="node3" class="node">
<title>node_2</title>
<polygon fill="#ececff" stroke="#9370db" points="216.38,-213 79.62,-213 79.62,-177 216.38,-177 216.38,-213"/>
<text text-anchor="middle" x="148" y="-189.95" font-family="Times,serif" font-size="14.00">b[ MessageAdder(0) ]</text>
</g>
<!-- node_0&#45;&gt;node_2 -->
<g id="edge4" class="edge">
<title>node_0&#45;&gt;node_2</title>
<path fill="none" stroke="black" d="M83.81,-265.41C95.34,-252.93 111.19,-235.8 124.25,-221.68"/>
<polygon fill="black" stroke="black" points="126.71,-224.18 130.93,-214.46 121.57,-219.43 126.71,-224.18"/>
<text text-anchor="middle" x="133.92" y="-234.2" font-family="Times,serif" font-size="14.00">. &#45;&gt; **</text>
</g>
<!-- node_2&#45;&gt;node_1 -->
<g id="edge2" class="edge">
<title>node_2&#45;&gt;node_1</title>
<path fill="none" stroke="black" stroke-dasharray="5,2" d="M136.19,-176.78C127.39,-163.17 115.78,-143.38 109,-124.5 99.97,-99.35 95.09,-69.21 92.55,-47.6"/>
<polygon fill="black" stroke="black" points="96.04,-47.34 91.5,-37.77 89.08,-48.08 96.04,-47.34"/>
</g>
<!-- node_3 -->
<g id="node4" class="node">
<title>node_3</title>
<polygon fill="#ececff" stroke="#9370db" points="254,-124.5 118,-124.5 118,-88.5 254,-88.5 254,-124.5"/>
<text text-anchor="middle" x="186" y="-101.45" font-family="Times,serif" font-size="14.00">c[ MessageAdder(0) ]</text>
</g>
<!-- node_2&#45;&gt;node_3 -->
<g id="edge5" class="edge">
<title>node_2&#45;&gt;node_3</title>
<path fill="none" stroke="black" d="M155.51,-176.91C160.73,-165.02 167.81,-148.91 173.83,-135.2"/>
<polygon fill="black" stroke="black" points="176.95,-136.8 177.77,-126.24 170.54,-133.98 176.95,-136.8"/>
<text text-anchor="middle" x="189.15" y="-145.7" font-family="Times,serif" font-size="14.00">. &#45;&gt; **</text>
</g>
<!-- node_3&#45;&gt;node_1 -->
<g id="edge3" class="edge">
<title>node_3&#45;&gt;node_1</title>
<path fill="none" stroke="black" stroke-dasharray="5,2" d="M167.03,-88.41C152.93,-75.7 133.46,-58.16 117.62,-43.89"/>
<polygon fill="black" stroke="black" points="120.15,-41.46 110.38,-37.36 115.47,-46.66 120.15,-41.46"/>
</g>
<!-- node_5 -->
<g id="node6" class="node">
<title>node_5</title>
<polygon fill="#ececff" stroke="#9370db" points="213,-36 159,-36 159,0 213,0 213,-36"/>
<text text-anchor="middle" x="186" y="-12.95" font-family="Times,serif" font-size="14.00">End</text>
</g>
<!-- node_3&#45;&gt;node_5 -->
<g id="edge6" class="edge">
<title>node_3&#45;&gt;node_5</title>
<path fill="none" stroke="black" d="M186,-88.41C186,-76.76 186,-61.05 186,-47.52"/>
<polygon fill="black" stroke="black" points="189.5,-47.86 186,-37.86 182.5,-47.86 189.5,-47.86"/>
<text text-anchor="middle" x="204.75" y="-57.2" font-family="Times,serif" font-size="14.00">. &#45;&gt; **</text>
</g>
<!-- node_4 -->
<g id="node5" class="node">
<title>node_4</title>
<polygon fill="#ececff" stroke="#9370db" points="95,-390 41,-390 41,-354 95,-354 95,-390"/>
<text text-anchor="middle" x="68" y="-366.95" font-family="Times,serif" font-size="14.00">Start</text>
</g>
<!-- node_4&#45;&gt;node_0 -->
<g id="edge7" class="edge">
<title>node_4&#45;&gt;node_0</title>
<path fill="none" stroke="black" d="M68,-353.91C68,-342.26 68,-326.55 68,-313.02"/>
<polygon fill="black" stroke="black" points="71.5,-313.36 68,-303.36 64.5,-313.36 71.5,-313.36"/>
<text text-anchor="middle" x="86.75" y="-322.7" font-family="Times,serif" font-size="14.00">. &#45;&gt; **</text>
</g>
</g>
</svg>
