<?xml version="1.0" encoding="UTF-8" standalone="no"?>
<!DOCTYPE svg PUBLIC "-//W3C//DTD SVG 1.1//EN"
 "http://www.w3.org/Graphics/SVG/1.1/DTD/svg11.dtd">
<!-- Generated by graphviz version 12.2.1 (20241206.2353)
 -->
<!-- Title: selfLoop Pages: 1 -->
<svg width="185pt" height="251pt"
 viewBox="0.00 0.00 185.25 250.50" xmlns="http://www.w3.org/2000/svg" xmlns:xlink="http://www.w3.org/1999/xlink">
<g id="graph0" class="graph" transform="scale(1 1) rotate(0) translate(4 246.5)">
<title>selfLoop</title>
<polygon fill="white" stroke="none" points="-4,4 -4,-246.5 181.25,-246.5 181.25,4 -4,4"/>
<text text-anchor="middle" x="88.62" y="-225.2" font-family="Times,serif" font-size="14.00">selfLoop</text>
<!-- node_0 -->
<g id="node1" class="node">
<title>node_0</title>
<polygon fill="#ececff" stroke="#9370db" points="121.75,-129.5 0,-129.5 0,-88.5 121.75,-88.5 121.75,-129.5"/>
<text text-anchor="middle" x="60.88" y="-112.2" font-family="Times,serif" font-size="14.00">add1[</text>
<text text-anchor="middle" x="60.88" y="-95.7" font-family="Times,serif" font-size="14.00">MessageAdder(1) ]</text>
</g>
<!-- node_0&#45;&gt;node_0 -->
<g id="edge2" class="edge">
<title>node_0&#45;&gt;node_0</title>
<path fill="none" stroke="blue" stroke-width="2" d="M122.06,-117.18C132.51,-116.06 139.75,-113.34 139.75,-109 139.75,-106.49 137.33,-104.52 133.27,-103.09"/>
<polygon fill="blue" stroke="blue" stroke-width="2" points="135.52,-99.98 125.02,-101.42 134.13,-106.84 135.52,-99.98"/>
<text text-anchor="middle" x="158.5" y="-103.95" font-family="Times,serif" font-size="14.00">. &#45;&gt; **</text>
</g>
<!-- node_2 -->
<g id="node3" class="node">
<title>node_2</title>
<polygon fill="#ececff" stroke="#9370db" points="87.88,-36 33.88,-36 33.88,0 87.88,0 87.88,-36"/>
<text text-anchor="middle" x="60.88" y="-12.95" font-family="Times,serif" font-size="14.00">End</text>
</g>
<!-- node_0&#45;&gt;node_2 -->
<g id="edge1" class="edge">
<title>node_0&#45;&gt;node_2</title>
<path fill="none" stroke="blue" stroke-width="2" d="M60.88,-88.25C60.88,-76.33 60.88,-60.94 60.88,-47.69"/>
<polygon fill="blue" stroke="blue" stroke-width="2" points="64.38,-49.32 60.88,-39.32 57.38,-49.32 64.38,-49.32"/>
<text text-anchor="middle" x="98.75" y="-57.2" font-family="Times,serif" font-size="14.00">?(is3): . &#45;&gt; **</text>
</g>
<!-- node_1 -->
<g id="node2" class="node">
<title>node_1</title>
<polygon fill="#ececff" stroke="#9370db" points="87.88,-218 33.88,-218 33.88,-182 87.88,-182 87.88,-218"/>
<text text-anchor="middle" x="60.88" y="-194.95" font-family="Times,serif" font-size="14.00">Start</text>
</g>
<!-- node_1&#45;&gt;node_0 -->
<g id="edge3" class="edge">
<title>node_1&#45;&gt;node_0</title>
<path fill="none" stroke="blue" stroke-width="2" d="M60.88,-181.84C60.88,-170.35 60.88,-154.9 60.88,-141.27"/>
<polygon fill="blue" stroke="blue" stroke-width="2" points="64.38,-142.93 60.88,-132.93 57.38,-142.93 64.38,-142.93"/>
<text text-anchor="middle" x="79.62" y="-150.7" font-family="Times,serif" font-size="14.00">. &#45;&gt; **</text>
</g>
</g>
</svg>
