<?xml version="1.0" encoding="UTF-8" standalone="no"?>
<!DOCTYPE svg PUBLIC "-//W3C//DTD SVG 1.1//EN"
 "http://www.w3.org/Graphics/SVG/1.1/DTD/svg11.dtd">
<!-- Generated by graphviz version 12.2.1 (20241206.2353)
 -->
<!-- Title: init_state_with_clash Pages: 1 -->
<svg width="150pt" height="407pt"
 viewBox="0.00 0.00 150.00 407.00" xmlns="http://www.w3.org/2000/svg" xmlns:xlink="http://www.w3.org/1999/xlink">
<g id="graph0" class="graph" transform="scale(1 1) rotate(0) translate(4 403)">
<title>init_state_with_clash</title>
<polygon fill="white" stroke="none" points="-4,4 -4,-403 146,-403 146,4 -4,4"/>
<text text-anchor="middle" x="71" y="-381.7" font-family="Times,serif" font-size="14.00">init_state_with_clash</text>
<!-- node_0 -->
<g id="node1" class="node">
<title>node_0</title>
<polygon fill="#ececff" stroke="#9370db" points="101.62,-286 20.38,-286 20.38,-250 101.62,-250 101.62,-286"/>
<text text-anchor="middle" x="61" y="-262.95" font-family="Times,serif" font-size="14.00">add1[ plus ]</text>
</g>
<!-- node_1 -->
<g id="node2" class="node">
<title>node_1</title>
<path fill="#ececff" stroke="#9370db" d="M70,-194.23C70,-196.03 54.31,-197.5 35,-197.5 15.69,-197.5 0,-196.03 0,-194.23 0,-194.23 0,-164.77 0,-164.77 0,-162.97 15.69,-161.5 35,-161.5 54.31,-161.5 70,-162.97 70,-164.77 70,-164.77 70,-194.23 70,-194.23"/>
<path fill="none" stroke="#9370db" d="M70,-194.23C70,-192.42 54.31,-190.95 35,-190.95 15.69,-190.95 0,-192.42 0,-194.23"/>
<text text-anchor="middle" x="35" y="-174.45" font-family="Times,serif" font-size="14.00">State[init]</text>
</g>
<!-- node_0&#45;&gt;node_1 -->
<g id="edge2" class="edge">
<title>node_0&#45;&gt;node_1</title>
<path fill="none" stroke="black" stroke-dasharray="5,2" d="M50.03,-249.76C46.99,-244.27 43.98,-238.05 42,-232 39.61,-224.68 38.03,-216.52 36.99,-208.9"/>
<polygon fill="black" stroke="black" points="40.48,-208.62 35.93,-199.05 33.52,-209.37 40.48,-208.62"/>
</g>
<!-- node_3 -->
<g id="node4" class="node">
<title>node_3</title>
<polygon fill="#ececff" stroke="#9370db" stroke-dasharray="5,2" points="142,-197.5 88,-197.5 88,-161.5 142,-161.5 142,-197.5"/>
<text text-anchor="middle" x="115" y="-174.45" font-family="Times,serif" font-size="14.00">break</text>
</g>
<!-- node_0&#45;&gt;node_3 -->
<g id="edge4" class="edge">
<title>node_0&#45;&gt;node_3</title>
<path fill="none" stroke="blue" stroke-width="2" d="M73.22,-249.72C77.08,-244.13 81.3,-237.85 85,-232 89.93,-224.22 95.05,-215.62 99.64,-207.72"/>
<polygon fill="blue" stroke="blue" stroke-width="2" points="101.86,-210.9 103.8,-200.48 95.79,-207.41 101.86,-210.9"/>
<text text-anchor="middle" x="109.78" y="-218.7" font-family="Times,serif" font-size="14.00">. &#45;&gt; x</text>
</g>
<!-- node_1&#45;&gt;node_0 -->
<g id="edge1" class="edge">
<title>node_1&#45;&gt;node_0</title>
<path fill="none" stroke="black" stroke-dasharray="5,2" d="M40.22,-197.85C43.77,-209.68 48.56,-225.61 52.64,-239.19"/>
<polygon fill="black" stroke="black" points="49.2,-239.89 55.43,-248.46 55.9,-237.88 49.2,-239.89"/>
<text text-anchor="middle" x="65.7" y="-218.7" font-family="Times,serif" font-size="14.00">. &#45;&gt; y</text>
</g>
<!-- node_4 -->
<g id="node5" class="node">
<title>node_4</title>
<polygon fill="#ececff" stroke="#9370db" points="115.62,-109 34.38,-109 34.38,-73 115.62,-73 115.62,-109"/>
<text text-anchor="middle" x="75" y="-85.95" font-family="Times,serif" font-size="14.00">add2[ plus ]</text>
</g>
<!-- node_1&#45;&gt;node_4 -->
<g id="edge3" class="edge">
<title>node_1&#45;&gt;node_4</title>
<path fill="none" stroke="black" stroke-dasharray="5,2" d="M41.16,-161.08C44.9,-150.98 49.97,-138.1 55.25,-127 56.48,-124.41 57.83,-121.75 59.22,-119.1"/>
<polygon fill="black" stroke="black" points="62.19,-120.97 63.94,-110.52 56.06,-117.6 62.19,-120.97"/>
<text text-anchor="middle" x="70.62" y="-130.2" font-family="Times,serif" font-size="14.00">. &#45;&gt; y</text>
</g>
<!-- node_2 -->
<g id="node3" class="node">
<title>node_2</title>
<polygon fill="#ececff" stroke="#9370db" points="88,-374.5 34,-374.5 34,-338.5 88,-338.5 88,-374.5"/>
<text text-anchor="middle" x="61" y="-351.45" font-family="Times,serif" font-size="14.00">Start</text>
</g>
<!-- node_2&#45;&gt;node_0 -->
<g id="edge5" class="edge">
<title>node_2&#45;&gt;node_0</title>
<path fill="none" stroke="blue" stroke-width="2" d="M61,-338.41C61,-326.76 61,-311.05 61,-297.52"/>
<polygon fill="blue" stroke="blue" stroke-width="2" points="64.5,-299.38 61,-289.38 57.5,-299.38 64.5,-299.38"/>
<text text-anchor="middle" x="76.38" y="-307.2" font-family="Times,serif" font-size="14.00">. &#45;&gt; x</text>
</g>
<!-- node_3&#45;&gt;node_4 -->
<g id="edge6" class="edge">
<title>node_3&#45;&gt;node_4</title>
<path fill="none" stroke="blue" stroke-width="2" d="M107.1,-161.41C101.6,-149.52 94.15,-133.41 87.81,-119.7"/>
<polygon fill="blue" stroke="blue" stroke-width="2" points="91.67,-119.71 84.29,-112.1 85.31,-122.64 91.67,-119.71"/>
<text text-anchor="middle" x="113.96" y="-130.2" font-family="Times,serif" font-size="14.00">. &#45;&gt; x</text>
</g>
<!-- node_5 -->
<g id="node6" class="node">
<title>node_5</title>
<polygon fill="#ececff" stroke="#9370db" points="102,-36 48,-36 48,0 102,0 102,-36"/>
<text text-anchor="middle" x="75" y="-12.95" font-family="Times,serif" font-size="14.00">End</text>
</g>
<!-- node_4&#45;&gt;node_5 -->
<g id="edge7" class="edge">
<title>node_4&#45;&gt;node_5</title>
<path fill="none" stroke="blue" stroke-width="2" d="M75,-72.81C75,-65.23 75,-56.1 75,-47.54"/>
<polygon fill="blue" stroke="blue" stroke-width="2" points="78.5,-49.06 75,-39.06 71.5,-49.06 78.5,-49.06"/>
</g>
</g>
</svg>
