<?xml version="1.0" encoding="UTF-8" standalone="no"?>
<!DOCTYPE svg PUBLIC "-//W3C//DTD SVG 1.1//EN"
 "http://www.w3.org/Graphics/SVG/1.1/DTD/svg11.dtd">
<!-- Generated by graphviz version 12.2.1 (20241206.2353)
 -->
<!-- Title: paralell with break Pages: 1 -->
<svg width="374pt" height="449pt"
 viewBox="0.00 0.00 373.54 449.00" xmlns="http://www.w3.org/2000/svg" xmlns:xlink="http://www.w3.org/1999/xlink">
<g id="graph0" class="graph" transform="scale(1 1) rotate(0) translate(4 445)">
<title>paralell with break</title>
<polygon fill="white" stroke="none" points="-4,4 -4,-445 369.54,-445 369.54,4 -4,4"/>
<text text-anchor="middle" x="182.77" y="-423.7" font-family="Times,serif" font-size="14.00">paralell with break</text>
<!-- node_0 -->
<g id="node1" class="node">
<title>node_0</title>
<polygon fill="#ececff" stroke="#9370db" points="290.88,-328 169.12,-328 169.12,-287 290.88,-287 290.88,-328"/>
<text text-anchor="middle" x="230" y="-310.7" font-family="Times,serif" font-size="14.00">add1[</text>
<text text-anchor="middle" x="230" y="-294.2" font-family="Times,serif" font-size="14.00">MessageAdder(1) ]</text>
</g>
<!-- node_2 -->
<g id="node3" class="node">
<title>node_2</title>
<polygon fill="#ececff" stroke="#9370db" points="142,-226.25 0,-226.25 0,-185.25 142,-185.25 142,-226.25"/>
<text text-anchor="middle" x="71" y="-208.95" font-family="Times,serif" font-size="14.00">add10[</text>
<text text-anchor="middle" x="71" y="-192.45" font-family="Times,serif" font-size="14.00">FlowDiagram(add10) ]</text>
</g>
<!-- node_0&#45;&gt;node_2 -->
<g id="edge1" class="edge">
<title>node_0&#45;&gt;node_2</title>
<path fill="none" stroke="black" d="M198.21,-286.55C173.51,-271.06 139.06,-249.45 112.24,-232.62"/>
<polygon fill="black" stroke="black" points="114.35,-229.82 104.02,-227.47 110.63,-235.75 114.35,-229.82"/>
<text text-anchor="middle" x="188.17" y="-255.7" font-family="Times,serif" font-size="14.00">. &#45;&gt; **</text>
</g>
<!-- node_3 -->
<g id="node4" class="node">
<title>node_3</title>
<polygon fill="#ececff" stroke="#9370db" points="300.25,-234.5 159.75,-234.5 159.75,-177 300.25,-177 300.25,-234.5"/>
<text text-anchor="middle" x="230" y="-217.2" font-family="Times,serif" font-size="14.00">add100[</text>
<text text-anchor="middle" x="230" y="-200.7" font-family="Times,serif" font-size="14.00">FlowDiagram(add100)</text>
<text text-anchor="middle" x="230" y="-184.2" font-family="Times,serif" font-size="14.00">]</text>
</g>
<!-- node_0&#45;&gt;node_3 -->
<g id="edge2" class="edge">
<title>node_0&#45;&gt;node_3</title>
<path fill="none" stroke="black" d="M230,-286.79C230,-275.17 230,-260.05 230,-246.08"/>
<polygon fill="black" stroke="black" points="233.5,-246.24 230,-236.24 226.5,-246.24 233.5,-246.24"/>
<text text-anchor="middle" x="248.75" y="-255.7" font-family="Times,serif" font-size="14.00">. &#45;&gt; **</text>
</g>
<!-- node_1 -->
<g id="node2" class="node">
<title>node_1</title>
<polygon fill="#ececff" stroke="#9370db" points="257,-416.5 203,-416.5 203,-380.5 257,-380.5 257,-416.5"/>
<text text-anchor="middle" x="230" y="-393.45" font-family="Times,serif" font-size="14.00">Start</text>
</g>
<!-- node_1&#45;&gt;node_0 -->
<g id="edge3" class="edge">
<title>node_1&#45;&gt;node_0</title>
<path fill="none" stroke="blue" stroke-width="2" d="M230,-380.34C230,-368.85 230,-353.4 230,-339.77"/>
<polygon fill="blue" stroke="blue" stroke-width="2" points="233.5,-341.43 230,-331.43 226.5,-341.43 233.5,-341.43"/>
<text text-anchor="middle" x="248.75" y="-349.2" font-family="Times,serif" font-size="14.00">. &#45;&gt; **</text>
</g>
<!-- node_4 -->
<g id="node5" class="node">
<title>node_4</title>
<polygon fill="#ececff" stroke="#9370db" points="294.62,-124.5 165.38,-124.5 165.38,-88.5 294.62,-88.5 294.62,-124.5"/>
<text text-anchor="middle" x="230" y="-101.45" font-family="Times,serif" font-size="14.00">sum[ MessageSum ]</text>
</g>
<!-- node_2&#45;&gt;node_4 -->
<g id="edge4" class="edge">
<title>node_2&#45;&gt;node_4</title>
<path fill="none" stroke="black" d="M103.56,-184.84C129.21,-169.15 165.02,-147.24 191.98,-130.75"/>
<polygon fill="black" stroke="black" points="193.49,-133.94 200.19,-125.73 189.83,-127.96 193.49,-133.94"/>
<text text-anchor="middle" x="184.79" y="-145.7" font-family="Times,serif" font-size="14.00">. &#45;&gt; y</text>
</g>
<!-- node_3&#45;&gt;node_4 -->
<g id="edge5" class="edge">
<title>node_3&#45;&gt;node_4</title>
<path fill="none" stroke="black" d="M230,-176.62C230,-163.95 230,-149.01 230,-136.27"/>
<polygon fill="black" stroke="black" points="233.5,-136.38 230,-126.38 226.5,-136.38 233.5,-136.38"/>
<text text-anchor="middle" x="245.38" y="-145.7" font-family="Times,serif" font-size="14.00">. &#45;&gt; x</text>
</g>
<!-- node_5 -->
<g id="node6" class="node">
<title>node_5</title>
<polygon fill="#ececff" stroke="#9370db" stroke-dasharray="5,2" points="342,-36 288,-36 288,0 342,0 342,-36"/>
<text text-anchor="middle" x="315" y="-12.95" font-family="Times,serif" font-size="14.00">break</text>
</g>
<!-- node_4&#45;&gt;node_5 -->
<g id="edge7" class="edge">
<title>node_4&#45;&gt;node_5</title>
<path fill="none" stroke="blue" stroke-width="2" d="M241.53,-88.38C248.97,-77.91 259.21,-64.55 269.75,-54 273.32,-50.43 277.26,-46.89 281.28,-43.52"/>
<polygon fill="blue" stroke="blue" stroke-width="2" points="282.12,-47.33 287.73,-38.34 277.74,-41.87 282.12,-47.33"/>
<text text-anchor="middle" x="291.88" y="-57.2" font-family="Times,serif" font-size="14.00">?(is112)</text>
</g>
<!-- node_6 -->
<g id="node7" class="node">
<title>node_6</title>
<polygon fill="#ececff" stroke="#9370db" points="257,-36 203,-36 203,0 257,0 257,-36"/>
<text text-anchor="middle" x="230" y="-12.95" font-family="Times,serif" font-size="14.00">End</text>
</g>
<!-- node_4&#45;&gt;node_6 -->
<g id="edge6" class="edge">
<title>node_4&#45;&gt;node_6</title>
<path fill="none" stroke="blue" stroke-width="2" d="M230,-88.41C230,-76.76 230,-61.05 230,-47.52"/>
<polygon fill="blue" stroke="blue" stroke-width="2" points="233.5,-49.38 230,-39.38 226.5,-49.38 233.5,-49.38"/>
</g>
<!-- node_5&#45;&gt;node_0 -->
<g id="edge8" class="edge">
<title>node_5&#45;&gt;node_0</title>
<path fill="none" stroke="blue" stroke-width="2" d="M318.87,-36.49C326.38,-74.54 339.66,-166.83 309,-234.5 300.88,-252.42 285.94,-267.84 271.22,-279.76"/>
<polygon fill="blue" stroke="blue" stroke-width="2" points="270.35,-276.02 264.55,-284.88 274.61,-281.57 270.35,-276.02"/>
<text text-anchor="middle" x="346.79" y="-145.7" font-family="Times,serif" font-size="14.00">. &#45;&gt; **</text>
</g>
</g>
</svg>
