<?xml version="1.0" encoding="UTF-8" standalone="no"?>
<!DOCTYPE svg PUBLIC "-//W3C//DTD SVG 1.1//EN"
 "http://www.w3.org/Graphics/SVG/1.1/DTD/svg11.dtd">
<!-- Generated by graphviz version 12.2.1 (20241206.2353)
 -->
<!-- Title: nested_foreach Pages: 1 -->
<svg width="322pt" height="362pt"
 viewBox="0.00 0.00 321.75 361.50" xmlns="http://www.w3.org/2000/svg" xmlns:xlink="http://www.w3.org/1999/xlink">
<g id="graph0" class="graph" transform="scale(1 1) rotate(0) translate(4 357.5)">
<title>nested_foreach</title>
<polygon fill="white" stroke="none" points="-4,4 -4,-357.5 317.75,-357.5 317.75,4 -4,4"/>
<text text-anchor="middle" x="156.88" y="-336.2" font-family="Times,serif" font-size="14.00">nested_foreach</text>
<!-- node_0 -->
<g id="node1" class="node">
<title>node_0</title>
<polygon fill="#ececff" stroke="#9370db" points="313.75,-240.5 0,-240.5 0,-183 313.75,-183 313.75,-240.5"/>
<text text-anchor="middle" x="156.88" y="-223.2" font-family="Times,serif" font-size="14.00">generate[</text>
<text text-anchor="middle" x="156.88" y="-206.7" font-family="Times,serif" font-size="14.00">MakeItemsAsync(num_items=3,delta=10,sleep=0.05)</text>
<text text-anchor="middle" x="156.88" y="-190.2" font-family="Times,serif" font-size="14.00">]</text>
</g>
<!-- node_2 -->
<g id="node3" class="node">
<title>node_2</title>
<polygon fill="#ececff" stroke="#9370db" stroke-width="2" points="242.88,-130.5 70.88,-130.5 70.88,-73 242.88,-73 242.88,-130.5"/>
<text text-anchor="middle" x="156.88" y="-113.2" font-family="Times,serif" font-size="14.00">add[</text>
<text text-anchor="middle" x="156.88" y="-96.7" font-family="Times,serif" font-size="14.00">FlowDiagram(async_adder),</text>
<text text-anchor="middle" x="156.88" y="-80.2" font-family="Times,serif" font-size="14.00">foreach=[x] ]</text>
</g>
<!-- node_0&#45;&gt;node_2 -->
<g id="edge1" class="edge">
<title>node_0&#45;&gt;node_2</title>
<path fill="none" stroke="black" d="M156.88,-182.66C156.88,-170.28 156.88,-155.53 156.88,-142.09"/>
<polygon fill="black" stroke="black" points="160.38,-142.22 156.88,-132.22 153.38,-142.22 160.38,-142.22"/>
<text text-anchor="middle" x="172.25" y="-151.7" font-family="Times,serif" font-size="14.00">. &#45;&gt; x</text>
</g>
<!-- node_1 -->
<g id="node2" class="node">
<title>node_1</title>
<polygon fill="#ececff" stroke="#9370db" points="183.88,-329 129.88,-329 129.88,-293 183.88,-293 183.88,-329"/>
<text text-anchor="middle" x="156.88" y="-305.95" font-family="Times,serif" font-size="14.00">Start</text>
</g>
<!-- node_1&#45;&gt;node_0 -->
<g id="edge2" class="edge">
<title>node_1&#45;&gt;node_0</title>
<path fill="none" stroke="black" d="M156.88,-292.61C156.88,-281.35 156.88,-266.2 156.88,-252.12"/>
<polygon fill="black" stroke="black" points="160.38,-252.17 156.88,-242.17 153.38,-252.17 160.38,-252.17"/>
<text text-anchor="middle" x="175.62" y="-261.7" font-family="Times,serif" font-size="14.00">. &#45;&gt; **</text>
</g>
<!-- node_3 -->
<g id="node4" class="node">
<title>node_3</title>
<polygon fill="#ececff" stroke="#9370db" points="194.12,-36 119.62,-36 119.62,0 194.12,0 194.12,-36"/>
<text text-anchor="middle" x="156.88" y="-12.95" font-family="Times,serif" font-size="14.00">End[ sort ]</text>
</g>
<!-- node_2&#45;&gt;node_3 -->
<g id="edge3" class="edge">
<title>node_2&#45;&gt;node_3</title>
<path fill="none" stroke="black" d="M156.88,-72.62C156.88,-64.64 156.88,-55.95 156.88,-47.93"/>
<polygon fill="black" stroke="black" points="160.38,-47.97 156.88,-37.97 153.38,-47.97 160.38,-47.97"/>
</g>
</g>
</svg>
