<?xml version="1.0" encoding="UTF-8" standalone="no"?>
<!DOCTYPE svg PUBLIC "-//W3C//DTD SVG 1.1//EN"
 "http://www.w3.org/Graphics/SVG/1.1/DTD/svg11.dtd">
<!-- Generated by graphviz version 12.2.1 (20241206.2353)
 -->
<!-- Title: unnamed_ports Pages: 1 -->
<svg width="137pt" height="303pt"
 viewBox="0.00 0.00 136.75 303.00" xmlns="http://www.w3.org/2000/svg" xmlns:xlink="http://www.w3.org/1999/xlink">
<g id="graph0" class="graph" transform="scale(1 1) rotate(0) translate(4 299)">
<title>unnamed_ports</title>
<polygon fill="white" stroke="none" points="-4,4 -4,-299 132.75,-299 132.75,4 -4,4"/>
<text text-anchor="middle" x="64.37" y="-277.7" font-family="Times,serif" font-size="14.00">unnamed_ports</text>
<!-- node_0 -->
<g id="node1" class="node">
<title>node_0</title>
<polygon fill="#ececff" stroke="#9370db" points="101.62,-270.5 47.62,-270.5 47.62,-234.5 101.62,-234.5 101.62,-270.5"/>
<text text-anchor="middle" x="74.62" y="-247.45" font-family="Times,serif" font-size="14.00">Start</text>
</g>
<!-- node_1 -->
<g id="node2" class="node">
<title>node_1</title>
<path fill="#ececff" stroke="#9370db" d="M75.25,-194.23C75.25,-196.03 58.39,-197.5 37.62,-197.5 16.86,-197.5 0,-196.03 0,-194.23 0,-194.23 0,-164.77 0,-164.77 0,-162.97 16.86,-161.5 37.62,-161.5 58.39,-161.5 75.25,-162.97 75.25,-164.77 75.25,-164.77 75.25,-194.23 75.25,-194.23"/>
<path fill="none" stroke="#9370db" d="M75.25,-194.23C75.25,-192.42 58.39,-190.95 37.62,-190.95 16.86,-190.95 0,-192.42 0,-194.23"/>
<text text-anchor="middle" x="37.62" y="-174.45" font-family="Times,serif" font-size="14.00">State[start]</text>
</g>
<!-- node_0&#45;&gt;node_1 -->
<g id="edge1" class="edge">
<title>node_0&#45;&gt;node_1</title>
<path fill="none" stroke="black" stroke-dasharray="5,2" d="M65.67,-234.31C61.49,-226.29 56.41,-216.55 51.73,-207.57"/>
<polygon fill="black" stroke="black" points="54.92,-206.12 47.2,-198.87 48.72,-209.36 54.92,-206.12"/>
</g>
<!-- node_2 -->
<g id="node3" class="node">
<title>node_2</title>
<polygon fill="#ececff" stroke="#9370db" points="116.75,-109 32.5,-109 32.5,-73 116.75,-73 116.75,-109"/>
<text text-anchor="middle" x="74.62" y="-85.95" font-family="Times,serif" font-size="14.00">plus[ plus1 ]</text>
</g>
<!-- node_0&#45;&gt;node_2 -->
<g id="edge3" class="edge">
<title>node_0&#45;&gt;node_2</title>
<path fill="none" stroke="black" d="M81.85,-234.36C91.05,-210.14 104.63,-164.66 94.62,-127 93.97,-124.53 93.09,-122.05 92.07,-119.61"/>
<polygon fill="black" stroke="black" points="95.22,-118.09 87.59,-110.74 88.97,-121.24 95.22,-118.09"/>
<text text-anchor="middle" x="113.37" y="-174.45" font-family="Times,serif" font-size="14.00">. &#45;&gt; _</text>
</g>
<!-- node_1&#45;&gt;node_2 -->
<g id="edge2" class="edge">
<title>node_1&#45;&gt;node_2</title>
<path fill="none" stroke="black" stroke-dasharray="5,2" d="M44.94,-161.41C50.02,-149.52 56.91,-133.41 62.78,-119.7"/>
<polygon fill="black" stroke="black" points="65.89,-121.31 66.61,-110.74 59.46,-118.56 65.89,-121.31"/>
<text text-anchor="middle" x="74.81" y="-130.2" font-family="Times,serif" font-size="14.00">. &#45;&gt; x</text>
</g>
<!-- node_3 -->
<g id="node4" class="node">
<title>node_3</title>
<polygon fill="#ececff" stroke="#9370db" points="101.62,-36 47.62,-36 47.62,0 101.62,0 101.62,-36"/>
<text text-anchor="middle" x="74.62" y="-12.95" font-family="Times,serif" font-size="14.00">End</text>
</g>
<!-- node_2&#45;&gt;node_3 -->
<g id="edge4" class="edge">
<title>node_2&#45;&gt;node_3</title>
<path fill="none" stroke="black" d="M74.62,-72.81C74.62,-65.23 74.62,-56.1 74.62,-47.54"/>
<polygon fill="black" stroke="black" points="78.13,-47.54 74.63,-37.54 71.13,-47.54 78.13,-47.54"/>
</g>
</g>
</svg>
