<?xml version="1.0" encoding="UTF-8" standalone="no"?>
<!DOCTYPE svg PUBLIC "-//W3C//DTD SVG 1.1//EN"
 "http://www.w3.org/Graphics/SVG/1.1/DTD/svg11.dtd">
<!-- Generated by graphviz version 12.2.1 (20241206.2353)
 -->
<!-- Title: paralell with choice Pages: 1 -->
<svg width="414pt" height="434pt"
 viewBox="0.00 0.00 414.02 433.50" xmlns="http://www.w3.org/2000/svg" xmlns:xlink="http://www.w3.org/1999/xlink">
<g id="graph0" class="graph" transform="scale(1 1) rotate(0) translate(4 429.5)">
<title>paralell with choice</title>
<polygon fill="white" stroke="none" points="-4,4 -4,-429.5 410.02,-429.5 410.02,4 -4,4"/>
<text text-anchor="middle" x="203.01" y="-408.2" font-family="Times,serif" font-size="14.00">paralell with choice</text>
<!-- node_0 -->
<g id="node1" class="node">
<title>node_0</title>
<polygon fill="#ececff" stroke="#9370db" points="290.88,-312.5 169.12,-312.5 169.12,-271.5 290.88,-271.5 290.88,-312.5"/>
<text text-anchor="middle" x="230" y="-295.2" font-family="Times,serif" font-size="14.00">add1[</text>
<text text-anchor="middle" x="230" y="-278.7" font-family="Times,serif" font-size="14.00">MessageAdder(1) ]</text>
</g>
<!-- node_2 -->
<g id="node3" class="node">
<title>node_2</title>
<polygon fill="#ececff" stroke="#9370db" points="142,-210.75 0,-210.75 0,-169.75 142,-169.75 142,-210.75"/>
<text text-anchor="middle" x="71" y="-193.45" font-family="Times,serif" font-size="14.00">add10[</text>
<text text-anchor="middle" x="71" y="-176.95" font-family="Times,serif" font-size="14.00">FlowDiagram(add10) ]</text>
</g>
<!-- node_0&#45;&gt;node_2 -->
<g id="edge1" class="edge">
<title>node_0&#45;&gt;node_2</title>
<path fill="none" stroke="black" d="M198.21,-271.05C173.51,-255.56 139.06,-233.95 112.24,-217.12"/>
<polygon fill="black" stroke="black" points="114.35,-214.32 104.02,-211.97 110.63,-220.25 114.35,-214.32"/>
<text text-anchor="middle" x="188.17" y="-240.2" font-family="Times,serif" font-size="14.00">. &#45;&gt; **</text>
</g>
<!-- node_3 -->
<g id="node4" class="node">
<title>node_3</title>
<polygon fill="#ececff" stroke="#9370db" points="300.25,-219 159.75,-219 159.75,-161.5 300.25,-161.5 300.25,-219"/>
<text text-anchor="middle" x="230" y="-201.7" font-family="Times,serif" font-size="14.00">add100[</text>
<text text-anchor="middle" x="230" y="-185.2" font-family="Times,serif" font-size="14.00">FlowDiagram(add100)</text>
<text text-anchor="middle" x="230" y="-168.7" font-family="Times,serif" font-size="14.00">]</text>
</g>
<!-- node_0&#45;&gt;node_3 -->
<g id="edge2" class="edge">
<title>node_0&#45;&gt;node_3</title>
<path fill="none" stroke="black" d="M230,-271.29C230,-259.67 230,-244.55 230,-230.58"/>
<polygon fill="black" stroke="black" points="233.5,-230.74 230,-220.74 226.5,-230.74 233.5,-230.74"/>
<text text-anchor="middle" x="248.75" y="-240.2" font-family="Times,serif" font-size="14.00">. &#45;&gt; **</text>
</g>
<!-- node_1 -->
<g id="node2" class="node">
<title>node_1</title>
<polygon fill="#ececff" stroke="#9370db" points="257,-401 203,-401 203,-365 257,-365 257,-401"/>
<text text-anchor="middle" x="230" y="-377.95" font-family="Times,serif" font-size="14.00">Start</text>
</g>
<!-- node_1&#45;&gt;node_0 -->
<g id="edge3" class="edge">
<title>node_1&#45;&gt;node_0</title>
<path fill="none" stroke="blue" stroke-width="2" d="M230,-364.84C230,-353.35 230,-337.9 230,-324.27"/>
<polygon fill="blue" stroke="blue" stroke-width="2" points="233.5,-325.93 230,-315.93 226.5,-325.93 233.5,-325.93"/>
<text text-anchor="middle" x="248.75" y="-333.7" font-family="Times,serif" font-size="14.00">. &#45;&gt; **</text>
</g>
<!-- node_4 -->
<g id="node5" class="node">
<title>node_4</title>
<polygon fill="#ececff" stroke="#9370db" points="294.62,-109 165.38,-109 165.38,-73 294.62,-73 294.62,-109"/>
<text text-anchor="middle" x="230" y="-85.95" font-family="Times,serif" font-size="14.00">sum[ MessageSum ]</text>
</g>
<!-- node_2&#45;&gt;node_4 -->
<g id="edge4" class="edge">
<title>node_2&#45;&gt;node_4</title>
<path fill="none" stroke="black" d="M103.56,-169.34C129.21,-153.65 165.02,-131.74 191.98,-115.25"/>
<polygon fill="black" stroke="black" points="193.49,-118.44 200.19,-110.23 189.83,-112.46 193.49,-118.44"/>
<text text-anchor="middle" x="184.79" y="-130.2" font-family="Times,serif" font-size="14.00">. &#45;&gt; y</text>
</g>
<!-- node_3&#45;&gt;node_4 -->
<g id="edge5" class="edge">
<title>node_3&#45;&gt;node_4</title>
<path fill="none" stroke="black" d="M230,-161.12C230,-148.45 230,-133.51 230,-120.77"/>
<polygon fill="black" stroke="black" points="233.5,-120.88 230,-110.88 226.5,-120.88 233.5,-120.88"/>
<text text-anchor="middle" x="245.38" y="-130.2" font-family="Times,serif" font-size="14.00">. &#45;&gt; x</text>
</g>
<!-- node_4&#45;&gt;node_0 -->
<g id="edge7" class="edge">
<title>node_4&#45;&gt;node_0</title>
<path fill="none" stroke="blue" stroke-width="2" d="M260.25,-109.38C278.06,-121.47 298.99,-139.36 309,-161.5 319.53,-184.79 319.19,-195.56 309,-219 301.22,-236.9 286.5,-252.24 271.85,-264.11"/>
<polygon fill="blue" stroke="blue" stroke-width="2" points="271.02,-260.34 265.21,-269.2 275.27,-265.9 271.02,-260.34"/>
<text text-anchor="middle" x="361.39" y="-185.2" font-family="Times,serif" font-size="14.00">?(is112): . &#45;&gt; **</text>
</g>
<!-- node_5 -->
<g id="node6" class="node">
<title>node_5</title>
<polygon fill="#ececff" stroke="#9370db" points="257,-36 203,-36 203,0 257,0 257,-36"/>
<text text-anchor="middle" x="230" y="-12.95" font-family="Times,serif" font-size="14.00">End</text>
</g>
<!-- node_4&#45;&gt;node_5 -->
<g id="edge6" class="edge">
<title>node_4&#45;&gt;node_5</title>
<path fill="none" stroke="blue" stroke-width="2" d="M230,-72.81C230,-65.23 230,-56.1 230,-47.54"/>
<polygon fill="blue" stroke="blue" stroke-width="2" points="233.5,-49.06 230,-39.06 226.5,-49.06 233.5,-49.06"/>
</g>
</g>
</svg>
