<?xml version="1.0" encoding="UTF-8" standalone="no"?>
<!DOCTYPE svg PUBLIC "-//W3C//DTD SVG 1.1//EN"
 "http://www.w3.org/Graphics/SVG/1.1/DTD/svg11.dtd">
<!-- Generated by graphviz version 12.2.1 (20241206.2353)
 -->
<!-- Title: choosing_tools Pages: 1 -->
<svg width="399pt" height="635pt"
 viewBox="0.00 0.00 398.88 635.00" xmlns="http://www.w3.org/2000/svg" xmlns:xlink="http://www.w3.org/1999/xlink">
<g id="graph0" class="graph" transform="scale(1 1) rotate(0) translate(4 631)">
<title>choosing_tools</title>
<polygon fill="white" stroke="none" points="-4,4 -4,-631 394.88,-631 394.88,4 -4,4"/>
<text text-anchor="middle" x="195.44" y="-609.7" font-family="Times,serif" font-size="14.00">choosing_tools</text>
<!-- node_0 -->
<g id="node1" class="node">
<title>node_0</title>
<polygon fill="#ececff" stroke="#9370db" points="169.62,-602.5 115.62,-602.5 115.62,-566.5 169.62,-566.5 169.62,-602.5"/>
<text text-anchor="middle" x="142.62" y="-579.45" font-family="Times,serif" font-size="14.00">Start</text>
</g>
<!-- node_1 -->
<g id="node2" class="node">
<title>node_1</title>
<polygon fill="#ececff" stroke="#9370db" points="203.5,-514 81.75,-514 81.75,-473 203.5,-473 203.5,-514"/>
<text text-anchor="middle" x="142.62" y="-496.7" font-family="Times,serif" font-size="14.00">add1[</text>
<text text-anchor="middle" x="142.62" y="-480.2" font-family="Times,serif" font-size="14.00">MessageAdder(1) ]</text>
</g>
<!-- node_0&#45;&gt;node_1 -->
<g id="edge5" class="edge">
<title>node_0&#45;&gt;node_1</title>
<path fill="none" stroke="blue" stroke-width="2" d="M142.62,-566.34C142.62,-554.85 142.62,-539.4 142.62,-525.77"/>
<polygon fill="blue" stroke="blue" stroke-width="2" points="146.13,-527.43 142.63,-517.43 139.13,-527.43 146.13,-527.43"/>
<text text-anchor="middle" x="161.38" y="-535.2" font-family="Times,serif" font-size="14.00">. &#45;&gt; **</text>
</g>
<!-- node_2 -->
<g id="node3" class="node">
<title>node_2</title>
<path fill="#ececff" stroke="#9370db" d="M87.25,-341.73C87.25,-343.53 67.7,-345 43.62,-345 19.55,-345 0,-343.53 0,-341.73 0,-341.73 0,-312.27 0,-312.27 0,-310.47 19.55,-309 43.62,-309 67.7,-309 87.25,-310.47 87.25,-312.27 87.25,-312.27 87.25,-341.73 87.25,-341.73"/>
<path fill="none" stroke="#9370db" d="M87.25,-341.73C87.25,-339.92 67.7,-338.45 43.62,-338.45 19.55,-338.45 0,-339.92 0,-341.73"/>
<text text-anchor="middle" x="43.62" y="-321.95" font-family="Times,serif" font-size="14.00">State[mem1]</text>
</g>
<!-- node_1&#45;&gt;node_2 -->
<g id="edge1" class="edge">
<title>node_1&#45;&gt;node_2</title>
<path fill="none" stroke="black" stroke-dasharray="5,2" d="M130.68,-472.66C112.97,-443.23 79.7,-387.95 59.81,-354.9"/>
<polygon fill="black" stroke="black" points="63.04,-353.47 54.88,-346.71 57.04,-357.08 63.04,-353.47"/>
</g>
<!-- node_3 -->
<g id="node4" class="node">
<title>node_3</title>
<polygon fill="#ececff" stroke="#9370db" points="296.38,-420.5 110.88,-420.5 110.88,-363 296.38,-363 296.38,-420.5"/>
<text text-anchor="middle" x="203.62" y="-403.2" font-family="Times,serif" font-size="14.00">choose_action[</text>
<text text-anchor="middle" x="203.62" y="-386.7" font-family="Times,serif" font-size="14.00">CycleOptions(1,10,1,10,finish)</text>
<text text-anchor="middle" x="203.62" y="-370.2" font-family="Times,serif" font-size="14.00">]</text>
</g>
<!-- node_1&#45;&gt;node_3 -->
<g id="edge6" class="edge">
<title>node_1&#45;&gt;node_3</title>
<path fill="none" stroke="blue" stroke-width="2" d="M139.22,-472.76C138.32,-462.06 138.8,-448.94 144.12,-438.5 145.73,-435.35 147.66,-432.36 149.84,-429.52"/>
<polygon fill="blue" stroke="blue" stroke-width="2" points="151.4,-433.02 155.47,-423.24 146.19,-428.35 151.4,-433.02"/>
<text text-anchor="middle" x="162.88" y="-441.7" font-family="Times,serif" font-size="14.00">. &#45;&gt; **</text>
</g>
<!-- node_6 -->
<g id="node7" class="node">
<title>node_6</title>
<polygon fill="#ececff" stroke="#9370db" points="200.75,-109 134.5,-109 134.5,-73 200.75,-73 200.75,-109"/>
<text text-anchor="middle" x="167.62" y="-85.95" font-family="Times,serif" font-size="14.00">prep_end</text>
</g>
<!-- node_2&#45;&gt;node_6 -->
<g id="edge3" class="edge">
<title>node_2&#45;&gt;node_6</title>
<path fill="none" stroke="black" stroke-dasharray="5,2" d="M48.88,-308.91C58.73,-278.16 81.68,-212.01 111.62,-161.5 120.78,-146.05 133.12,-130.35 143.89,-117.79"/>
<polygon fill="black" stroke="black" points="146.42,-120.21 150.38,-110.38 141.16,-115.59 146.42,-120.21"/>
<text text-anchor="middle" x="107.91" y="-218.7" font-family="Times,serif" font-size="14.00">. &#45;&gt; ones</text>
</g>
<!-- node_3&#45;&gt;node_1 -->
<g id="edge7" class="edge">
<title>node_3&#45;&gt;node_1</title>
<path fill="none" stroke="blue" stroke-width="2" d="M196.69,-420.99C193.2,-432.12 188.27,-444.69 181.62,-455 179.53,-458.26 177.09,-461.44 174.48,-464.48"/>
<polygon fill="blue" stroke="blue" stroke-width="2" points="173.18,-460.76 168.88,-470.45 178.28,-465.56 173.18,-460.76"/>
<text text-anchor="middle" x="227.89" y="-441.7" font-family="Times,serif" font-size="14.00">?(is1): . &#45;&gt; **</text>
</g>
<!-- node_4 -->
<g id="node5" class="node">
<title>node_4</title>
<polygon fill="#ececff" stroke="#9370db" points="231.88,-291 103.38,-291 103.38,-250 231.88,-250 231.88,-291"/>
<text text-anchor="middle" x="167.62" y="-273.7" font-family="Times,serif" font-size="14.00">add10[</text>
<text text-anchor="middle" x="167.62" y="-257.2" font-family="Times,serif" font-size="14.00">MessageAdder(10) ]</text>
</g>
<!-- node_3&#45;&gt;node_4 -->
<g id="edge8" class="edge">
<title>node_3&#45;&gt;node_4</title>
<path fill="none" stroke="blue" stroke-width="2" d="M128.18,-362.6C121.88,-357.62 116.33,-351.8 112.12,-345 103.71,-331.39 104.62,-323.13 112.12,-309 114.01,-305.45 116.4,-302.18 119.12,-299.17"/>
<polygon fill="blue" stroke="blue" stroke-width="2" points="120.34,-302.81 125.3,-293.44 115.58,-297.67 120.34,-302.81"/>
<text text-anchor="middle" x="153.38" y="-321.95" font-family="Times,serif" font-size="14.00">?(is10): . &#45;&gt; **</text>
</g>
<!-- node_3&#45;&gt;node_6 -->
<g id="edge9" class="edge">
<title>node_3&#45;&gt;node_6</title>
<path fill="none" stroke="blue" stroke-width="2" d="M233.57,-362.56C237.68,-357.15 241.29,-351.22 243.62,-345 262.67,-294.28 325.43,-263.98 237.62,-127 231.41,-117.31 221.64,-110.19 211.35,-105.02"/>
<polygon fill="blue" stroke="blue" stroke-width="2" points="214.33,-102.51 203.76,-101.68 211.51,-108.91 214.33,-102.51"/>
<text text-anchor="middle" x="336.51" y="-218.7" font-family="Times,serif" font-size="14.00">content &#45;&gt; final_out</text>
</g>
<!-- node_4&#45;&gt;node_3 -->
<g id="edge10" class="edge">
<title>node_4&#45;&gt;node_3</title>
<path fill="none" stroke="blue" stroke-width="2" d="M184.82,-291.41C188.65,-296.81 192.27,-302.86 194.62,-309 199.75,-322.33 202.24,-337.72 203.38,-351.52"/>
<polygon fill="blue" stroke="blue" stroke-width="2" points="199.77,-349.87 203.86,-359.65 206.76,-349.46 199.77,-349.87"/>
<text text-anchor="middle" x="221.37" y="-321.95" font-family="Times,serif" font-size="14.00">. &#45;&gt; **</text>
</g>
<!-- node_5 -->
<g id="node6" class="node">
<title>node_5</title>
<path fill="#ececff" stroke="#9370db" d="M214.62,-194.23C214.62,-196.03 193.56,-197.5 167.62,-197.5 141.69,-197.5 120.62,-196.03 120.62,-194.23 120.62,-194.23 120.62,-164.77 120.62,-164.77 120.62,-162.97 141.69,-161.5 167.62,-161.5 193.56,-161.5 214.62,-162.97 214.62,-164.77 214.62,-164.77 214.62,-194.23 214.62,-194.23"/>
<path fill="none" stroke="#9370db" d="M214.62,-194.23C214.62,-192.42 193.56,-190.95 167.62,-190.95 141.69,-190.95 120.62,-192.42 120.62,-194.23"/>
<text text-anchor="middle" x="167.62" y="-174.45" font-family="Times,serif" font-size="14.00">State[mem10]</text>
</g>
<!-- node_4&#45;&gt;node_5 -->
<g id="edge2" class="edge">
<title>node_4&#45;&gt;node_5</title>
<path fill="none" stroke="black" stroke-dasharray="5,2" d="M167.62,-249.75C167.62,-237.83 167.62,-222.44 167.62,-209.19"/>
<polygon fill="black" stroke="black" points="171.13,-209.31 167.63,-199.31 164.13,-209.31 171.13,-209.31"/>
</g>
<!-- node_5&#45;&gt;node_6 -->
<g id="edge4" class="edge">
<title>node_5&#45;&gt;node_6</title>
<path fill="none" stroke="black" stroke-dasharray="5,2" d="M167.62,-161.41C167.62,-149.76 167.62,-134.05 167.62,-120.52"/>
<polygon fill="black" stroke="black" points="171.13,-120.86 167.63,-110.86 164.13,-120.86 171.13,-120.86"/>
<text text-anchor="middle" x="200.62" y="-130.2" font-family="Times,serif" font-size="14.00">. &#45;&gt; last_ten</text>
</g>
<!-- node_7 -->
<g id="node8" class="node">
<title>node_7</title>
<polygon fill="#ececff" stroke="#9370db" points="194.62,-36 140.62,-36 140.62,0 194.62,0 194.62,-36"/>
<text text-anchor="middle" x="167.62" y="-12.95" font-family="Times,serif" font-size="14.00">End</text>
</g>
<!-- node_6&#45;&gt;node_7 -->
<g id="edge11" class="edge">
<title>node_6&#45;&gt;node_7</title>
<path fill="none" stroke="blue" stroke-width="2" d="M167.62,-72.81C167.62,-65.23 167.62,-56.1 167.62,-47.54"/>
<polygon fill="blue" stroke="blue" stroke-width="2" points="171.13,-49.06 167.63,-39.06 164.13,-49.06 171.13,-49.06"/>
</g>
</g>
</svg>
