<?xml version="1.0" encoding="UTF-8" standalone="no"?>
<!DOCTYPE svg PUBLIC "-//W3C//DTD SVG 1.1//EN"
 "http://www.w3.org/Graphics/SVG/1.1/DTD/svg11.dtd">
<!-- Generated by graphviz version 12.2.1 (20241206.2353)
 -->
<!-- Title: selfLoop Pages: 1 -->
<svg width="247pt" height="251pt"
 viewBox="0.00 0.00 247.25 250.50" xmlns="http://www.w3.org/2000/svg" xmlns:xlink="http://www.w3.org/1999/xlink">
<g id="graph0" class="graph" transform="scale(1 1) rotate(0) translate(4 246.5)">
<title>selfLoop</title>
<polygon fill="white" stroke="none" points="-4,4 -4,-246.5 243.25,-246.5 243.25,4 -4,4"/>
<text text-anchor="middle" x="119.62" y="-225.2" font-family="Times,serif" font-size="14.00">selfLoop</text>
<!-- node_0 -->
<g id="node1" class="node">
<title>node_0</title>
<polygon fill="#ececff" stroke="#9370db" points="110.5,-218 0,-218 0,-182 110.5,-182 110.5,-218"/>
<text text-anchor="middle" x="55.25" y="-194.95" font-family="Times,serif" font-size="14.00">too_big[ zeroup ]</text>
</g>
<!-- node_1 -->
<g id="node2" class="node">
<title>node_1</title>
<polygon fill="#ececff" stroke="#9370db" points="146.12,-129.5 24.37,-129.5 24.37,-88.5 146.12,-88.5 146.12,-129.5"/>
<text text-anchor="middle" x="85.25" y="-112.2" font-family="Times,serif" font-size="14.00">adder[</text>
<text text-anchor="middle" x="85.25" y="-95.7" font-family="Times,serif" font-size="14.00">MessageAdder(4) ]</text>
</g>
<!-- node_0&#45;&gt;node_1 -->
<g id="edge1" class="edge">
<title>node_0&#45;&gt;node_1</title>
<path fill="none" stroke="blue" stroke-width="2" d="M35.72,-181.91C26.75,-171.92 19.38,-159.05 25.75,-147.5 27.79,-143.81 30.36,-140.43 33.28,-137.35"/>
<polygon fill="blue" stroke="blue" stroke-width="2" points="34.29,-141.13 39.45,-131.88 29.64,-135.89 34.29,-141.13"/>
<text text-anchor="middle" x="44.5" y="-150.7" font-family="Times,serif" font-size="14.00">. &#45;&gt; **</text>
</g>
<!-- node_1&#45;&gt;node_0 -->
<g id="edge3" class="edge">
<title>node_1&#45;&gt;node_0</title>
<path fill="none" stroke="blue" stroke-width="2" d="M78.54,-129.9C74.43,-142.09 69.11,-157.87 64.6,-171.27"/>
<polygon fill="blue" stroke="blue" stroke-width="2" points="61.88,-168.38 62,-178.97 68.51,-170.61 61.88,-168.38"/>
<text text-anchor="middle" x="123.8" y="-150.7" font-family="Times,serif" font-size="14.00">?(istoobig): . &#45;&gt; **</text>
</g>
<!-- node_1&#45;&gt;node_1 -->
<g id="edge4" class="edge">
<title>node_1&#45;&gt;node_1</title>
<path fill="none" stroke="blue" stroke-width="2" d="M146.43,-117.18C156.88,-116.06 164.12,-113.34 164.12,-109 164.12,-106.49 161.7,-104.52 157.64,-103.09"/>
<polygon fill="blue" stroke="blue" stroke-width="2" points="159.89,-99.98 149.4,-101.42 158.5,-106.84 159.89,-99.98"/>
<text text-anchor="middle" x="182.88" y="-103.95" font-family="Times,serif" font-size="14.00">. &#45;&gt; **</text>
</g>
<!-- node_3 -->
<g id="node4" class="node">
<title>node_3</title>
<polygon fill="#ececff" stroke="#9370db" points="112.25,-36 58.25,-36 58.25,0 112.25,0 112.25,-36"/>
<text text-anchor="middle" x="85.25" y="-12.95" font-family="Times,serif" font-size="14.00">End</text>
</g>
<!-- node_1&#45;&gt;node_3 -->
<g id="edge2" class="edge">
<title>node_1&#45;&gt;node_3</title>
<path fill="none" stroke="blue" stroke-width="2" d="M85.25,-88.25C85.25,-76.33 85.25,-60.94 85.25,-47.69"/>
<polygon fill="blue" stroke="blue" stroke-width="2" points="88.75,-49.32 85.25,-39.32 81.75,-49.32 88.75,-49.32"/>
<text text-anchor="middle" x="104" y="-57.2" font-family="Times,serif" font-size="14.00">?(is12)</text>
</g>
<!-- node_2 -->
<g id="node3" class="node">
<title>node_2</title>
<polygon fill="#ececff" stroke="#9370db" points="239.25,-218 185.25,-218 185.25,-182 239.25,-182 239.25,-218"/>
<text text-anchor="middle" x="212.25" y="-194.95" font-family="Times,serif" font-size="14.00">Start</text>
</g>
<!-- node_2&#45;&gt;node_1 -->
<g id="edge5" class="edge">
<title>node_2&#45;&gt;node_1</title>
<path fill="none" stroke="blue" stroke-width="2" d="M204.64,-181.72C199,-170.66 190.39,-156.7 179.25,-147.5 172.49,-141.91 164.79,-137.08 156.77,-132.92"/>
<polygon fill="blue" stroke="blue" stroke-width="2" points="159.76,-130.47 149.23,-129.31 156.74,-136.78 159.76,-130.47"/>
<text text-anchor="middle" x="212.49" y="-150.7" font-family="Times,serif" font-size="14.00">. &#45;&gt; **</text>
</g>
</g>
</svg>
