<?xml version="1.0" encoding="UTF-8" standalone="no"?>
<!DOCTYPE svg PUBLIC "-//W3C//DTD SVG 1.1//EN"
 "http://www.w3.org/Graphics/SVG/1.1/DTD/svg11.dtd">
<!-- Generated by graphviz version 12.2.1 (20241206.2353)
 -->
<!-- Title: test_d Pages: 1 -->
<svg width="290pt" height="251pt"
 viewBox="0.00 0.00 289.50 250.50" xmlns="http://www.w3.org/2000/svg" xmlns:xlink="http://www.w3.org/1999/xlink">
<g id="graph0" class="graph" transform="scale(1 1) rotate(0) translate(4 246.5)">
<title>test_d</title>
<polygon fill="white" stroke="none" points="-4,4 -4,-246.5 285.5,-246.5 285.5,4 -4,4"/>
<text text-anchor="middle" x="140.75" y="-225.2" font-family="Times,serif" font-size="14.00">test_d</text>
<!-- node_0 -->
<g id="node1" class="node">
<title>node_0</title>
<polygon fill="#ececff" stroke="#9370db" stroke-dasharray="5,2" points="63.25,-127 0,-127 0,-91 63.25,-91 63.25,-127"/>
<text text-anchor="middle" x="31.62" y="-103.95" font-family="Times,serif" font-size="14.00">process4</text>
</g>
<!-- node_2 -->
<g id="node3" class="node">
<title>node_2</title>
<polygon fill="#ececff" stroke="#9370db" points="132.62,-36 78.62,-36 78.62,0 132.62,0 132.62,-36"/>
<text text-anchor="middle" x="105.62" y="-12.95" font-family="Times,serif" font-size="14.00">End</text>
</g>
<!-- node_0&#45;&gt;node_2 -->
<g id="edge1" class="edge">
<title>node_0&#45;&gt;node_2</title>
<path fill="none" stroke="blue" stroke-width="2" d="M45.89,-90.84C56.67,-77.87 71.66,-59.85 83.93,-45.1"/>
<polygon fill="blue" stroke="blue" stroke-width="2" points="85.51,-48.67 89.21,-38.74 80.13,-44.19 85.51,-48.67"/>
<text text-anchor="middle" x="95.13" y="-57.2" font-family="Times,serif" font-size="14.00">a &#45;&gt; **</text>
</g>
<!-- node_1 -->
<g id="node2" class="node">
<title>node_1</title>
<polygon fill="#ececff" stroke="#9370db" points="132.62,-218 78.62,-218 78.62,-182 132.62,-182 132.62,-218"/>
<text text-anchor="middle" x="105.62" y="-194.95" font-family="Times,serif" font-size="14.00">Start</text>
</g>
<!-- node_1&#45;&gt;node_0 -->
<g id="edge2" class="edge">
<title>node_1&#45;&gt;node_0</title>
<path fill="none" stroke="blue" stroke-width="2" d="M91.36,-181.84C80.58,-168.87 65.59,-150.85 53.32,-136.1"/>
<polygon fill="blue" stroke="blue" stroke-width="2" points="57.12,-135.19 48.04,-129.74 51.74,-139.67 57.12,-135.19"/>
</g>
<!-- node_3 -->
<g id="node4" class="node">
<title>node_3</title>
<polygon fill="#ececff" stroke="#9370db" points="281.5,-129.5 81.75,-129.5 81.75,-88.5 281.5,-88.5 281.5,-129.5"/>
<text text-anchor="middle" x="181.62" y="-112.2" font-family="Times,serif" font-size="14.00">anon_from_process1_to_identity[</text>
<text text-anchor="middle" x="181.62" y="-95.7" font-family="Times,serif" font-size="14.00">FlowDiagram ]</text>
</g>
<!-- node_1&#45;&gt;node_3 -->
<g id="edge3" class="edge">
<title>node_1&#45;&gt;node_3</title>
<path fill="none" stroke="blue" stroke-width="2" d="M120.28,-181.84C130.78,-169.54 145.17,-152.69 157.37,-138.41"/>
<polygon fill="blue" stroke="blue" stroke-width="2" points="158.83,-142.08 162.66,-132.21 153.51,-137.54 158.83,-142.08"/>
<text text-anchor="middle" x="176.3" y="-150.7" font-family="Times,serif" font-size="14.00">?(is_even)</text>
</g>
<!-- node_3&#45;&gt;node_2 -->
<g id="edge4" class="edge">
<title>node_3&#45;&gt;node_2</title>
<path fill="none" stroke="blue" stroke-width="2" d="M164.76,-88.25C153.85,-75.48 139.54,-58.72 127.73,-44.89"/>
<polygon fill="blue" stroke="blue" stroke-width="2" points="131.51,-43.93 122.36,-38.59 126.19,-48.47 131.51,-43.93"/>
<text text-anchor="middle" x="166.93" y="-57.2" font-family="Times,serif" font-size="14.00">. &#45;&gt; **</text>
</g>
</g>
</svg>
