<?xml version="1.0" encoding="UTF-8" standalone="no"?>
<!DOCTYPE svg PUBLIC "-//W3C//DTD SVG 1.1//EN"
 "http://www.w3.org/Graphics/SVG/1.1/DTD/svg11.dtd">
<!-- Generated by graphviz version 12.2.1 (20241206.2353)
 -->
<!-- Pages: 1 -->
<svg width="348pt" height="269pt"
 viewBox="0.00 0.00 348.28 269.00" xmlns="http://www.w3.org/2000/svg" xmlns:xlink="http://www.w3.org/1999/xlink">
<g id="graph0" class="graph" transform="scale(1 1) rotate(0) translate(4 265)">
<polygon fill="white" stroke="none" points="-4,4 -4,-265 344.28,-265 344.28,4 -4,4"/>
<!-- add1 -->
<g id="node1" class="node">
<title>add1</title>
<polygon fill="#ececff" stroke="#9370db" points="180.12,-261 82.38,-261 82.38,-220 180.12,-220 180.12,-261"/>
<text text-anchor="middle" x="131.25" y="-243.7" font-family="Times,serif" font-size="14.00">add1</text>
<text text-anchor="middle" x="131.25" y="-227.2" font-family="Times,serif" font-size="14.00">func=Adder(1)</text>
</g>
<!-- add10 -->
<g id="node2" class="node">
<title>add10</title>
<polygon fill="#ececff" stroke="#9370db" points="104.5,-151 0,-151 0,-110 104.5,-110 104.5,-151"/>
<text text-anchor="middle" x="52.25" y="-133.7" font-family="Times,serif" font-size="14.00">add10</text>
<text text-anchor="middle" x="52.25" y="-117.2" font-family="Times,serif" font-size="14.00">func=Adder(10)</text>
</g>
<!-- add1&#45;&gt;add10 -->
<g id="edge1" class="edge">
<title>add1&#45;&gt;add10</title>
<path fill="none" stroke="black" d="M81.91,-225.62C70.74,-220.1 60.21,-212.48 53.5,-202 46.17,-190.56 44.96,-175.78 45.95,-162.71"/>
<polygon fill="black" stroke="black" points="49.41,-163.19 47.17,-152.84 42.47,-162.34 49.41,-163.19"/>
<text text-anchor="middle" x="121.38" y="-188.7" font-family="Times,serif" font-size="14.00">type=DiagramType.flow</text>
<text text-anchor="middle" x="121.38" y="-172.2" font-family="Times,serif" font-size="14.00">mapping={0: (&#39;.&#39;,)}</text>
</g>
<!-- add100 -->
<g id="node3" class="node">
<title>add100</title>
<polygon fill="#ececff" stroke="#9370db" points="266.88,-151 155.62,-151 155.62,-110 266.88,-110 266.88,-151"/>
<text text-anchor="middle" x="211.25" y="-133.7" font-family="Times,serif" font-size="14.00">add100</text>
<text text-anchor="middle" x="211.25" y="-117.2" font-family="Times,serif" font-size="14.00">func=Adder(100)</text>
</g>
<!-- add1&#45;&gt;add100 -->
<g id="edge2" class="edge">
<title>add1&#45;&gt;add100</title>
<path fill="none" stroke="black" d="M170.27,-219.67C177.35,-214.68 184.1,-208.78 189.25,-202 197.95,-190.55 203.25,-175.6 206.46,-162.42"/>
<polygon fill="black" stroke="black" points="209.83,-163.41 208.46,-152.9 202.98,-161.97 209.83,-163.41"/>
<text text-anchor="middle" x="272.41" y="-188.7" font-family="Times,serif" font-size="14.00">type=DiagramType.flow</text>
<text text-anchor="middle" x="272.41" y="-172.2" font-family="Times,serif" font-size="14.00">mapping={0: (&#39;.&#39;,)}</text>
</g>
<!-- sum -->
<g id="node4" class="node">
<title>sum</title>
<polygon fill="#ececff" stroke="#9370db" points="167,-41 95.5,-41 95.5,0 167,0 167,-41"/>
<text text-anchor="middle" x="131.25" y="-23.7" font-family="Times,serif" font-size="14.00">sum</text>
<text text-anchor="middle" x="131.25" y="-7.2" font-family="Times,serif" font-size="14.00">func=sum</text>
</g>
<!-- add10&#45;&gt;sum -->
<g id="edge3" class="edge">
<title>add10&#45;&gt;sum</title>
<path fill="none" stroke="black" d="M47.35,-109.66C44.8,-94.58 43.93,-73.95 53.5,-59 60.82,-47.56 72.71,-39.52 85,-33.91"/>
<polygon fill="black" stroke="black" points="85.97,-37.3 93.93,-30.31 83.35,-30.8 85.97,-37.3"/>
<text text-anchor="middle" x="121.38" y="-78.7" font-family="Times,serif" font-size="14.00">type=DiagramType.flow</text>
<text text-anchor="middle" x="121.38" y="-62.2" font-family="Times,serif" font-size="14.00">mapping={&#39;y&#39;: (&#39;.&#39;,)}</text>
</g>
<!-- add100&#45;&gt;sum -->
<g id="edge4" class="edge">
<title>add100&#45;&gt;sum</title>
<path fill="none" stroke="black" d="M208.77,-109.58C206.06,-94.46 200.5,-73.8 189.25,-59 185.58,-54.17 181.09,-49.78 176.25,-45.85"/>
<polygon fill="black" stroke="black" points="178.63,-43.25 168.49,-40.16 174.49,-48.9 178.63,-43.25"/>
<text text-anchor="middle" x="272.41" y="-78.7" font-family="Times,serif" font-size="14.00">type=DiagramType.flow</text>
<text text-anchor="middle" x="272.41" y="-62.2" font-family="Times,serif" font-size="14.00">mapping={&#39;x&#39;: (&#39;.&#39;,)}</text>
</g>
</g>
</svg>
