<?xml version="1.0" encoding="UTF-8" standalone="no"?>
<!DOCTYPE svg PUBLIC "-//W3C//DTD SVG 1.1//EN"
 "http://www.w3.org/Graphics/SVG/1.1/DTD/svg11.dtd">
<!-- Generated by graphviz version 12.2.1 (20241206.2353)
 -->
<!-- Title: paralell with choice Pages: 1 -->
<svg width="343pt" height="392pt"
 viewBox="0.00 0.00 342.62 391.50" xmlns="http://www.w3.org/2000/svg" xmlns:xlink="http://www.w3.org/1999/xlink">
<g id="graph0" class="graph" transform="scale(1 1) rotate(0) translate(4 387.5)">
<title>paralell with choice</title>
<polygon fill="white" stroke="none" points="-4,4 -4,-387.5 338.62,-387.5 338.62,4 -4,4"/>
<text text-anchor="middle" x="167.31" y="-366.2" font-family="Times,serif" font-size="14.00">paralell with choice</text>
<!-- node_0 -->
<g id="node1" class="node">
<title>node_0</title>
<polygon fill="#ececff" stroke="#9370db" points="260.25,-286 152.75,-286 152.75,-250 260.25,-250 260.25,-286"/>
<text text-anchor="middle" x="206.5" y="-262.95" font-family="Times,serif" font-size="14.00">add1[ Adder(1) ]</text>
</g>
<!-- node_2 -->
<g id="node3" class="node">
<title>node_2</title>
<polygon fill="#ececff" stroke="#9370db" points="121,-213 0,-213 0,-177 121,-177 121,-213"/>
<text text-anchor="middle" x="60.5" y="-189.95" font-family="Times,serif" font-size="14.00">add10[ Adder(10) ]</text>
</g>
<!-- node_0&#45;&gt;node_2 -->
<g id="edge1" class="edge">
<title>node_0&#45;&gt;node_2</title>
<path fill="none" stroke="black" d="M170.78,-249.63C151.43,-240.22 127.3,-228.48 106.54,-218.39"/>
<polygon fill="black" stroke="black" points="108.24,-215.32 97.71,-214.1 105.18,-221.62 108.24,-215.32"/>
</g>
<!-- node_3 -->
<g id="node4" class="node">
<title>node_3</title>
<polygon fill="#ececff" stroke="#9370db" points="273.75,-213 139.25,-213 139.25,-177 273.75,-177 273.75,-213"/>
<text text-anchor="middle" x="206.5" y="-189.95" font-family="Times,serif" font-size="14.00">add100[ Adder(100) ]</text>
</g>
<!-- node_0&#45;&gt;node_3 -->
<g id="edge2" class="edge">
<title>node_0&#45;&gt;node_3</title>
<path fill="none" stroke="black" d="M206.5,-249.81C206.5,-242.23 206.5,-233.1 206.5,-224.54"/>
<polygon fill="black" stroke="black" points="210,-224.54 206.5,-214.54 203,-224.54 210,-224.54"/>
</g>
<!-- node_1 -->
<g id="node2" class="node">
<title>node_1</title>
<polygon fill="#ececff" stroke="#9370db" points="233.5,-359 179.5,-359 179.5,-323 233.5,-323 233.5,-359"/>
<text text-anchor="middle" x="206.5" y="-335.95" font-family="Times,serif" font-size="14.00">Start</text>
</g>
<!-- node_1&#45;&gt;node_0 -->
<g id="edge3" class="edge">
<title>node_1&#45;&gt;node_0</title>
<path fill="none" stroke="blue" stroke-width="2" d="M206.5,-322.81C206.5,-315.23 206.5,-306.1 206.5,-297.54"/>
<polygon fill="blue" stroke="blue" stroke-width="2" points="210,-299.06 206.5,-289.06 203,-299.06 210,-299.06"/>
</g>
<!-- node_4 -->
<g id="node5" class="node">
<title>node_4</title>
<polygon fill="#ececff" stroke="#9370db" points="246,-124.5 167,-124.5 167,-88.5 246,-88.5 246,-124.5"/>
<text text-anchor="middle" x="206.5" y="-101.45" font-family="Times,serif" font-size="14.00">sum[ sum ]</text>
</g>
<!-- node_2&#45;&gt;node_4 -->
<g id="edge4" class="edge">
<title>node_2&#45;&gt;node_4</title>
<path fill="none" stroke="black" d="M89.69,-176.7C112.07,-163.44 143.17,-145.02 167.65,-130.51"/>
<polygon fill="black" stroke="black" points="169.23,-133.65 176.05,-125.54 165.67,-127.62 169.23,-133.65"/>
<text text-anchor="middle" x="161.95" y="-145.7" font-family="Times,serif" font-size="14.00">. &#45;&gt; y</text>
</g>
<!-- node_3&#45;&gt;node_4 -->
<g id="edge5" class="edge">
<title>node_3&#45;&gt;node_4</title>
<path fill="none" stroke="black" d="M206.5,-176.91C206.5,-165.26 206.5,-149.55 206.5,-136.02"/>
<polygon fill="black" stroke="black" points="210,-136.36 206.5,-126.36 203,-136.36 210,-136.36"/>
<text text-anchor="middle" x="221.88" y="-145.7" font-family="Times,serif" font-size="14.00">. &#45;&gt; x</text>
</g>
<!-- node_5 -->
<g id="node6" class="node">
<title>node_5</title>
<polygon fill="#ececff" stroke="#9370db" points="233.5,-36 179.5,-36 179.5,0 233.5,0 233.5,-36"/>
<text text-anchor="middle" x="206.5" y="-12.95" font-family="Times,serif" font-size="14.00">End</text>
</g>
<!-- node_4&#45;&gt;node_5 -->
<g id="edge6" class="edge">
<title>node_4&#45;&gt;node_5</title>
<path fill="none" stroke="blue" stroke-width="2" d="M206.5,-88.41C206.5,-76.76 206.5,-61.05 206.5,-47.52"/>
<polygon fill="blue" stroke="blue" stroke-width="2" points="210,-49.38 206.5,-39.38 203,-49.38 210,-49.38"/>
</g>
<!-- node_6 -->
<g id="node7" class="node">
<title>node_6</title>
<polygon fill="#ececff" stroke="#9370db" points="334.62,-36 256.38,-36 256.38,0 334.62,0 334.62,-36"/>
<text text-anchor="middle" x="295.5" y="-12.95" font-family="Times,serif" font-size="14.00">add1_again</text>
</g>
<!-- node_4&#45;&gt;node_6 -->
<g id="edge7" class="edge">
<title>node_4&#45;&gt;node_6</title>
<path fill="none" stroke="blue" stroke-width="2" d="M216.69,-88.07C223.4,-77.48 232.85,-64.1 243.25,-54 247.31,-50.06 251.86,-46.28 256.55,-42.76"/>
<polygon fill="blue" stroke="blue" stroke-width="2" points="257.01,-46.72 263.15,-38.08 252.97,-41.01 257.01,-46.72"/>
<text text-anchor="middle" x="265.38" y="-57.2" font-family="Times,serif" font-size="14.00">?(is112)</text>
</g>
<!-- node_6&#45;&gt;node_0 -->
<g id="edge8" class="edge">
<title>node_6&#45;&gt;node_0</title>
<path fill="none" stroke="blue" stroke-width="2" d="M299.01,-36.46C305.26,-72.21 314.8,-155.26 282.5,-213 275.71,-225.14 264.91,-235.21 253.57,-243.24"/>
<polygon fill="blue" stroke="blue" stroke-width="2" points="252.97,-239.45 246.52,-247.85 256.8,-245.31 252.97,-239.45"/>
</g>
</g>
</svg>
