<?xml version="1.0" encoding="UTF-8" standalone="no"?>
<!DOCTYPE svg PUBLIC "-//W3C//DTD SVG 1.1//EN"
 "http://www.w3.org/Graphics/SVG/1.1/DTD/svg11.dtd">
<!-- Generated by graphviz version 12.2.1 (20241206.2353)
 -->
<!-- Title: anon_from_process1_to_identity Pages: 1 -->
<svg width="410pt" height="230pt"
 viewBox="0.00 0.00 410.00 230.00" xmlns="http://www.w3.org/2000/svg" xmlns:xlink="http://www.w3.org/1999/xlink">
<g id="graph0" class="graph" transform="scale(1 1) rotate(0) translate(4 226)">
<title>anon_from_process1_to_identity</title>
<polygon fill="white" stroke="none" points="-4,4 -4,-226 406,-226 406,4 -4,4"/>
<text text-anchor="middle" x="201" y="-204.7" font-family="Times,serif" font-size="14.00">anon_from_process1_to_identity</text>
<!-- node_0 -->
<g id="node1" class="node">
<title>node_0</title>
<polygon fill="#ececff" stroke="#9370db" points="242,-197.5 136,-197.5 136,-161.5 242,-161.5 242,-197.5"/>
<text text-anchor="middle" x="189" y="-174.45" font-family="Times,serif" font-size="14.00">process1[ add1 ]</text>
</g>
<!-- node_1 -->
<g id="node2" class="node">
<title>node_1</title>
<path fill="#ececff" stroke="#9370db" d="M82,-121.23C82,-123.03 63.62,-124.5 41,-124.5 18.38,-124.5 0,-123.03 0,-121.23 0,-121.23 0,-91.77 0,-91.77 0,-89.97 18.38,-88.5 41,-88.5 63.62,-88.5 82,-89.97 82,-91.77 82,-91.77 82,-121.23 82,-121.23"/>
<path fill="none" stroke="#9370db" d="M82,-121.23C82,-119.42 63.62,-117.95 41,-117.95 18.38,-117.95 0,-119.42 0,-121.23"/>
<text text-anchor="middle" x="41" y="-101.45" font-family="Times,serif" font-size="14.00">State[result]</text>
</g>
<!-- node_0&#45;&gt;node_1 -->
<g id="edge1" class="edge">
<title>node_0&#45;&gt;node_1</title>
<path fill="none" stroke="black" stroke-dasharray="5,2" d="M152.8,-161.13C132.5,-151.39 107.01,-139.17 85.51,-128.85"/>
<polygon fill="black" stroke="black" points="87.2,-125.78 76.67,-124.61 84.17,-132.09 87.2,-125.78"/>
</g>
<!-- node_3 -->
<g id="node4" class="node">
<title>node_3</title>
<polygon fill="#ececff" stroke="#9370db" stroke-width="2" points="278,-124.5 100,-124.5 100,-88.5 278,-88.5 278,-124.5"/>
<text text-anchor="middle" x="189" y="-101.45" font-family="Times,serif" font-size="14.00">process2[ add2, foreach=[0] ]</text>
</g>
<!-- node_0&#45;&gt;node_3 -->
<g id="edge3" class="edge">
<title>node_0&#45;&gt;node_3</title>
<path fill="none" stroke="black" d="M189,-161.31C189,-153.73 189,-144.6 189,-136.04"/>
<polygon fill="black" stroke="black" points="192.5,-136.04 189,-126.04 185.5,-136.04 192.5,-136.04"/>
</g>
<!-- node_4 -->
<g id="node5" class="node">
<title>node_4</title>
<polygon fill="#ececff" stroke="#9370db" points="402,-124.5 296,-124.5 296,-88.5 402,-88.5 402,-124.5"/>
<text text-anchor="middle" x="349" y="-101.45" font-family="Times,serif" font-size="14.00">process3[ add5 ]</text>
</g>
<!-- node_0&#45;&gt;node_4 -->
<g id="edge4" class="edge">
<title>node_0&#45;&gt;node_4</title>
<path fill="none" stroke="black" d="M228.14,-161.13C249.64,-151.59 276.53,-139.66 299.47,-129.48"/>
<polygon fill="black" stroke="black" points="300.6,-132.8 308.33,-125.55 297.77,-126.41 300.6,-132.8"/>
</g>
<!-- node_2 -->
<g id="node3" class="node">
<title>node_2</title>
<polygon fill="#ececff" stroke="#9370db" stroke-width="2" points="258.12,-36 119.88,-36 119.88,0 258.12,0 258.12,-36"/>
<text text-anchor="middle" x="189" y="-12.95" font-family="Times,serif" font-size="14.00">identity[ foreach=[x] ]</text>
</g>
<!-- node_1&#45;&gt;node_2 -->
<g id="edge2" class="edge">
<title>node_1&#45;&gt;node_2</title>
<path fill="none" stroke="black" stroke-dasharray="5,2" d="M69.89,-88.62C92.51,-75.39 124.23,-56.85 149.25,-42.23"/>
<polygon fill="black" stroke="black" points="151,-45.27 157.86,-37.2 147.46,-39.22 151,-45.27"/>
<text text-anchor="middle" x="154.13" y="-57.2" font-family="Times,serif" font-size="14.00">. &#45;&gt; input</text>
</g>
<!-- node_3&#45;&gt;node_2 -->
<g id="edge5" class="edge">
<title>node_3&#45;&gt;node_2</title>
<path fill="none" stroke="black" d="M189,-88.41C189,-76.76 189,-61.05 189,-47.52"/>
<polygon fill="black" stroke="black" points="192.5,-47.86 189,-37.86 185.5,-47.86 192.5,-47.86"/>
<text text-anchor="middle" x="205.5" y="-57.2" font-family="Times,serif" font-size="14.00">a &#45;&gt; x</text>
</g>
<!-- node_4&#45;&gt;node_2 -->
<g id="edge6" class="edge">
<title>node_4&#45;&gt;node_2</title>
<path fill="none" stroke="black" d="M317.01,-88.2C292.34,-74.87 258.02,-56.31 231.12,-41.77"/>
<polygon fill="black" stroke="black" points="233,-38.81 222.54,-37.13 229.68,-44.97 233,-38.81"/>
<text text-anchor="middle" x="300.21" y="-57.2" font-family="Times,serif" font-size="14.00">b &#45;&gt; y</text>
</g>
</g>
</svg>
