<?xml version="1.0" encoding="UTF-8" standalone="no"?>
<!DOCTYPE svg PUBLIC "-//W3C//DTD SVG 1.1//EN"
 "http://www.w3.org/Graphics/SVG/1.1/DTD/svg11.dtd">
<!-- Generated by graphviz version 12.2.1 (20241206.2353)
 -->
<!-- Pages: 1 -->
<svg width="388pt" height="276pt"
 viewBox="0.00 0.00 388.05 275.50" xmlns="http://www.w3.org/2000/svg" xmlns:xlink="http://www.w3.org/1999/xlink">
<g id="graph0" class="graph" transform="scale(1 1) rotate(0) translate(4 271.5)">
<polygon fill="white" stroke="none" points="-4,4 -4,-271.5 384.05,-271.5 384.05,4 -4,4"/>
<!-- process4 -->
<g id="node1" class="node">
<title>process4</title>
<polygon fill="#ececff" stroke="#9370db" points="95.5,-146 0,-146 0,-105 95.5,-105 95.5,-146"/>
<text text-anchor="middle" x="47.75" y="-128.7" font-family="Times,serif" font-size="14.00">process4</text>
<text text-anchor="middle" x="47.75" y="-112.2" font-family="Times,serif" font-size="14.00">is_break=True</text>
</g>
<!-- End -->
<g id="node3" class="node">
<title>End</title>
<polygon fill="#ececff" stroke="#9370db" points="163.75,-36 109.75,-36 109.75,0 163.75,0 163.75,-36"/>
<text text-anchor="middle" x="136.75" y="-12.95" font-family="Times,serif" font-size="14.00">End</text>
</g>
<!-- process4&#45;&gt;End -->
<g id="edge1" class="edge">
<title>process4&#45;&gt;End</title>
<path fill="none" stroke="black" d="M42.53,-104.79C39.71,-89.58 38.61,-68.72 48.75,-54 60.03,-37.63 80.28,-28.91 98.52,-24.28"/>
<polygon fill="black" stroke="black" points="99.01,-27.75 108.03,-22.21 97.52,-20.91 99.01,-27.75"/>
<text text-anchor="middle" x="126.75" y="-73.7" font-family="Times,serif" font-size="14.00">type=DiagramType.decision</text>
<text text-anchor="middle" x="126.75" y="-57.2" font-family="Times,serif" font-size="14.00">mapping={0: (&#39;.&#39;,)}</text>
</g>
<!-- Start -->
<g id="node2" class="node">
<title>Start</title>
<polygon fill="#ececff" stroke="#9370db" points="163.75,-267.5 109.75,-267.5 109.75,-231.5 163.75,-231.5 163.75,-267.5"/>
<text text-anchor="middle" x="136.75" y="-244.45" font-family="Times,serif" font-size="14.00">Start</text>
</g>
<!-- Start&#45;&gt;process4 -->
<g id="edge2" class="edge">
<title>Start&#45;&gt;process4</title>
<path fill="none" stroke="black" d="M109.5,-245.63C89.05,-241.89 62.34,-233.29 48.75,-213.5 37.72,-197.44 37.55,-175.48 40.1,-157.63"/>
<polygon fill="black" stroke="black" points="43.54,-158.29 41.87,-147.83 36.65,-157.05 43.54,-158.29"/>
<text text-anchor="middle" x="126.75" y="-191.95" font-family="Times,serif" font-size="14.00">type=DiagramType.decision</text>
<text text-anchor="middle" x="126.75" y="-175.45" font-family="Times,serif" font-size="14.00">mapping={0: (&#39;.&#39;,)}</text>
</g>
<!-- anon_from_process1_to_identity -->
<g id="node4" class="node">
<title>anon_from_process1_to_identity</title>
<polygon fill="#ececff" stroke="#9370db" points="324.38,-146 129.12,-146 129.12,-105 324.38,-105 324.38,-146"/>
<text text-anchor="middle" x="226.75" y="-128.7" font-family="Times,serif" font-size="14.00">anon_from_process1_to_identity</text>
<text text-anchor="middle" x="226.75" y="-112.2" font-family="Times,serif" font-size="14.00">func=FlowDiagram</text>
</g>
<!-- Start&#45;&gt;anon_from_process1_to_identity -->
<g id="edge3" class="edge">
<title>Start&#45;&gt;anon_from_process1_to_identity</title>
<path fill="none" stroke="black" d="M164.17,-240.46C178.23,-235 194.51,-226.39 204.75,-213.5 217.33,-197.67 222.81,-175.52 225.16,-157.54"/>
<polygon fill="black" stroke="black" points="228.63,-157.96 226.15,-147.66 221.67,-157.26 228.63,-157.96"/>
<text text-anchor="middle" x="302.05" y="-200.2" font-family="Times,serif" font-size="14.00">type=DiagramType.decision</text>
<text text-anchor="middle" x="302.05" y="-183.7" font-family="Times,serif" font-size="14.00">mapping={0: (&#39;.&#39;,)}</text>
<text text-anchor="middle" x="302.05" y="-167.2" font-family="Times,serif" font-size="14.00">condition=is_even</text>
</g>
<!-- anon_from_process1_to_identity&#45;&gt;End -->
<g id="edge4" class="edge">
<title>anon_from_process1_to_identity&#45;&gt;End</title>
<path fill="none" stroke="black" d="M224.73,-104.57C222.26,-89.25 216.79,-68.33 204.75,-54 196.79,-44.53 185.61,-37.31 174.61,-31.97"/>
<polygon fill="black" stroke="black" points="176.18,-28.83 165.62,-28.01 173.36,-35.24 176.18,-28.83"/>
<text text-anchor="middle" x="298.59" y="-73.7" font-family="Times,serif" font-size="14.00">type=DiagramType.decision</text>
<text text-anchor="middle" x="298.59" y="-57.2" font-family="Times,serif" font-size="14.00">mapping={0: (&#39;.&#39;,)}</text>
</g>
</g>
</svg>
