<?xml version="1.0" encoding="UTF-8" standalone="no"?>
<!DOCTYPE svg PUBLIC "-//W3C//DTD SVG 1.1//EN"
 "http://www.w3.org/Graphics/SVG/1.1/DTD/svg11.dtd">
<!-- Generated by graphviz version 12.2.1 (20241206.2353)
 -->
<!-- Title: test_d Pages: 1 -->
<svg width="391pt" height="452pt"
 viewBox="0.00 0.00 390.62 452.00" xmlns="http://www.w3.org/2000/svg" xmlns:xlink="http://www.w3.org/1999/xlink">
<g id="graph0" class="graph" transform="scale(1 1) rotate(0) translate(4 448)">
<title>test_d</title>
<polygon fill="white" stroke="none" points="-4,4 -4,-448 386.62,-448 386.62,4 -4,4"/>
<text text-anchor="middle" x="191.31" y="-426.7" font-family="Times,serif" font-size="14.00">test_d</text>
<!-- node_0 -->
<g id="node1" class="node">
<title>node_0</title>
<polygon fill="#ececff" stroke="#9370db" stroke-dasharray="5,2" points="63.25,-277 0,-277 0,-241 63.25,-241 63.25,-277"/>
<text text-anchor="middle" x="31.62" y="-253.95" font-family="Times,serif" font-size="14.00">process4</text>
</g>
<!-- node_2 -->
<g id="node3" class="node">
<title>node_2</title>
<polygon fill="#ececff" stroke="#9370db" points="71.62,-36 17.62,-36 17.62,0 71.62,0 71.62,-36"/>
<text text-anchor="middle" x="44.62" y="-12.95" font-family="Times,serif" font-size="14.00">End</text>
</g>
<!-- node_0&#45;&gt;node_2 -->
<g id="edge3" class="edge">
<title>node_0&#45;&gt;node_2</title>
<path fill="none" stroke="blue" stroke-width="2" d="M32.56,-240.81C34.77,-200.17 40.34,-97.82 43.07,-47.64"/>
<polygon fill="blue" stroke="blue" stroke-width="2" points="46.47,-49.55 43.52,-39.38 39.48,-49.17 46.47,-49.55"/>
<text text-anchor="middle" x="57.47" y="-150.7" font-family="Times,serif" font-size="14.00">a &#45;&gt; **</text>
</g>
<!-- node_1 -->
<g id="node2" class="node">
<title>node_1</title>
<polygon fill="#ececff" stroke="#9370db" points="108.62,-419.5 54.62,-419.5 54.62,-383.5 108.62,-383.5 108.62,-419.5"/>
<text text-anchor="middle" x="81.62" y="-396.45" font-family="Times,serif" font-size="14.00">Start</text>
</g>
<!-- node_1&#45;&gt;node_0 -->
<g id="edge4" class="edge">
<title>node_1&#45;&gt;node_0</title>
<path fill="none" stroke="blue" stroke-width="2" d="M75.49,-383.27C67.06,-359.57 51.78,-316.62 41.66,-288.2"/>
<polygon fill="blue" stroke="blue" stroke-width="2" points="45.47,-288.47 38.82,-280.22 38.88,-290.82 45.47,-288.47"/>
</g>
<!-- node_3 -->
<g id="node4" class="node">
<title>node_3</title>
<polygon fill="#ececff" stroke="#9370db" points="205.62,-331 99.62,-331 99.62,-295 205.62,-295 205.62,-331"/>
<text text-anchor="middle" x="152.62" y="-307.95" font-family="Times,serif" font-size="14.00">process1[ add1 ]</text>
</g>
<!-- node_1&#45;&gt;node_3 -->
<g id="edge5" class="edge">
<title>node_1&#45;&gt;node_3</title>
<path fill="none" stroke="blue" stroke-width="2" d="M95.65,-383.41C105.8,-371.05 119.69,-354.13 131.21,-340.08"/>
<polygon fill="blue" stroke="blue" stroke-width="2" points="132.82,-343.64 136.46,-333.69 127.41,-339.2 132.82,-343.64"/>
<text text-anchor="middle" x="151.61" y="-352.2" font-family="Times,serif" font-size="14.00">?(is_even)</text>
</g>
<!-- node_4 -->
<g id="node5" class="node">
<title>node_4</title>
<path fill="#ececff" stroke="#9370db" d="M138.62,-217.23C138.62,-219.03 120.25,-220.5 97.62,-220.5 75,-220.5 56.62,-219.03 56.62,-217.23 56.62,-217.23 56.62,-187.77 56.62,-187.77 56.62,-185.97 75,-184.5 97.62,-184.5 120.25,-184.5 138.62,-185.97 138.62,-187.77 138.62,-187.77 138.62,-217.23 138.62,-217.23"/>
<path fill="none" stroke="#9370db" d="M138.62,-217.23C138.62,-215.42 120.25,-213.95 97.62,-213.95 75,-213.95 56.62,-215.42 56.62,-217.23"/>
<text text-anchor="middle" x="97.62" y="-197.45" font-family="Times,serif" font-size="14.00">State[result]</text>
</g>
<!-- node_3&#45;&gt;node_4 -->
<g id="edge1" class="edge">
<title>node_3&#45;&gt;node_4</title>
<path fill="none" stroke="black" stroke-dasharray="5,2" d="M143.79,-294.57C135.09,-277.4 121.67,-250.93 111.54,-230.95"/>
<polygon fill="black" stroke="black" points="114.77,-229.58 107.12,-222.24 108.52,-232.74 114.77,-229.58"/>
</g>
<!-- node_6 -->
<g id="node7" class="node">
<title>node_6</title>
<polygon fill="#ececff" stroke="#9370db" stroke-width="2" points="258.38,-223 156.88,-223 156.88,-182 258.38,-182 258.38,-223"/>
<text text-anchor="middle" x="207.62" y="-205.7" font-family="Times,serif" font-size="14.00">process2[ add2,</text>
<text text-anchor="middle" x="207.62" y="-189.2" font-family="Times,serif" font-size="14.00">foreach=[0] ]</text>
</g>
<!-- node_3&#45;&gt;node_6 -->
<g id="edge6" class="edge">
<title>node_3&#45;&gt;node_6</title>
<path fill="none" stroke="black" d="M161.46,-294.57C169.76,-278.19 182.36,-253.34 192.3,-233.73"/>
<polygon fill="black" stroke="black" points="195.42,-235.32 196.82,-224.82 189.18,-232.15 195.42,-235.32"/>
</g>
<!-- node_7 -->
<g id="node8" class="node">
<title>node_7</title>
<polygon fill="#ececff" stroke="#9370db" points="382.62,-220.5 276.62,-220.5 276.62,-184.5 382.62,-184.5 382.62,-220.5"/>
<text text-anchor="middle" x="329.62" y="-197.45" font-family="Times,serif" font-size="14.00">process3[ add5 ]</text>
</g>
<!-- node_3&#45;&gt;node_7 -->
<g id="edge7" class="edge">
<title>node_3&#45;&gt;node_7</title>
<path fill="none" stroke="black" d="M181.06,-294.57C211,-276.22 258.29,-247.23 291.45,-226.9"/>
<polygon fill="black" stroke="black" points="293.27,-229.89 299.97,-221.68 289.61,-223.92 293.27,-229.89"/>
</g>
<!-- node_5 -->
<g id="node6" class="node">
<title>node_5</title>
<polygon fill="#ececff" stroke="#9370db" stroke-width="2" points="181,-129.5 92.25,-129.5 92.25,-88.5 181,-88.5 181,-129.5"/>
<text text-anchor="middle" x="136.62" y="-112.2" font-family="Times,serif" font-size="14.00">identity[</text>
<text text-anchor="middle" x="136.62" y="-95.7" font-family="Times,serif" font-size="14.00">foreach=[x] ]</text>
</g>
<!-- node_4&#45;&gt;node_5 -->
<g id="edge2" class="edge">
<title>node_4&#45;&gt;node_5</title>
<path fill="none" stroke="black" stroke-dasharray="5,2" d="M104.96,-184.29C110.29,-171.79 117.63,-154.56 123.9,-139.85"/>
<polygon fill="black" stroke="black" points="126.94,-141.64 127.65,-131.07 120.5,-138.89 126.94,-141.64"/>
<text text-anchor="middle" x="146.49" y="-150.7" font-family="Times,serif" font-size="14.00">. &#45;&gt; input</text>
</g>
<!-- node_5&#45;&gt;node_2 -->
<g id="edge8" class="edge">
<title>node_5&#45;&gt;node_2</title>
<path fill="none" stroke="blue" stroke-width="2" d="M116.21,-88.25C102.75,-75.23 85.02,-58.08 70.57,-44.1"/>
<polygon fill="blue" stroke="blue" stroke-width="2" points="74.3,-42.83 64.68,-38.4 69.43,-47.87 74.3,-42.83"/>
<text text-anchor="middle" x="114.88" y="-57.2" font-family="Times,serif" font-size="14.00">. &#45;&gt; **</text>
</g>
<!-- node_6&#45;&gt;node_5 -->
<g id="edge9" class="edge">
<title>node_6&#45;&gt;node_5</title>
<path fill="none" stroke="black" d="M198.03,-181.62C192.48,-171.01 184.94,-158.01 176.62,-147.5 174.05,-144.25 171.2,-141.02 168.23,-137.89"/>
<polygon fill="black" stroke="black" points="170.86,-135.58 161.3,-131.01 165.93,-140.54 170.86,-135.58"/>
<text text-anchor="middle" x="203.86" y="-150.7" font-family="Times,serif" font-size="14.00">a &#45;&gt; x</text>
</g>
<!-- node_7&#45;&gt;node_5 -->
<g id="edge10" class="edge">
<title>node_7&#45;&gt;node_5</title>
<path fill="none" stroke="black" d="M297.29,-184.11C276.68,-173.21 249.3,-159.09 224.62,-147.5 214.03,-142.53 202.6,-137.45 191.6,-132.7"/>
<polygon fill="black" stroke="black" points="193.18,-129.57 182.61,-128.86 190.43,-136.01 193.18,-129.57"/>
<text text-anchor="middle" x="273.58" y="-150.7" font-family="Times,serif" font-size="14.00">b &#45;&gt; y</text>
</g>
</g>
</svg>
