<?xml version="1.0" encoding="UTF-8" standalone="no"?>
<!DOCTYPE svg PUBLIC "-//W3C//DTD SVG 1.1//EN"
 "http://www.w3.org/Graphics/SVG/1.1/DTD/svg11.dtd">
<!-- Generated by graphviz version 12.2.1 (20241206.2353)
 -->
<!-- Title: paralell with choice Pages: 1 -->
<svg width="187pt" height="235pt"
 viewBox="0.00 0.00 186.50 235.00" xmlns="http://www.w3.org/2000/svg" xmlns:xlink="http://www.w3.org/1999/xlink">
<g id="graph0" class="graph" transform="scale(1 1) rotate(0) translate(4 231)">
<title>paralell with choice</title>
<polygon fill="white" stroke="none" points="-4,4 -4,-231 182.5,-231 182.5,4 -4,4"/>
<text text-anchor="middle" x="89.25" y="-209.7" font-family="Times,serif" font-size="14.00">paralell with choice</text>
<!-- node_0 -->
<g id="node1" class="node">
<title>node_0</title>
<polygon fill="#ececff" stroke="#9370db" points="125.12,-202.5 71.12,-202.5 71.12,-166.5 125.12,-166.5 125.12,-202.5"/>
<text text-anchor="middle" x="98.12" y="-179.45" font-family="Times,serif" font-size="14.00">Start</text>
</g>
<!-- node_3 -->
<g id="node4" class="node">
<title>node_3</title>
<polygon fill="#ececff" stroke="#9370db" points="178.5,-129.5 17.75,-129.5 17.75,-88.5 178.5,-88.5 178.5,-129.5"/>
<text text-anchor="middle" x="98.12" y="-112.2" font-family="Times,serif" font-size="14.00">anon_from_add1_to_sum[</text>
<text text-anchor="middle" x="98.12" y="-95.7" font-family="Times,serif" font-size="14.00">FlowDiagram ]</text>
</g>
<!-- node_0&#45;&gt;node_3 -->
<g id="edge1" class="edge">
<title>node_0&#45;&gt;node_3</title>
<path fill="none" stroke="blue" stroke-width="2" d="M98.12,-166.08C98.12,-158.7 98.12,-149.85 98.12,-141.4"/>
<polygon fill="blue" stroke="blue" stroke-width="2" points="101.63,-142.92 98.13,-132.92 94.63,-142.92 101.63,-142.92"/>
</g>
<!-- node_1 -->
<g id="node2" class="node">
<title>node_1</title>
<polygon fill="#ececff" stroke="#9370db" points="150.12,-36 96.12,-36 96.12,0 150.12,0 150.12,-36"/>
<text text-anchor="middle" x="123.12" y="-12.95" font-family="Times,serif" font-size="14.00">End</text>
</g>
<!-- node_2 -->
<g id="node3" class="node">
<title>node_2</title>
<polygon fill="#ececff" stroke="#9370db" points="78.25,-36 0,-36 0,0 78.25,0 78.25,-36"/>
<text text-anchor="middle" x="39.12" y="-12.95" font-family="Times,serif" font-size="14.00">add1_again</text>
</g>
<!-- node_2&#45;&gt;node_3 -->
<g id="edge2" class="edge">
<title>node_2&#45;&gt;node_3</title>
<path fill="none" stroke="blue" stroke-width="2" d="M67.05,-36.13C73.45,-41.19 79.67,-47.22 84.12,-54 88.63,-60.85 91.69,-69.08 93.76,-77.02"/>
<polygon fill="blue" stroke="blue" stroke-width="2" points="90.02,-76.24 95.52,-85.29 96.86,-74.78 90.02,-76.24"/>
</g>
<!-- node_3&#45;&gt;node_1 -->
<g id="edge3" class="edge">
<title>node_3&#45;&gt;node_1</title>
<path fill="none" stroke="blue" stroke-width="2" d="M104.02,-88.17C105.69,-82.47 107.5,-76.25 109.12,-70.5 111.27,-62.92 113.53,-54.7 115.6,-47.09"/>
<polygon fill="blue" stroke="blue" stroke-width="2" points="118.52,-49.68 117.75,-39.11 111.77,-47.85 118.52,-49.68"/>
</g>
<!-- node_3&#45;&gt;node_2 -->
<g id="edge4" class="edge">
<title>node_3&#45;&gt;node_2</title>
<path fill="none" stroke="blue" stroke-width="2" d="M52.3,-88.22C45.72,-83.39 39.85,-77.53 35.88,-70.5 32.01,-63.66 31.18,-55.47 31.75,-47.65"/>
<polygon fill="blue" stroke="blue" stroke-width="2" points="34.97,-49.7 33.02,-39.29 28.05,-48.65 34.97,-49.7"/>
<text text-anchor="middle" x="58" y="-57.2" font-family="Times,serif" font-size="14.00">?(is112)</text>
</g>
</g>
</svg>
