<?xml version="1.0" encoding="UTF-8" standalone="no"?>
<!DOCTYPE svg PUBLIC "-//W3C//DTD SVG 1.1//EN"
 "http://www.w3.org/Graphics/SVG/1.1/DTD/svg11.dtd">
<!-- Generated by graphviz version 12.2.1 (20241206.2353)
 -->
<!-- Title: test_d Pages: 1 -->
<svg width="467pt" height="442pt"
 viewBox="0.00 0.00 466.62 442.00" xmlns="http://www.w3.org/2000/svg" xmlns:xlink="http://www.w3.org/1999/xlink">
<g id="graph0" class="graph" transform="scale(1 1) rotate(0) translate(4 438)">
<title>test_d</title>
<polygon fill="white" stroke="none" points="-4,4 -4,-438 462.62,-438 462.62,4 -4,4"/>
<text text-anchor="middle" x="229.31" y="-416.7" font-family="Times,serif" font-size="14.00">test_d</text>
<!-- node_0 -->
<g id="node1" class="node">
<title>node_0</title>
<polygon fill="#ececff" stroke="#9370db" stroke-dasharray="5,2" points="63.25,-267 0,-267 0,-231 63.25,-231 63.25,-267"/>
<text text-anchor="middle" x="31.62" y="-243.95" font-family="Times,serif" font-size="14.00">process4</text>
</g>
<!-- node_2 -->
<g id="node3" class="node">
<title>node_2</title>
<polygon fill="#ececff" stroke="#9370db" points="71.62,-36 17.62,-36 17.62,0 71.62,0 71.62,-36"/>
<text text-anchor="middle" x="44.62" y="-12.95" font-family="Times,serif" font-size="14.00">End</text>
</g>
<!-- node_0&#45;&gt;node_2 -->
<g id="edge3" class="edge">
<title>node_0&#45;&gt;node_2</title>
<path fill="none" stroke="blue" stroke-width="2" d="M32.6,-230.79C34.82,-191.75 40.25,-96.13 42.99,-47.87"/>
<polygon fill="blue" stroke="blue" stroke-width="2" points="46.39,-49.62 43.46,-39.43 39.4,-49.22 46.39,-49.62"/>
<text text-anchor="middle" x="57.47" y="-145.7" font-family="Times,serif" font-size="14.00">a &#45;&gt; **</text>
</g>
<!-- node_1 -->
<g id="node2" class="node">
<title>node_1</title>
<polygon fill="#ececff" stroke="#9370db" points="127.62,-409.5 73.62,-409.5 73.62,-373.5 127.62,-373.5 127.62,-409.5"/>
<text text-anchor="middle" x="100.62" y="-386.45" font-family="Times,serif" font-size="14.00">Start</text>
</g>
<!-- node_1&#45;&gt;node_0 -->
<g id="edge4" class="edge">
<title>node_1&#45;&gt;node_0</title>
<path fill="none" stroke="blue" stroke-width="2" d="M92.16,-373.27C80.42,-349.36 59.06,-305.86 45.1,-277.45"/>
<polygon fill="blue" stroke="blue" stroke-width="2" points="49.04,-277.52 41.49,-270.09 42.76,-280.6 49.04,-277.52"/>
</g>
<!-- node_3 -->
<g id="node4" class="node">
<title>node_3</title>
<polygon fill="#ececff" stroke="#9370db" points="224.62,-321 118.62,-321 118.62,-285 224.62,-285 224.62,-321"/>
<text text-anchor="middle" x="171.62" y="-297.95" font-family="Times,serif" font-size="14.00">process1[ add1 ]</text>
</g>
<!-- node_1&#45;&gt;node_3 -->
<g id="edge5" class="edge">
<title>node_1&#45;&gt;node_3</title>
<path fill="none" stroke="blue" stroke-width="2" d="M114.65,-373.41C124.8,-361.05 138.69,-344.13 150.21,-330.08"/>
<polygon fill="blue" stroke="blue" stroke-width="2" points="151.82,-333.64 155.46,-323.69 146.41,-329.2 151.82,-333.64"/>
<text text-anchor="middle" x="170.61" y="-342.2" font-family="Times,serif" font-size="14.00">?(is_even)</text>
</g>
<!-- node_4 -->
<g id="node5" class="node">
<title>node_4</title>
<path fill="#ececff" stroke="#9370db" d="M138.62,-209.73C138.62,-211.53 120.25,-213 97.62,-213 75,-213 56.62,-211.53 56.62,-209.73 56.62,-209.73 56.62,-180.27 56.62,-180.27 56.62,-178.47 75,-177 97.62,-177 120.25,-177 138.62,-178.47 138.62,-180.27 138.62,-180.27 138.62,-209.73 138.62,-209.73"/>
<path fill="none" stroke="#9370db" d="M138.62,-209.73C138.62,-207.92 120.25,-206.45 97.62,-206.45 75,-206.45 56.62,-207.92 56.62,-209.73"/>
<text text-anchor="middle" x="97.62" y="-189.95" font-family="Times,serif" font-size="14.00">State[result]</text>
</g>
<!-- node_3&#45;&gt;node_4 -->
<g id="edge1" class="edge">
<title>node_3&#45;&gt;node_4</title>
<path fill="none" stroke="black" stroke-dasharray="5,2" d="M159.74,-284.97C147.99,-268.15 129.86,-242.17 116.21,-222.62"/>
<polygon fill="black" stroke="black" points="119.19,-220.78 110.6,-214.58 113.45,-224.78 119.19,-220.78"/>
</g>
<!-- node_6 -->
<g id="node7" class="node">
<title>node_6</title>
<polygon fill="#ececff" stroke="#9370db" stroke-width="2" points="334.62,-213 156.62,-213 156.62,-177 334.62,-177 334.62,-213"/>
<text text-anchor="middle" x="245.62" y="-189.95" font-family="Times,serif" font-size="14.00">process2[ add2, foreach=[0] ]</text>
</g>
<!-- node_3&#45;&gt;node_6 -->
<g id="edge6" class="edge">
<title>node_3&#45;&gt;node_6</title>
<path fill="none" stroke="black" d="M183.51,-284.97C195.26,-268.15 213.39,-242.17 227.04,-222.62"/>
<polygon fill="black" stroke="black" points="229.8,-224.78 232.65,-214.58 224.06,-220.78 229.8,-224.78"/>
</g>
<!-- node_7 -->
<g id="node8" class="node">
<title>node_7</title>
<polygon fill="#ececff" stroke="#9370db" points="458.62,-213 352.62,-213 352.62,-177 458.62,-177 458.62,-213"/>
<text text-anchor="middle" x="405.62" y="-189.95" font-family="Times,serif" font-size="14.00">process3[ add5 ]</text>
</g>
<!-- node_3&#45;&gt;node_7 -->
<g id="edge7" class="edge">
<title>node_3&#45;&gt;node_7</title>
<path fill="none" stroke="black" d="M210,-284.61C250.13,-266.44 313.22,-237.86 356.85,-218.09"/>
<polygon fill="black" stroke="black" points="358.18,-221.33 365.85,-214.02 355.29,-214.96 358.18,-221.33"/>
</g>
<!-- node_5 -->
<g id="node6" class="node">
<title>node_5</title>
<polygon fill="#ececff" stroke="#9370db" stroke-width="2" points="217.75,-124.5 79.5,-124.5 79.5,-88.5 217.75,-88.5 217.75,-124.5"/>
<text text-anchor="middle" x="148.62" y="-101.45" font-family="Times,serif" font-size="14.00">identity[ foreach=[x] ]</text>
</g>
<!-- node_4&#45;&gt;node_5 -->
<g id="edge2" class="edge">
<title>node_4&#45;&gt;node_5</title>
<path fill="none" stroke="black" stroke-dasharray="5,2" d="M107.7,-176.91C114.85,-164.79 124.59,-148.27 132.77,-134.39"/>
<polygon fill="black" stroke="black" points="135.56,-136.55 137.63,-126.15 129.53,-132.99 135.56,-136.55"/>
<text text-anchor="middle" x="153.57" y="-145.7" font-family="Times,serif" font-size="14.00">. &#45;&gt; input</text>
</g>
<!-- node_5&#45;&gt;node_2 -->
<g id="edge8" class="edge">
<title>node_5&#45;&gt;node_2</title>
<path fill="none" stroke="blue" stroke-width="2" d="M128.08,-88.41C112.65,-75.58 91.31,-57.83 74.07,-43.49"/>
<polygon fill="blue" stroke="blue" stroke-width="2" points="77.74,-41.99 67.81,-38.29 73.26,-47.37 77.74,-41.99"/>
<text text-anchor="middle" x="124.69" y="-57.2" font-family="Times,serif" font-size="14.00">. &#45;&gt; **</text>
</g>
<!-- node_6&#45;&gt;node_5 -->
<g id="edge9" class="edge">
<title>node_6&#45;&gt;node_5</title>
<path fill="none" stroke="black" d="M226.46,-176.91C212.21,-164.2 192.53,-146.66 176.53,-132.39"/>
<polygon fill="black" stroke="black" points="179,-129.9 169.21,-125.86 174.34,-135.13 179,-129.9"/>
<text text-anchor="middle" x="222.31" y="-145.7" font-family="Times,serif" font-size="14.00">a &#45;&gt; x</text>
</g>
<!-- node_7&#45;&gt;node_5 -->
<g id="edge10" class="edge">
<title>node_7&#45;&gt;node_5</title>
<path fill="none" stroke="black" d="M353.93,-176.6C312.71,-162.73 254.85,-143.25 211.05,-128.51"/>
<polygon fill="black" stroke="black" points="212.27,-125.23 201.68,-125.36 210.04,-131.86 212.27,-125.23"/>
<text text-anchor="middle" x="317.02" y="-145.7" font-family="Times,serif" font-size="14.00">b &#45;&gt; y</text>
</g>
</g>
</svg>
