<?xml version="1.0" encoding="UTF-8" standalone="no"?>
<!DOCTYPE svg PUBLIC "-//W3C//DTD SVG 1.1//EN"
 "http://www.w3.org/Graphics/SVG/1.1/DTD/svg11.dtd">
<!-- Generated by graphviz version 12.2.1 (20241206.2353)
 -->
<!-- Pages: 1 -->
<svg width="339pt" height="302pt"
 viewBox="0.00 0.00 339.26 302.00" xmlns="http://www.w3.org/2000/svg" xmlns:xlink="http://www.w3.org/1999/xlink">
<g id="graph0" class="graph" transform="scale(1 1) rotate(0) translate(4 298)">
<polygon fill="white" stroke="none" points="-4,4 -4,-298 335.26,-298 335.26,4 -4,4"/>
<!-- process1 -->
<g id="node1" class="node">
<title>process1</title>
<polygon fill="#ececff" stroke="#9370db" points="216.5,-294 28.75,-294 28.75,-236.5 216.5,-236.5 216.5,-294"/>
<text text-anchor="middle" x="122.62" y="-276.7" font-family="Times,serif" font-size="14.00">process1</text>
<text text-anchor="middle" x="122.62" y="-260.2" font-family="Times,serif" font-size="14.00">func=add1</text>
<text text-anchor="middle" x="122.62" y="-243.7" font-family="Times,serif" font-size="14.00">write_state={&#39;result&#39;: {0: (&#39;.&#39;,)}}</text>
</g>
<!-- process2 -->
<g id="node3" class="node">
<title>process2</title>
<polygon fill="#ececff" stroke="#9370db" points="87.25,-167.5 0,-167.5 0,-110 87.25,-110 87.25,-167.5"/>
<text text-anchor="middle" x="43.62" y="-150.2" font-family="Times,serif" font-size="14.00">process2</text>
<text text-anchor="middle" x="43.62" y="-133.7" font-family="Times,serif" font-size="14.00">for_each=[0]</text>
<text text-anchor="middle" x="43.62" y="-117.2" font-family="Times,serif" font-size="14.00">func=add2</text>
</g>
<!-- process1&#45;&gt;process2 -->
<g id="edge1" class="edge">
<title>process1&#45;&gt;process2</title>
<path fill="none" stroke="black" d="M60.27,-236.2C54.18,-231.14 48.82,-225.27 44.88,-218.5 38.06,-206.8 36.33,-192.38 36.77,-179.08"/>
<polygon fill="black" stroke="black" points="40.25,-179.53 37.53,-169.29 33.27,-178.99 40.25,-179.53"/>
<text text-anchor="middle" x="112.75" y="-205.2" font-family="Times,serif" font-size="14.00">type=DiagramType.flow</text>
<text text-anchor="middle" x="112.75" y="-188.7" font-family="Times,serif" font-size="14.00">mapping={0: (&#39;.&#39;,)}</text>
</g>
<!-- process3 -->
<g id="node4" class="node">
<title>process3</title>
<polygon fill="#ececff" stroke="#9370db" points="239.88,-159.25 165.38,-159.25 165.38,-118.25 239.88,-118.25 239.88,-159.25"/>
<text text-anchor="middle" x="202.62" y="-141.95" font-family="Times,serif" font-size="14.00">process3</text>
<text text-anchor="middle" x="202.62" y="-125.45" font-family="Times,serif" font-size="14.00">func=add5</text>
</g>
<!-- process1&#45;&gt;process3 -->
<g id="edge2" class="edge">
<title>process1&#45;&gt;process3</title>
<path fill="none" stroke="black" d="M165.06,-236.12C170.91,-230.82 176.36,-224.9 180.62,-218.5 190.1,-204.28 195.52,-186.03 198.62,-170.68"/>
<polygon fill="black" stroke="black" points="202.01,-171.57 200.29,-161.11 195.12,-170.36 202.01,-171.57"/>
<text text-anchor="middle" x="262.76" y="-205.2" font-family="Times,serif" font-size="14.00">type=DiagramType.flow</text>
<text text-anchor="middle" x="262.76" y="-188.7" font-family="Times,serif" font-size="14.00">mapping={0: (&#39;.&#39;,)}</text>
</g>
<!-- identity -->
<g id="node2" class="node">
<title>identity</title>
<polygon fill="#ececff" stroke="#9370db" points="227,-41 18.25,-41 18.25,0 227,0 227,-41"/>
<text text-anchor="middle" x="122.62" y="-23.7" font-family="Times,serif" font-size="14.00">identity</text>
<text text-anchor="middle" x="122.62" y="-7.2" font-family="Times,serif" font-size="14.00">read_state={&#39;result&#39;: {&#39;input&#39;: (&#39;.&#39;,)}}</text>
</g>
<!-- process2&#45;&gt;identity -->
<g id="edge3" class="edge">
<title>process2&#45;&gt;identity</title>
<path fill="none" stroke="black" d="M37.23,-109.81C35.13,-93.74 35.38,-73.86 44.88,-59 47.35,-55.13 50.34,-51.65 53.69,-48.53"/>
<polygon fill="black" stroke="black" points="55.8,-51.32 61.49,-42.39 51.47,-45.82 55.8,-51.32"/>
<text text-anchor="middle" x="112.75" y="-78.7" font-family="Times,serif" font-size="14.00">type=DiagramType.flow</text>
<text text-anchor="middle" x="112.75" y="-62.2" font-family="Times,serif" font-size="14.00">mapping={&#39;x&#39;: (&#39;a&#39;,)}</text>
</g>
<!-- process3&#45;&gt;identity -->
<g id="edge4" class="edge">
<title>process3&#45;&gt;identity</title>
<path fill="none" stroke="black" d="M201.02,-117.92C198.77,-100.88 193.42,-76.38 180.62,-59 177.83,-55.2 174.52,-51.68 170.92,-48.44"/>
<polygon fill="black" stroke="black" points="173.29,-45.86 163.29,-42.36 168.93,-51.33 173.29,-45.86"/>
<text text-anchor="middle" x="263.38" y="-78.7" font-family="Times,serif" font-size="14.00">type=DiagramType.flow</text>
<text text-anchor="middle" x="263.38" y="-62.2" font-family="Times,serif" font-size="14.00">mapping={&#39;y&#39;: (&#39;b&#39;,)}</text>
</g>
</g>
</svg>
