<?xml version="1.0" encoding="UTF-8" standalone="no"?>
<!DOCTYPE svg PUBLIC "-//W3C//DTD SVG 1.1//EN"
 "http://www.w3.org/Graphics/SVG/1.1/DTD/svg11.dtd">
<!-- Generated by graphviz version 12.2.1 (20241206.2353)
 -->
<!-- Pages: 1 -->
<svg width="526pt" height="537pt"
 viewBox="0.00 0.00 526.48 536.50" xmlns="http://www.w3.org/2000/svg" xmlns:xlink="http://www.w3.org/1999/xlink">
<g id="graph0" class="graph" transform="scale(1 1) rotate(0) translate(4 532.5)">
<polygon fill="white" stroke="none" points="-4,4 -4,-532.5 522.48,-532.5 522.48,4 -4,4"/>
<!-- process4 -->
<g id="node1" class="node">
<title>process4</title>
<polygon fill="#ececff" stroke="#9370db" points="95.5,-331.5 0,-331.5 0,-290.5 95.5,-290.5 95.5,-331.5"/>
<text text-anchor="middle" x="47.75" y="-314.2" font-family="Times,serif" font-size="14.00">process4</text>
<text text-anchor="middle" x="47.75" y="-297.7" font-family="Times,serif" font-size="14.00">is_break=True</text>
</g>
<!-- End -->
<g id="node3" class="node">
<title>End</title>
<polygon fill="#ececff" stroke="#9370db" points="90.75,-36 36.75,-36 36.75,0 90.75,0 90.75,-36"/>
<text text-anchor="middle" x="63.75" y="-12.95" font-family="Times,serif" font-size="14.00">End</text>
</g>
<!-- process4&#45;&gt;End -->
<g id="edge1" class="edge">
<title>process4&#45;&gt;End</title>
<path fill="none" stroke="black" d="M48.82,-290.45C51.59,-240.25 58.93,-106.58 62.18,-47.62"/>
<polygon fill="black" stroke="black" points="65.67,-47.92 62.72,-37.74 58.68,-47.53 65.67,-47.92"/>
<text text-anchor="middle" x="133.75" y="-183.7" font-family="Times,serif" font-size="14.00">type=DiagramType.decision</text>
<text text-anchor="middle" x="133.75" y="-167.2" font-family="Times,serif" font-size="14.00">mapping={0: (&#39;.&#39;,)}</text>
</g>
<!-- Start -->
<g id="node2" class="node">
<title>Start</title>
<polygon fill="#ececff" stroke="#9370db" points="163.75,-528.5 109.75,-528.5 109.75,-492.5 163.75,-492.5 163.75,-528.5"/>
<text text-anchor="middle" x="136.75" y="-505.45" font-family="Times,serif" font-size="14.00">Start</text>
</g>
<!-- Start&#45;&gt;process4 -->
<g id="edge2" class="edge">
<title>Start&#45;&gt;process4</title>
<path fill="none" stroke="black" d="M109.54,-507.25C88,-503.88 59.2,-495.46 44.75,-474.5 17.91,-435.58 27.49,-377.99 37.31,-342.85"/>
<polygon fill="black" stroke="black" points="40.66,-343.88 40.17,-333.3 33.95,-341.88 40.66,-343.88"/>
<text text-anchor="middle" x="122.75" y="-452.95" font-family="Times,serif" font-size="14.00">type=DiagramType.decision</text>
<text text-anchor="middle" x="122.75" y="-436.45" font-family="Times,serif" font-size="14.00">mapping={0: (&#39;.&#39;,)}</text>
</g>
<!-- process1 -->
<g id="node4" class="node">
<title>process1</title>
<polygon fill="#ececff" stroke="#9370db" points="320.62,-407 132.88,-407 132.88,-349.5 320.62,-349.5 320.62,-407"/>
<text text-anchor="middle" x="226.75" y="-389.7" font-family="Times,serif" font-size="14.00">process1</text>
<text text-anchor="middle" x="226.75" y="-373.2" font-family="Times,serif" font-size="14.00">func=add1</text>
<text text-anchor="middle" x="226.75" y="-356.7" font-family="Times,serif" font-size="14.00">write_state={&#39;result&#39;: {0: (&#39;.&#39;,)}}</text>
</g>
<!-- Start&#45;&gt;process1 -->
<g id="edge3" class="edge">
<title>Start&#45;&gt;process1</title>
<path fill="none" stroke="black" d="M163.94,-501.68C178.11,-496.25 194.56,-487.6 204.75,-474.5 217.03,-458.71 222.67,-437.27 225.18,-418.73"/>
<polygon fill="black" stroke="black" points="228.65,-419.16 226.23,-408.85 221.69,-418.42 228.65,-419.16"/>
<text text-anchor="middle" x="302.02" y="-461.2" font-family="Times,serif" font-size="14.00">type=DiagramType.decision</text>
<text text-anchor="middle" x="302.02" y="-444.7" font-family="Times,serif" font-size="14.00">mapping={0: (&#39;.&#39;,)}</text>
<text text-anchor="middle" x="302.02" y="-428.2" font-family="Times,serif" font-size="14.00">condition=is_even</text>
</g>
<!-- process2 -->
<g id="node6" class="node">
<title>process2</title>
<polygon fill="#ececff" stroke="#9370db" points="270.38,-272.5 183.12,-272.5 183.12,-215 270.38,-215 270.38,-272.5"/>
<text text-anchor="middle" x="226.75" y="-255.2" font-family="Times,serif" font-size="14.00">process2</text>
<text text-anchor="middle" x="226.75" y="-238.7" font-family="Times,serif" font-size="14.00">for_each=[0]</text>
<text text-anchor="middle" x="226.75" y="-222.2" font-family="Times,serif" font-size="14.00">func=add2</text>
</g>
<!-- process1&#45;&gt;process2 -->
<g id="edge4" class="edge">
<title>process1&#45;&gt;process2</title>
<path fill="none" stroke="black" d="M226.75,-349.15C226.75,-330.27 226.75,-305.11 226.75,-284.22"/>
<polygon fill="black" stroke="black" points="230.25,-284.32 226.75,-274.32 223.25,-284.32 230.25,-284.32"/>
<text text-anchor="middle" x="294.62" y="-314.2" font-family="Times,serif" font-size="14.00">type=DiagramType.flow</text>
<text text-anchor="middle" x="294.62" y="-297.7" font-family="Times,serif" font-size="14.00">mapping={0: (&#39;.&#39;,)}</text>
</g>
<!-- process3 -->
<g id="node7" class="node">
<title>process3</title>
<polygon fill="#ececff" stroke="#9370db" points="423,-264.25 348.5,-264.25 348.5,-223.25 423,-223.25 423,-264.25"/>
<text text-anchor="middle" x="385.75" y="-246.95" font-family="Times,serif" font-size="14.00">process3</text>
<text text-anchor="middle" x="385.75" y="-230.45" font-family="Times,serif" font-size="14.00">func=add5</text>
</g>
<!-- process1&#45;&gt;process3 -->
<g id="edge5" class="edge">
<title>process1&#45;&gt;process3</title>
<path fill="none" stroke="black" d="M321.11,-359.68C337.04,-353.08 352.15,-343.99 363.75,-331.5 377.63,-316.56 383.06,-294.13 385.05,-275.83"/>
<polygon fill="black" stroke="black" points="388.53,-276.26 385.81,-266.02 381.55,-275.72 388.53,-276.26"/>
<text text-anchor="middle" x="450.6" y="-314.2" font-family="Times,serif" font-size="14.00">type=DiagramType.flow</text>
<text text-anchor="middle" x="450.6" y="-297.7" font-family="Times,serif" font-size="14.00">mapping={0: (&#39;.&#39;,)}</text>
</g>
<!-- identity -->
<g id="node5" class="node">
<title>identity</title>
<polygon fill="#ececff" stroke="#9370db" points="331.12,-146 122.38,-146 122.38,-105 331.12,-105 331.12,-146"/>
<text text-anchor="middle" x="226.75" y="-128.7" font-family="Times,serif" font-size="14.00">identity</text>
<text text-anchor="middle" x="226.75" y="-112.2" font-family="Times,serif" font-size="14.00">read_state={&#39;result&#39;: {&#39;input&#39;: (&#39;.&#39;,)}}</text>
</g>
<!-- identity&#45;&gt;End -->
<g id="edge6" class="edge">
<title>identity&#45;&gt;End</title>
<path fill="none" stroke="black" d="M196.09,-104.66C168.83,-87.01 128.94,-61.19 100.08,-42.52"/>
<polygon fill="black" stroke="black" points="102.32,-39.8 92.03,-37.3 98.52,-45.67 102.32,-39.8"/>
<text text-anchor="middle" x="242.64" y="-73.7" font-family="Times,serif" font-size="14.00">type=DiagramType.decision</text>
<text text-anchor="middle" x="242.64" y="-57.2" font-family="Times,serif" font-size="14.00">mapping={0: (&#39;.&#39;,)}</text>
</g>
<!-- process2&#45;&gt;identity -->
<g id="edge7" class="edge">
<title>process2&#45;&gt;identity</title>
<path fill="none" stroke="black" d="M226.75,-214.61C226.75,-197.47 226.75,-175.53 226.75,-157.83"/>
<polygon fill="black" stroke="black" points="230.25,-157.89 226.75,-147.89 223.25,-157.89 230.25,-157.89"/>
<text text-anchor="middle" x="294.62" y="-183.7" font-family="Times,serif" font-size="14.00">type=DiagramType.flow</text>
<text text-anchor="middle" x="294.62" y="-167.2" font-family="Times,serif" font-size="14.00">mapping={&#39;x&#39;: (&#39;a&#39;,)}</text>
</g>
<!-- process3&#45;&gt;identity -->
<g id="edge8" class="edge">
<title>process3&#45;&gt;identity</title>
<path fill="none" stroke="black" d="M385.46,-222.89C384.12,-205.11 379.35,-179.52 363.75,-164 357.22,-157.51 349.69,-152.11 341.58,-147.63"/>
<polygon fill="black" stroke="black" points="343.3,-144.58 332.78,-143.28 340.19,-150.85 343.3,-144.58"/>
<text text-anchor="middle" x="448.97" y="-183.7" font-family="Times,serif" font-size="14.00">type=DiagramType.flow</text>
<text text-anchor="middle" x="448.97" y="-167.2" font-family="Times,serif" font-size="14.00">mapping={&#39;y&#39;: (&#39;b&#39;,)}</text>
</g>
</g>
</svg>
