<?xml version="1.0" encoding="UTF-8" standalone="no"?>
<!DOCTYPE svg PUBLIC "-//W3C//DTD SVG 1.1//EN"
 "http://www.w3.org/Graphics/SVG/1.1/DTD/svg11.dtd">
<!-- Generated by graphviz version 12.2.1 (20241206.2353)
 -->
<!-- Pages: 1 -->
<svg width="526pt" height="553pt"
 viewBox="0.00 0.00 526.48 553.00" xmlns="http://www.w3.org/2000/svg" xmlns:xlink="http://www.w3.org/1999/xlink">
<g id="graph0" class="graph" transform="scale(1 1) rotate(0) translate(4 549)">
<polygon fill="white" stroke="none" points="-4,4 -4,-549 522.48,-549 522.48,4 -4,4"/>
<!-- process4 -->
<g id="node1" class="node">
<title>process4</title>
<polygon fill="#ececff" stroke="#9370db" points="95.5,-348 0,-348 0,-307 95.5,-307 95.5,-348"/>
<text text-anchor="middle" x="47.75" y="-330.7" font-family="Times,serif" font-size="14.00">process4</text>
<text text-anchor="middle" x="47.75" y="-314.2" font-family="Times,serif" font-size="14.00">is_break=True</text>
</g>
<!-- End -->
<g id="node3" class="node">
<title>End</title>
<polygon fill="#ececff" stroke="#9370db" points="90.75,-36 36.75,-36 36.75,0 90.75,0 90.75,-36"/>
<text text-anchor="middle" x="63.75" y="-12.95" font-family="Times,serif" font-size="14.00">End</text>
</g>
<!-- process4&#45;&gt;End -->
<g id="edge1" class="edge">
<title>process4&#45;&gt;End</title>
<path fill="none" stroke="black" d="M48.78,-306.8C51.52,-253.98 59.06,-109.08 62.27,-47.4"/>
<polygon fill="black" stroke="black" points="65.75,-47.91 62.78,-37.74 58.76,-47.54 65.75,-47.91"/>
<text text-anchor="middle" x="133.31" y="-200.2" font-family="Times,serif" font-size="14.00">type=DiagramType.decision</text>
<text text-anchor="middle" x="133.31" y="-183.7" font-family="Times,serif" font-size="14.00">mapping={&#39;**&#39;: (&#39;a&#39;,)}</text>
</g>
<!-- Start -->
<g id="node2" class="node">
<title>Start</title>
<polygon fill="#ececff" stroke="#9370db" points="163.75,-545 109.75,-545 109.75,-509 163.75,-509 163.75,-545"/>
<text text-anchor="middle" x="136.75" y="-521.95" font-family="Times,serif" font-size="14.00">Start</text>
</g>
<!-- Start&#45;&gt;process4 -->
<g id="edge2" class="edge">
<title>Start&#45;&gt;process4</title>
<path fill="none" stroke="black" d="M109.54,-523.75C88,-520.38 59.2,-511.96 44.75,-491 17.91,-452.08 27.49,-394.49 37.31,-359.35"/>
<polygon fill="black" stroke="black" points="40.66,-360.38 40.17,-349.8 33.95,-358.38 40.66,-360.38"/>
<text text-anchor="middle" x="122.75" y="-469.45" font-family="Times,serif" font-size="14.00">type=DiagramType.decision</text>
<text text-anchor="middle" x="122.75" y="-452.95" font-family="Times,serif" font-size="14.00">mapping={0: (&#39;.&#39;,)}</text>
</g>
<!-- process1 -->
<g id="node4" class="node">
<title>process1</title>
<polygon fill="#ececff" stroke="#9370db" points="320.62,-423.5 132.88,-423.5 132.88,-366 320.62,-366 320.62,-423.5"/>
<text text-anchor="middle" x="226.75" y="-406.2" font-family="Times,serif" font-size="14.00">process1</text>
<text text-anchor="middle" x="226.75" y="-389.7" font-family="Times,serif" font-size="14.00">func=add1</text>
<text text-anchor="middle" x="226.75" y="-373.2" font-family="Times,serif" font-size="14.00">write_state={&#39;result&#39;: {0: (&#39;.&#39;,)}}</text>
</g>
<!-- Start&#45;&gt;process1 -->
<g id="edge3" class="edge">
<title>Start&#45;&gt;process1</title>
<path fill="none" stroke="black" d="M163.94,-518.18C178.11,-512.75 194.56,-504.1 204.75,-491 217.03,-475.21 222.67,-453.77 225.18,-435.23"/>
<polygon fill="black" stroke="black" points="228.65,-435.66 226.23,-425.35 221.69,-434.92 228.65,-435.66"/>
<text text-anchor="middle" x="302.02" y="-477.7" font-family="Times,serif" font-size="14.00">type=DiagramType.decision</text>
<text text-anchor="middle" x="302.02" y="-461.2" font-family="Times,serif" font-size="14.00">mapping={0: (&#39;.&#39;,)}</text>
<text text-anchor="middle" x="302.02" y="-444.7" font-family="Times,serif" font-size="14.00">condition=is_even</text>
</g>
<!-- process2 -->
<g id="node6" class="node">
<title>process2</title>
<polygon fill="#ececff" stroke="#9370db" points="270.38,-289 183.12,-289 183.12,-231.5 270.38,-231.5 270.38,-289"/>
<text text-anchor="middle" x="226.75" y="-271.7" font-family="Times,serif" font-size="14.00">process2</text>
<text text-anchor="middle" x="226.75" y="-255.2" font-family="Times,serif" font-size="14.00">for_each=[0]</text>
<text text-anchor="middle" x="226.75" y="-238.7" font-family="Times,serif" font-size="14.00">func=add2</text>
</g>
<!-- process1&#45;&gt;process2 -->
<g id="edge4" class="edge">
<title>process1&#45;&gt;process2</title>
<path fill="none" stroke="black" d="M226.75,-365.65C226.75,-346.77 226.75,-321.61 226.75,-300.72"/>
<polygon fill="black" stroke="black" points="230.25,-300.82 226.75,-290.82 223.25,-300.82 230.25,-300.82"/>
<text text-anchor="middle" x="294.62" y="-330.7" font-family="Times,serif" font-size="14.00">type=DiagramType.flow</text>
<text text-anchor="middle" x="294.62" y="-314.2" font-family="Times,serif" font-size="14.00">mapping={0: (&#39;.&#39;,)}</text>
</g>
<!-- process3 -->
<g id="node7" class="node">
<title>process3</title>
<polygon fill="#ececff" stroke="#9370db" points="423,-280.75 348.5,-280.75 348.5,-239.75 423,-239.75 423,-280.75"/>
<text text-anchor="middle" x="385.75" y="-263.45" font-family="Times,serif" font-size="14.00">process3</text>
<text text-anchor="middle" x="385.75" y="-246.95" font-family="Times,serif" font-size="14.00">func=add5</text>
</g>
<!-- process1&#45;&gt;process3 -->
<g id="edge5" class="edge">
<title>process1&#45;&gt;process3</title>
<path fill="none" stroke="black" d="M321.11,-376.18C337.04,-369.58 352.15,-360.49 363.75,-348 377.63,-333.06 383.06,-310.63 385.05,-292.33"/>
<polygon fill="black" stroke="black" points="388.53,-292.76 385.81,-282.52 381.55,-292.22 388.53,-292.76"/>
<text text-anchor="middle" x="450.6" y="-330.7" font-family="Times,serif" font-size="14.00">type=DiagramType.flow</text>
<text text-anchor="middle" x="450.6" y="-314.2" font-family="Times,serif" font-size="14.00">mapping={0: (&#39;.&#39;,)}</text>
</g>
<!-- identity -->
<g id="node5" class="node">
<title>identity</title>
<polygon fill="#ececff" stroke="#9370db" points="331.12,-162.5 122.38,-162.5 122.38,-105 331.12,-105 331.12,-162.5"/>
<text text-anchor="middle" x="226.75" y="-145.2" font-family="Times,serif" font-size="14.00">identity</text>
<text text-anchor="middle" x="226.75" y="-128.7" font-family="Times,serif" font-size="14.00">for_each=[&#39;x&#39;]</text>
<text text-anchor="middle" x="226.75" y="-112.2" font-family="Times,serif" font-size="14.00">read_state={&#39;result&#39;: {&#39;input&#39;: (&#39;.&#39;,)}}</text>
</g>
<!-- identity&#45;&gt;End -->
<g id="edge6" class="edge">
<title>identity&#45;&gt;End</title>
<path fill="none" stroke="black" d="M186.46,-104.63C159.21,-85.61 123.61,-60.77 97.78,-42.75"/>
<polygon fill="black" stroke="black" points="99.84,-39.92 89.64,-37.07 95.84,-45.66 99.84,-39.92"/>
<text text-anchor="middle" x="237.85" y="-73.7" font-family="Times,serif" font-size="14.00">type=DiagramType.decision</text>
<text text-anchor="middle" x="237.85" y="-57.2" font-family="Times,serif" font-size="14.00">mapping={&#39;**&#39;: (&#39;.&#39;,)}</text>
</g>
<!-- process2&#45;&gt;identity -->
<g id="edge7" class="edge">
<title>process2&#45;&gt;identity</title>
<path fill="none" stroke="black" d="M226.75,-231.31C226.75,-214.41 226.75,-192.6 226.75,-173.99"/>
<polygon fill="black" stroke="black" points="230.25,-174.11 226.75,-164.11 223.25,-174.11 230.25,-174.11"/>
<text text-anchor="middle" x="294.62" y="-200.2" font-family="Times,serif" font-size="14.00">type=DiagramType.flow</text>
<text text-anchor="middle" x="294.62" y="-183.7" font-family="Times,serif" font-size="14.00">mapping={&#39;x&#39;: (&#39;a&#39;,)}</text>
</g>
<!-- process3&#45;&gt;identity -->
<g id="edge8" class="edge">
<title>process3&#45;&gt;identity</title>
<path fill="none" stroke="black" d="M385.23,-239.25C383.72,-221.62 378.82,-196.34 363.75,-180.5 357.17,-173.58 349.51,-167.7 341.24,-162.72"/>
<polygon fill="black" stroke="black" points="343.06,-159.73 332.61,-157.99 339.7,-165.87 343.06,-159.73"/>
<text text-anchor="middle" x="448.65" y="-200.2" font-family="Times,serif" font-size="14.00">type=DiagramType.flow</text>
<text text-anchor="middle" x="448.65" y="-183.7" font-family="Times,serif" font-size="14.00">mapping={&#39;y&#39;: (&#39;b&#39;,)}</text>
</g>
</g>
</svg>
