<?xml version="1.0" encoding="UTF-8" standalone="no"?>
<!DOCTYPE svg PUBLIC "-//W3C//DTD SVG 1.1//EN"
 "http://www.w3.org/Graphics/SVG/1.1/DTD/svg11.dtd">
<!-- Generated by graphviz version 12.2.1 (20241206.2353)
 -->
<!-- Title: test_d2 Pages: 1 -->
<svg width="122pt" height="218pt"
 viewBox="0.00 0.00 121.50 217.50" xmlns="http://www.w3.org/2000/svg" xmlns:xlink="http://www.w3.org/1999/xlink">
<g id="graph0" class="graph" transform="scale(1 1) rotate(0) translate(4 213.5)">
<title>test_d2</title>
<polygon fill="white" stroke="none" points="-4,4 -4,-213.5 117.5,-213.5 117.5,4 -4,4"/>
<text text-anchor="middle" x="56.75" y="-192.2" font-family="Times,serif" font-size="14.00">test_d2</text>
<!-- node_0 -->
<g id="node1" class="node">
<title>node_0</title>
<polygon fill="#ececff" stroke="#9370db" points="113.5,-113 0,-113 0,-72 113.5,-72 113.5,-113"/>
<text text-anchor="middle" x="56.75" y="-95.7" font-family="Times,serif" font-size="14.00">proc[</text>
<text text-anchor="middle" x="56.75" y="-79.2" font-family="Times,serif" font-size="14.00">Diagram(test_d) ]</text>
</g>
<!-- node_2 -->
<g id="node3" class="node">
<title>node_2</title>
<polygon fill="#ececff" stroke="#9370db" points="83.75,-36 29.75,-36 29.75,0 83.75,0 83.75,-36"/>
<text text-anchor="middle" x="56.75" y="-12.95" font-family="Times,serif" font-size="14.00">End</text>
</g>
<!-- node_0&#45;&gt;node_2 -->
<g id="edge1" class="edge">
<title>node_0&#45;&gt;node_2</title>
<path fill="none" stroke="blue" stroke-width="2" d="M56.75,-71.69C56.75,-64.25 56.75,-55.64 56.75,-47.57"/>
<polygon fill="blue" stroke="blue" stroke-width="2" points="60.25,-49.35 56.75,-39.35 53.25,-49.35 60.25,-49.35"/>
</g>
<!-- node_1 -->
<g id="node2" class="node">
<title>node_1</title>
<polygon fill="#ececff" stroke="#9370db" points="83.75,-185 29.75,-185 29.75,-149 83.75,-149 83.75,-185"/>
<text text-anchor="middle" x="56.75" y="-161.95" font-family="Times,serif" font-size="14.00">Start</text>
</g>
<!-- node_1&#45;&gt;node_0 -->
<g id="edge2" class="edge">
<title>node_1&#45;&gt;node_0</title>
<path fill="none" stroke="blue" stroke-width="2" d="M56.75,-148.82C56.75,-141.59 56.75,-132.95 56.75,-124.66"/>
<polygon fill="blue" stroke="blue" stroke-width="2" points="60.25,-126.41 56.75,-116.41 53.25,-126.41 60.25,-126.41"/>
</g>
</g>
</svg>
