<?xml version="1.0" encoding="UTF-8" standalone="no"?>
<!DOCTYPE svg PUBLIC "-//W3C//DTD SVG 1.1//EN"
 "http://www.w3.org/Graphics/SVG/1.1/DTD/svg11.dtd">
<!-- Generated by graphviz version 12.2.1 (20241206.2353)
 -->
<!-- Title: test_state_read Pages: 1 -->
<svg width="206pt" height="230pt"
 viewBox="0.00 0.00 206.25 230.00" xmlns="http://www.w3.org/2000/svg" xmlns:xlink="http://www.w3.org/1999/xlink">
<g id="graph0" class="graph" transform="scale(1 1) rotate(0) translate(4 226)">
<title>test_state_read</title>
<polygon fill="white" stroke="none" points="-4,4 -4,-226 202.25,-226 202.25,4 -4,4"/>
<text text-anchor="middle" x="99.13" y="-204.7" font-family="Times,serif" font-size="14.00">test_state_read</text>
<!-- node_0 -->
<g id="node1" class="node">
<title>node_0</title>
<polygon fill="#ececff" stroke="#9370db" points="194.25,-124.5 140.25,-124.5 140.25,-88.5 194.25,-88.5 194.25,-124.5"/>
<text text-anchor="middle" x="167.25" y="-101.45" font-family="Times,serif" font-size="14.00">add</text>
</g>
<!-- node_2 -->
<g id="node3" class="node">
<title>node_2</title>
<polygon fill="#ececff" stroke="#9370db" points="138.25,-36 84.25,-36 84.25,0 138.25,0 138.25,-36"/>
<text text-anchor="middle" x="111.25" y="-12.95" font-family="Times,serif" font-size="14.00">End</text>
</g>
<!-- node_0&#45;&gt;node_2 -->
<g id="edge2" class="edge">
<title>node_0&#45;&gt;node_2</title>
<path fill="none" stroke="blue" stroke-width="2" d="M160.25,-88.16C155.76,-77.86 149.42,-64.75 142.25,-54 140.22,-50.96 137.95,-47.91 135.58,-44.94"/>
<polygon fill="blue" stroke="blue" stroke-width="2" points="139.43,-44.07 130.29,-38.71 134.09,-48.6 139.43,-44.07"/>
<text text-anchor="middle" x="175" y="-57.2" font-family="Times,serif" font-size="14.00">. &#45;&gt; data</text>
</g>
<!-- node_1 -->
<g id="node2" class="node">
<title>node_1</title>
<polygon fill="#ececff" stroke="#9370db" points="194.25,-197.5 140.25,-197.5 140.25,-161.5 194.25,-161.5 194.25,-197.5"/>
<text text-anchor="middle" x="167.25" y="-174.45" font-family="Times,serif" font-size="14.00">Start</text>
</g>
<!-- node_1&#45;&gt;node_0 -->
<g id="edge3" class="edge">
<title>node_1&#45;&gt;node_0</title>
<path fill="none" stroke="blue" stroke-width="2" d="M167.25,-161.31C167.25,-153.73 167.25,-144.6 167.25,-136.04"/>
<polygon fill="blue" stroke="blue" stroke-width="2" points="170.75,-137.56 167.25,-127.56 163.75,-137.56 170.75,-137.56"/>
</g>
<!-- node_3 -->
<g id="node4" class="node">
<title>node_3</title>
<path fill="#ececff" stroke="#9370db" d="M122.5,-121.23C122.5,-123.03 95.05,-124.5 61.25,-124.5 27.45,-124.5 0,-123.03 0,-121.23 0,-121.23 0,-91.77 0,-91.77 0,-89.97 27.45,-88.5 61.25,-88.5 95.05,-88.5 122.5,-89.97 122.5,-91.77 122.5,-91.77 122.5,-121.23 122.5,-121.23"/>
<path fill="none" stroke="#9370db" d="M122.5,-121.23C122.5,-119.42 95.05,-117.95 61.25,-117.95 27.45,-117.95 0,-119.42 0,-121.23"/>
<text text-anchor="middle" x="61.25" y="-101.45" font-family="Times,serif" font-size="14.00">State[outside_state]</text>
</g>
<!-- node_3&#45;&gt;node_2 -->
<g id="edge1" class="edge">
<title>node_3&#45;&gt;node_2</title>
<path fill="none" stroke="black" stroke-dasharray="5,2" d="M58.73,-88.28C58.02,-77.77 58.64,-64.41 64.25,-54 67.02,-48.87 70.9,-44.28 75.26,-40.25"/>
<polygon fill="black" stroke="black" points="77.27,-43.13 82.88,-34.14 72.89,-37.67 77.27,-43.13"/>
<text text-anchor="middle" x="103.25" y="-57.2" font-family="Times,serif" font-size="14.00">. &#45;&gt; state_data</text>
</g>
</g>
</svg>
