<?xml version="1.0" encoding="UTF-8" standalone="no"?>
<!DOCTYPE svg PUBLIC "-//W3C//DTD SVG 1.1//EN"
 "http://www.w3.org/Graphics/SVG/1.1/DTD/svg11.dtd">
<!-- Generated by graphviz version 12.2.1 (20241206.2353)
 -->
<!-- Title: Action Queue Pages: 1 -->
<svg width="382pt" height="356pt"
 viewBox="0.00 0.00 381.62 355.50" xmlns="http://www.w3.org/2000/svg" xmlns:xlink="http://www.w3.org/1999/xlink">
<g id="graph0" class="graph" transform="scale(1 1) rotate(0) translate(4 351.5)">
<title>Action Queue</title>
<polygon fill="white" stroke="none" points="-4,4 -4,-351.5 377.62,-351.5 377.62,4 -4,4"/>
<text text-anchor="middle" x="186.81" y="-330.2" font-family="Times,serif" font-size="14.00">Action Queue</text>
<!-- node_0 -->
<g id="node1" class="node">
<title>node_0</title>
<polygon fill="#ececff" stroke="#9370db" points="222,-323 168,-323 168,-287 222,-287 222,-323"/>
<text text-anchor="middle" x="195" y="-299.95" font-family="Times,serif" font-size="14.00">Start</text>
</g>
<!-- node_1 -->
<g id="node2" class="node">
<title>node_1</title>
<path fill="#ececff" stroke="#9370db" d="M245.12,-231.23C245.12,-233.03 226.24,-234.5 203,-234.5 179.76,-234.5 160.88,-233.03 160.88,-231.23 160.88,-231.23 160.88,-201.77 160.88,-201.77 160.88,-199.97 179.76,-198.5 203,-198.5 226.24,-198.5 245.12,-199.97 245.12,-201.77 245.12,-201.77 245.12,-231.23 245.12,-231.23"/>
<path fill="none" stroke="#9370db" d="M245.12,-231.23C245.12,-229.42 226.24,-227.95 203,-227.95 179.76,-227.95 160.88,-229.42 160.88,-231.23"/>
<text text-anchor="middle" x="203" y="-211.45" font-family="Times,serif" font-size="14.00">State[queue]</text>
</g>
<!-- node_0&#45;&gt;node_1 -->
<g id="edge1" class="edge">
<title>node_0&#45;&gt;node_1</title>
<path fill="none" stroke="black" stroke-dasharray="5,2" d="M196.58,-286.91C197.66,-275.26 199.11,-259.55 200.36,-246.02"/>
<polygon fill="black" stroke="black" points="203.82,-246.64 201.26,-236.36 196.85,-245.99 203.82,-246.64"/>
</g>
<!-- node_2 -->
<g id="node3" class="node">
<title>node_2</title>
<polygon fill="#ececff" stroke="#9370db" points="142.88,-234.5 75.12,-234.5 75.12,-198.5 142.88,-198.5 142.88,-234.5"/>
<text text-anchor="middle" x="109" y="-211.45" font-family="Times,serif" font-size="14.00">tasks_left</text>
</g>
<!-- node_0&#45;&gt;node_2 -->
<g id="edge4" class="edge">
<title>node_0&#45;&gt;node_2</title>
<path fill="none" stroke="blue" stroke-width="2" d="M178.01,-286.91C165.49,-274.32 148.25,-256.98 134.14,-242.79"/>
<polygon fill="blue" stroke="blue" stroke-width="2" points="137.92,-241.62 128.38,-237 132.95,-246.56 137.92,-241.62"/>
<text text-anchor="middle" x="175.08" y="-255.7" font-family="Times,serif" font-size="14.00">. &#45;&gt; _</text>
</g>
<!-- node_4 -->
<g id="node5" class="node">
<title>node_4</title>
<polygon fill="#ececff" stroke="#9370db" points="54,-146 0,-146 0,-110 54,-110 54,-146"/>
<text text-anchor="middle" x="27" y="-122.95" font-family="Times,serif" font-size="14.00">End</text>
</g>
<!-- node_2&#45;&gt;node_4 -->
<g id="edge5" class="edge">
<title>node_2&#45;&gt;node_4</title>
<path fill="none" stroke="blue" stroke-width="2" d="M74.77,-209.59C57.8,-204.77 38.75,-196.08 28.25,-180.5 23.75,-173.82 22.26,-165.47 22.22,-157.45"/>
<polygon fill="blue" stroke="blue" stroke-width="2" points="25.59,-159.41 22.8,-149.19 18.61,-158.92 25.59,-159.41"/>
<text text-anchor="middle" x="61.62" y="-167.2" font-family="Times,serif" font-size="14.00">?(x: x == 0)</text>
</g>
<!-- node_5 -->
<g id="node6" class="node">
<title>node_5</title>
<polygon fill="#ececff" stroke="#9370db" points="246,-146 158,-146 158,-110 246,-110 246,-146"/>
<text text-anchor="middle" x="202" y="-122.95" font-family="Times,serif" font-size="14.00">do_next_task</text>
</g>
<!-- node_2&#45;&gt;node_5 -->
<g id="edge6" class="edge">
<title>node_2&#45;&gt;node_5</title>
<path fill="none" stroke="blue" stroke-width="2" d="M127.37,-198.41C141.04,-185.7 159.9,-168.16 175.24,-153.89"/>
<polygon fill="blue" stroke="blue" stroke-width="2" points="176.19,-157.79 181.13,-148.41 171.42,-152.66 176.19,-157.79"/>
<text text-anchor="middle" x="179.2" y="-167.2" font-family="Times,serif" font-size="14.00">. &#45;&gt; _</text>
</g>
<!-- node_3 -->
<g id="node4" class="node">
<title>node_3</title>
<path fill="#ececff" stroke="#9370db" d="M143.25,-319.73C143.25,-321.53 127.9,-323 109,-323 90.1,-323 74.75,-321.53 74.75,-319.73 74.75,-319.73 74.75,-290.27 74.75,-290.27 74.75,-288.47 90.1,-287 109,-287 127.9,-287 143.25,-288.47 143.25,-290.27 143.25,-290.27 143.25,-319.73 143.25,-319.73"/>
<path fill="none" stroke="#9370db" d="M143.25,-319.73C143.25,-317.92 127.9,-316.45 109,-316.45 90.1,-316.45 74.75,-317.92 74.75,-319.73"/>
<text text-anchor="middle" x="109" y="-299.95" font-family="Times,serif" font-size="14.00">State[len]</text>
</g>
<!-- node_3&#45;&gt;node_2 -->
<g id="edge2" class="edge">
<title>node_3&#45;&gt;node_2</title>
<path fill="none" stroke="black" stroke-dasharray="5,2" d="M109,-286.91C109,-275.26 109,-259.55 109,-246.02"/>
<polygon fill="black" stroke="black" points="112.5,-246.36 109,-236.36 105.5,-246.36 112.5,-246.36"/>
</g>
<!-- node_7 -->
<g id="node8" class="node">
<title>node_7</title>
<polygon fill="#ececff" stroke="#9370db" points="373.62,-41 232.38,-41 232.38,0 373.62,0 373.62,-41"/>
<text text-anchor="middle" x="303" y="-23.7" font-family="Times,serif" font-size="14.00">do_A_task[ do_A_task</text>
<text text-anchor="middle" x="303" y="-7.2" font-family="Times,serif" font-size="14.00">]</text>
</g>
<!-- node_5&#45;&gt;node_7 -->
<g id="edge7" class="edge">
<title>node_5&#45;&gt;node_7</title>
<path fill="none" stroke="blue" stroke-width="2" d="M197.41,-109.7C194.54,-94.87 193.13,-73.65 203.5,-59 208.53,-51.9 215.07,-46.15 222.41,-41.48"/>
<polygon fill="blue" stroke="blue" stroke-width="2" points="222.37,-45.51 229.42,-37.6 218.98,-39.38 222.37,-45.51"/>
<text text-anchor="middle" x="256.75" y="-78.7" font-family="Times,serif" font-size="14.00">?(Condition(</text>
<text text-anchor="middle" x="256.75" y="-62.2" font-family="Times,serif" font-size="14.00">(0=type) ) &#45;&gt; (/A/))</text>
</g>
<!-- node_8 -->
<g id="node9" class="node">
<title>node_8</title>
<polygon fill="#ececff" stroke="#9370db" points="194.25,-41 83.75,-41 83.75,0 194.25,0 194.25,-41"/>
<text text-anchor="middle" x="139" y="-23.7" font-family="Times,serif" font-size="14.00">do_default_task[</text>
<text text-anchor="middle" x="139" y="-7.2" font-family="Times,serif" font-size="14.00">do_default_task ]</text>
</g>
<!-- node_5&#45;&gt;node_8 -->
<g id="edge8" class="edge">
<title>node_5&#45;&gt;node_8</title>
<path fill="none" stroke="blue" stroke-width="2" d="M190.91,-109.63C187.39,-104.03 183.49,-97.77 180,-92 171.91,-78.62 163.16,-63.66 155.84,-50.97"/>
<polygon fill="blue" stroke="blue" stroke-width="2" points="159.84,-50.91 151.82,-43.98 153.77,-54.4 159.84,-50.91"/>
</g>
<!-- node_6 -->
<g id="node7" class="node">
<title>node_6</title>
<path fill="#ececff" stroke="#9370db" d="M335.12,-231.23C335.12,-233.03 318.93,-234.5 299,-234.5 279.07,-234.5 262.88,-233.03 262.88,-231.23 262.88,-231.23 262.88,-201.77 262.88,-201.77 262.88,-199.97 279.07,-198.5 299,-198.5 318.93,-198.5 335.12,-199.97 335.12,-201.77 335.12,-201.77 335.12,-231.23 335.12,-231.23"/>
<path fill="none" stroke="#9370db" d="M335.12,-231.23C335.12,-229.42 318.93,-227.95 299,-227.95 279.07,-227.95 262.88,-229.42 262.88,-231.23"/>
<text text-anchor="middle" x="299" y="-211.45" font-family="Times,serif" font-size="14.00">State[pop]</text>
</g>
<!-- node_6&#45;&gt;node_5 -->
<g id="edge3" class="edge">
<title>node_6&#45;&gt;node_5</title>
<path fill="none" stroke="black" stroke-dasharray="5,2" d="M279.84,-198.41C265.58,-185.7 245.91,-168.16 229.91,-153.89"/>
<polygon fill="black" stroke="black" points="232.38,-151.4 222.59,-147.36 227.72,-156.63 232.38,-151.4"/>
</g>
<!-- node_7&#45;&gt;node_2 -->
<g id="edge9" class="edge">
<title>node_7&#45;&gt;node_2</title>
<path fill="none" stroke="blue" stroke-width="2" d="M309.95,-41.41C313.86,-55.96 316.76,-75.89 310,-92 278.58,-166.89 234.7,-167.84 153.83,-197.9"/>
<polygon fill="blue" stroke="blue" stroke-width="2" points="154.19,-194.02 146.08,-200.84 156.67,-200.56 154.19,-194.02"/>
<text text-anchor="middle" x="316.3" y="-122.95" font-family="Times,serif" font-size="14.00">. &#45;&gt; _</text>
</g>
<!-- node_8&#45;&gt;node_2 -->
<g id="edge10" class="edge">
<title>node_8&#45;&gt;node_2</title>
<path fill="none" stroke="blue" stroke-width="2" d="M133.48,-41.37C128.74,-59.2 122.07,-86.16 118.25,-110 114.12,-135.8 111.72,-165.47 110.41,-186.76"/>
<polygon fill="blue" stroke="blue" stroke-width="2" points="107,-185.03 109.93,-195.21 113.99,-185.42 107,-185.03"/>
<text text-anchor="middle" x="133.62" y="-122.95" font-family="Times,serif" font-size="14.00">. &#45;&gt; _</text>
</g>
</g>
</svg>
