<?xml version="1.0" encoding="UTF-8" standalone="no"?>
<!DOCTYPE svg PUBLIC "-//W3C//DTD SVG 1.1//EN"
 "http://www.w3.org/Graphics/SVG/1.1/DTD/svg11.dtd">
<!-- Generated by graphviz version 12.2.1 (20241206.2353)
 -->
<!-- Title: remember_history Pages: 1 -->
<svg width="530pt" height="164pt"
 viewBox="0.00 0.00 530.00 163.50" xmlns="http://www.w3.org/2000/svg" xmlns:xlink="http://www.w3.org/1999/xlink">
<g id="graph0" class="graph" transform="scale(1 1) rotate(0) translate(4 159.5)">
<title>remember_history</title>
<polygon fill="white" stroke="none" points="-4,4 -4,-159.5 526,-159.5 526,4 -4,4"/>
<text text-anchor="middle" x="261" y="-138.2" font-family="Times,serif" font-size="14.00">remember_history</text>
<!-- node_0 -->
<g id="node1" class="node">
<title>node_0</title>
<polygon fill="#ececff" stroke="#9370db" points="218.5,-36 120,-36 120,0 218.5,0 218.5,-36"/>
<text text-anchor="middle" x="169.25" y="-12.95" font-family="Times,serif" font-size="14.00">add_1[ add_1 ]</text>
</g>
<!-- node_0&#45;&gt;node_0 -->
<g id="edge5" class="edge">
<title>node_0&#45;&gt;node_0</title>
<path fill="none" stroke="blue" stroke-width="2" d="M156.99,-36.15C155.11,-45.54 159.19,-54 169.25,-54 174.91,-54 178.67,-51.32 180.55,-47.31"/>
<polygon fill="blue" stroke="blue" stroke-width="2" points="183.88,-49.43 181.25,-39.17 176.91,-48.83 183.88,-49.43"/>
</g>
<!-- node_1 -->
<g id="node2" class="node">
<title>node_1</title>
<path fill="#ececff" stroke="#9370db" d="M351.38,-73.73C351.38,-75.53 331.32,-77 306.62,-77 281.93,-77 261.88,-75.53 261.88,-73.73 261.88,-73.73 261.88,-44.27 261.88,-44.27 261.88,-42.47 281.93,-41 306.62,-41 331.32,-41 351.38,-42.47 351.38,-44.27 351.38,-44.27 351.38,-73.73 351.38,-73.73"/>
<path fill="none" stroke="#9370db" d="M351.38,-73.73C351.38,-71.92 331.32,-70.45 306.62,-70.45 281.93,-70.45 261.88,-71.92 261.88,-73.73"/>
<text text-anchor="middle" x="306.62" y="-53.95" font-family="Times,serif" font-size="14.00">State[history]</text>
</g>
<!-- node_0&#45;&gt;node_1 -->
<g id="edge1" class="edge">
<title>node_0&#45;&gt;node_1</title>
<path fill="none" stroke="black" stroke-dasharray="5,2" d="M218.74,-32.69C229.1,-35.82 240.12,-39.16 250.7,-42.37"/>
<polygon fill="black" stroke="black" points="249.49,-45.66 260.08,-45.21 251.52,-38.96 249.49,-45.66"/>
</g>
<!-- node_3 -->
<g id="node4" class="node">
<title>node_3</title>
<polygon fill="#ececff" stroke="#9370db" points="522,-77 468,-77 468,-41 522,-41 522,-77"/>
<text text-anchor="middle" x="495" y="-53.95" font-family="Times,serif" font-size="14.00">End</text>
</g>
<!-- node_0&#45;&gt;node_3 -->
<g id="edge4" class="edge">
<title>node_0&#45;&gt;node_3</title>
<path fill="none" stroke="blue" stroke-width="2" d="M218.93,-16.33C230.89,-15.98 243.66,-15.67 255.5,-15.5 300.94,-14.83 312.85,-8.51 357.75,-15.5 392.36,-20.89 430.2,-33.55 457.2,-43.83"/>
<polygon fill="blue" stroke="blue" stroke-width="2" points="454.29,-46.45 464.88,-46.82 456.83,-39.93 454.29,-46.45"/>
<text text-anchor="middle" x="306.62" y="-18.7" font-family="Times,serif" font-size="14.00">?(is_mod_3)</text>
</g>
<!-- node_1&#45;&gt;node_3 -->
<g id="edge3" class="edge">
<title>node_1&#45;&gt;node_3</title>
<path fill="none" stroke="black" stroke-dasharray="5,2" d="M351.79,-59C383.63,-59 426.13,-59 456.36,-59"/>
<polygon fill="black" stroke="black" points="456.18,-62.5 466.18,-59 456.18,-55.5 456.18,-62.5"/>
<text text-anchor="middle" x="412.88" y="-62.2" font-family="Times,serif" font-size="14.00">. &#45;&gt; history</text>
</g>
<!-- node_2 -->
<g id="node3" class="node">
<title>node_2</title>
<polygon fill="#ececff" stroke="#9370db" points="54,-36 0,-36 0,0 54,0 54,-36"/>
<text text-anchor="middle" x="27" y="-12.95" font-family="Times,serif" font-size="14.00">Start</text>
</g>
<!-- node_2&#45;&gt;node_0 -->
<g id="edge6" class="edge">
<title>node_2&#45;&gt;node_0</title>
<path fill="none" stroke="blue" stroke-width="2" d="M54.38,-18C69.56,-18 89.29,-18 108.06,-18"/>
<polygon fill="blue" stroke="blue" stroke-width="2" points="106.54,-21.5 116.54,-18 106.54,-14.5 106.54,-21.5"/>
<text text-anchor="middle" x="87" y="-21.2" font-family="Times,serif" font-size="14.00">. &#45;&gt; a</text>
</g>
<!-- node_4 -->
<g id="node5" class="node">
<title>node_4</title>
<path fill="#ececff" stroke="#9370db" d="M357.75,-127.73C357.75,-129.53 334.83,-131 306.62,-131 278.42,-131 255.5,-129.53 255.5,-127.73 255.5,-127.73 255.5,-98.27 255.5,-98.27 255.5,-96.47 278.42,-95 306.62,-95 334.83,-95 357.75,-96.47 357.75,-98.27 357.75,-98.27 357.75,-127.73 357.75,-127.73"/>
<path fill="none" stroke="#9370db" d="M357.75,-127.73C357.75,-125.92 334.83,-124.45 306.62,-124.45 278.42,-124.45 255.5,-125.92 255.5,-127.73"/>
<text text-anchor="middle" x="306.62" y="-107.95" font-family="Times,serif" font-size="14.00">State[last_item]</text>
</g>
<!-- node_4&#45;&gt;node_3 -->
<g id="edge2" class="edge">
<title>node_4&#45;&gt;node_3</title>
<path fill="none" stroke="black" stroke-dasharray="5,2" d="M358.13,-104.08C385.69,-98.52 420.18,-90.43 450,-80 452.49,-79.13 455.03,-78.16 457.57,-77.12"/>
<polygon fill="black" stroke="black" points="458.72,-80.44 466.48,-73.22 455.92,-74.02 458.72,-80.44"/>
<text text-anchor="middle" x="412.88" y="-103.27" font-family="Times,serif" font-size="14.00">. &#45;&gt; last_item</text>
</g>
</g>
</svg>
