<?xml version="1.0" encoding="UTF-8" standalone="no"?>
<!DOCTYPE svg PUBLIC "-//W3C//DTD SVG 1.1//EN"
 "http://www.w3.org/Graphics/SVG/1.1/DTD/svg11.dtd">
<!-- Generated by graphviz version 12.2.1 (20241206.2353)
 -->
<!-- Title: strategy agent Pages: 1 -->
<svg width="543pt" height="639pt"
 viewBox="0.00 0.00 542.51 638.50" xmlns="http://www.w3.org/2000/svg" xmlns:xlink="http://www.w3.org/1999/xlink">
<g id="graph0" class="graph" transform="scale(1 1) rotate(0) translate(4 634.5)">
<title>strategy agent</title>
<polygon fill="white" stroke="none" points="-4,4 -4,-634.5 538.51,-634.5 538.51,4 -4,4"/>
<text text-anchor="middle" x="267.25" y="-613.2" font-family="Times,serif" font-size="14.00">strategy agent</text>
<!-- node_0 -->
<g id="node1" class="node">
<title>node_0</title>
<polygon fill="#ececff" stroke="#9370db" points="294.25,-517.5 126,-517.5 126,-410.5 294.25,-410.5 294.25,-517.5"/>
<text text-anchor="middle" x="210.12" y="-500.2" font-family="Times,serif" font-size="14.00">chooser[</text>
<text text-anchor="middle" x="210.12" y="-483.7" font-family="Times,serif" font-size="14.00">Chat(model=&#39;gpt&#45;4o&#45;mini&#39;,</text>
<text text-anchor="middle" x="210.12" y="-467.2" font-family="Times,serif" font-size="14.00">required_keys={&#39;question&#39;},</text>
<text text-anchor="middle" x="210.12" y="-450.7" font-family="Times,serif" font-size="14.00">choices=[&#39;rhyme&#39;,</text>
<text text-anchor="middle" x="210.12" y="-434.2" font-family="Times,serif" font-size="14.00">&#39;joke&#39;, &#39;yo_mama&#39;],</text>
<text text-anchor="middle" x="210.12" y="-417.7" font-family="Times,serif" font-size="14.00">seed=42) ]</text>
</g>
<!-- node_2 -->
<g id="node3" class="node">
<title>node_2</title>
<polygon fill="#ececff" stroke="#9370db" points="297.12,-358 243.12,-358 243.12,-322 297.12,-322 297.12,-358"/>
<text text-anchor="middle" x="270.12" y="-334.95" font-family="Times,serif" font-size="14.00">router</text>
</g>
<!-- node_0&#45;&gt;node_2 -->
<g id="edge1" class="edge">
<title>node_0&#45;&gt;node_2</title>
<path fill="none" stroke="black" d="M209.67,-410.09C211.42,-398.25 214.79,-386.19 220.88,-376 224.13,-370.54 228.61,-365.7 233.55,-361.5"/>
<polygon fill="black" stroke="black" points="235.63,-364.31 241.55,-355.53 231.44,-358.7 235.63,-364.31"/>
<text text-anchor="middle" x="268.5" y="-379.2" font-family="Times,serif" font-size="14.00">content &#45;&gt; choice</text>
</g>
<!-- node_1 -->
<g id="node2" class="node">
<title>node_1</title>
<polygon fill="#ececff" stroke="#9370db" points="297.12,-606 243.12,-606 243.12,-570 297.12,-570 297.12,-606"/>
<text text-anchor="middle" x="270.12" y="-582.95" font-family="Times,serif" font-size="14.00">Start</text>
</g>
<!-- node_1&#45;&gt;node_0 -->
<g id="edge2" class="edge">
<title>node_1&#45;&gt;node_0</title>
<path fill="none" stroke="black" d="M261.53,-569.52C256.05,-558.39 248.59,-543.22 241.05,-527.89"/>
<polygon fill="black" stroke="black" points="244.33,-526.62 236.78,-519.19 238.05,-529.71 244.33,-526.62"/>
<text text-anchor="middle" x="271.15" y="-538.7" font-family="Times,serif" font-size="14.00">. &#45;&gt; **</text>
</g>
<!-- node_1&#45;&gt;node_2 -->
<g id="edge3" class="edge">
<title>node_1&#45;&gt;node_2</title>
<path fill="none" stroke="black" d="M283.84,-569.55C287.59,-564.15 291.37,-558.03 294.12,-552 314.67,-506.98 315.53,-404.01 316.12,-392.5 316.5,-385.18 319.38,-382.57 316.12,-376 313.69,-371.09 310.2,-366.68 306.22,-362.78"/>
<polygon fill="black" stroke="black" points="308.6,-360.21 298.68,-356.48 304.1,-365.58 308.6,-360.21"/>
<text text-anchor="middle" x="371.4" y="-458.95" font-family="Times,serif" font-size="14.00">question &#45;&gt; question</text>
</g>
<!-- node_5 -->
<g id="node6" class="node">
<title>node_5</title>
<polygon fill="#ececff" stroke="#9370db" points="168.25,-220 0,-220 0,-146 168.25,-146 168.25,-220"/>
<text text-anchor="middle" x="84.12" y="-202.7" font-family="Times,serif" font-size="14.00">rhyme_agent[</text>
<text text-anchor="middle" x="84.12" y="-186.2" font-family="Times,serif" font-size="14.00">Chat(model=&#39;gpt&#45;4o&#45;mini&#39;,</text>
<text text-anchor="middle" x="84.12" y="-169.7" font-family="Times,serif" font-size="14.00">required_keys={&#39;question&#39;},</text>
<text text-anchor="middle" x="84.12" y="-153.2" font-family="Times,serif" font-size="14.00">seed=42) ]</text>
</g>
<!-- node_2&#45;&gt;node_5 -->
<g id="edge4" class="edge">
<title>node_2&#45;&gt;node_5</title>
<path fill="none" stroke="blue" stroke-width="2" d="M242.83,-336.14C218.11,-332.36 181.81,-323.68 156.62,-304 132.46,-285.12 114.52,-255.75 102.53,-230.8"/>
<polygon fill="blue" stroke="blue" stroke-width="2" points="106.38,-230.79 99.02,-223.17 100.02,-233.72 106.38,-230.79"/>
<text text-anchor="middle" x="211.38" y="-290.7" font-family="Times,serif" font-size="14.00">?(Condition(</text>
<text text-anchor="middle" x="211.38" y="-274.2" font-family="Times,serif" font-size="14.00">(0=choice) ) &#45;&gt;</text>
<text text-anchor="middle" x="211.38" y="-257.7" font-family="Times,serif" font-size="14.00">(/rhyme/)): question</text>
<text text-anchor="middle" x="211.38" y="-241.2" font-family="Times,serif" font-size="14.00">&#45;&gt; question</text>
</g>
<!-- node_6 -->
<g id="node7" class="node">
<title>node_6</title>
<polygon fill="#ececff" stroke="#9370db" points="354.25,-220 186,-220 186,-146 354.25,-146 354.25,-220"/>
<text text-anchor="middle" x="270.12" y="-202.7" font-family="Times,serif" font-size="14.00">joke_agent[</text>
<text text-anchor="middle" x="270.12" y="-186.2" font-family="Times,serif" font-size="14.00">Chat(model=&#39;gpt&#45;4o&#45;mini&#39;,</text>
<text text-anchor="middle" x="270.12" y="-169.7" font-family="Times,serif" font-size="14.00">required_keys={&#39;question&#39;},</text>
<text text-anchor="middle" x="270.12" y="-153.2" font-family="Times,serif" font-size="14.00">seed=42) ]</text>
</g>
<!-- node_2&#45;&gt;node_6 -->
<g id="edge5" class="edge">
<title>node_2&#45;&gt;node_6</title>
<path fill="none" stroke="blue" stroke-width="2" d="M270.12,-321.52C270.12,-299.9 270.12,-262.21 270.12,-231.76"/>
<polygon fill="blue" stroke="blue" stroke-width="2" points="273.63,-233.51 270.13,-223.51 266.63,-233.51 273.63,-233.51"/>
<text text-anchor="middle" x="318.88" y="-290.7" font-family="Times,serif" font-size="14.00">?(Condition(</text>
<text text-anchor="middle" x="318.88" y="-274.2" font-family="Times,serif" font-size="14.00">(0=choice) ) &#45;&gt;</text>
<text text-anchor="middle" x="318.88" y="-257.7" font-family="Times,serif" font-size="14.00">(/joke/)): question</text>
<text text-anchor="middle" x="318.88" y="-241.2" font-family="Times,serif" font-size="14.00">&#45;&gt; question</text>
</g>
<!-- node_7 -->
<g id="node8" class="node">
<title>node_7</title>
<polygon fill="#ececff" stroke="#9370db" points="520.12,-211.75 372.12,-211.75 372.12,-154.25 520.12,-154.25 520.12,-211.75"/>
<text text-anchor="middle" x="446.12" y="-194.45" font-family="Times,serif" font-size="14.00">yo_mama_agent[</text>
<text text-anchor="middle" x="446.12" y="-177.95" font-family="Times,serif" font-size="14.00">FlowDiagram(yo mama</text>
<text text-anchor="middle" x="446.12" y="-161.45" font-family="Times,serif" font-size="14.00">agent) ]</text>
</g>
<!-- node_2&#45;&gt;node_7 -->
<g id="edge6" class="edge">
<title>node_2&#45;&gt;node_7</title>
<path fill="none" stroke="blue" stroke-width="2" d="M297.27,-334.9C319.36,-330.42 350.34,-321.42 372.12,-304 398.84,-282.64 418.44,-248.84 430.73,-222.55"/>
<polygon fill="blue" stroke="blue" stroke-width="2" points="433.25,-225.48 434.16,-214.92 426.87,-222.61 433.25,-225.48"/>
<text text-anchor="middle" x="478.63" y="-290.7" font-family="Times,serif" font-size="14.00">?(Condition(</text>
<text text-anchor="middle" x="478.63" y="-274.2" font-family="Times,serif" font-size="14.00">(0=choice) ) &#45;&gt;</text>
<text text-anchor="middle" x="478.63" y="-257.7" font-family="Times,serif" font-size="14.00">(/yo_mama/)):</text>
<text text-anchor="middle" x="478.63" y="-241.2" font-family="Times,serif" font-size="14.00">question &#45;&gt; question</text>
</g>
<!-- node_3 -->
<g id="node4" class="node">
<title>node_3</title>
<polygon fill="#ececff" stroke="#9370db" points="309.62,-109 230.62,-109 230.62,-73 309.62,-73 309.62,-109"/>
<text text-anchor="middle" x="270.12" y="-85.95" font-family="Times,serif" font-size="14.00">PrepareEnd</text>
</g>
<!-- node_4 -->
<g id="node5" class="node">
<title>node_4</title>
<polygon fill="#ececff" stroke="#9370db" points="297.12,-36 243.12,-36 243.12,0 297.12,0 297.12,-36"/>
<text text-anchor="middle" x="270.12" y="-12.95" font-family="Times,serif" font-size="14.00">End</text>
</g>
<!-- node_3&#45;&gt;node_4 -->
<g id="edge7" class="edge">
<title>node_3&#45;&gt;node_4</title>
<path fill="none" stroke="black" d="M270.12,-72.81C270.12,-65.23 270.12,-56.1 270.12,-47.54"/>
<polygon fill="black" stroke="black" points="273.63,-47.54 270.13,-37.54 266.63,-47.54 273.63,-47.54"/>
</g>
<!-- node_5&#45;&gt;node_3 -->
<g id="edge8" class="edge">
<title>node_5&#45;&gt;node_3</title>
<path fill="none" stroke="blue" stroke-width="2" d="M159.51,-145.52C181.36,-134.95 204.56,-123.72 224.04,-114.3"/>
<polygon fill="blue" stroke="blue" stroke-width="2" points="223.95,-118.23 231.43,-110.72 220.9,-111.93 223.95,-118.23"/>
</g>
<!-- node_6&#45;&gt;node_3 -->
<g id="edge9" class="edge">
<title>node_6&#45;&gt;node_3</title>
<path fill="none" stroke="blue" stroke-width="2" d="M270.12,-145.65C270.12,-137.36 270.12,-128.66 270.12,-120.73"/>
<polygon fill="blue" stroke="blue" stroke-width="2" points="273.63,-122.49 270.13,-112.49 266.63,-122.49 273.63,-122.49"/>
</g>
<!-- node_7&#45;&gt;node_3 -->
<g id="edge10" class="edge">
<title>node_7&#45;&gt;node_3</title>
<path fill="none" stroke="blue" stroke-width="2" d="M390.92,-153.77C366.27,-141.16 337.61,-126.51 314.39,-114.64"/>
<polygon fill="blue" stroke="blue" stroke-width="2" points="317.33,-112.21 306.84,-110.77 314.15,-118.44 317.33,-112.21"/>
</g>
</g>
</svg>
