<?xml version="1.0" encoding="UTF-8" standalone="no"?>
<!DOCTYPE svg PUBLIC "-//W3C//DTD SVG 1.1//EN"
 "http://www.w3.org/Graphics/SVG/1.1/DTD/svg11.dtd">
<!-- Generated by graphviz version 12.2.1 (20241206.2353)
 -->
<!-- Title: Distilation Rag Uploader Pages: 1 -->
<svg width="385pt" height="432pt"
 viewBox="0.00 0.00 385.20 431.50" xmlns="http://www.w3.org/2000/svg" xmlns:xlink="http://www.w3.org/1999/xlink">
<g id="graph0" class="graph" transform="scale(1 1) rotate(0) translate(4 427.5)">
<title>Distilation Rag Uploader</title>
<polygon fill="white" stroke="none" points="-4,4 -4,-427.5 381.2,-427.5 381.2,4 -4,4"/>
<text text-anchor="middle" x="188.6" y="-406.2" font-family="Times,serif" font-size="14.00">Distilation Rag Uploader</text>
<!-- node_0 -->
<g id="node1" class="node">
<title>node_0</title>
<polygon fill="#ececff" stroke="#9370db" stroke-width="2" points="189.62,-310.5 92.62,-310.5 92.62,-236.5 189.62,-236.5 189.62,-310.5"/>
<text text-anchor="middle" x="141.12" y="-293.2" font-family="Times,serif" font-size="14.00">split_texts[</text>
<text text-anchor="middle" x="141.12" y="-276.7" font-family="Times,serif" font-size="14.00">splitter,</text>
<text text-anchor="middle" x="141.12" y="-260.2" font-family="Times,serif" font-size="14.00">foreach=[doc],</text>
<text text-anchor="middle" x="141.12" y="-243.7" font-family="Times,serif" font-size="14.00">flat=True ]</text>
</g>
<!-- node_2 -->
<g id="node3" class="node">
<title>node_2</title>
<polygon fill="#ececff" stroke="#9370db" stroke-width="2" points="234.25,-167.5 0,-167.5 0,-110 234.25,-110 234.25,-167.5"/>
<text text-anchor="middle" x="117.12" y="-150.2" font-family="Times,serif" font-size="14.00">add_description[</text>
<text text-anchor="middle" x="117.12" y="-133.7" font-family="Times,serif" font-size="14.00">FlowDiagram(add_description_to_doc),</text>
<text text-anchor="middle" x="117.12" y="-117.2" font-family="Times,serif" font-size="14.00">foreach=[doc] ]</text>
</g>
<!-- node_0&#45;&gt;node_2 -->
<g id="edge1" class="edge">
<title>node_0&#45;&gt;node_2</title>
<path fill="none" stroke="black" d="M134.57,-236.23C131.36,-218.51 127.5,-197.16 124.23,-179.06"/>
<polygon fill="black" stroke="black" points="127.72,-178.69 122.5,-169.47 120.83,-179.94 127.72,-178.69"/>
<text text-anchor="middle" x="153.02" y="-196.95" font-family="Times,serif" font-size="14.00">. &#45;&gt; doc</text>
</g>
<!-- node_1 -->
<g id="node2" class="node">
<title>node_1</title>
<polygon fill="#ececff" stroke="#9370db" points="217.12,-399 163.12,-399 163.12,-363 217.12,-363 217.12,-399"/>
<text text-anchor="middle" x="190.12" y="-375.95" font-family="Times,serif" font-size="14.00">Start</text>
</g>
<!-- node_1&#45;&gt;node_0 -->
<g id="edge2" class="edge">
<title>node_1&#45;&gt;node_0</title>
<path fill="none" stroke="black" d="M182.03,-362.58C176.73,-351.17 169.54,-335.67 162.66,-320.86"/>
<polygon fill="black" stroke="black" points="166,-319.74 158.61,-312.14 159.65,-322.69 166,-319.74"/>
<text text-anchor="middle" x="205.13" y="-331.7" font-family="Times,serif" font-size="14.00">docs &#45;&gt; doc</text>
</g>
<!-- node_3 -->
<g id="node4" class="node">
<title>node_3</title>
<polygon fill="#ececff" stroke="#9370db" points="255.12,-57.5 125.12,-57.5 125.12,0 255.12,0 255.12,-57.5"/>
<text text-anchor="middle" x="190.12" y="-40.2" font-family="Times,serif" font-size="14.00">End[</text>
<text text-anchor="middle" x="190.12" y="-23.7" font-family="Times,serif" font-size="14.00">ChromaClient.upsert</text>
<text text-anchor="middle" x="190.12" y="-7.2" font-family="Times,serif" font-size="14.00">]</text>
</g>
<!-- node_1&#45;&gt;node_3 -->
<g id="edge3" class="edge">
<title>node_1&#45;&gt;node_3</title>
<path fill="none" stroke="black" d="M217.42,-367.89C226.64,-362.33 235.92,-354.76 241.12,-345 290.31,-252.86 273.18,-210.03 243.12,-110 238.52,-94.69 229.95,-79.6 221.02,-66.72"/>
<polygon fill="black" stroke="black" points="224.1,-65.01 215.39,-58.98 218.44,-69.12 224.1,-65.01"/>
<text text-anchor="middle" x="323.95" y="-205.2" font-family="Times,serif" font-size="14.00">collection_name &#45;&gt;</text>
<text text-anchor="middle" x="323.95" y="-188.7" font-family="Times,serif" font-size="14.00">collection_name</text>
</g>
<!-- node_2&#45;&gt;node_3 -->
<g id="edge4" class="edge">
<title>node_2&#45;&gt;node_3</title>
<path fill="none" stroke="black" d="M136.11,-109.66C144.9,-96.66 155.46,-81.03 164.91,-67.06"/>
<polygon fill="black" stroke="black" points="167.68,-69.2 170.38,-58.96 161.88,-65.28 167.68,-69.2"/>
<text text-anchor="middle" x="182.37" y="-78.7" font-family="Times,serif" font-size="14.00">. &#45;&gt; docs</text>
</g>
</g>
</svg>
