<?xml version="1.0" encoding="UTF-8" standalone="no"?>
<!DOCTYPE svg PUBLIC "-//W3C//DTD SVG 1.1//EN"
 "http://www.w3.org/Graphics/SVG/1.1/DTD/svg11.dtd">
<!-- Generated by graphviz version 12.2.1 (20241206.2353)
 -->
<!-- Title: Distilled RAG Pages: 1 -->
<svg width="412pt" height="488pt"
 viewBox="0.00 0.00 411.83 488.00" xmlns="http://www.w3.org/2000/svg" xmlns:xlink="http://www.w3.org/1999/xlink">
<g id="graph0" class="graph" transform="scale(1 1) rotate(0) translate(4 484)">
<title>Distilled RAG</title>
<polygon fill="white" stroke="none" points="-4,4 -4,-484 407.83,-484 407.83,4 -4,4"/>
<text text-anchor="middle" x="201.91" y="-462.7" font-family="Times,serif" font-size="14.00">Distilled RAG</text>
<!-- node_0 -->
<g id="node1" class="node">
<title>node_0</title>
<polygon fill="#ececff" stroke="#9370db" points="162.25,-367 0,-367 0,-293 162.25,-293 162.25,-367"/>
<text text-anchor="middle" x="81.12" y="-349.7" font-family="Times,serif" font-size="14.00">distill_query[</text>
<text text-anchor="middle" x="81.12" y="-333.2" font-family="Times,serif" font-size="14.00">Chat(model=&#39;gpt&#45;4o&#45;mini&#39;,</text>
<text text-anchor="middle" x="81.12" y="-316.7" font-family="Times,serif" font-size="14.00">required_keys={&#39;query&#39;},</text>
<text text-anchor="middle" x="81.12" y="-300.2" font-family="Times,serif" font-size="14.00">seed=42) ]</text>
</g>
<!-- node_2 -->
<g id="node3" class="node">
<title>node_2</title>
<polygon fill="#ececff" stroke="#9370db" points="266.12,-240.5 130.12,-240.5 130.12,-199.5 266.12,-199.5 266.12,-240.5"/>
<text text-anchor="middle" x="198.12" y="-223.2" font-family="Times,serif" font-size="14.00">get_docs[</text>
<text text-anchor="middle" x="198.12" y="-206.7" font-family="Times,serif" font-size="14.00">ChromaClient.query ]</text>
</g>
<!-- node_0&#45;&gt;node_2 -->
<g id="edge1" class="edge">
<title>node_0&#45;&gt;node_2</title>
<path fill="none" stroke="black" d="M80.36,-292.59C81.83,-280.59 85.46,-267.91 93.38,-258.5 100.51,-250.02 109.71,-243.46 119.69,-238.38"/>
<polygon fill="black" stroke="black" points="120.82,-241.71 128.5,-234.4 117.95,-235.33 120.82,-241.71"/>
<text text-anchor="middle" x="138.75" y="-261.7" font-family="Times,serif" font-size="14.00">content &#45;&gt; query</text>
</g>
<!-- node_1 -->
<g id="node2" class="node">
<title>node_1</title>
<polygon fill="#ececff" stroke="#9370db" points="225.12,-455.5 171.12,-455.5 171.12,-419.5 225.12,-419.5 225.12,-455.5"/>
<text text-anchor="middle" x="198.12" y="-432.45" font-family="Times,serif" font-size="14.00">Start</text>
</g>
<!-- node_1&#45;&gt;node_0 -->
<g id="edge2" class="edge">
<title>node_1&#45;&gt;node_0</title>
<path fill="none" stroke="black" d="M170.98,-433.24C149.55,-429.27 120.36,-420.55 102.38,-401.5 96.21,-394.96 91.82,-386.7 88.71,-378.15"/>
<polygon fill="black" stroke="black" points="92.1,-377.28 85.85,-368.72 85.4,-379.31 92.1,-377.28"/>
<text text-anchor="middle" x="143.25" y="-388.2" font-family="Times,serif" font-size="14.00">query &#45;&gt; query</text>
</g>
<!-- node_1&#45;&gt;node_2 -->
<g id="edge3" class="edge">
<title>node_1&#45;&gt;node_2</title>
<path fill="none" stroke="black" d="M198.12,-419.23C198.12,-382.92 198.12,-298.25 198.12,-252.19"/>
<polygon fill="black" stroke="black" points="201.63,-252.34 198.13,-242.34 194.63,-252.34 201.63,-252.34"/>
<text text-anchor="middle" x="251.38" y="-349.7" font-family="Times,serif" font-size="14.00">collection_name &#45;&gt;</text>
<text text-anchor="middle" x="251.38" y="-333.2" font-family="Times,serif" font-size="14.00">collection_name, k</text>
<text text-anchor="middle" x="251.38" y="-316.7" font-family="Times,serif" font-size="14.00">&#45;&gt; k, threshold &#45;&gt;</text>
<text text-anchor="middle" x="251.38" y="-300.2" font-family="Times,serif" font-size="14.00">threshold</text>
</g>
<!-- node_3 -->
<g id="node4" class="node">
<title>node_3</title>
<polygon fill="#ececff" stroke="#9370db" points="347.25,-147 185,-147 185,-73 347.25,-73 347.25,-147"/>
<text text-anchor="middle" x="266.12" y="-129.7" font-family="Times,serif" font-size="14.00">chat[</text>
<text text-anchor="middle" x="266.12" y="-113.2" font-family="Times,serif" font-size="14.00">Chat(model=&#39;gpt&#45;4o&#45;mini&#39;,</text>
<text text-anchor="middle" x="266.12" y="-96.7" font-family="Times,serif" font-size="14.00">required_keys={&#39;input&#39;,</text>
<text text-anchor="middle" x="266.12" y="-80.2" font-family="Times,serif" font-size="14.00">&#39;docs&#39;}, seed=42) ]</text>
</g>
<!-- node_1&#45;&gt;node_3 -->
<g id="edge4" class="edge">
<title>node_1&#45;&gt;node_3</title>
<path fill="none" stroke="black" d="M225.31,-428.12C252.06,-418.26 291.39,-399.02 309.12,-367 345.76,-300.84 315.89,-211.41 290.96,-157.65"/>
<polygon fill="black" stroke="black" points="294.18,-156.28 286.71,-148.76 287.86,-159.29 294.18,-156.28"/>
<text text-anchor="middle" x="364.45" y="-261.7" font-family="Times,serif" font-size="14.00">query &#45;&gt; input</text>
</g>
<!-- node_2&#45;&gt;node_3 -->
<g id="edge5" class="edge">
<title>node_2&#45;&gt;node_3</title>
<path fill="none" stroke="black" d="M210.6,-199.19C218.08,-187.3 227.93,-171.66 237.26,-156.85"/>
<polygon fill="black" stroke="black" points="240.11,-158.89 242.47,-148.57 234.18,-155.16 240.11,-158.89"/>
<text text-anchor="middle" x="256.5" y="-168.2" font-family="Times,serif" font-size="14.00">. &#45;&gt; docs</text>
</g>
<!-- node_4 -->
<g id="node5" class="node">
<title>node_4</title>
<polygon fill="#ececff" stroke="#9370db" points="293.12,-36 239.12,-36 239.12,0 293.12,0 293.12,-36"/>
<text text-anchor="middle" x="266.12" y="-12.95" font-family="Times,serif" font-size="14.00">End</text>
</g>
<!-- node_3&#45;&gt;node_4 -->
<g id="edge6" class="edge">
<title>node_3&#45;&gt;node_4</title>
<path fill="none" stroke="black" d="M266.12,-72.65C266.12,-64.36 266.12,-55.66 266.12,-47.73"/>
<polygon fill="black" stroke="black" points="269.63,-47.97 266.13,-37.97 262.63,-47.97 269.63,-47.97"/>
</g>
</g>
</svg>
