<?xml version="1.0" encoding="UTF-8" standalone="no"?>
<!DOCTYPE svg PUBLIC "-//W3C//DTD SVG 1.1//EN"
 "http://www.w3.org/Graphics/SVG/1.1/DTD/svg11.dtd">
<!-- Generated by graphviz version 12.2.1 (20241206.2353)
 -->
<!-- Title: add_description_to_doc Pages: 1 -->
<svg width="254pt" height="355pt"
 viewBox="0.00 0.00 254.50 354.50" xmlns="http://www.w3.org/2000/svg" xmlns:xlink="http://www.w3.org/1999/xlink">
<g id="graph0" class="graph" transform="scale(1 1) rotate(0) translate(4 350.5)">
<title>add_description_to_doc</title>
<polygon fill="white" stroke="none" points="-4,4 -4,-350.5 250.5,-350.5 250.5,4 -4,4"/>
<text text-anchor="middle" x="123.25" y="-329.2" font-family="Times,serif" font-size="14.00">add_description_to_doc</text>
<!-- node_0 -->
<g id="node1" class="node">
<title>node_0</title>
<polygon fill="#ececff" stroke="#9370db" points="162.25,-233.5 0,-233.5 0,-159.5 162.25,-159.5 162.25,-233.5"/>
<text text-anchor="middle" x="81.12" y="-216.2" font-family="Times,serif" font-size="14.00">get_description[</text>
<text text-anchor="middle" x="81.12" y="-199.7" font-family="Times,serif" font-size="14.00">Chat(model=&#39;gpt&#45;4o&#45;mini&#39;,</text>
<text text-anchor="middle" x="81.12" y="-183.2" font-family="Times,serif" font-size="14.00">required_keys={&#39;text&#39;},</text>
<text text-anchor="middle" x="81.12" y="-166.7" font-family="Times,serif" font-size="14.00">seed=42) ]</text>
</g>
<!-- node_2 -->
<g id="node3" class="node">
<title>node_2</title>
<polygon fill="#ececff" stroke="#9370db" points="232.25,-90.5 46,-90.5 46,0 232.25,0 232.25,-90.5"/>
<text text-anchor="middle" x="139.12" y="-73.2" font-family="Times,serif" font-size="14.00">End[</text>
<text text-anchor="middle" x="139.12" y="-56.7" font-family="Times,serif" font-size="14.00">StructureJson(text=description,</text>
<text text-anchor="middle" x="139.12" y="-40.2" font-family="Times,serif" font-size="14.00">id=doc.id,</text>
<text text-anchor="middle" x="139.12" y="-23.7" font-family="Times,serif" font-size="14.00">metadata.full_text=doc.text)</text>
<text text-anchor="middle" x="139.12" y="-7.2" font-family="Times,serif" font-size="14.00">]</text>
</g>
<!-- node_0&#45;&gt;node_2 -->
<g id="edge1" class="edge">
<title>node_0&#45;&gt;node_2</title>
<path fill="none" stroke="black" d="M95.17,-159.37C101.93,-141.97 110.18,-120.73 117.7,-101.37"/>
<polygon fill="black" stroke="black" points="120.88,-102.85 121.24,-92.26 114.36,-100.31 120.88,-102.85"/>
<text text-anchor="middle" x="143.6" y="-128.2" font-family="Times,serif" font-size="14.00">content &#45;&gt;</text>
<text text-anchor="middle" x="143.6" y="-111.7" font-family="Times,serif" font-size="14.00">description</text>
</g>
<!-- node_1 -->
<g id="node2" class="node">
<title>node_1</title>
<polygon fill="#ececff" stroke="#9370db" points="166.12,-322 112.12,-322 112.12,-286 166.12,-286 166.12,-322"/>
<text text-anchor="middle" x="139.12" y="-298.95" font-family="Times,serif" font-size="14.00">Start</text>
</g>
<!-- node_1&#45;&gt;node_0 -->
<g id="edge2" class="edge">
<title>node_1&#45;&gt;node_0</title>
<path fill="none" stroke="black" d="M115.39,-285.65C109.7,-280.52 104.13,-274.51 100.12,-268 95.79,-260.95 92.43,-252.9 89.83,-244.84"/>
<polygon fill="black" stroke="black" points="93.24,-244.03 87.14,-235.36 86.5,-245.94 93.24,-244.03"/>
<text text-anchor="middle" x="142.12" y="-254.7" font-family="Times,serif" font-size="14.00">doc.text &#45;&gt; text</text>
</g>
<!-- node_1&#45;&gt;node_2 -->
<g id="edge3" class="edge">
<title>node_1&#45;&gt;node_2</title>
<path fill="none" stroke="black" d="M166.41,-288.03C173.49,-282.7 180.21,-276 184.12,-268 187.35,-261.41 184.3,-258.83 184.12,-251.5 182.57,-187.89 195.84,-169.32 177.12,-108.5 176.38,-106.09 175.53,-103.68 174.58,-101.28"/>
<polygon fill="black" stroke="black" points="177.82,-99.96 170.52,-92.28 171.44,-102.83 177.82,-99.96"/>
<text text-anchor="middle" x="216.87" y="-191.45" font-family="Times,serif" font-size="14.00">doc &#45;&gt; doc</text>
</g>
</g>
</svg>
