<?xml version="1.0" encoding="UTF-8" standalone="no"?>
<!DOCTYPE svg PUBLIC "-//W3C//DTD SVG 1.1//EN"
 "http://www.w3.org/Graphics/SVG/1.1/DTD/svg11.dtd">
<!-- Generated by graphviz version 12.2.1 (20241206.2353)
 -->
<!-- Title: RAG Agent Pages: 1 -->
<svg width="241pt" height="411pt"
 viewBox="0.00 0.00 240.62 411.00" xmlns="http://www.w3.org/2000/svg" xmlns:xlink="http://www.w3.org/1999/xlink">
<g id="graph0" class="graph" transform="scale(1 1) rotate(0) translate(4 407)">
<title>RAG Agent</title>
<polygon fill="white" stroke="none" points="-4,4 -4,-407 236.62,-407 236.62,4 -4,4"/>
<text text-anchor="middle" x="116.31" y="-385.7" font-family="Times,serif" font-size="14.00">RAG Agent</text>
<!-- node_0 -->
<g id="node1" class="node">
<title>node_0</title>
<polygon fill="#ececff" stroke="#9370db" points="136,-240.5 0,-240.5 0,-199.5 136,-199.5 136,-240.5"/>
<text text-anchor="middle" x="68" y="-223.2" font-family="Times,serif" font-size="14.00">get_docs[</text>
<text text-anchor="middle" x="68" y="-206.7" font-family="Times,serif" font-size="14.00">ChromaClient.query ]</text>
</g>
<!-- node_2 -->
<g id="node3" class="node">
<title>node_2</title>
<polygon fill="#ececff" stroke="#9370db" points="210.12,-147 47.88,-147 47.88,-73 210.12,-73 210.12,-147"/>
<text text-anchor="middle" x="129" y="-129.7" font-family="Times,serif" font-size="14.00">chat[</text>
<text text-anchor="middle" x="129" y="-113.2" font-family="Times,serif" font-size="14.00">Chat(model=&#39;gpt&#45;4o&#45;mini&#39;,</text>
<text text-anchor="middle" x="129" y="-96.7" font-family="Times,serif" font-size="14.00">required_keys={&#39;input&#39;,</text>
<text text-anchor="middle" x="129" y="-80.2" font-family="Times,serif" font-size="14.00">&#39;docs&#39;}, seed=42) ]</text>
</g>
<!-- node_0&#45;&gt;node_2 -->
<g id="edge1" class="edge">
<title>node_0&#45;&gt;node_2</title>
<path fill="none" stroke="black" d="M79.19,-199.19C85.84,-187.42 94.57,-171.95 102.86,-157.27"/>
<polygon fill="black" stroke="black" points="105.89,-159.03 107.76,-148.6 99.8,-155.59 105.89,-159.03"/>
<text text-anchor="middle" x="122.88" y="-168.2" font-family="Times,serif" font-size="14.00">. &#45;&gt; docs</text>
</g>
<!-- node_1 -->
<g id="node2" class="node">
<title>node_1</title>
<polygon fill="#ececff" stroke="#9370db" points="147,-378.5 93,-378.5 93,-342.5 147,-342.5 147,-378.5"/>
<text text-anchor="middle" x="120" y="-355.45" font-family="Times,serif" font-size="14.00">Start</text>
</g>
<!-- node_1&#45;&gt;node_0 -->
<g id="edge2" class="edge">
<title>node_1&#45;&gt;node_0</title>
<path fill="none" stroke="black" d="M92.58,-350.51C80.49,-345.03 67.46,-336.67 60.5,-324.5 47.91,-302.49 51.43,-273.41 57.15,-251.68"/>
<polygon fill="black" stroke="black" points="60.47,-252.79 59.94,-242.21 53.76,-250.81 60.47,-252.79"/>
<text text-anchor="middle" x="113.75" y="-311.2" font-family="Times,serif" font-size="14.00">q &#45;&gt; query,</text>
<text text-anchor="middle" x="113.75" y="-294.7" font-family="Times,serif" font-size="14.00">collection_name &#45;&gt;</text>
<text text-anchor="middle" x="113.75" y="-278.2" font-family="Times,serif" font-size="14.00">collection_name, k</text>
<text text-anchor="middle" x="113.75" y="-261.7" font-family="Times,serif" font-size="14.00">&#45;&gt; k</text>
</g>
<!-- node_1&#45;&gt;node_2 -->
<g id="edge3" class="edge">
<title>node_1&#45;&gt;node_2</title>
<path fill="none" stroke="black" d="M147.49,-345.46C155.23,-340.04 162.71,-333.05 167,-324.5 193.67,-271.39 173,-202.61 153.24,-157.67"/>
<polygon fill="black" stroke="black" points="156.49,-156.36 149.15,-148.72 150.12,-159.27 156.49,-156.36"/>
<text text-anchor="middle" x="205.24" y="-214.95" font-family="Times,serif" font-size="14.00">q &#45;&gt; input</text>
</g>
<!-- node_3 -->
<g id="node4" class="node">
<title>node_3</title>
<polygon fill="#ececff" stroke="#9370db" points="156,-36 102,-36 102,0 156,0 156,-36"/>
<text text-anchor="middle" x="129" y="-12.95" font-family="Times,serif" font-size="14.00">End</text>
</g>
<!-- node_2&#45;&gt;node_3 -->
<g id="edge4" class="edge">
<title>node_2&#45;&gt;node_3</title>
<path fill="none" stroke="black" d="M129,-72.65C129,-64.36 129,-55.66 129,-47.73"/>
<polygon fill="black" stroke="black" points="132.5,-47.97 129,-37.97 125.5,-47.97 132.5,-47.97"/>
</g>
</g>
</svg>
