<?xml version="1.0" encoding="UTF-8" standalone="no"?>
<!DOCTYPE svg PUBLIC "-//W3C//DTD SVG 1.1//EN"
 "http://www.w3.org/Graphics/SVG/1.1/DTD/svg11.dtd">
<!-- Generated by graphviz version 12.2.1 (20241206.2353)
 -->
<!-- Title: batch_adding Pages: 1 -->
<svg width="247pt" height="460pt"
 viewBox="0.00 0.00 247.04 460.00" xmlns="http://www.w3.org/2000/svg" xmlns:xlink="http://www.w3.org/1999/xlink">
<g id="graph0" class="graph" transform="scale(1 1) rotate(0) translate(4 456)">
<title>batch_adding</title>
<polygon fill="white" stroke="none" points="-4,4 -4,-456 243.04,-456 243.04,4 -4,4"/>
<text text-anchor="middle" x="119.52" y="-434.7" font-family="Times,serif" font-size="14.00">batch_adding</text>
<!-- node_0 -->
<g id="node1" class="node">
<title>node_0</title>
<polygon fill="#ececff" stroke="#9370db" points="112.38,-339 20.62,-339 20.62,-298 112.38,-298 112.38,-339"/>
<text text-anchor="middle" x="66.5" y="-321.7" font-family="Times,serif" font-size="14.00">task_list[</text>
<text text-anchor="middle" x="66.5" y="-305.2" font-family="Times,serif" font-size="14.00">Range(3,10) ]</text>
</g>
<!-- node_2 -->
<g id="node3" class="node">
<title>node_2</title>
<polygon fill="#ececff" stroke="#9370db" stroke-width="2" points="145,-245.5 0,-245.5 0,-171.5 145,-171.5 145,-245.5"/>
<text text-anchor="middle" x="72.5" y="-228.2" font-family="Times,serif" font-size="14.00">sub_task_list[</text>
<text text-anchor="middle" x="72.5" y="-211.7" font-family="Times,serif" font-size="14.00">Range(2,1),</text>
<text text-anchor="middle" x="72.5" y="-195.2" font-family="Times,serif" font-size="14.00">foreach=[initial_value],</text>
<text text-anchor="middle" x="72.5" y="-178.7" font-family="Times,serif" font-size="14.00">flat=True ]</text>
</g>
<!-- node_0&#45;&gt;node_2 -->
<g id="edge1" class="edge">
<title>node_0&#45;&gt;node_2</title>
<path fill="none" stroke="black" d="M66.25,-297.74C66.23,-287.51 66.37,-274.83 67,-263.5 67.11,-261.44 67.25,-259.33 67.4,-257.21"/>
<polygon fill="black" stroke="black" points="70.89,-257.53 68.22,-247.28 63.91,-256.96 70.89,-257.53"/>
<text text-anchor="middle" x="112.75" y="-266.7" font-family="Times,serif" font-size="14.00">. &#45;&gt; initial_value</text>
</g>
<!-- node_1 -->
<g id="node2" class="node">
<title>node_1</title>
<polygon fill="#ececff" stroke="#9370db" points="149.5,-427.5 95.5,-427.5 95.5,-391.5 149.5,-391.5 149.5,-427.5"/>
<text text-anchor="middle" x="122.5" y="-404.45" font-family="Times,serif" font-size="14.00">Start</text>
</g>
<!-- node_1&#45;&gt;node_0 -->
<g id="edge2" class="edge">
<title>node_1&#45;&gt;node_0</title>
<path fill="none" stroke="black" d="M95.08,-395.13C86.57,-389.61 78.04,-382.4 72.75,-373.5 68.75,-366.77 66.68,-358.72 65.72,-350.93"/>
<polygon fill="black" stroke="black" points="69.22,-350.75 65.09,-340.99 62.23,-351.19 69.22,-350.75"/>
<text text-anchor="middle" x="119.62" y="-360.2" font-family="Times,serif" font-size="14.00">a &#45;&gt; initial_value</text>
</g>
<!-- node_3 -->
<g id="node4" class="node">
<title>node_3</title>
<polygon fill="#ececff" stroke="#9370db" stroke-width="2" points="196,-119 63,-119 63,-78 196,-78 196,-119"/>
<text text-anchor="middle" x="129.5" y="-101.7" font-family="Times,serif" font-size="14.00">add_task[ async_add,</text>
<text text-anchor="middle" x="129.5" y="-85.2" font-family="Times,serif" font-size="14.00">foreach=[a] ]</text>
</g>
<!-- node_1&#45;&gt;node_3 -->
<g id="edge3" class="edge">
<title>node_1&#45;&gt;node_3</title>
<path fill="none" stroke="black" d="M149.66,-393.06C156.4,-387.79 162.77,-381.24 166.5,-373.5 169.69,-366.89 166.74,-364.33 166.5,-357 163.83,-274.43 169.83,-252.68 154.5,-171.5 151.84,-157.42 146.96,-142.37 142.21,-129.69"/>
<polygon fill="black" stroke="black" points="145.58,-128.69 138.68,-120.65 139.06,-131.24 145.58,-128.69"/>
<text text-anchor="middle" x="202.29" y="-266.7" font-family="Times,serif" font-size="14.00">b &#45;&gt; b, c &#45;&gt; c</text>
</g>
<!-- node_2&#45;&gt;node_3 -->
<g id="edge4" class="edge">
<title>node_2&#45;&gt;node_3</title>
<path fill="none" stroke="black" d="M91.64,-171.24C98.84,-157.6 106.93,-142.27 113.78,-129.29"/>
<polygon fill="black" stroke="black" points="116.69,-131.28 118.26,-120.8 110.5,-128.01 116.69,-131.28"/>
<text text-anchor="middle" x="124.44" y="-140.2" font-family="Times,serif" font-size="14.00">. &#45;&gt; a</text>
</g>
<!-- node_4 -->
<g id="node5" class="node">
<title>node_4</title>
<polygon fill="#ececff" stroke="#9370db" points="186.62,-41 72.38,-41 72.38,0 186.62,0 186.62,-41"/>
<text text-anchor="middle" x="129.5" y="-23.7" font-family="Times,serif" font-size="14.00">End[ &lt;built&#45;in</text>
<text text-anchor="middle" x="129.5" y="-7.2" font-family="Times,serif" font-size="14.00">function sorted&gt; ]</text>
</g>
<!-- node_3&#45;&gt;node_4 -->
<g id="edge5" class="edge">
<title>node_3&#45;&gt;node_4</title>
<path fill="none" stroke="black" d="M129.5,-77.53C129.5,-69.94 129.5,-61.1 129.5,-52.71"/>
<polygon fill="black" stroke="black" points="133,-52.85 129.5,-42.85 126,-52.85 133,-52.85"/>
</g>
</g>
</svg>
