<?xml version="1.0" encoding="UTF-8" standalone="no"?>
<!DOCTYPE svg PUBLIC "-//W3C//DTD SVG 1.1//EN"
 "http://www.w3.org/Graphics/SVG/1.1/DTD/svg11.dtd">
<!-- Generated by graphviz version 12.2.1 (20241206.2353)
 -->
<!-- Title: Break until 10 &#45; Outer Pages: 1 -->
<svg width="538pt" height="90pt"
 viewBox="0.00 0.00 537.75 90.00" xmlns="http://www.w3.org/2000/svg" xmlns:xlink="http://www.w3.org/1999/xlink">
<g id="graph0" class="graph" transform="scale(1 1) rotate(0) translate(4 86)">
<title>Break until 10 &#45; Outer</title>
<polygon fill="white" stroke="none" points="-4,4 -4,-86 533.75,-86 533.75,4 -4,4"/>
<text text-anchor="middle" x="264.88" y="-64.7" font-family="Times,serif" font-size="14.00">Break until 10 &#45; Outer</text>
<!-- node_0 -->
<g id="node1" class="node">
<title>node_0</title>
<polygon fill="#ececff" stroke="#9370db" points="239.75,-57.5 91,-57.5 91,0 239.75,0 239.75,-57.5"/>
<text text-anchor="middle" x="165.38" y="-40.2" font-family="Times,serif" font-size="14.00">SomeWork[</text>
<text text-anchor="middle" x="165.38" y="-23.7" font-family="Times,serif" font-size="14.00">DecisionDiagram(Break</text>
<text text-anchor="middle" x="165.38" y="-7.2" font-family="Times,serif" font-size="14.00">until 3 &#45; Inner) ]</text>
</g>
<!-- node_2 -->
<g id="node3" class="node">
<title>node_2</title>
<polygon fill="#ececff" stroke="#9370db" stroke-dasharray="5,2" points="350.5,-46.75 276.75,-46.75 276.75,-10.75 350.5,-10.75 350.5,-46.75"/>
<text text-anchor="middle" x="313.62" y="-23.7" font-family="Times,serif" font-size="14.00">breakpoint</text>
</g>
<!-- node_0&#45;&gt;node_2 -->
<g id="edge1" class="edge">
<title>node_0&#45;&gt;node_2</title>
<path fill="none" stroke="blue" stroke-width="2" d="M239.93,-22C248.44,-22 256.93,-22.13 264.97,-22.38"/>
<polygon fill="blue" stroke="blue" stroke-width="2" points="263.19,-25.81 273.32,-22.71 263.46,-18.82 263.19,-25.81"/>
</g>
<!-- node_1 -->
<g id="node2" class="node">
<title>node_1</title>
<polygon fill="#ececff" stroke="#9370db" points="54,-46.75 0,-46.75 0,-10.75 54,-10.75 54,-46.75"/>
<text text-anchor="middle" x="27" y="-23.7" font-family="Times,serif" font-size="14.00">Start</text>
</g>
<!-- node_1&#45;&gt;node_0 -->
<g id="edge2" class="edge">
<title>node_1&#45;&gt;node_0</title>
<path fill="none" stroke="blue" stroke-width="2" d="M54.29,-28.75C61.83,-28.75 70.49,-28.75 79.56,-28.75"/>
<polygon fill="blue" stroke="blue" stroke-width="2" points="77.76,-32.25 87.76,-28.75 77.76,-25.25 77.76,-32.25"/>
</g>
<!-- node_2&#45;&gt;node_0 -->
<g id="edge3" class="edge">
<title>node_2&#45;&gt;node_0</title>
<path fill="none" stroke="blue" stroke-width="2" d="M276.34,-34.67C268.53,-35.06 259.96,-35.31 251.16,-35.42"/>
<polygon fill="blue" stroke="blue" stroke-width="2" points="252.93,-31.91 242.96,-35.48 252.98,-38.91 252.93,-31.91"/>
</g>
<!-- node_3 -->
<g id="node4" class="node">
<title>node_3</title>
<polygon fill="#ececff" stroke="#9370db" points="529.75,-46.75 475.75,-46.75 475.75,-10.75 529.75,-10.75 529.75,-46.75"/>
<text text-anchor="middle" x="502.75" y="-23.7" font-family="Times,serif" font-size="14.00">End</text>
</g>
<!-- node_2&#45;&gt;node_3 -->
<g id="edge4" class="edge">
<title>node_2&#45;&gt;node_3</title>
<path fill="none" stroke="blue" stroke-width="2" d="M350.7,-28.75C383.24,-28.75 430.92,-28.75 463.98,-28.75"/>
<polygon fill="blue" stroke="blue" stroke-width="2" points="462.41,-32.25 472.41,-28.75 462.41,-25.25 462.41,-32.25"/>
<text text-anchor="middle" x="413.12" y="-31.95" font-family="Times,serif" font-size="14.00">?(EqualsTo(10))</text>
</g>
</g>
</svg>
