<?xml version="1.0" encoding="UTF-8" standalone="no"?>
<!DOCTYPE svg PUBLIC "-//W3C//DTD SVG 1.1//EN"
 "http://www.w3.org/Graphics/SVG/1.1/DTD/svg11.dtd">
<!-- Generated by graphviz version 12.2.1 (20241206.2353)
 -->
<!-- Title: Undefined Behavior Pages: 1 -->
<svg width="384pt" height="166pt"
 viewBox="0.00 0.00 384.25 166.00" xmlns="http://www.w3.org/2000/svg" xmlns:xlink="http://www.w3.org/1999/xlink">
<g id="graph0" class="graph" transform="scale(1 1) rotate(0) translate(4 162)">
<title>Undefined Behavior</title>
<polygon fill="white" stroke="none" points="-4,4 -4,-162 380.25,-162 380.25,4 -4,4"/>
<text text-anchor="middle" x="188.12" y="-140.7" font-family="Times,serif" font-size="14.00">Undefined Behavior</text>
<!-- node_0 -->
<g id="node1" class="node">
<title>node_0</title>
<polygon fill="#ececff" stroke="#9370db" points="239.75,-133.5 91,-133.5 91,-76 239.75,-76 239.75,-133.5"/>
<text text-anchor="middle" x="165.38" y="-116.2" font-family="Times,serif" font-size="14.00">sub1[</text>
<text text-anchor="middle" x="165.38" y="-99.7" font-family="Times,serif" font-size="14.00">DecisionDiagram(Break</text>
<text text-anchor="middle" x="165.38" y="-83.2" font-family="Times,serif" font-size="14.00">until 3 &#45; Inner) ]</text>
</g>
<!-- node_2 -->
<g id="node3" class="node">
<title>node_2</title>
<polygon fill="#ececff" stroke="#9370db" points="376.25,-84.75 322.25,-84.75 322.25,-48.75 376.25,-48.75 376.25,-84.75"/>
<text text-anchor="middle" x="349.25" y="-61.7" font-family="Times,serif" font-size="14.00">End</text>
</g>
<!-- node_0&#45;&gt;node_2 -->
<g id="edge1" class="edge">
<title>node_0&#45;&gt;node_2</title>
<path fill="none" stroke="black" d="M240.09,-89.35C264.4,-84.27 290.42,-78.83 310.84,-74.57"/>
<polygon fill="black" stroke="black" points="311.31,-78.04 320.39,-72.57 309.88,-71.19 311.31,-78.04"/>
<text text-anchor="middle" x="281" y="-87.81" font-family="Times,serif" font-size="14.00">. &#45;&gt; res1</text>
</g>
<!-- node_1 -->
<g id="node2" class="node">
<title>node_1</title>
<polygon fill="#ececff" stroke="#9370db" points="54,-83.75 0,-83.75 0,-47.75 54,-47.75 54,-83.75"/>
<text text-anchor="middle" x="27" y="-60.7" font-family="Times,serif" font-size="14.00">Start</text>
</g>
<!-- node_1&#45;&gt;node_0 -->
<g id="edge2" class="edge">
<title>node_1&#45;&gt;node_0</title>
<path fill="none" stroke="black" d="M54.29,-73.27C61.92,-75.45 70.68,-77.95 79.86,-80.58"/>
<polygon fill="black" stroke="black" points="78.75,-83.9 89.33,-83.29 80.68,-77.17 78.75,-83.9"/>
</g>
<!-- node_3 -->
<g id="node4" class="node">
<title>node_3</title>
<polygon fill="#ececff" stroke="#9370db" points="239.75,-57.5 91,-57.5 91,0 239.75,0 239.75,-57.5"/>
<text text-anchor="middle" x="165.38" y="-40.2" font-family="Times,serif" font-size="14.00">sub2[</text>
<text text-anchor="middle" x="165.38" y="-23.7" font-family="Times,serif" font-size="14.00">DecisionDiagram(Break</text>
<text text-anchor="middle" x="165.38" y="-7.2" font-family="Times,serif" font-size="14.00">until 3 &#45; Inner) ]</text>
</g>
<!-- node_1&#45;&gt;node_3 -->
<g id="edge3" class="edge">
<title>node_1&#45;&gt;node_3</title>
<path fill="none" stroke="black" d="M54.29,-58.62C61.92,-56.55 70.68,-54.17 79.86,-51.68"/>
<polygon fill="black" stroke="black" points="80.59,-55.11 89.33,-49.11 78.76,-48.35 80.59,-55.11"/>
</g>
<!-- node_3&#45;&gt;node_2 -->
<g id="edge4" class="edge">
<title>node_3&#45;&gt;node_2</title>
<path fill="none" stroke="black" d="M240.18,-42.94C260.94,-47.08 283.51,-51.71 304.25,-56.25 306.38,-56.72 308.56,-57.2 310.77,-57.71"/>
<polygon fill="black" stroke="black" points="309.76,-61.06 320.29,-59.92 311.34,-54.24 309.76,-61.06"/>
<text text-anchor="middle" x="281" y="-59.45" font-family="Times,serif" font-size="14.00">. &#45;&gt; res2</text>
</g>
</g>
</svg>
