<?xml version="1.0" encoding="UTF-8" standalone="no"?>
<!DOCTYPE svg PUBLIC "-//W3C//DTD SVG 1.1//EN"
 "http://www.w3.org/Graphics/SVG/1.1/DTD/svg11.dtd">
<!-- Generated by graphviz version 12.2.1 (20241206.2353)
 -->
<!-- Title: Several Decisions Pages: 1 -->
<svg width="538pt" height="166pt"
 viewBox="0.00 0.00 537.75 166.00" xmlns="http://www.w3.org/2000/svg" xmlns:xlink="http://www.w3.org/1999/xlink">
<g id="graph0" class="graph" transform="scale(1 1) rotate(0) translate(4 162)">
<title>Several Decisions</title>
<polygon fill="white" stroke="none" points="-4,4 -4,-162 533.75,-162 533.75,4 -4,4"/>
<text text-anchor="middle" x="264.88" y="-140.7" font-family="Times,serif" font-size="14.00">Several Decisions</text>
<!-- node_0 -->
<g id="node1" class="node">
<title>node_0</title>
<polygon fill="#ececff" stroke="#9370db" points="317.5,-133.5 163.5,-133.5 163.5,-76 317.5,-76 317.5,-133.5"/>
<text text-anchor="middle" x="240.5" y="-116.2" font-family="Times,serif" font-size="14.00">square_or_cube[</text>
<text text-anchor="middle" x="240.5" y="-99.7" font-family="Times,serif" font-size="14.00">DecisionDiagram(Square</text>
<text text-anchor="middle" x="240.5" y="-83.2" font-family="Times,serif" font-size="14.00">or Cube) ]</text>
</g>
<!-- node_2 -->
<g id="node3" class="node">
<title>node_2</title>
<polygon fill="#ececff" stroke="#9370db" points="529.75,-84.75 475.75,-84.75 475.75,-48.75 529.75,-48.75 529.75,-84.75"/>
<text text-anchor="middle" x="502.75" y="-61.7" font-family="Times,serif" font-size="14.00">End</text>
</g>
<!-- node_0&#45;&gt;node_2 -->
<g id="edge1" class="edge">
<title>node_0&#45;&gt;node_2</title>
<path fill="none" stroke="black" d="M317.75,-95.82C359.25,-90.63 411.44,-83.58 457.75,-75.75 459.79,-75.4 461.89,-75.03 464,-74.65"/>
<polygon fill="black" stroke="black" points="464.64,-78.09 473.79,-72.76 463.31,-71.21 464.64,-78.09"/>
<text text-anchor="middle" x="396.62" y="-112.64" font-family="Times,serif" font-size="14.00">. &#45;&gt;</text>
<text text-anchor="middle" x="396.62" y="-96.14" font-family="Times,serif" font-size="14.00">square_or_cube_result</text>
</g>
<!-- node_1 -->
<g id="node2" class="node">
<title>node_1</title>
<polygon fill="#ececff" stroke="#9370db" points="54,-84.75 0,-84.75 0,-48.75 54,-48.75 54,-84.75"/>
<text text-anchor="middle" x="27" y="-61.7" font-family="Times,serif" font-size="14.00">Start</text>
</g>
<!-- node_1&#45;&gt;node_0 -->
<g id="edge2" class="edge">
<title>node_1&#45;&gt;node_0</title>
<path fill="none" stroke="black" d="M54.36,-71.49C78.84,-75.88 116.7,-82.69 151.82,-89"/>
<polygon fill="black" stroke="black" points="151.15,-92.43 161.61,-90.76 152.39,-85.54 151.15,-92.43"/>
<text text-anchor="middle" x="108.75" y="-90.09" font-family="Times,serif" font-size="14.00">. &#45;&gt; **</text>
</g>
<!-- node_3 -->
<g id="node4" class="node">
<title>node_3</title>
<polygon fill="#ececff" stroke="#9370db" points="317.5,-57.5 163.5,-57.5 163.5,0 317.5,0 317.5,-57.5"/>
<text text-anchor="middle" x="240.5" y="-40.2" font-family="Times,serif" font-size="14.00">cube_or_square[</text>
<text text-anchor="middle" x="240.5" y="-23.7" font-family="Times,serif" font-size="14.00">DecisionDiagram(Square</text>
<text text-anchor="middle" x="240.5" y="-7.2" font-family="Times,serif" font-size="14.00">or Cube) ]</text>
</g>
<!-- node_1&#45;&gt;node_3 -->
<g id="edge3" class="edge">
<title>node_1&#45;&gt;node_3</title>
<path fill="none" stroke="black" d="M54.39,-58.67C60.16,-57.07 66.26,-55.5 72,-54.25 97.79,-48.65 126.08,-43.84 151.94,-39.96"/>
<polygon fill="black" stroke="black" points="152.37,-43.43 161.75,-38.52 151.35,-36.51 152.37,-43.43"/>
<text text-anchor="middle" x="108.75" y="-57.45" font-family="Times,serif" font-size="14.00">a &#45;&gt; b, b &#45;&gt; a</text>
</g>
<!-- node_3&#45;&gt;node_2 -->
<g id="edge4" class="edge">
<title>node_3&#45;&gt;node_2</title>
<path fill="none" stroke="black" d="M317.99,-22.8C360.14,-21.85 412.87,-24.55 457.75,-38.75 461.1,-39.81 464.44,-41.19 467.7,-42.77"/>
<polygon fill="black" stroke="black" points="465.98,-45.82 476.42,-47.61 469.38,-39.7 465.98,-45.82"/>
<text text-anchor="middle" x="396.62" y="-58.45" font-family="Times,serif" font-size="14.00">. &#45;&gt;</text>
<text text-anchor="middle" x="396.62" y="-41.95" font-family="Times,serif" font-size="14.00">cube_or_square_result</text>
</g>
</g>
</svg>
