<?xml version="1.0" encoding="UTF-8" standalone="no"?>
<!DOCTYPE svg PUBLIC "-//W3C//DTD SVG 1.1//EN"
 "http://www.w3.org/Graphics/SVG/1.1/DTD/svg11.dtd">
<!-- Generated by graphviz version 12.2.1 (20241206.2353)
 -->
<!-- Title: Distilation Rag Uploader Pages: 1 -->
<svg width="161pt" height="378pt"
 viewBox="0.00 0.00 160.50 378.00" xmlns="http://www.w3.org/2000/svg" xmlns:xlink="http://www.w3.org/1999/xlink">
<g id="graph0" class="graph" transform="scale(1 1) rotate(0) translate(4 374)">
<title>Distilation Rag Uploader</title>
<polygon fill="white" stroke="none" points="-4,4 -4,-374 156.5,-374 156.5,4 -4,4"/>
<text text-anchor="middle" x="76.25" y="-352.7" font-family="Times,serif" font-size="14.00">Distilation Rag Uploader</text>
<!-- node_0 -->
<g id="node1" class="node">
<title>node_0</title>
<polygon fill="#ececff" stroke="#9370db" stroke-width="2" points="122.75,-257 25.75,-257 25.75,-183 122.75,-183 122.75,-257"/>
<text text-anchor="middle" x="74.25" y="-239.7" font-family="Times,serif" font-size="14.00">split_texts[</text>
<text text-anchor="middle" x="74.25" y="-223.2" font-family="Times,serif" font-size="14.00">splitter,</text>
<text text-anchor="middle" x="74.25" y="-206.7" font-family="Times,serif" font-size="14.00">foreach=[doc],</text>
<text text-anchor="middle" x="74.25" y="-190.2" font-family="Times,serif" font-size="14.00">flat=True ]</text>
</g>
<!-- node_2 -->
<g id="node3" class="node">
<title>node_2</title>
<polygon fill="#ececff" stroke="#9370db" stroke-width="2" points="131,-130.5 17.5,-130.5 17.5,-73 131,-73 131,-130.5"/>
<text text-anchor="middle" x="74.25" y="-113.2" font-family="Times,serif" font-size="14.00">summarize_texts[</text>
<text text-anchor="middle" x="74.25" y="-96.7" font-family="Times,serif" font-size="14.00">summarizer,</text>
<text text-anchor="middle" x="74.25" y="-80.2" font-family="Times,serif" font-size="14.00">foreach=[text] ]</text>
</g>
<!-- node_0&#45;&gt;node_2 -->
<g id="edge1" class="edge">
<title>node_0&#45;&gt;node_2</title>
<path fill="none" stroke="black" d="M74.25,-182.54C74.25,-169.79 74.25,-155.43 74.25,-142.43"/>
<polygon fill="black" stroke="black" points="77.75,-142.48 74.25,-132.48 70.75,-142.48 77.75,-142.48"/>
<text text-anchor="middle" x="104.62" y="-151.7" font-family="Times,serif" font-size="14.00">text &#45;&gt; text</text>
</g>
<!-- node_1 -->
<g id="node2" class="node">
<title>node_1</title>
<polygon fill="#ececff" stroke="#9370db" points="101.25,-345.5 47.25,-345.5 47.25,-309.5 101.25,-309.5 101.25,-345.5"/>
<text text-anchor="middle" x="74.25" y="-322.45" font-family="Times,serif" font-size="14.00">Start</text>
</g>
<!-- node_1&#45;&gt;node_0 -->
<g id="edge2" class="edge">
<title>node_1&#45;&gt;node_0</title>
<path fill="none" stroke="black" d="M74.25,-309.08C74.25,-298 74.25,-283.06 74.25,-268.64"/>
<polygon fill="black" stroke="black" points="77.75,-268.78 74.25,-258.78 70.75,-268.78 77.75,-268.78"/>
<text text-anchor="middle" x="96" y="-278.2" font-family="Times,serif" font-size="14.00">. &#45;&gt; doc</text>
</g>
<!-- node_3 -->
<g id="node4" class="node">
<title>node_3</title>
<polygon fill="#ececff" stroke="#9370db" points="111.5,-36 37,-36 37,0 111.5,0 111.5,-36"/>
<text text-anchor="middle" x="74.25" y="-12.95" font-family="Times,serif" font-size="14.00">End[ sort ]</text>
</g>
<!-- node_2&#45;&gt;node_3 -->
<g id="edge3" class="edge">
<title>node_2&#45;&gt;node_3</title>
<path fill="none" stroke="black" d="M74.25,-72.62C74.25,-64.64 74.25,-55.95 74.25,-47.93"/>
<polygon fill="black" stroke="black" points="77.75,-47.97 74.25,-37.97 70.75,-47.97 77.75,-47.97"/>
</g>
</g>
</svg>
