<?xml version="1.0" encoding="UTF-8" standalone="no"?>
<!DOCTYPE svg PUBLIC "-//W3C//DTD SVG 1.1//EN"
 "http://www.w3.org/Graphics/SVG/1.1/DTD/svg11.dtd">
<!-- Generated by graphviz version 12.2.1 (20241206.2353)
 -->
<!-- Title: simple parallel Pages: 1 -->
<svg width="607pt" height="543pt"
 viewBox="0.00 0.00 606.97 542.50" xmlns="http://www.w3.org/2000/svg" xmlns:xlink="http://www.w3.org/1999/xlink">
<g id="graph0" class="graph" transform="scale(1 1) rotate(0) translate(4 538.5)">
<title>simple parallel</title>
<polygon fill="white" stroke="none" points="-4,4 -4,-538.5 602.97,-538.5 602.97,4 -4,4"/>
<text text-anchor="middle" x="299.48" y="-517.2" font-family="Times,serif" font-size="14.00">simple parallel</text>
<!-- node_0 -->
<g id="node1" class="node">
<title>node_0</title>
<polygon fill="#ececff" stroke="#9370db" points="328.62,-437 206.88,-437 206.88,-396 328.62,-396 328.62,-437"/>
<text text-anchor="middle" x="267.75" y="-419.7" font-family="Times,serif" font-size="14.00">add1[</text>
<text text-anchor="middle" x="267.75" y="-403.2" font-family="Times,serif" font-size="14.00">MessageAdder(1) ]</text>
</g>
<!-- node_1 -->
<g id="node2" class="node">
<title>node_1</title>
<polygon fill="#ececff" stroke="#9370db" points="185.5,-324 0,-324 0,-266.5 185.5,-266.5 185.5,-324"/>
<text text-anchor="middle" x="92.75" y="-306.7" font-family="Times,serif" font-size="14.00">add2[</text>
<text text-anchor="middle" x="92.75" y="-290.2" font-family="Times,serif" font-size="14.00">DecisionDiagram(inner_break)</text>
<text text-anchor="middle" x="92.75" y="-273.7" font-family="Times,serif" font-size="14.00">]</text>
</g>
<!-- node_0&#45;&gt;node_1 -->
<g id="edge4" class="edge">
<title>node_0&#45;&gt;node_1</title>
<path fill="none" stroke="black" d="M238.46,-395.54C212.53,-377.87 174.13,-351.71 143.26,-330.67"/>
<polygon fill="black" stroke="black" points="145.43,-327.91 135.19,-325.17 141.49,-333.7 145.43,-327.91"/>
</g>
<!-- node_2 -->
<g id="node3" class="node">
<title>node_2</title>
<polygon fill="#ececff" stroke="#9370db" points="332,-315.75 203.5,-315.75 203.5,-274.75 332,-274.75 332,-315.75"/>
<text text-anchor="middle" x="267.75" y="-298.45" font-family="Times,serif" font-size="14.00">add10[</text>
<text text-anchor="middle" x="267.75" y="-281.95" font-family="Times,serif" font-size="14.00">MessageAdder(10) ]</text>
</g>
<!-- node_0&#45;&gt;node_2 -->
<g id="edge3" class="edge">
<title>node_0&#45;&gt;node_2</title>
<path fill="none" stroke="black" d="M267.75,-395.54C267.75,-376.94 267.75,-348.92 267.75,-327.38"/>
<polygon fill="black" stroke="black" points="271.25,-327.39 267.75,-317.39 264.25,-327.39 271.25,-327.39"/>
</g>
<!-- node_3 -->
<g id="node4" class="node">
<title>node_3</title>
<polygon fill="#ececff" stroke="#9370db" points="348.38,-214 255.12,-214 255.12,-178 348.38,-178 348.38,-214"/>
<text text-anchor="middle" x="301.75" y="-190.95" font-family="Times,serif" font-size="14.00">conc[ concat ]</text>
</g>
<!-- node_1&#45;&gt;node_3 -->
<g id="edge5" class="edge">
<title>node_1&#45;&gt;node_3</title>
<path fill="none" stroke="black" d="M105.96,-266.01C113.06,-253.78 122.96,-240.37 135.5,-232 167.36,-210.75 209.66,-202.05 243.62,-198.64"/>
<polygon fill="black" stroke="black" points="243.62,-202.15 253.28,-197.81 243.02,-195.18 243.62,-202.15"/>
<text text-anchor="middle" x="186.12" y="-235.2" font-family="Times,serif" font-size="14.00">concatenation &#45;&gt; z</text>
</g>
<!-- node_2&#45;&gt;node_3 -->
<g id="edge6" class="edge">
<title>node_2&#45;&gt;node_3</title>
<path fill="none" stroke="black" d="M251.39,-274.52C243.05,-261.94 236.12,-245.52 243.75,-232 245.93,-228.14 248.73,-224.65 251.92,-221.52"/>
<polygon fill="black" stroke="black" points="253.85,-224.46 259.34,-215.39 249.4,-219.06 253.85,-224.46"/>
<text text-anchor="middle" x="294.75" y="-235.2" font-family="Times,serif" font-size="14.00">concatenation &#45;&gt; y</text>
</g>
<!-- node_4 -->
<g id="node5" class="node">
<title>node_4</title>
<polygon fill="#ececff" stroke="#9370db" points="410.75,-109 346.75,-109 346.75,-73 410.75,-73 410.75,-109"/>
<text text-anchor="middle" x="378.75" y="-85.95" font-family="Times,serif" font-size="14.00">prep_out</text>
</g>
<!-- node_3&#45;&gt;node_4 -->
<g id="edge7" class="edge">
<title>node_3&#45;&gt;node_4</title>
<path fill="none" stroke="black" d="M314.81,-177.53C326.94,-161.3 345.17,-136.92 359.07,-118.33"/>
<polygon fill="black" stroke="black" points="361.79,-120.53 364.97,-110.43 356.18,-116.34 361.79,-120.53"/>
<text text-anchor="middle" x="397.4" y="-146.7" font-family="Times,serif" font-size="14.00">concatenation &#45;&gt;</text>
<text text-anchor="middle" x="397.4" y="-130.2" font-family="Times,serif" font-size="14.00">concatenation</text>
</g>
<!-- node_7 -->
<g id="node8" class="node">
<title>node_7</title>
<polygon fill="#ececff" stroke="#9370db" points="405.75,-36 351.75,-36 351.75,0 405.75,0 405.75,-36"/>
<text text-anchor="middle" x="378.75" y="-12.95" font-family="Times,serif" font-size="14.00">End</text>
</g>
<!-- node_4&#45;&gt;node_7 -->
<g id="edge8" class="edge">
<title>node_4&#45;&gt;node_7</title>
<path fill="none" stroke="black" d="M378.75,-72.81C378.75,-65.23 378.75,-56.1 378.75,-47.54"/>
<polygon fill="black" stroke="black" points="382.25,-47.54 378.75,-37.54 375.25,-47.54 382.25,-47.54"/>
</g>
<!-- node_5 -->
<g id="node6" class="node">
<title>node_5</title>
<path fill="#ececff" stroke="#9370db" d="M542.38,-374.73C542.38,-376.53 525.51,-378 504.75,-378 483.99,-378 467.12,-376.53 467.12,-374.73 467.12,-374.73 467.12,-345.27 467.12,-345.27 467.12,-343.47 483.99,-342 504.75,-342 525.51,-342 542.38,-343.47 542.38,-345.27 542.38,-345.27 542.38,-374.73 542.38,-374.73"/>
<path fill="none" stroke="#9370db" d="M542.38,-374.73C542.38,-372.92 525.51,-371.45 504.75,-371.45 483.99,-371.45 467.12,-372.92 467.12,-374.73"/>
<text text-anchor="middle" x="504.75" y="-354.95" font-family="Times,serif" font-size="14.00">State[start]</text>
</g>
<!-- node_5&#45;&gt;node_4 -->
<g id="edge1" class="edge">
<title>node_5&#45;&gt;node_4</title>
<path fill="none" stroke="black" stroke-dasharray="5,2" d="M505.05,-341.78C504.9,-300.23 499.1,-193.05 446.75,-127 440.09,-118.59 430.86,-112.01 421.35,-106.93"/>
<polygon fill="black" stroke="black" points="422.92,-103.8 412.39,-102.65 419.9,-110.12 422.92,-103.8"/>
<text text-anchor="middle" x="547.59" y="-235.2" font-family="Times,serif" font-size="14.00">start &#45;&gt; start_value</text>
</g>
<!-- node_6 -->
<g id="node7" class="node">
<title>node_6</title>
<polygon fill="#ececff" stroke="#9370db" points="386.75,-510 332.75,-510 332.75,-474 386.75,-474 386.75,-510"/>
<text text-anchor="middle" x="359.75" y="-486.95" font-family="Times,serif" font-size="14.00">Start</text>
</g>
<!-- node_6&#45;&gt;node_0 -->
<g id="edge10" class="edge">
<title>node_6&#45;&gt;node_0</title>
<path fill="none" stroke="black" d="M337.95,-473.58C327.11,-464.92 313.76,-454.26 301.63,-444.57"/>
<polygon fill="black" stroke="black" points="303.83,-441.84 293.83,-438.33 299.46,-447.31 303.83,-441.84"/>
</g>
<!-- node_6&#45;&gt;node_3 -->
<g id="edge9" class="edge">
<title>node_6&#45;&gt;node_3</title>
<path fill="none" stroke="black" d="M359.2,-473.63C357.37,-417.31 351.29,-242.73 345.75,-232 343.95,-228.51 341.63,-225.26 339,-222.24"/>
<polygon fill="black" stroke="black" points="341.63,-219.92 332.01,-215.47 336.75,-224.95 341.63,-219.92"/>
<text text-anchor="middle" x="406.71" y="-354.95" font-family="Times,serif" font-size="14.00">concatenation &#45;&gt; x</text>
</g>
<!-- node_6&#45;&gt;node_5 -->
<g id="edge2" class="edge">
<title>node_6&#45;&gt;node_5</title>
<path fill="none" stroke="black" stroke-dasharray="5,2" d="M379,-473.74C404.14,-451.2 448.3,-411.61 477.03,-385.85"/>
<polygon fill="black" stroke="black" points="479.18,-388.63 484.29,-379.34 474.51,-383.41 479.18,-388.63"/>
</g>
</g>
</svg>
