<?xml version="1.0" encoding="UTF-8" standalone="no"?>
<!DOCTYPE svg PUBLIC "-//W3C//DTD SVG 1.1//EN"
 "http://www.w3.org/Graphics/SVG/1.1/DTD/svg11.dtd">
<!-- Generated by graphviz version 12.2.1 (20241206.2353)
 -->
<!-- Title: batch_processing_sync Pages: 1 -->
<svg width="284pt" height="363pt"
 viewBox="0.00 0.00 284.25 362.50" xmlns="http://www.w3.org/2000/svg" xmlns:xlink="http://www.w3.org/1999/xlink">
<g id="graph0" class="graph" transform="scale(1 1) rotate(0) translate(4 358.5)">
<title>batch_processing_sync</title>
<polygon fill="white" stroke="none" points="-4,4 -4,-358.5 280.25,-358.5 280.25,4 -4,4"/>
<text text-anchor="middle" x="138.12" y="-337.2" font-family="Times,serif" font-size="14.00">batch_processing_sync</text>
<!-- node_0 -->
<g id="node1" class="node">
<title>node_0</title>
<polygon fill="#ececff" stroke="#9370db" points="271,-257 5.25,-257 5.25,-199.5 271,-199.5 271,-257"/>
<text text-anchor="middle" x="138.12" y="-239.7" font-family="Times,serif" font-size="14.00">make_items[</text>
<text text-anchor="middle" x="138.12" y="-223.2" font-family="Times,serif" font-size="14.00">MakeItems(num_items=3,delta=1,sleep=0.1)</text>
<text text-anchor="middle" x="138.12" y="-206.7" font-family="Times,serif" font-size="14.00">]</text>
</g>
<!-- node_2 -->
<g id="node3" class="node">
<title>node_2</title>
<polygon fill="#ececff" stroke="#9370db" stroke-width="2" points="276.25,-147 0,-147 0,-73 276.25,-73 276.25,-147"/>
<text text-anchor="middle" x="138.12" y="-129.7" font-family="Times,serif" font-size="14.00">more_items[</text>
<text text-anchor="middle" x="138.12" y="-113.2" font-family="Times,serif" font-size="14.00">MakeItems(num_items=3,delta=10,sleep=0.1),</text>
<text text-anchor="middle" x="138.12" y="-96.7" font-family="Times,serif" font-size="14.00">foreach=[x],</text>
<text text-anchor="middle" x="138.12" y="-80.2" font-family="Times,serif" font-size="14.00">flat=True ]</text>
</g>
<!-- node_0&#45;&gt;node_2 -->
<g id="edge1" class="edge">
<title>node_0&#45;&gt;node_2</title>
<path fill="none" stroke="black" d="M138.12,-199.11C138.12,-186.93 138.12,-172.33 138.12,-158.55"/>
<polygon fill="black" stroke="black" points="141.63,-158.76 138.13,-148.76 134.63,-158.76 141.63,-158.76"/>
<text text-anchor="middle" x="153.5" y="-168.2" font-family="Times,serif" font-size="14.00">. &#45;&gt; x</text>
</g>
<!-- node_1 -->
<g id="node2" class="node">
<title>node_1</title>
<polygon fill="#ececff" stroke="#9370db" points="165.12,-330 111.12,-330 111.12,-294 165.12,-294 165.12,-330"/>
<text text-anchor="middle" x="138.12" y="-306.95" font-family="Times,serif" font-size="14.00">Start</text>
</g>
<!-- node_1&#45;&gt;node_0 -->
<g id="edge2" class="edge">
<title>node_1&#45;&gt;node_0</title>
<path fill="none" stroke="black" d="M138.12,-293.66C138.12,-286.36 138.12,-277.54 138.12,-268.81"/>
<polygon fill="black" stroke="black" points="141.63,-269.01 138.13,-259.01 134.63,-269.01 141.63,-269.01"/>
</g>
<!-- node_3 -->
<g id="node4" class="node">
<title>node_3</title>
<polygon fill="#ececff" stroke="#9370db" points="175.38,-36 100.88,-36 100.88,0 175.38,0 175.38,-36"/>
<text text-anchor="middle" x="138.12" y="-12.95" font-family="Times,serif" font-size="14.00">End[ sort ]</text>
</g>
<!-- node_2&#45;&gt;node_3 -->
<g id="edge3" class="edge">
<title>node_2&#45;&gt;node_3</title>
<path fill="none" stroke="black" d="M138.12,-72.65C138.12,-64.36 138.12,-55.66 138.12,-47.73"/>
<polygon fill="black" stroke="black" points="141.63,-47.97 138.13,-37.97 134.63,-47.97 141.63,-47.97"/>
</g>
</g>
</svg>
