<?xml version="1.0" encoding="UTF-8" standalone="no"?>
<!DOCTYPE svg PUBLIC "-//W3C//DTD SVG 1.1//EN"
 "http://www.w3.org/Graphics/SVG/1.1/DTD/svg11.dtd">
<!-- Generated by graphviz version 12.2.1 (20241206.2353)
 -->
<!-- Title: batch_processing_comb Pages: 1 -->
<svg width="533pt" height="483pt"
 viewBox="0.00 0.00 532.75 483.00" xmlns="http://www.w3.org/2000/svg" xmlns:xlink="http://www.w3.org/1999/xlink">
<g id="graph0" class="graph" transform="scale(1 1) rotate(0) translate(4 479)">
<title>batch_processing_comb</title>
<polygon fill="white" stroke="none" points="-4,4 -4,-479 528.75,-479 528.75,4 -4,4"/>
<text text-anchor="middle" x="262.38" y="-457.7" font-family="Times,serif" font-size="14.00">batch_processing_comb</text>
<!-- node_0 -->
<g id="node1" class="node">
<title>node_0</title>
<polygon fill="#ececff" stroke="#9370db" points="112.75,-345.5 0,-345.5 0,-304.5 112.75,-304.5 112.75,-345.5"/>
<text text-anchor="middle" x="56.38" y="-328.2" font-family="Times,serif" font-size="14.00">non_stream_first[</text>
<text text-anchor="middle" x="56.38" y="-311.7" font-family="Times,serif" font-size="14.00">add_to_arr ]</text>
</g>
<!-- node_4 -->
<g id="node5" class="node">
<title>node_4</title>
<polygon fill="#ececff" stroke="#9370db" points="353.62,-219 225.12,-219 225.12,-178 353.62,-178 353.62,-219"/>
<text text-anchor="middle" x="289.38" y="-201.7" font-family="Times,serif" font-size="14.00">non_stream_second[</text>
<text text-anchor="middle" x="289.38" y="-185.2" font-family="Times,serif" font-size="14.00">add_to_arr ]</text>
</g>
<!-- node_0&#45;&gt;node_4 -->
<g id="edge3" class="edge">
<title>node_0&#45;&gt;node_4</title>
<path fill="none" stroke="black" d="M90.37,-304.04C115.19,-289.63 149.74,-269.91 180.62,-253.5 186.54,-250.36 213.4,-237.02 238.94,-224.39"/>
<polygon fill="black" stroke="black" points="240.22,-227.66 247.63,-220.09 237.12,-221.38 240.22,-227.66"/>
<text text-anchor="middle" x="196" y="-256.7" font-family="Times,serif" font-size="14.00">. &#45;&gt; _</text>
</g>
<!-- node_6 -->
<g id="node7" class="node">
<title>node_6</title>
<polygon fill="#ececff" stroke="#9370db" stroke-width="2" points="207.12,-235.5 105.62,-235.5 105.62,-161.5 207.12,-161.5 207.12,-235.5"/>
<text text-anchor="middle" x="156.38" y="-218.2" font-family="Times,serif" font-size="14.00">stream_second[</text>
<text text-anchor="middle" x="156.38" y="-201.7" font-family="Times,serif" font-size="14.00">add_to_arr,</text>
<text text-anchor="middle" x="156.38" y="-185.2" font-family="Times,serif" font-size="14.00">foreach=[x],</text>
<text text-anchor="middle" x="156.38" y="-168.7" font-family="Times,serif" font-size="14.00">flat=True ]</text>
</g>
<!-- node_0&#45;&gt;node_6 -->
<g id="edge4" class="edge">
<title>node_0&#45;&gt;node_6</title>
<path fill="none" stroke="black" d="M65.51,-304.09C72.76,-289.34 83.77,-269.18 96.38,-253.5 98.94,-250.31 101.7,-247.14 104.58,-244.04"/>
<polygon fill="black" stroke="black" points="106.9,-246.67 111.37,-237.07 101.88,-241.79 106.9,-246.67"/>
<text text-anchor="middle" x="115.88" y="-256.7" font-family="Times,serif" font-size="14.00">. &#45;&gt; arr</text>
</g>
<!-- node_1 -->
<g id="node2" class="node">
<title>node_1</title>
<path fill="#ececff" stroke="#9370db" d="M85.75,-447.23C85.75,-449.03 72.58,-450.5 56.38,-450.5 40.17,-450.5 27,-449.03 27,-447.23 27,-447.23 27,-417.77 27,-417.77 27,-415.97 40.17,-414.5 56.38,-414.5 72.58,-414.5 85.75,-415.97 85.75,-417.77 85.75,-417.77 85.75,-447.23 85.75,-447.23"/>
<path fill="none" stroke="#9370db" d="M85.75,-447.23C85.75,-445.42 72.58,-443.95 56.38,-443.95 40.17,-443.95 27,-445.42 27,-447.23"/>
<text text-anchor="middle" x="56.38" y="-427.45" font-family="Times,serif" font-size="14.00">State[x]</text>
</g>
<!-- node_1&#45;&gt;node_0 -->
<g id="edge1" class="edge">
<title>node_1&#45;&gt;node_0</title>
<path fill="none" stroke="black" stroke-dasharray="5,2" d="M56.38,-414.08C56.38,-398.72 56.38,-375.95 56.38,-357.42"/>
<polygon fill="black" stroke="black" points="59.88,-357.48 56.38,-347.48 52.88,-357.48 59.88,-357.48"/>
<text text-anchor="middle" x="71.75" y="-383.2" font-family="Times,serif" font-size="14.00">. &#45;&gt; x</text>
</g>
<!-- node_2 -->
<g id="node3" class="node">
<title>node_2</title>
<polygon fill="#ececff" stroke="#9370db" points="178.38,-450.5 124.38,-450.5 124.38,-414.5 178.38,-414.5 178.38,-450.5"/>
<text text-anchor="middle" x="151.38" y="-427.45" font-family="Times,serif" font-size="14.00">Start</text>
</g>
<!-- node_2&#45;&gt;node_0 -->
<g id="edge5" class="edge">
<title>node_2&#45;&gt;node_0</title>
<path fill="none" stroke="black" d="M135.69,-414.08C121.06,-397.84 98.99,-373.33 81.84,-354.28"/>
<polygon fill="black" stroke="black" points="84.66,-352.18 75.37,-347.09 79.46,-356.87 84.66,-352.18"/>
<text text-anchor="middle" x="137.44" y="-383.2" font-family="Times,serif" font-size="14.00">. &#45;&gt; arr</text>
</g>
<!-- node_3 -->
<g id="node4" class="node">
<title>node_3</title>
<polygon fill="#ececff" stroke="#9370db" stroke-width="2" points="448.12,-362 130.62,-362 130.62,-288 448.12,-288 448.12,-362"/>
<text text-anchor="middle" x="289.38" y="-344.7" font-family="Times,serif" font-size="14.00">stream_first[</text>
<text text-anchor="middle" x="289.38" y="-328.2" font-family="Times,serif" font-size="14.00">MakeItemsAsync(num_items=3,delta=10,sleep=0.05),</text>
<text text-anchor="middle" x="289.38" y="-311.7" font-family="Times,serif" font-size="14.00">foreach=[x],</text>
<text text-anchor="middle" x="289.38" y="-295.2" font-family="Times,serif" font-size="14.00">flat=True ]</text>
</g>
<!-- node_2&#45;&gt;node_3 -->
<g id="edge6" class="edge">
<title>node_2&#45;&gt;node_3</title>
<path fill="none" stroke="black" d="M174.16,-414.08C190.1,-401.89 212.13,-385.06 232.65,-369.36"/>
<polygon fill="black" stroke="black" points="234.62,-372.26 240.44,-363.41 230.37,-366.7 234.62,-372.26"/>
<text text-anchor="middle" x="231.61" y="-383.2" font-family="Times,serif" font-size="14.00">. &#45;&gt; x</text>
</g>
<!-- node_3&#45;&gt;node_4 -->
<g id="edge7" class="edge">
<title>node_3&#45;&gt;node_4</title>
<path fill="none" stroke="black" d="M289.38,-287.65C289.38,-269.66 289.38,-248.16 289.38,-230.89"/>
<polygon fill="black" stroke="black" points="292.88,-230.96 289.38,-220.96 285.88,-230.96 292.88,-230.96"/>
<text text-anchor="middle" x="308.88" y="-256.7" font-family="Times,serif" font-size="14.00">. &#45;&gt; arr</text>
</g>
<!-- node_3&#45;&gt;node_6 -->
<g id="edge8" class="edge">
<title>node_3&#45;&gt;node_6</title>
<path fill="none" stroke="black" d="M250.55,-287.65C235.8,-273.85 218.84,-257.97 203.41,-243.53"/>
<polygon fill="black" stroke="black" points="205.82,-240.99 196.12,-236.71 201.03,-246.1 205.82,-240.99"/>
<text text-anchor="middle" x="246.21" y="-256.7" font-family="Times,serif" font-size="14.00">. &#45;&gt; x</text>
</g>
<!-- node_7 -->
<g id="node8" class="node">
<title>node_7</title>
<polygon fill="#ececff" stroke="#9370db" points="275.38,-109 169.38,-109 169.38,-73 275.38,-73 275.38,-109"/>
<text text-anchor="middle" x="222.38" y="-85.95" font-family="Times,serif" font-size="14.00">Concat[ concat ]</text>
</g>
<!-- node_4&#45;&gt;node_7 -->
<g id="edge9" class="edge">
<title>node_4&#45;&gt;node_7</title>
<path fill="none" stroke="black" d="M276.77,-177.66C266.22,-161.04 251.06,-137.16 239.42,-118.84"/>
<polygon fill="black" stroke="black" points="242.49,-117.15 234.18,-110.59 236.59,-120.9 242.49,-117.15"/>
</g>
<!-- node_5 -->
<g id="node6" class="node">
<title>node_5</title>
<path fill="#ececff" stroke="#9370db" d="M524.75,-339.73C524.75,-341.53 511.58,-343 495.38,-343 479.17,-343 466,-341.53 466,-339.73 466,-339.73 466,-310.27 466,-310.27 466,-308.47 479.17,-307 495.38,-307 511.58,-307 524.75,-308.47 524.75,-310.27 524.75,-310.27 524.75,-339.73 524.75,-339.73"/>
<path fill="none" stroke="#9370db" d="M524.75,-339.73C524.75,-337.92 511.58,-336.45 495.38,-336.45 479.17,-336.45 466,-337.92 466,-339.73"/>
<text text-anchor="middle" x="495.38" y="-319.95" font-family="Times,serif" font-size="14.00">State[y]</text>
</g>
<!-- node_5&#45;&gt;node_4 -->
<g id="edge2" class="edge">
<title>node_5&#45;&gt;node_4</title>
<path fill="none" stroke="black" stroke-dasharray="5,2" d="M479.22,-306.82C472.77,-300.48 465.06,-293.5 457.38,-288 422.28,-262.86 379.13,-240.28 345.35,-224.22"/>
<polygon fill="black" stroke="black" points="347.09,-221.18 336.55,-220.1 344.12,-227.51 347.09,-221.18"/>
<text text-anchor="middle" x="442.48" y="-256.7" font-family="Times,serif" font-size="14.00">. &#45;&gt; x</text>
</g>
<!-- node_6&#45;&gt;node_7 -->
<g id="edge10" class="edge">
<title>node_6&#45;&gt;node_7</title>
<path fill="none" stroke="black" d="M179.09,-161.19C187.74,-147.37 197.44,-131.86 205.46,-119.04"/>
<polygon fill="black" stroke="black" points="208.34,-121.04 210.67,-110.7 202.4,-117.32 208.34,-121.04"/>
<text text-anchor="middle" x="214.52" y="-130.2" font-family="Times,serif" font-size="14.00">. &#45;&gt; 1</text>
</g>
<!-- node_8 -->
<g id="node9" class="node">
<title>node_8</title>
<polygon fill="#ececff" stroke="#9370db" points="259.62,-36 185.12,-36 185.12,0 259.62,0 259.62,-36"/>
<text text-anchor="middle" x="222.38" y="-12.95" font-family="Times,serif" font-size="14.00">End[ sort ]</text>
</g>
<!-- node_7&#45;&gt;node_8 -->
<g id="edge11" class="edge">
<title>node_7&#45;&gt;node_8</title>
<path fill="none" stroke="black" d="M222.38,-72.81C222.38,-65.23 222.38,-56.1 222.38,-47.54"/>
<polygon fill="black" stroke="black" points="225.88,-47.54 222.38,-37.54 218.88,-47.54 225.88,-47.54"/>
</g>
</g>
</svg>
