<?xml version="1.0" encoding="UTF-8" standalone="no"?>
<!DOCTYPE svg PUBLIC "-//W3C//DTD SVG 1.1//EN"
 "http://www.w3.org/Graphics/SVG/1.1/DTD/svg11.dtd">
<!-- Generated by graphviz version 12.2.1 (20241206.2353)
 -->
<!-- Title: batch_processing_async Pages: 1 -->
<svg width="319pt" height="363pt"
 viewBox="0.00 0.00 318.75 362.50" xmlns="http://www.w3.org/2000/svg" xmlns:xlink="http://www.w3.org/1999/xlink">
<g id="graph0" class="graph" transform="scale(1 1) rotate(0) translate(4 358.5)">
<title>batch_processing_async</title>
<polygon fill="white" stroke="none" points="-4,4 -4,-358.5 314.75,-358.5 314.75,4 -4,4"/>
<text text-anchor="middle" x="155.38" y="-337.2" font-family="Times,serif" font-size="14.00">batch_processing_async</text>
<!-- node_0 -->
<g id="node1" class="node">
<title>node_0</title>
<polygon fill="#ececff" stroke="#9370db" points="305.5,-257 5.25,-257 5.25,-199.5 305.5,-199.5 305.5,-257"/>
<text text-anchor="middle" x="155.38" y="-239.7" font-family="Times,serif" font-size="14.00">make_items[</text>
<text text-anchor="middle" x="155.38" y="-223.2" font-family="Times,serif" font-size="14.00">MakeItemsAsync(num_items=3,delta=1,sleep=0.1)</text>
<text text-anchor="middle" x="155.38" y="-206.7" font-family="Times,serif" font-size="14.00">]</text>
</g>
<!-- node_2 -->
<g id="node3" class="node">
<title>node_2</title>
<polygon fill="#ececff" stroke="#9370db" stroke-width="2" points="310.75,-147 0,-147 0,-73 310.75,-73 310.75,-147"/>
<text text-anchor="middle" x="155.38" y="-129.7" font-family="Times,serif" font-size="14.00">more_items[</text>
<text text-anchor="middle" x="155.38" y="-113.2" font-family="Times,serif" font-size="14.00">MakeItemsAsync(num_items=3,delta=10,sleep=0.1),</text>
<text text-anchor="middle" x="155.38" y="-96.7" font-family="Times,serif" font-size="14.00">foreach=[x],</text>
<text text-anchor="middle" x="155.38" y="-80.2" font-family="Times,serif" font-size="14.00">flat=True ]</text>
</g>
<!-- node_0&#45;&gt;node_2 -->
<g id="edge1" class="edge">
<title>node_0&#45;&gt;node_2</title>
<path fill="none" stroke="black" d="M155.38,-199.11C155.38,-186.93 155.38,-172.33 155.38,-158.55"/>
<polygon fill="black" stroke="black" points="158.88,-158.76 155.38,-148.76 151.88,-158.76 158.88,-158.76"/>
<text text-anchor="middle" x="170.75" y="-168.2" font-family="Times,serif" font-size="14.00">. &#45;&gt; x</text>
</g>
<!-- node_1 -->
<g id="node2" class="node">
<title>node_1</title>
<polygon fill="#ececff" stroke="#9370db" points="182.38,-330 128.38,-330 128.38,-294 182.38,-294 182.38,-330"/>
<text text-anchor="middle" x="155.38" y="-306.95" font-family="Times,serif" font-size="14.00">Start</text>
</g>
<!-- node_1&#45;&gt;node_0 -->
<g id="edge2" class="edge">
<title>node_1&#45;&gt;node_0</title>
<path fill="none" stroke="black" d="M155.38,-293.66C155.38,-286.36 155.38,-277.54 155.38,-268.81"/>
<polygon fill="black" stroke="black" points="158.88,-269.01 155.38,-259.01 151.88,-269.01 158.88,-269.01"/>
</g>
<!-- node_3 -->
<g id="node4" class="node">
<title>node_3</title>
<polygon fill="#ececff" stroke="#9370db" points="195.62,-36 115.12,-36 115.12,0 195.62,0 195.62,-36"/>
<text text-anchor="middle" x="155.38" y="-12.95" font-family="Times,serif" font-size="14.00">End[ asort ]</text>
</g>
<!-- node_2&#45;&gt;node_3 -->
<g id="edge3" class="edge">
<title>node_2&#45;&gt;node_3</title>
<path fill="none" stroke="black" d="M155.38,-72.65C155.38,-64.36 155.38,-55.66 155.38,-47.73"/>
<polygon fill="black" stroke="black" points="158.88,-47.97 155.38,-37.97 151.88,-47.97 158.88,-47.97"/>
</g>
</g>
</svg>
