<?xml version="1.0" encoding="UTF-8" standalone="no"?>
<!DOCTYPE svg PUBLIC "-//W3C//DTD SVG 1.1//EN"
 "http://www.w3.org/Graphics/SVG/1.1/DTD/svg11.dtd">
<!-- Generated by graphviz version 12.2.1 (20241206.2353)
 -->
<!-- Title: naive_flow Pages: 1 -->
<svg width="208pt" height="230pt"
 viewBox="0.00 0.00 208.00 230.00" xmlns="http://www.w3.org/2000/svg" xmlns:xlink="http://www.w3.org/1999/xlink">
<g id="graph0" class="graph" transform="scale(1 1) rotate(0) translate(4 226)">
<title>naive_flow</title>
<polygon fill="white" stroke="none" points="-4,4 -4,-226 204,-226 204,4 -4,4"/>
<text text-anchor="middle" x="100" y="-204.7" font-family="Times,serif" font-size="14.00">naive_flow</text>
<!-- node_0 -->
<g id="node1" class="node">
<title>node_0</title>
<polygon fill="#ececff" stroke="#9370db" points="91,-124.5 0,-124.5 0,-88.5 91,-88.5 91,-124.5"/>
<text text-anchor="middle" x="45.5" y="-101.45" font-family="Times,serif" font-size="14.00">plus1[ plus1 ]</text>
</g>
<!-- node_2 -->
<g id="node3" class="node">
<title>node_2</title>
<polygon fill="#ececff" stroke="#9370db" points="126.5,-36 72.5,-36 72.5,0 126.5,0 126.5,-36"/>
<text text-anchor="middle" x="99.5" y="-12.95" font-family="Times,serif" font-size="14.00">End</text>
</g>
<!-- node_0&#45;&gt;node_2 -->
<g id="edge1" class="edge">
<title>node_0&#45;&gt;node_2</title>
<path fill="none" stroke="blue" stroke-width="2" d="M56.17,-88.41C63.74,-76.29 74.05,-59.77 82.71,-45.89"/>
<polygon fill="blue" stroke="blue" stroke-width="2" points="84.74,-49.25 87.07,-38.92 78.8,-45.55 84.74,-49.25"/>
<text text-anchor="middle" x="92.71" y="-57.2" font-family="Times,serif" font-size="14.00">. &#45;&gt; x</text>
</g>
<!-- node_1 -->
<g id="node2" class="node">
<title>node_1</title>
<polygon fill="#ececff" stroke="#9370db" points="126.5,-197.5 72.5,-197.5 72.5,-161.5 126.5,-161.5 126.5,-197.5"/>
<text text-anchor="middle" x="99.5" y="-174.45" font-family="Times,serif" font-size="14.00">Start</text>
</g>
<!-- node_1&#45;&gt;node_0 -->
<g id="edge2" class="edge">
<title>node_1&#45;&gt;node_0</title>
<path fill="none" stroke="blue" stroke-width="2" d="M86.43,-161.31C80.06,-152.94 72.27,-142.7 65.2,-133.4"/>
<polygon fill="blue" stroke="blue" stroke-width="2" points="69.12,-132.78 60.28,-126.94 63.55,-137.02 69.12,-132.78"/>
</g>
<!-- node_3 -->
<g id="node4" class="node">
<title>node_3</title>
<polygon fill="#ececff" stroke="#9370db" points="200,-124.5 109,-124.5 109,-88.5 200,-88.5 200,-124.5"/>
<text text-anchor="middle" x="154.5" y="-101.45" font-family="Times,serif" font-size="14.00">plus2[ plus2 ]</text>
</g>
<!-- node_1&#45;&gt;node_3 -->
<g id="edge3" class="edge">
<title>node_1&#45;&gt;node_3</title>
<path fill="none" stroke="blue" stroke-width="2" d="M112.81,-161.31C119.3,-152.94 127.23,-142.7 134.43,-133.4"/>
<polygon fill="blue" stroke="blue" stroke-width="2" points="136.1,-136.97 139.45,-126.92 130.56,-132.68 136.1,-136.97"/>
</g>
<!-- node_3&#45;&gt;node_2 -->
<g id="edge4" class="edge">
<title>node_3&#45;&gt;node_2</title>
<path fill="none" stroke="blue" stroke-width="2" d="M143.63,-88.41C135.93,-76.29 125.42,-59.77 116.6,-45.89"/>
<polygon fill="blue" stroke="blue" stroke-width="2" points="120.48,-45.47 112.16,-38.9 114.57,-49.22 120.48,-45.47"/>
<text text-anchor="middle" x="147.3" y="-57.2" font-family="Times,serif" font-size="14.00">. &#45;&gt; y</text>
</g>
</g>
</svg>
