<?xml version="1.0" encoding="UTF-8" standalone="no"?>
<!DOCTYPE svg PUBLIC "-//W3C//DTD SVG 1.1//EN"
 "http://www.w3.org/Graphics/SVG/1.1/DTD/svg11.dtd">
<!-- Generated by graphviz version 12.2.1 (20241206.2353)
 -->
<!-- Title: conflicting_ports Pages: 1 -->
<svg width="384pt" height="514pt"
 viewBox="0.00 0.00 383.50 513.50" xmlns="http://www.w3.org/2000/svg" xmlns:xlink="http://www.w3.org/1999/xlink">
<g id="graph0" class="graph" transform="scale(1 1) rotate(0) translate(4 509.5)">
<title>conflicting_ports</title>
<polygon fill="white" stroke="none" points="-4,4 -4,-509.5 379.5,-509.5 379.5,4 -4,4"/>
<text text-anchor="middle" x="187.75" y="-488.2" font-family="Times,serif" font-size="14.00">conflicting_ports</text>
<!-- node_0 -->
<g id="node1" class="node">
<title>node_0</title>
<polygon fill="#ececff" stroke="#9370db" points="268.38,-408 151.12,-408 151.12,-367 268.38,-367 268.38,-408"/>
<text text-anchor="middle" x="209.75" y="-390.7" font-family="Times,serif" font-size="14.00">Conditional_node[</text>
<text text-anchor="middle" x="209.75" y="-374.2" font-family="Times,serif" font-size="14.00">plus1 ]</text>
</g>
<!-- node_3 -->
<g id="node4" class="node">
<title>node_3</title>
<polygon fill="#ececff" stroke="#9370db" points="198.88,-295 138.62,-295 138.62,-259 198.88,-259 198.88,-295"/>
<text text-anchor="middle" x="168.75" y="-271.95" font-family="Times,serif" font-size="14.00">Option1</text>
</g>
<!-- node_0&#45;&gt;node_3 -->
<g id="edge3" class="edge">
<title>node_0&#45;&gt;node_3</title>
<path fill="none" stroke="blue" stroke-width="2" d="M183.67,-366.57C178.68,-361.42 174.12,-355.48 171.25,-349 165.48,-335.96 164.41,-320.22 164.97,-306.88"/>
<polygon fill="blue" stroke="blue" stroke-width="2" points="168.34,-308.7 165.63,-298.46 161.36,-308.16 168.34,-308.7"/>
<text text-anchor="middle" x="194.5" y="-325.95" font-family="Times,serif" font-size="14.00">?(mod2)</text>
</g>
<!-- node_4 -->
<g id="node5" class="node">
<title>node_4</title>
<polygon fill="#ececff" stroke="#9370db" points="281.62,-241 183.88,-241 183.88,-205 281.62,-205 281.62,-241"/>
<text text-anchor="middle" x="232.75" y="-217.95" font-family="Times,serif" font-size="14.00">Default_option</text>
</g>
<!-- node_0&#45;&gt;node_4 -->
<g id="edge4" class="edge">
<title>node_0&#45;&gt;node_4</title>
<path fill="none" stroke="blue" stroke-width="2" d="M214.32,-366.71C215.54,-361.02 216.79,-354.78 217.75,-349 223.2,-316.2 227.47,-278.25 230.04,-252.85"/>
<polygon fill="blue" stroke="blue" stroke-width="2" points="233.37,-254.77 230.86,-244.47 226.4,-254.08 233.37,-254.77"/>
</g>
<!-- node_1 -->
<g id="node2" class="node">
<title>node_1</title>
<polygon fill="#ececff" stroke="#9370db" points="279.75,-481 225.75,-481 225.75,-445 279.75,-445 279.75,-481"/>
<text text-anchor="middle" x="252.75" y="-457.95" font-family="Times,serif" font-size="14.00">Start</text>
</g>
<!-- node_1&#45;&gt;node_0 -->
<g id="edge5" class="edge">
<title>node_1&#45;&gt;node_0</title>
<path fill="none" stroke="blue" stroke-width="2" d="M242.56,-444.58C237.94,-436.69 232.35,-427.13 227.1,-418.15"/>
<polygon fill="blue" stroke="blue" stroke-width="2" points="230.99,-417.87 222.92,-411 224.94,-421.4 230.99,-417.87"/>
</g>
<!-- node_2 -->
<g id="node3" class="node">
<title>node_2</title>
<path fill="#ececff" stroke="#9370db" d="M334.38,-345.73C334.38,-347.53 317.51,-349 296.75,-349 275.99,-349 259.12,-347.53 259.12,-345.73 259.12,-345.73 259.12,-316.27 259.12,-316.27 259.12,-314.47 275.99,-313 296.75,-313 317.51,-313 334.38,-314.47 334.38,-316.27 334.38,-316.27 334.38,-345.73 334.38,-345.73"/>
<path fill="none" stroke="#9370db" d="M334.38,-345.73C334.38,-343.92 317.51,-342.45 296.75,-342.45 275.99,-342.45 259.12,-343.92 259.12,-345.73"/>
<text text-anchor="middle" x="296.75" y="-325.95" font-family="Times,serif" font-size="14.00">State[start]</text>
</g>
<!-- node_1&#45;&gt;node_2 -->
<g id="edge1" class="edge">
<title>node_1&#45;&gt;node_2</title>
<path fill="none" stroke="black" stroke-dasharray="5,2" d="M261.71,-444.84C266.9,-434.39 273.28,-420.66 277.75,-408 283.16,-392.67 287.66,-375.09 290.92,-360.7"/>
<polygon fill="black" stroke="black" points="294.33,-361.47 293.04,-350.96 287.49,-359.99 294.33,-361.47"/>
</g>
<!-- node_8 -->
<g id="node9" class="node">
<title>node_8</title>
<polygon fill="#ececff" stroke="#9370db" points="276.75,-36 222.75,-36 222.75,0 276.75,0 276.75,-36"/>
<text text-anchor="middle" x="249.75" y="-12.95" font-family="Times,serif" font-size="14.00">End</text>
</g>
<!-- node_2&#45;&gt;node_8 -->
<g id="edge2" class="edge">
<title>node_2&#45;&gt;node_8</title>
<path fill="none" stroke="black" stroke-dasharray="5,2" d="M296.75,-312.74C296.75,-291.76 296.75,-255.28 296.75,-224 296.75,-224 296.75,-224 296.75,-90 296.75,-73.23 287.52,-57.38 277.24,-44.92"/>
<polygon fill="black" stroke="black" points="279.97,-42.73 270.69,-37.62 274.76,-47.4 279.97,-42.73"/>
<text text-anchor="middle" x="336.12" y="-161.45" font-family="Times,serif" font-size="14.00">. &#45;&gt; start_state</text>
</g>
<!-- node_5 -->
<g id="node6" class="node">
<title>node_5</title>
<polygon fill="#ececff" stroke="#9370db" points="101.5,-187 0,-187 0,-146 101.5,-146 101.5,-187"/>
<text text-anchor="middle" x="50.75" y="-169.7" font-family="Times,serif" font-size="14.00">Parallel_node1[</text>
<text text-anchor="middle" x="50.75" y="-153.2" font-family="Times,serif" font-size="14.00">plus1 ]</text>
</g>
<!-- node_3&#45;&gt;node_5 -->
<g id="edge6" class="edge">
<title>node_3&#45;&gt;node_5</title>
<path fill="none" stroke="black" d="M149.79,-258.57C131.16,-241.43 102.43,-215.02 80.71,-195.05"/>
<polygon fill="black" stroke="black" points="83.31,-192.68 73.58,-188.49 78.57,-197.84 83.31,-192.68"/>
</g>
<!-- node_6 -->
<g id="node7" class="node">
<title>node_6</title>
<polygon fill="#ececff" stroke="#9370db" points="221.5,-187 120,-187 120,-146 221.5,-146 221.5,-187"/>
<text text-anchor="middle" x="170.75" y="-169.7" font-family="Times,serif" font-size="14.00">Parallel_node2[</text>
<text text-anchor="middle" x="170.75" y="-153.2" font-family="Times,serif" font-size="14.00">plus2 ]</text>
</g>
<!-- node_3&#45;&gt;node_6 -->
<g id="edge7" class="edge">
<title>node_3&#45;&gt;node_6</title>
<path fill="none" stroke="black" d="M169.07,-258.57C169.37,-242.49 169.81,-218.26 170.17,-198.83"/>
<polygon fill="black" stroke="black" points="173.67,-199.04 170.35,-188.98 166.67,-198.91 173.67,-199.04"/>
</g>
<!-- node_4&#45;&gt;node_8 -->
<g id="edge8" class="edge">
<title>node_4&#45;&gt;node_8</title>
<path fill="none" stroke="blue" stroke-width="2" d="M234.2,-204.69C237.13,-169.71 243.78,-90.29 247.36,-47.53"/>
<polygon fill="blue" stroke="blue" stroke-width="2" points="250.7,-49.54 248.05,-39.28 243.73,-48.95 250.7,-49.54"/>
</g>
<!-- node_7 -->
<g id="node8" class="node">
<title>node_7</title>
<polygon fill="#ececff" stroke="#9370db" points="212.5,-109 129,-109 129,-73 212.5,-73 212.5,-109"/>
<text text-anchor="middle" x="170.75" y="-85.95" font-family="Times,serif" font-size="14.00">Parallel_end</text>
</g>
<!-- node_5&#45;&gt;node_7 -->
<g id="edge9" class="edge">
<title>node_5&#45;&gt;node_7</title>
<path fill="none" stroke="black" d="M83.22,-145.61C98.51,-136.24 116.85,-125.01 132.78,-115.26"/>
<polygon fill="black" stroke="black" points="134.35,-118.4 141.05,-110.19 130.69,-112.43 134.35,-118.4"/>
</g>
<!-- node_6&#45;&gt;node_7 -->
<g id="edge10" class="edge">
<title>node_6&#45;&gt;node_7</title>
<path fill="none" stroke="black" d="M170.75,-145.8C170.75,-138.06 170.75,-129.01 170.75,-120.57"/>
<polygon fill="black" stroke="black" points="174.25,-120.76 170.75,-110.76 167.25,-120.76 174.25,-120.76"/>
</g>
<!-- node_7&#45;&gt;node_8 -->
<g id="edge11" class="edge">
<title>node_7&#45;&gt;node_8</title>
<path fill="none" stroke="blue" stroke-width="2" d="M189.87,-72.81C199.51,-64.16 211.36,-53.5 221.98,-43.96"/>
<polygon fill="blue" stroke="blue" stroke-width="2" points="223.18,-47.59 228.28,-38.3 218.5,-42.38 223.18,-47.59"/>
</g>
</g>
</svg>
