<?xml version="1.0" encoding="UTF-8" standalone="no"?>
<!DOCTYPE svg PUBLIC "-//W3C//DTD SVG 1.1//EN"
 "http://www.w3.org/Graphics/SVG/1.1/DTD/svg11.dtd">
<!-- Generated by graphviz version 12.2.1 (20241206.2353)
 -->
<!-- Title: edge_signature Pages: 1 -->
<svg width="115pt" height="174pt"
 viewBox="0.00 0.00 114.50 173.50" xmlns="http://www.w3.org/2000/svg" xmlns:xlink="http://www.w3.org/1999/xlink">
<g id="graph0" class="graph" transform="scale(1 1) rotate(0) translate(4 169.5)">
<title>edge_signature</title>
<polygon fill="white" stroke="none" points="-4,4 -4,-169.5 110.5,-169.5 110.5,4 -4,4"/>
<text text-anchor="middle" x="53.25" y="-148.2" font-family="Times,serif" font-size="14.00">edge_signature</text>
<!-- node_0 -->
<g id="node1" class="node">
<title>node_0</title>
<polygon fill="#ececff" stroke="#9370db" points="54,-141 0,-141 0,-105 54,-105 54,-141"/>
<text text-anchor="middle" x="27" y="-117.95" font-family="Times,serif" font-size="14.00">Start</text>
</g>
<!-- node_1 -->
<g id="node2" class="node">
<title>node_1</title>
<polygon fill="#ececff" stroke="#9370db" points="54,-36 0,-36 0,0 54,0 54,-36"/>
<text text-anchor="middle" x="27" y="-12.95" font-family="Times,serif" font-size="14.00">End</text>
</g>
<!-- node_0&#45;&gt;node_1 -->
<g id="edge1" class="edge">
<title>node_0&#45;&gt;node_1</title>
<path fill="none" stroke="black" d="M27,-104.53C27,-88.97 27,-65.92 27,-47.66"/>
<polygon fill="black" stroke="black" points="30.5,-47.73 27,-37.73 23.5,-47.73 30.5,-47.73"/>
<text text-anchor="middle" x="66.75" y="-73.7" font-family="Times,serif" font-size="14.00">output_port &#45;&gt;</text>
<text text-anchor="middle" x="66.75" y="-57.2" font-family="Times,serif" font-size="14.00">input_port</text>
</g>
</g>
</svg>
