<?xml version="1.0" encoding="UTF-8" standalone="no"?>
<!DOCTYPE svg PUBLIC "-//W3C//DTD SVG 1.1//EN"
 "http://www.w3.org/Graphics/SVG/1.1/DTD/svg11.dtd">
<!-- Generated by graphviz version 12.2.1 (20241206.2353)
 -->
<!-- Title: edge_types Pages: 1 -->
<svg width="384pt" height="545pt"
 viewBox="0.00 0.00 383.50 544.50" xmlns="http://www.w3.org/2000/svg" xmlns:xlink="http://www.w3.org/1999/xlink">
<g id="graph0" class="graph" transform="scale(1 1) rotate(0) translate(4 540.5)">
<title>edge_types</title>
<polygon fill="white" stroke="none" points="-4,4 -4,-540.5 379.5,-540.5 379.5,4 -4,4"/>
<text text-anchor="middle" x="187.75" y="-519.2" font-family="Times,serif" font-size="14.00">edge_types</text>
<!-- node_0 -->
<g id="node1" class="node">
<title>node_0</title>
<polygon fill="#ececff" stroke="#9370db" points="268.38,-439 151.12,-439 151.12,-398 268.38,-398 268.38,-439"/>
<text text-anchor="middle" x="209.75" y="-421.7" font-family="Times,serif" font-size="14.00">Conditional_node[</text>
<text text-anchor="middle" x="209.75" y="-405.2" font-family="Times,serif" font-size="14.00">plus1 ]</text>
</g>
<!-- node_3 -->
<g id="node4" class="node">
<title>node_3</title>
<polygon fill="#ececff" stroke="#9370db" points="198.88,-326 138.62,-326 138.62,-290 198.88,-290 198.88,-326"/>
<text text-anchor="middle" x="168.75" y="-302.95" font-family="Times,serif" font-size="14.00">Option1</text>
</g>
<!-- node_0&#45;&gt;node_3 -->
<g id="edge3" class="edge">
<title>node_0&#45;&gt;node_3</title>
<path fill="none" stroke="blue" stroke-width="2" d="M183.67,-397.57C178.68,-392.42 174.12,-386.48 171.25,-380 165.48,-366.96 164.41,-351.22 164.97,-337.88"/>
<polygon fill="blue" stroke="blue" stroke-width="2" points="168.34,-339.7 165.63,-329.46 161.36,-339.16 168.34,-339.7"/>
<text text-anchor="middle" x="194.5" y="-356.95" font-family="Times,serif" font-size="14.00">?(mod2)</text>
</g>
<!-- node_4 -->
<g id="node5" class="node">
<title>node_4</title>
<polygon fill="#ececff" stroke="#9370db" points="281.62,-272 183.88,-272 183.88,-236 281.62,-236 281.62,-272"/>
<text text-anchor="middle" x="232.75" y="-248.95" font-family="Times,serif" font-size="14.00">Default_option</text>
</g>
<!-- node_0&#45;&gt;node_4 -->
<g id="edge4" class="edge">
<title>node_0&#45;&gt;node_4</title>
<path fill="none" stroke="blue" stroke-width="2" d="M214.32,-397.71C215.54,-392.02 216.79,-385.78 217.75,-380 223.2,-347.2 227.47,-309.25 230.04,-283.85"/>
<polygon fill="blue" stroke="blue" stroke-width="2" points="233.37,-285.77 230.86,-275.47 226.4,-285.08 233.37,-285.77"/>
</g>
<!-- node_1 -->
<g id="node2" class="node">
<title>node_1</title>
<polygon fill="#ececff" stroke="#9370db" points="279.75,-512 225.75,-512 225.75,-476 279.75,-476 279.75,-512"/>
<text text-anchor="middle" x="252.75" y="-488.95" font-family="Times,serif" font-size="14.00">Start</text>
</g>
<!-- node_1&#45;&gt;node_0 -->
<g id="edge5" class="edge">
<title>node_1&#45;&gt;node_0</title>
<path fill="none" stroke="blue" stroke-width="2" d="M242.56,-475.58C237.94,-467.69 232.35,-458.13 227.1,-449.15"/>
<polygon fill="blue" stroke="blue" stroke-width="2" points="230.99,-448.87 222.92,-442 224.94,-452.4 230.99,-448.87"/>
</g>
<!-- node_2 -->
<g id="node3" class="node">
<title>node_2</title>
<path fill="#ececff" stroke="#9370db" d="M334.38,-376.73C334.38,-378.53 317.51,-380 296.75,-380 275.99,-380 259.12,-378.53 259.12,-376.73 259.12,-376.73 259.12,-347.27 259.12,-347.27 259.12,-345.47 275.99,-344 296.75,-344 317.51,-344 334.38,-345.47 334.38,-347.27 334.38,-347.27 334.38,-376.73 334.38,-376.73"/>
<path fill="none" stroke="#9370db" d="M334.38,-376.73C334.38,-374.92 317.51,-373.45 296.75,-373.45 275.99,-373.45 259.12,-374.92 259.12,-376.73"/>
<text text-anchor="middle" x="296.75" y="-356.95" font-family="Times,serif" font-size="14.00">State[start]</text>
</g>
<!-- node_1&#45;&gt;node_2 -->
<g id="edge1" class="edge">
<title>node_1&#45;&gt;node_2</title>
<path fill="none" stroke="black" stroke-dasharray="5,2" d="M261.71,-475.84C266.9,-465.39 273.28,-451.66 277.75,-439 283.16,-423.67 287.66,-406.09 290.92,-391.7"/>
<polygon fill="black" stroke="black" points="294.33,-392.47 293.04,-381.96 287.49,-390.99 294.33,-392.47"/>
</g>
<!-- node_8 -->
<g id="node9" class="node">
<title>node_8</title>
<polygon fill="#ececff" stroke="#9370db" points="276.75,-36 222.75,-36 222.75,0 276.75,0 276.75,-36"/>
<text text-anchor="middle" x="249.75" y="-12.95" font-family="Times,serif" font-size="14.00">End</text>
</g>
<!-- node_2&#45;&gt;node_8 -->
<g id="edge2" class="edge">
<title>node_2&#45;&gt;node_8</title>
<path fill="none" stroke="black" stroke-dasharray="5,2" d="M296.75,-343.74C296.75,-322.76 296.75,-286.28 296.75,-255 296.75,-255 296.75,-255 296.75,-105.5 296.75,-83.36 284.71,-61.47 272.82,-45.25"/>
<polygon fill="black" stroke="black" points="275.76,-43.33 266.85,-37.59 270.24,-47.63 275.76,-43.33"/>
<text text-anchor="middle" x="336.12" y="-192.45" font-family="Times,serif" font-size="14.00">. &#45;&gt; start_state</text>
</g>
<!-- node_5 -->
<g id="node6" class="node">
<title>node_5</title>
<polygon fill="#ececff" stroke="#9370db" points="101.5,-218 0,-218 0,-177 101.5,-177 101.5,-218"/>
<text text-anchor="middle" x="50.75" y="-200.7" font-family="Times,serif" font-size="14.00">Parallel_node1[</text>
<text text-anchor="middle" x="50.75" y="-184.2" font-family="Times,serif" font-size="14.00">plus1 ]</text>
</g>
<!-- node_3&#45;&gt;node_5 -->
<g id="edge6" class="edge">
<title>node_3&#45;&gt;node_5</title>
<path fill="none" stroke="black" d="M149.79,-289.57C131.16,-272.43 102.43,-246.02 80.71,-226.05"/>
<polygon fill="black" stroke="black" points="83.31,-223.68 73.58,-219.49 78.57,-228.84 83.31,-223.68"/>
</g>
<!-- node_6 -->
<g id="node7" class="node">
<title>node_6</title>
<polygon fill="#ececff" stroke="#9370db" points="221.5,-218 120,-218 120,-177 221.5,-177 221.5,-218"/>
<text text-anchor="middle" x="170.75" y="-200.7" font-family="Times,serif" font-size="14.00">Parallel_node2[</text>
<text text-anchor="middle" x="170.75" y="-184.2" font-family="Times,serif" font-size="14.00">plus2 ]</text>
</g>
<!-- node_3&#45;&gt;node_6 -->
<g id="edge7" class="edge">
<title>node_3&#45;&gt;node_6</title>
<path fill="none" stroke="black" d="M169.07,-289.57C169.37,-273.49 169.81,-249.26 170.17,-229.83"/>
<polygon fill="black" stroke="black" points="173.67,-230.04 170.35,-219.98 166.67,-229.91 173.67,-230.04"/>
</g>
<!-- node_4&#45;&gt;node_8 -->
<g id="edge8" class="edge">
<title>node_4&#45;&gt;node_8</title>
<path fill="none" stroke="blue" stroke-width="2" d="M234,-235.79C236.9,-195.9 244.1,-96.76 247.67,-47.59"/>
<polygon fill="blue" stroke="blue" stroke-width="2" points="251.04,-49.48 248.28,-39.25 244.06,-48.97 251.04,-49.48"/>
</g>
<!-- node_7 -->
<g id="node8" class="node">
<title>node_7</title>
<polygon fill="#ececff" stroke="#9370db" points="212.5,-124.5 129,-124.5 129,-88.5 212.5,-88.5 212.5,-124.5"/>
<text text-anchor="middle" x="170.75" y="-101.45" font-family="Times,serif" font-size="14.00">Parallel_end</text>
</g>
<!-- node_5&#45;&gt;node_7 -->
<g id="edge9" class="edge">
<title>node_5&#45;&gt;node_7</title>
<path fill="none" stroke="black" d="M77.68,-176.53C95.53,-163.29 119.07,-145.83 138,-131.79"/>
<polygon fill="black" stroke="black" points="139.99,-134.67 145.94,-125.9 135.82,-129.05 139.99,-134.67"/>
<text text-anchor="middle" x="136.87" y="-145.7" font-family="Times,serif" font-size="14.00">. &#45;&gt; x</text>
</g>
<!-- node_6&#45;&gt;node_7 -->
<g id="edge10" class="edge">
<title>node_6&#45;&gt;node_7</title>
<path fill="none" stroke="black" d="M170.75,-176.75C170.75,-164.83 170.75,-149.44 170.75,-136.19"/>
<polygon fill="black" stroke="black" points="174.25,-136.31 170.75,-126.31 167.25,-136.31 174.25,-136.31"/>
<text text-anchor="middle" x="186.12" y="-145.7" font-family="Times,serif" font-size="14.00">. &#45;&gt; y</text>
</g>
<!-- node_7&#45;&gt;node_8 -->
<g id="edge11" class="edge">
<title>node_7&#45;&gt;node_8</title>
<path fill="none" stroke="blue" stroke-width="2" d="M177.35,-88.44C182.06,-77.74 189.17,-64.1 198.25,-54 202.65,-49.11 207.87,-44.56 213.26,-40.48"/>
<polygon fill="blue" stroke="blue" stroke-width="2" points="213.76,-44.41 219.93,-35.79 209.74,-38.68 213.76,-44.41"/>
<text text-anchor="middle" x="217" y="-57.2" font-family="Times,serif" font-size="14.00">. &#45;&gt; **</text>
</g>
</g>
</svg>
