<?xml version="1.0" encoding="UTF-8" standalone="no"?>
<!DOCTYPE svg PUBLIC "-//W3C//DTD SVG 1.1//EN"
 "http://www.w3.org/Graphics/SVG/1.1/DTD/svg11.dtd">
<!-- Generated by graphviz version 12.2.1 (20241206.2353)
 -->
<!-- Title: outer_break Pages: 1 -->
<svg width="583pt" height="90pt"
 viewBox="0.00 0.00 582.75 90.00" xmlns="http://www.w3.org/2000/svg" xmlns:xlink="http://www.w3.org/1999/xlink">
<g id="graph0" class="graph" transform="scale(1 1) rotate(0) translate(4 86)">
<title>outer_break</title>
<polygon fill="white" stroke="none" points="-4,4 -4,-86 578.75,-86 578.75,4 -4,4"/>
<text text-anchor="middle" x="287.38" y="-64.7" font-family="Times,serif" font-size="14.00">outer_break</text>
<!-- node_0 -->
<g id="node1" class="node">
<title>node_0</title>
<polygon fill="#ececff" stroke="#9370db" points="313,-57.5 127.5,-57.5 127.5,0 313,0 313,-57.5"/>
<text text-anchor="middle" x="220.25" y="-40.2" font-family="Times,serif" font-size="14.00">inner[</text>
<text text-anchor="middle" x="220.25" y="-23.7" font-family="Times,serif" font-size="14.00">DecisionDiagram(inner_break)</text>
<text text-anchor="middle" x="220.25" y="-7.2" font-family="Times,serif" font-size="14.00">]</text>
</g>
<!-- node_2 -->
<g id="node3" class="node">
<title>node_2</title>
<polygon fill="#ececff" stroke="#9370db" stroke-dasharray="5,2" points="440.5,-46.75 386.5,-46.75 386.5,-10.75 440.5,-10.75 440.5,-46.75"/>
<text text-anchor="middle" x="413.5" y="-23.7" font-family="Times,serif" font-size="14.00">break</text>
</g>
<!-- node_0&#45;&gt;node_2 -->
<g id="edge1" class="edge">
<title>node_0&#45;&gt;node_2</title>
<path fill="none" stroke="blue" stroke-width="2" d="M313.16,-31.03C331.49,-31.19 350.61,-31.16 368.5,-30.75 370.68,-30.7 372.92,-30.64 375.18,-30.56"/>
<polygon fill="blue" stroke="blue" stroke-width="2" points="373.57,-34.13 383.42,-30.25 373.3,-27.13 373.57,-34.13"/>
</g>
<!-- node_1 -->
<g id="node2" class="node">
<title>node_1</title>
<polygon fill="#ececff" stroke="#9370db" points="54,-46.75 0,-46.75 0,-10.75 54,-10.75 54,-46.75"/>
<text text-anchor="middle" x="27" y="-23.7" font-family="Times,serif" font-size="14.00">Start</text>
</g>
<!-- node_1&#45;&gt;node_0 -->
<g id="edge2" class="edge">
<title>node_1&#45;&gt;node_0</title>
<path fill="none" stroke="blue" stroke-width="2" d="M54.19,-28.75C70.63,-28.75 93.01,-28.75 115.99,-28.75"/>
<polygon fill="blue" stroke="blue" stroke-width="2" points="114.26,-32.25 124.26,-28.75 114.26,-25.25 114.26,-32.25"/>
<text text-anchor="middle" x="90.75" y="-31.95" font-family="Times,serif" font-size="14.00">. &#45;&gt; **</text>
</g>
<!-- node_2&#45;&gt;node_0 -->
<g id="edge3" class="edge">
<title>node_2&#45;&gt;node_0</title>
<path fill="none" stroke="blue" stroke-width="2" d="M386.05,-15.65C380.39,-13.41 374.35,-11.43 368.5,-10.25 354.41,-7.41 339.47,-6.68 324.72,-7.29"/>
<polygon fill="blue" stroke="blue" stroke-width="2" points="326.27,-3.68 316.51,-7.81 326.71,-10.67 326.27,-3.68"/>
<text text-anchor="middle" x="349.75" y="-13.45" font-family="Times,serif" font-size="14.00">. &#45;&gt; **</text>
</g>
<!-- node_3 -->
<g id="node4" class="node">
<title>node_3</title>
<polygon fill="#ececff" stroke="#9370db" points="574.75,-46.75 520.75,-46.75 520.75,-10.75 574.75,-10.75 574.75,-46.75"/>
<text text-anchor="middle" x="547.75" y="-23.7" font-family="Times,serif" font-size="14.00">End</text>
</g>
<!-- node_2&#45;&gt;node_3 -->
<g id="edge4" class="edge">
<title>node_2&#45;&gt;node_3</title>
<path fill="none" stroke="blue" stroke-width="2" d="M440.94,-28.75C460.41,-28.75 487.15,-28.75 508.87,-28.75"/>
<polygon fill="blue" stroke="blue" stroke-width="2" points="507.32,-32.25 517.32,-28.75 507.32,-25.25 507.32,-32.25"/>
<text text-anchor="middle" x="480.62" y="-31.95" font-family="Times,serif" font-size="14.00">?(is_10)</text>
</g>
</g>
</svg>
