<?xml version="1.0" encoding="UTF-8" standalone="no"?>
<!DOCTYPE svg PUBLIC "-//W3C//DTD SVG 1.1//EN"
 "http://www.w3.org/Graphics/SVG/1.1/DTD/svg11.dtd">
<!-- Generated by graphviz version 12.2.1 (20241206.2353)
 -->
<!-- Title: test2 Pages: 1 -->
<svg width="202pt" height="303pt"
 viewBox="0.00 0.00 202.00 303.00" xmlns="http://www.w3.org/2000/svg" xmlns:xlink="http://www.w3.org/1999/xlink">
<g id="graph0" class="graph" transform="scale(1 1) rotate(0) translate(4 299)">
<title>test2</title>
<polygon fill="white" stroke="none" points="-4,4 -4,-299 198,-299 198,4 -4,4"/>
<text text-anchor="middle" x="97" y="-277.7" font-family="Times,serif" font-size="14.00">test2</text>
<!-- node_0 -->
<g id="node1" class="node">
<title>node_0</title>
<polygon fill="#ececff" stroke="#9370db" points="88,-197.5 0,-197.5 0,-161.5 88,-161.5 88,-197.5"/>
<text text-anchor="middle" x="44" y="-174.45" font-family="Times,serif" font-size="14.00">add1[ plus1 ]</text>
</g>
<!-- node_3 -->
<g id="node4" class="node">
<title>node_3</title>
<polygon fill="#ececff" stroke="#9370db" points="130.12,-109 63.88,-109 63.88,-73 130.12,-73 130.12,-109"/>
<text text-anchor="middle" x="97" y="-85.95" font-family="Times,serif" font-size="14.00">prep_end</text>
</g>
<!-- node_0&#45;&gt;node_3 -->
<g id="edge1" class="edge">
<title>node_0&#45;&gt;node_3</title>
<path fill="none" stroke="black" d="M54.47,-161.41C61.9,-149.29 72.02,-132.77 80.52,-118.89"/>
<polygon fill="black" stroke="black" points="83.34,-121 85.58,-110.64 77.37,-117.34 83.34,-121"/>
<text text-anchor="middle" x="90.62" y="-130.2" font-family="Times,serif" font-size="14.00">. &#45;&gt; x</text>
</g>
<!-- node_1 -->
<g id="node2" class="node">
<title>node_1</title>
<polygon fill="#ececff" stroke="#9370db" points="194,-197.5 106,-197.5 106,-161.5 194,-161.5 194,-197.5"/>
<text text-anchor="middle" x="150" y="-174.45" font-family="Times,serif" font-size="14.00">add2[ plus1 ]</text>
</g>
<!-- node_1&#45;&gt;node_3 -->
<g id="edge2" class="edge">
<title>node_1&#45;&gt;node_3</title>
<path fill="none" stroke="black" d="M139.53,-161.41C132.1,-149.29 121.98,-132.77 113.48,-118.89"/>
<polygon fill="black" stroke="black" points="116.63,-117.34 108.42,-110.64 110.66,-121 116.63,-117.34"/>
<text text-anchor="middle" x="143.62" y="-130.2" font-family="Times,serif" font-size="14.00">. &#45;&gt; y</text>
</g>
<!-- node_2 -->
<g id="node3" class="node">
<title>node_2</title>
<polygon fill="#ececff" stroke="#9370db" points="123,-270.5 69,-270.5 69,-234.5 123,-234.5 123,-270.5"/>
<text text-anchor="middle" x="96" y="-247.45" font-family="Times,serif" font-size="14.00">Start</text>
</g>
<!-- node_2&#45;&gt;node_0 -->
<g id="edge3" class="edge">
<title>node_2&#45;&gt;node_0</title>
<path fill="none" stroke="black" d="M83.41,-234.31C77.34,-226.03 69.93,-215.91 63.18,-206.69"/>
<polygon fill="black" stroke="black" points="66.1,-204.75 57.37,-198.75 60.45,-208.89 66.1,-204.75"/>
</g>
<!-- node_2&#45;&gt;node_1 -->
<g id="edge4" class="edge">
<title>node_2&#45;&gt;node_1</title>
<path fill="none" stroke="black" d="M109.07,-234.31C115.44,-225.94 123.23,-215.7 130.3,-206.4"/>
<polygon fill="black" stroke="black" points="132.86,-208.81 136.13,-198.73 127.29,-204.57 132.86,-208.81"/>
</g>
<!-- node_4 -->
<g id="node5" class="node">
<title>node_4</title>
<polygon fill="#ececff" stroke="#9370db" points="124,-36 70,-36 70,0 124,0 124,-36"/>
<text text-anchor="middle" x="97" y="-12.95" font-family="Times,serif" font-size="14.00">End</text>
</g>
<!-- node_3&#45;&gt;node_4 -->
<g id="edge5" class="edge">
<title>node_3&#45;&gt;node_4</title>
<path fill="none" stroke="black" d="M97,-72.81C97,-65.23 97,-56.1 97,-47.54"/>
<polygon fill="black" stroke="black" points="100.5,-47.54 97,-37.54 93.5,-47.54 100.5,-47.54"/>
</g>
</g>
</svg>
