<?xml version="1.0" encoding="UTF-8" standalone="no"?>
<!DOCTYPE svg PUBLIC "-//W3C//DTD SVG 1.1//EN"
 "http://www.w3.org/Graphics/SVG/1.1/DTD/svg11.dtd">
<!-- Generated by graphviz version 12.2.1 (20241206.2353)
 -->
<!-- Title: stateful_adder Pages: 1 -->
<svg width="477pt" height="324pt"
 viewBox="0.00 0.00 477.04 323.50" xmlns="http://www.w3.org/2000/svg" xmlns:xlink="http://www.w3.org/1999/xlink">
<g id="graph0" class="graph" transform="scale(1 1) rotate(0) translate(4 319.5)">
<title>stateful_adder</title>
<polygon fill="white" stroke="none" points="-4,4 -4,-319.5 473.04,-319.5 473.04,4 -4,4"/>
<text text-anchor="middle" x="234.52" y="-298.2" font-family="Times,serif" font-size="14.00">stateful_adder</text>
<!-- node_0 -->
<g id="node1" class="node">
<title>node_0</title>
<polygon fill="#ececff" stroke="#9370db" points="340.5,-202.5 286.5,-202.5 286.5,-166.5 340.5,-166.5 340.5,-202.5"/>
<text text-anchor="middle" x="313.5" y="-179.45" font-family="Times,serif" font-size="14.00">router</text>
</g>
<!-- node_3 -->
<g id="node4" class="node">
<title>node_3</title>
<polygon fill="#ececff" stroke="#9370db" points="256.38,-114 122.62,-114 122.62,-73 256.38,-73 256.38,-114"/>
<text text-anchor="middle" x="189.5" y="-96.7" font-family="Times,serif" font-size="14.00">adder[</text>
<text text-anchor="middle" x="189.5" y="-80.2" font-family="Times,serif" font-size="14.00">MessageCounter([]) ]</text>
</g>
<!-- node_0&#45;&gt;node_3 -->
<g id="edge4" class="edge">
<title>node_0&#45;&gt;node_3</title>
<path fill="none" stroke="blue" stroke-width="2" d="M286.17,-183.4C259.03,-181.72 218.35,-174.6 196.25,-148.5 190.9,-142.18 188.42,-133.85 187.47,-125.64"/>
<polygon fill="blue" stroke="blue" stroke-width="2" points="191.04,-127.19 187.14,-117.34 184.05,-127.47 191.04,-127.19"/>
<text text-anchor="middle" x="252.88" y="-135.2" font-family="Times,serif" font-size="14.00">message &#45;&gt; message</text>
</g>
<!-- node_6 -->
<g id="node7" class="node">
<title>node_6</title>
<polygon fill="#ececff" stroke="#9370db" points="340.5,-111.5 286.5,-111.5 286.5,-75.5 340.5,-75.5 340.5,-111.5"/>
<text text-anchor="middle" x="313.5" y="-88.45" font-family="Times,serif" font-size="14.00">End</text>
</g>
<!-- node_0&#45;&gt;node_6 -->
<g id="edge5" class="edge">
<title>node_0&#45;&gt;node_6</title>
<path fill="none" stroke="blue" stroke-width="2" d="M313.5,-166.34C313.5,-154.11 313.5,-137.37 313.5,-123.13"/>
<polygon fill="blue" stroke="blue" stroke-width="2" points="317,-124.94 313.5,-114.94 310,-124.94 317,-124.94"/>
<text text-anchor="middle" x="349.88" y="-135.2" font-family="Times,serif" font-size="14.00">?(is_timeout)</text>
</g>
<!-- node_1 -->
<g id="node2" class="node">
<title>node_1</title>
<path fill="#ececff" stroke="#9370db" d="M311.12,-287.73C311.12,-289.53 292.92,-291 270.5,-291 248.08,-291 229.88,-289.53 229.88,-287.73 229.88,-287.73 229.88,-258.27 229.88,-258.27 229.88,-256.47 248.08,-255 270.5,-255 292.92,-255 311.12,-256.47 311.12,-258.27 311.12,-258.27 311.12,-287.73 311.12,-287.73"/>
<path fill="none" stroke="#9370db" d="M311.12,-287.73C311.12,-285.92 292.92,-284.45 270.5,-284.45 248.08,-284.45 229.88,-285.92 229.88,-287.73"/>
<text text-anchor="middle" x="270.5" y="-267.95" font-family="Times,serif" font-size="14.00">State[timer]</text>
</g>
<!-- node_1&#45;&gt;node_0 -->
<g id="edge1" class="edge">
<title>node_1&#45;&gt;node_0</title>
<path fill="none" stroke="black" stroke-dasharray="5,2" d="M271.8,-254.53C273.13,-244.17 275.82,-231.06 281.25,-220.5 282.82,-217.44 284.74,-214.45 286.85,-211.58"/>
<polygon fill="black" stroke="black" points="289.36,-214.04 293.06,-204.11 283.97,-209.56 289.36,-214.04"/>
<text text-anchor="middle" x="307.88" y="-223.7" font-family="Times,serif" font-size="14.00">. &#45;&gt; timer</text>
</g>
<!-- node_2 -->
<g id="node3" class="node">
<title>node_2</title>
<polygon fill="#ececff" stroke="#9370db" points="383.5,-291 329.5,-291 329.5,-255 383.5,-255 383.5,-291"/>
<text text-anchor="middle" x="356.5" y="-267.95" font-family="Times,serif" font-size="14.00">Start</text>
</g>
<!-- node_2&#45;&gt;node_0 -->
<g id="edge6" class="edge">
<title>node_2&#45;&gt;node_0</title>
<path fill="none" stroke="blue" stroke-width="2" d="M349.74,-254.56C345.66,-244.46 340.16,-231.58 334.5,-220.5 333.17,-217.9 331.73,-215.24 330.25,-212.59"/>
<polygon fill="blue" stroke="blue" stroke-width="2" points="334.05,-212.16 325.98,-205.29 328.01,-215.69 334.05,-212.16"/>
<text text-anchor="middle" x="377.02" y="-223.7" font-family="Times,serif" font-size="14.00">. &#45;&gt; message</text>
</g>
<!-- node_4 -->
<g id="node5" class="node">
<title>node_4</title>
<path fill="#ececff" stroke="#9370db" d="M139,-32.73C139,-34.53 107.85,-36 69.5,-36 31.15,-36 0,-34.53 0,-32.73 0,-32.73 0,-3.27 0,-3.27 0,-1.47 31.15,0 69.5,0 107.85,0 139,-1.47 139,-3.27 139,-3.27 139,-32.73 139,-32.73"/>
<path fill="none" stroke="#9370db" d="M139,-32.73C139,-30.92 107.85,-29.45 69.5,-29.45 31.15,-29.45 0,-30.92 0,-32.73"/>
<text text-anchor="middle" x="69.5" y="-12.95" font-family="Times,serif" font-size="14.00">State[counter_outputs]</text>
</g>
<!-- node_3&#45;&gt;node_4 -->
<g id="edge2" class="edge">
<title>node_3&#45;&gt;node_4</title>
<path fill="none" stroke="black" stroke-dasharray="5,2" d="M157.03,-72.61C141.74,-63.24 123.4,-52.01 107.47,-42.26"/>
<polygon fill="black" stroke="black" points="109.56,-39.43 99.2,-37.19 105.9,-45.4 109.56,-39.43"/>
</g>
<!-- node_5 -->
<g id="node6" class="node">
<title>node_5</title>
<path fill="#ececff" stroke="#9370db" d="M275.88,-32.73C275.88,-34.53 249.26,-36 216.5,-36 183.74,-36 157.12,-34.53 157.12,-32.73 157.12,-32.73 157.12,-3.27 157.12,-3.27 157.12,-1.47 183.74,0 216.5,0 249.26,0 275.88,-1.47 275.88,-3.27 275.88,-3.27 275.88,-32.73 275.88,-32.73"/>
<path fill="none" stroke="#9370db" d="M275.88,-32.73C275.88,-30.92 249.26,-29.45 216.5,-29.45 183.74,-29.45 157.12,-30.92 157.12,-32.73"/>
<text text-anchor="middle" x="216.5" y="-12.95" font-family="Times,serif" font-size="14.00">State[count_down]</text>
</g>
<!-- node_3&#45;&gt;node_5 -->
<g id="edge3" class="edge">
<title>node_3&#45;&gt;node_5</title>
<path fill="none" stroke="black" stroke-dasharray="5,2" d="M196.74,-72.8C199.65,-64.88 203.06,-55.6 206.22,-46.99"/>
<polygon fill="black" stroke="black" points="209.48,-48.26 209.64,-37.67 202.91,-45.85 209.48,-48.26"/>
</g>
<!-- node_7 -->
<g id="node8" class="node">
<title>node_7</title>
<polygon fill="#ececff" stroke="#9370db" stroke-dasharray="5,2" points="401.5,-36 347.5,-36 347.5,0 401.5,0 401.5,-36"/>
<text text-anchor="middle" x="374.5" y="-12.95" font-family="Times,serif" font-size="14.00">break</text>
</g>
<!-- node_3&#45;&gt;node_7 -->
<g id="edge7" class="edge">
<title>node_3&#45;&gt;node_7</title>
<path fill="none" stroke="blue" stroke-width="2" d="M239.56,-72.61C270.08,-60.49 308.46,-45.24 336.48,-34.11"/>
<polygon fill="blue" stroke="blue" stroke-width="2" points="336.23,-37.97 344.23,-31.03 333.64,-31.47 336.23,-37.97"/>
</g>
<!-- node_7&#45;&gt;node_0 -->
<g id="edge8" class="edge">
<title>node_7&#45;&gt;node_0</title>
<path fill="none" stroke="blue" stroke-width="2" d="M382.65,-36.5C393.65,-62.96 409.5,-113.76 387.5,-148.5 379.46,-161.2 365.44,-169.37 351.75,-174.6"/>
<polygon fill="blue" stroke="blue" stroke-width="2" points="352.21,-170.76 343.83,-177.24 354.42,-177.4 352.21,-170.76"/>
<text text-anchor="middle" x="433.79" y="-88.45" font-family="Times,serif" font-size="14.00">. &#45;&gt; message</text>
</g>
</g>
</svg>
