<?xml version="1.0" encoding="UTF-8" standalone="no"?>
<!DOCTYPE svg PUBLIC "-//W3C//DTD SVG 1.1//EN"
 "http://www.w3.org/Graphics/SVG/1.1/DTD/svg11.dtd">
<!-- Generated by graphviz version 12.2.1 (20241206.2353)
 -->
<!-- Title: paralell2 Pages: 1 -->
<svg width="308pt" height="272pt"
 viewBox="0.00 0.00 308.25 272.00" xmlns="http://www.w3.org/2000/svg" xmlns:xlink="http://www.w3.org/1999/xlink">
<g id="graph0" class="graph" transform="scale(1 1) rotate(0) translate(4 268)">
<title>paralell2</title>
<polygon fill="white" stroke="none" points="-4,4 -4,-268 304.25,-268 304.25,4 -4,4"/>
<text text-anchor="middle" x="150.12" y="-246.7" font-family="Times,serif" font-size="14.00">paralell2</text>
<!-- node_0 -->
<g id="node1" class="node">
<title>node_0</title>
<polygon fill="#ececff" stroke="#9370db" points="210.88,-239.5 89.12,-239.5 89.12,-198.5 210.88,-198.5 210.88,-239.5"/>
<text text-anchor="middle" x="150" y="-222.2" font-family="Times,serif" font-size="14.00">Start[</text>
<text text-anchor="middle" x="150" y="-205.7" font-family="Times,serif" font-size="14.00">MessageAdder(1) ]</text>
</g>
<!-- node_1 -->
<g id="node2" class="node">
<title>node_1</title>
<polygon fill="#ececff" stroke="#9370db" points="142,-137.75 0,-137.75 0,-96.75 142,-96.75 142,-137.75"/>
<text text-anchor="middle" x="71" y="-120.45" font-family="Times,serif" font-size="14.00">add10[</text>
<text text-anchor="middle" x="71" y="-103.95" font-family="Times,serif" font-size="14.00">FlowDiagram(add10) ]</text>
</g>
<!-- node_0&#45;&gt;node_1 -->
<g id="edge1" class="edge">
<title>node_0&#45;&gt;node_1</title>
<path fill="none" stroke="black" d="M134.39,-198.29C122.71,-183.54 106.55,-163.14 93.48,-146.63"/>
<polygon fill="black" stroke="black" points="96.47,-144.77 87.52,-139.1 90.98,-149.12 96.47,-144.77"/>
<text text-anchor="middle" x="138.65" y="-167.2" font-family="Times,serif" font-size="14.00">. &#45;&gt; **</text>
</g>
<!-- node_2 -->
<g id="node3" class="node">
<title>node_2</title>
<polygon fill="#ececff" stroke="#9370db" points="300.25,-146 159.75,-146 159.75,-88.5 300.25,-88.5 300.25,-146"/>
<text text-anchor="middle" x="230" y="-128.7" font-family="Times,serif" font-size="14.00">add100[</text>
<text text-anchor="middle" x="230" y="-112.2" font-family="Times,serif" font-size="14.00">FlowDiagram(add100)</text>
<text text-anchor="middle" x="230" y="-95.7" font-family="Times,serif" font-size="14.00">]</text>
</g>
<!-- node_0&#45;&gt;node_2 -->
<g id="edge2" class="edge">
<title>node_0&#45;&gt;node_2</title>
<path fill="none" stroke="black" d="M165.81,-198.29C175.69,-185.97 188.72,-169.72 200.46,-155.08"/>
<polygon fill="black" stroke="black" points="203.09,-157.4 206.62,-147.41 197.63,-153.02 203.09,-157.4"/>
<text text-anchor="middle" x="211.15" y="-167.2" font-family="Times,serif" font-size="14.00">. &#45;&gt; **</text>
</g>
<!-- node_3 -->
<g id="node4" class="node">
<title>node_3</title>
<polygon fill="#ececff" stroke="#9370db" points="213.88,-36 86.12,-36 86.12,0 213.88,0 213.88,-36"/>
<text text-anchor="middle" x="150" y="-12.95" font-family="Times,serif" font-size="14.00">End[ MessageSum ]</text>
</g>
<!-- node_1&#45;&gt;node_3 -->
<g id="edge3" class="edge">
<title>node_1&#45;&gt;node_3</title>
<path fill="none" stroke="black" d="M86.99,-96.57C99.08,-81.68 115.81,-61.09 128.99,-44.87"/>
<polygon fill="black" stroke="black" points="131.35,-47.51 134.94,-37.54 125.91,-43.1 131.35,-47.51"/>
<text text-anchor="middle" x="135.27" y="-57.2" font-family="Times,serif" font-size="14.00">. &#45;&gt; y</text>
</g>
<!-- node_2&#45;&gt;node_3 -->
<g id="edge4" class="edge">
<title>node_2&#45;&gt;node_3</title>
<path fill="none" stroke="black" d="M206.86,-88.12C195.69,-74.54 182.37,-58.34 171.43,-45.05"/>
<polygon fill="black" stroke="black" points="174.31,-43.04 165.25,-37.54 168.9,-47.49 174.31,-43.04"/>
<text text-anchor="middle" x="205.38" y="-57.2" font-family="Times,serif" font-size="14.00">. &#45;&gt; x</text>
</g>
</g>
</svg>
