<?xml version="1.0" encoding="UTF-8" standalone="no"?>
<!DOCTYPE svg PUBLIC "-//W3C//DTD SVG 1.1//EN"
 "http://www.w3.org/Graphics/SVG/1.1/DTD/svg11.dtd">
<!-- Generated by graphviz version 12.2.1 (20241206.2353)
 -->
<!-- Title: async_adder Pages: 1 -->
<svg width="114pt" height="230pt"
 viewBox="0.00 0.00 114.00 230.00" xmlns="http://www.w3.org/2000/svg" xmlns:xlink="http://www.w3.org/1999/xlink">
<g id="graph0" class="graph" transform="scale(1 1) rotate(0) translate(4 226)">
<title>async_adder</title>
<polygon fill="white" stroke="none" points="-4,4 -4,-226 110,-226 110,4 -4,4"/>
<text text-anchor="middle" x="53" y="-204.7" font-family="Times,serif" font-size="14.00">async_adder</text>
<!-- node_0 -->
<g id="node1" class="node">
<title>node_0</title>
<polygon fill="#ececff" stroke="#9370db" points="106,-109 0,-109 0,-73 106,-73 106,-109"/>
<text text-anchor="middle" x="53" y="-85.95" font-family="Times,serif" font-size="14.00">add[ add_sleep ]</text>
</g>
<!-- node_2 -->
<g id="node3" class="node">
<title>node_2</title>
<polygon fill="#ececff" stroke="#9370db" points="80,-36 26,-36 26,0 80,0 80,-36"/>
<text text-anchor="middle" x="53" y="-12.95" font-family="Times,serif" font-size="14.00">End</text>
</g>
<!-- node_0&#45;&gt;node_2 -->
<g id="edge1" class="edge">
<title>node_0&#45;&gt;node_2</title>
<path fill="none" stroke="black" d="M53,-72.81C53,-65.23 53,-56.1 53,-47.54"/>
<polygon fill="black" stroke="black" points="56.5,-47.54 53,-37.54 49.5,-47.54 56.5,-47.54"/>
</g>
<!-- node_1 -->
<g id="node2" class="node">
<title>node_1</title>
<polygon fill="#ececff" stroke="#9370db" points="80,-197.5 26,-197.5 26,-161.5 80,-161.5 80,-197.5"/>
<text text-anchor="middle" x="53" y="-174.45" font-family="Times,serif" font-size="14.00">Start</text>
</g>
<!-- node_1&#45;&gt;node_0 -->
<g id="edge2" class="edge">
<title>node_1&#45;&gt;node_0</title>
<path fill="none" stroke="black" d="M53,-161.41C53,-149.76 53,-134.05 53,-120.52"/>
<polygon fill="black" stroke="black" points="56.5,-120.86 53,-110.86 49.5,-120.86 56.5,-120.86"/>
<text text-anchor="middle" x="69.88" y="-130.2" font-family="Times,serif" font-size="14.00">x &#45;&gt; x</text>
</g>
</g>
</svg>
