<?xml version="1.0" encoding="UTF-8" standalone="no"?>
<!DOCTYPE svg PUBLIC "-//W3C//DTD SVG 1.1//EN"
 "http://www.w3.org/Graphics/SVG/1.1/DTD/svg11.dtd">
<!-- Generated by graphviz version 12.2.1 (20241206.2353)
 -->
<!-- Title: test Pages: 1 -->
<svg width="264pt" height="303pt"
 viewBox="0.00 0.00 263.75 303.00" xmlns="http://www.w3.org/2000/svg" xmlns:xlink="http://www.w3.org/1999/xlink">
<g id="graph0" class="graph" transform="scale(1 1) rotate(0) translate(4 299)">
<title>test</title>
<polygon fill="white" stroke="none" points="-4,4 -4,-299 259.75,-299 259.75,4 -4,4"/>
<text text-anchor="middle" x="127.88" y="-277.7" font-family="Times,serif" font-size="14.00">test</text>
<!-- node_0 -->
<g id="node1" class="node">
<title>node_0</title>
<polygon fill="#ececff" stroke="#9370db" points="118.75,-197.5 0,-197.5 0,-161.5 118.75,-161.5 118.75,-197.5"/>
<text text-anchor="middle" x="59.38" y="-174.45" font-family="Times,serif" font-size="14.00">add1[ plus1async ]</text>
</g>
<!-- node_3 -->
<g id="node4" class="node">
<title>node_3</title>
<polygon fill="#ececff" stroke="#9370db" points="160.5,-109 94.25,-109 94.25,-73 160.5,-73 160.5,-109"/>
<text text-anchor="middle" x="127.38" y="-85.95" font-family="Times,serif" font-size="14.00">prepend1</text>
</g>
<!-- node_0&#45;&gt;node_3 -->
<g id="edge1" class="edge">
<title>node_0&#45;&gt;node_3</title>
<path fill="none" stroke="black" d="M72.81,-161.41C82.53,-149.05 95.83,-132.13 106.87,-118.08"/>
<polygon fill="black" stroke="black" points="109.37,-120.56 112.8,-110.54 103.87,-116.24 109.37,-120.56"/>
<text text-anchor="middle" x="114.84" y="-130.2" font-family="Times,serif" font-size="14.00">. &#45;&gt; x</text>
</g>
<!-- node_1 -->
<g id="node2" class="node">
<title>node_1</title>
<polygon fill="#ececff" stroke="#9370db" points="255.75,-197.5 137,-197.5 137,-161.5 255.75,-161.5 255.75,-197.5"/>
<text text-anchor="middle" x="196.38" y="-174.45" font-family="Times,serif" font-size="14.00">add2[ plus1async ]</text>
</g>
<!-- node_1&#45;&gt;node_3 -->
<g id="edge2" class="edge">
<title>node_1&#45;&gt;node_3</title>
<path fill="none" stroke="black" d="M182.74,-161.41C172.88,-149.05 159.38,-132.13 148.18,-118.08"/>
<polygon fill="black" stroke="black" points="151.13,-116.17 142.16,-110.53 145.66,-120.53 151.13,-116.17"/>
<text text-anchor="middle" x="183.43" y="-130.2" font-family="Times,serif" font-size="14.00">. &#45;&gt; y</text>
</g>
<!-- node_2 -->
<g id="node3" class="node">
<title>node_2</title>
<polygon fill="#ececff" stroke="#9370db" points="154.38,-270.5 100.38,-270.5 100.38,-234.5 154.38,-234.5 154.38,-270.5"/>
<text text-anchor="middle" x="127.38" y="-247.45" font-family="Times,serif" font-size="14.00">Start</text>
</g>
<!-- node_2&#45;&gt;node_0 -->
<g id="edge3" class="edge">
<title>node_2&#45;&gt;node_0</title>
<path fill="none" stroke="black" d="M110.91,-234.31C102.73,-225.77 92.68,-215.27 83.63,-205.82"/>
<polygon fill="black" stroke="black" points="86.18,-203.42 76.73,-198.62 81.12,-208.26 86.18,-203.42"/>
</g>
<!-- node_2&#45;&gt;node_1 -->
<g id="edge4" class="edge">
<title>node_2&#45;&gt;node_1</title>
<path fill="none" stroke="black" d="M144.08,-234.31C152.47,-225.68 162.79,-215.06 172.05,-205.53"/>
<polygon fill="black" stroke="black" points="174.31,-208.22 178.77,-198.61 169.29,-203.35 174.31,-208.22"/>
</g>
<!-- node_4 -->
<g id="node5" class="node">
<title>node_4</title>
<polygon fill="#ececff" stroke="#9370db" points="154.38,-36 100.38,-36 100.38,0 154.38,0 154.38,-36"/>
<text text-anchor="middle" x="127.38" y="-12.95" font-family="Times,serif" font-size="14.00">End</text>
</g>
<!-- node_3&#45;&gt;node_4 -->
<g id="edge5" class="edge">
<title>node_3&#45;&gt;node_4</title>
<path fill="none" stroke="black" d="M127.38,-72.81C127.38,-65.23 127.38,-56.1 127.38,-47.54"/>
<polygon fill="black" stroke="black" points="130.88,-47.54 127.38,-37.54 123.88,-47.54 130.88,-47.54"/>
</g>
</g>
</svg>
