<?xml version="1.0" encoding="UTF-8" standalone="no"?>
<!DOCTYPE svg PUBLIC "-//W3C//DTD SVG 1.1//EN"
 "http://www.w3.org/Graphics/SVG/1.1/DTD/svg11.dtd">
<!-- Generated by graphviz version 12.2.1 (20241206.2353)
 -->
<!-- Title: fill_missing_data_UserData Pages: 1 -->
<svg width="813pt" height="480pt"
 viewBox="0.00 0.00 812.50 480.00" xmlns="http://www.w3.org/2000/svg" xmlns:xlink="http://www.w3.org/1999/xlink">
<g id="graph0" class="graph" transform="scale(1 1) rotate(0) translate(4 476)">
<title>fill_missing_data_UserData</title>
<polygon fill="white" stroke="none" points="-4,4 -4,-476 808.5,-476 808.5,4 -4,4"/>
<text text-anchor="middle" x="402.25" y="-454.7" font-family="Times,serif" font-size="14.00">fill_missing_data_UserData</text>
<!-- node_0 -->
<g id="node1" class="node">
<title>node_0</title>
<polygon fill="#ececff" stroke="#9370db" points="554.5,-447.5 500.5,-447.5 500.5,-411.5 554.5,-411.5 554.5,-447.5"/>
<text text-anchor="middle" x="527.5" y="-424.45" font-family="Times,serif" font-size="14.00">Start</text>
</g>
<!-- node_1 -->
<g id="node2" class="node">
<title>node_1</title>
<path fill="#ececff" stroke="#9370db" d="M586.88,-371.23C586.88,-373.03 560.26,-374.5 527.5,-374.5 494.74,-374.5 468.12,-373.03 468.12,-371.23 468.12,-371.23 468.12,-341.77 468.12,-341.77 468.12,-339.97 494.74,-338.5 527.5,-338.5 560.26,-338.5 586.88,-339.97 586.88,-341.77 586.88,-341.77 586.88,-371.23 586.88,-371.23"/>
<path fill="none" stroke="#9370db" d="M586.88,-371.23C586.88,-369.42 560.26,-367.95 527.5,-367.95 494.74,-367.95 468.12,-369.42 468.12,-371.23"/>
<text text-anchor="middle" x="527.5" y="-351.45" font-family="Times,serif" font-size="14.00">State[current_info]</text>
</g>
<!-- node_0&#45;&gt;node_1 -->
<g id="edge1" class="edge">
<title>node_0&#45;&gt;node_1</title>
<path fill="none" stroke="black" stroke-dasharray="5,2" d="M527.5,-411.31C527.5,-403.73 527.5,-394.6 527.5,-386.04"/>
<polygon fill="black" stroke="black" points="531,-386.04 527.5,-376.04 524,-386.04 531,-386.04"/>
</g>
<!-- node_2 -->
<g id="node3" class="node">
<title>node_2</title>
<polygon fill="#ececff" stroke="#9370db" points="499,-286 0,-286 0,-250 499,-250 499,-286"/>
<text text-anchor="middle" x="249.5" y="-262.95" font-family="Times,serif" font-size="14.00">ask_missing_data[Chat(model=&#39;gpt&#45;4o&#45;mini&#39;, required_keys={&#39;current_info&#39;}, seed=42)]</text>
</g>
<!-- node_0&#45;&gt;node_2 -->
<g id="edge5" class="edge">
<title>node_0&#45;&gt;node_2</title>
<path fill="none" stroke="blue" stroke-width="2" d="M500.17,-427.4C458,-424.47 376.16,-413.73 320.75,-374.5 293.06,-354.9 272.96,-320.87 261.31,-296.77"/>
<polygon fill="blue" stroke="blue" stroke-width="2" points="265.19,-296.84 257.82,-289.23 258.84,-299.77 265.19,-296.84"/>
<text text-anchor="middle" x="390.12" y="-351.45" font-family="Times,serif" font-size="14.00">?(has_missing_data):.&#45;&gt;_</text>
</g>
<!-- node_3 -->
<g id="node4" class="node">
<title>node_3</title>
<polygon fill="#ececff" stroke="#9370db" points="645.5,-36 591.5,-36 591.5,0 645.5,0 645.5,-36"/>
<text text-anchor="middle" x="618.5" y="-12.95" font-family="Times,serif" font-size="14.00">End</text>
</g>
<!-- node_0&#45;&gt;node_3 -->
<g id="edge6" class="edge">
<title>node_0&#45;&gt;node_3</title>
<path fill="none" stroke="blue" stroke-width="2" d="M554.82,-427.3C624.7,-423.48 804.5,-408.7 804.5,-357.5 804.5,-357.5 804.5,-357.5 804.5,-90 804.5,-58.7 711.4,-36.15 656.93,-25.64"/>
<polygon fill="blue" stroke="blue" stroke-width="2" points="659.39,-22.54 648.92,-24.13 658.1,-29.42 659.39,-22.54"/>
</g>
<!-- node_1&#45;&gt;node_2 -->
<g id="edge2" class="edge">
<title>node_1&#45;&gt;node_2</title>
<path fill="none" stroke="black" stroke-dasharray="5,2" d="M474.88,-339.13C429.96,-325.15 365.08,-304.96 316.46,-289.83"/>
<polygon fill="black" stroke="black" points="317.75,-286.57 307.17,-286.94 315.67,-293.26 317.75,-286.57"/>
<text text-anchor="middle" x="455.02" y="-307.2" font-family="Times,serif" font-size="14.00">.&#45;&gt;current_info</text>
</g>
<!-- node_5 -->
<g id="node6" class="node">
<title>node_5</title>
<polygon fill="#ececff" stroke="#9370db" points="776.38,-109 90.62,-109 90.62,-73 776.38,-73 776.38,-109"/>
<text text-anchor="middle" x="433.5" y="-85.95" font-family="Times,serif" font-size="14.00">format_new_info[Chat(model=&#39;gpt&#45;4o&#45;mini&#39;, required_keys={&#39;input&#39;, &#39;current_info&#39;}, output_schema=UserData, seed=42)]</text>
</g>
<!-- node_1&#45;&gt;node_5 -->
<g id="edge3" class="edge">
<title>node_1&#45;&gt;node_5</title>
<path fill="none" stroke="black" stroke-dasharray="5,2" d="M528.19,-338.12C528.98,-297.64 526.08,-195.27 481.5,-127 479.09,-123.32 476.16,-119.89 472.93,-116.73"/>
<polygon fill="black" stroke="black" points="475.48,-114.31 465.62,-110.45 470.92,-119.62 475.48,-114.31"/>
<text text-anchor="middle" x="561.43" y="-218.7" font-family="Times,serif" font-size="14.00">.&#45;&gt;current_info</text>
</g>
<!-- node_4 -->
<g id="node5" class="node">
<title>node_4</title>
<polygon fill="#ececff" stroke="#9370db" stroke-dasharray="5,2" points="460.5,-197.5 406.5,-197.5 406.5,-161.5 460.5,-161.5 460.5,-197.5"/>
<text text-anchor="middle" x="433.5" y="-174.45" font-family="Times,serif" font-size="14.00">break</text>
</g>
<!-- node_2&#45;&gt;node_4 -->
<g id="edge7" class="edge">
<title>node_2&#45;&gt;node_4</title>
<path fill="none" stroke="blue" stroke-width="2" d="M286.29,-249.7C318.05,-234.78 363.72,-213.3 395.75,-198.25"/>
<polygon fill="blue" stroke="blue" stroke-width="2" points="395.75,-202.11 403.31,-194.69 392.77,-195.78 395.75,-202.11"/>
</g>
<!-- node_4&#45;&gt;node_5 -->
<g id="edge8" class="edge">
<title>node_4&#45;&gt;node_5</title>
<path fill="none" stroke="blue" stroke-width="2" d="M433.5,-161.41C433.5,-149.76 433.5,-134.05 433.5,-120.52"/>
<polygon fill="blue" stroke="blue" stroke-width="2" points="437,-122.38 433.5,-112.38 430,-122.38 437,-122.38"/>
<text text-anchor="middle" x="455.62" y="-130.2" font-family="Times,serif" font-size="14.00">.&#45;&gt;input</text>
</g>
<!-- node_5&#45;&gt;node_1 -->
<g id="edge4" class="edge">
<title>node_5&#45;&gt;node_1</title>
<path fill="none" stroke="black" stroke-dasharray="5,2" d="M479.87,-109.36C522.43,-128.17 582.54,-162.77 607.5,-215.5 627.18,-257.07 588.65,-302.94 558.53,-330.47"/>
<polygon fill="black" stroke="black" points="556.23,-327.83 551.05,-337.07 560.86,-333.08 556.23,-327.83"/>
</g>
<!-- node_5&#45;&gt;node_2 -->
<g id="edge9" class="edge">
<title>node_5&#45;&gt;node_2</title>
<path fill="none" stroke="blue" stroke-width="2" d="M337.8,-109.41C307.94,-119.63 277.85,-135.83 258.75,-161.5 242.39,-183.48 241.94,-215.62 244.43,-238.64"/>
<polygon fill="blue" stroke="blue" stroke-width="2" points="240.71,-237.31 245.52,-246.75 247.65,-236.37 240.71,-237.31"/>
<text text-anchor="middle" x="328.12" y="-174.45" font-family="Times,serif" font-size="14.00">?(has_missing_data):.&#45;&gt;_</text>
</g>
<!-- node_5&#45;&gt;node_3 -->
<g id="edge10" class="edge">
<title>node_5&#45;&gt;node_3</title>
<path fill="none" stroke="blue" stroke-width="2" d="M478.76,-72.63C509.96,-60.65 550.98,-44.91 580.49,-33.59"/>
<polygon fill="blue" stroke="blue" stroke-width="2" points="580.28,-37.42 588.37,-30.56 577.78,-30.88 580.28,-37.42"/>
</g>
</g>
</svg>
