<?xml version="1.0" encoding="UTF-8" standalone="no"?>
<!DOCTYPE svg PUBLIC "-//W3C//DTD SVG 1.1//EN"
 "http://www.w3.org/Graphics/SVG/1.1/DTD/svg11.dtd">
<!-- Generated by graphviz version 12.2.1 (20241206.2353)
 -->
<!-- Title: monitor_feedback Pages: 1 -->
<svg width="425pt" height="465pt"
 viewBox="0.00 0.00 425.44 464.50" xmlns="http://www.w3.org/2000/svg" xmlns:xlink="http://www.w3.org/1999/xlink">
<g id="graph0" class="graph" transform="scale(1 1) rotate(0) translate(4 460.5)">
<title>monitor_feedback</title>
<polygon fill="white" stroke="none" points="-4,4 -4,-460.5 421.44,-460.5 421.44,4 -4,4"/>
<text text-anchor="middle" x="208.72" y="-439.2" font-family="Times,serif" font-size="14.00">monitor_feedback</text>
<!-- node_0 -->
<g id="node1" class="node">
<title>node_0</title>
<polygon fill="#ececff" stroke="#9370db" points="299,-343.5 130.75,-343.5 130.75,-253 299,-253 299,-343.5"/>
<text text-anchor="middle" x="214.88" y="-326.2" font-family="Times,serif" font-size="14.00">acting_agent[</text>
<text text-anchor="middle" x="214.88" y="-309.7" font-family="Times,serif" font-size="14.00">Chat(model=&#39;gpt&#45;4o&#45;mini&#39;,</text>
<text text-anchor="middle" x="214.88" y="-293.2" font-family="Times,serif" font-size="14.00">required_keys={&#39;question&#39;},</text>
<text text-anchor="middle" x="214.88" y="-276.7" font-family="Times,serif" font-size="14.00">seed=42,</text>
<text text-anchor="middle" x="214.88" y="-260.2" font-family="Times,serif" font-size="14.00">save_history=True) ]</text>
</g>
<!-- node_1 -->
<g id="node2" class="node">
<title>node_1</title>
<path fill="#ececff" stroke="#9370db" d="M115.75,-169.98C115.75,-171.78 89.81,-173.25 57.88,-173.25 25.94,-173.25 0,-171.78 0,-169.98 0,-169.98 0,-140.52 0,-140.52 0,-138.72 25.94,-137.25 57.88,-137.25 89.81,-137.25 115.75,-138.72 115.75,-140.52 115.75,-140.52 115.75,-169.98 115.75,-169.98"/>
<path fill="none" stroke="#9370db" d="M115.75,-169.98C115.75,-168.17 89.81,-166.7 57.88,-166.7 25.94,-166.7 0,-168.17 0,-169.98"/>
<text text-anchor="middle" x="57.88" y="-150.2" font-family="Times,serif" font-size="14.00">State[last_answer]</text>
</g>
<!-- node_0&#45;&gt;node_1 -->
<g id="edge1" class="edge">
<title>node_0&#45;&gt;node_1</title>
<path fill="none" stroke="black" stroke-dasharray="5,2" d="M165.2,-252.64C138.99,-229.09 107.79,-201.08 85.81,-181.34"/>
<polygon fill="black" stroke="black" points="88.19,-178.77 78.41,-174.69 83.51,-183.98 88.19,-178.77"/>
</g>
<!-- node_3 -->
<g id="node4" class="node">
<title>node_3</title>
<polygon fill="#ececff" stroke="#9370db" points="296,-200.5 133.75,-200.5 133.75,-110 296,-110 296,-200.5"/>
<text text-anchor="middle" x="214.88" y="-183.2" font-family="Times,serif" font-size="14.00">monitor[</text>
<text text-anchor="middle" x="214.88" y="-166.7" font-family="Times,serif" font-size="14.00">Chat(model=&#39;gpt&#45;4o&#45;mini&#39;,</text>
<text text-anchor="middle" x="214.88" y="-150.2" font-family="Times,serif" font-size="14.00">required_keys={&#39;answer&#39;},</text>
<text text-anchor="middle" x="214.88" y="-133.7" font-family="Times,serif" font-size="14.00">output_schema=Decision,</text>
<text text-anchor="middle" x="214.88" y="-117.2" font-family="Times,serif" font-size="14.00">seed=42) ]</text>
</g>
<!-- node_0&#45;&gt;node_3 -->
<g id="edge3" class="edge">
<title>node_0&#45;&gt;node_3</title>
<path fill="none" stroke="blue" stroke-width="2" d="M214.88,-252.64C214.88,-239.65 214.88,-225.31 214.88,-211.74"/>
<polygon fill="blue" stroke="blue" stroke-width="2" points="218.38,-213.6 214.88,-203.6 211.38,-213.6 218.38,-213.6"/>
<text text-anchor="middle" x="264" y="-221.7" font-family="Times,serif" font-size="14.00">content &#45;&gt; answer</text>
</g>
<!-- node_4 -->
<g id="node5" class="node">
<title>node_4</title>
<polygon fill="#ececff" stroke="#9370db" points="114.88,-38.5 60.88,-38.5 60.88,-2.5 114.88,-2.5 114.88,-38.5"/>
<text text-anchor="middle" x="87.88" y="-15.45" font-family="Times,serif" font-size="14.00">End</text>
</g>
<!-- node_1&#45;&gt;node_4 -->
<g id="edge2" class="edge">
<title>node_1&#45;&gt;node_4</title>
<path fill="none" stroke="black" stroke-dasharray="5,2" d="M61.8,-136.9C66.78,-114.83 75.46,-76.44 81.42,-50.04"/>
<polygon fill="black" stroke="black" points="84.83,-50.86 83.62,-40.34 78,-49.32 84.83,-50.86"/>
</g>
<!-- node_2 -->
<g id="node3" class="node">
<title>node_2</title>
<polygon fill="#ececff" stroke="#9370db" points="241.88,-432 187.88,-432 187.88,-396 241.88,-396 241.88,-432"/>
<text text-anchor="middle" x="214.88" y="-408.95" font-family="Times,serif" font-size="14.00">Start</text>
</g>
<!-- node_2&#45;&gt;node_0 -->
<g id="edge4" class="edge">
<title>node_2&#45;&gt;node_0</title>
<path fill="none" stroke="blue" stroke-width="2" d="M214.88,-395.72C214.88,-384.73 214.88,-369.81 214.88,-355"/>
<polygon fill="blue" stroke="blue" stroke-width="2" points="218.38,-356.79 214.88,-346.79 211.38,-356.79 218.38,-356.79"/>
<text text-anchor="middle" x="270.75" y="-364.7" font-family="Times,serif" font-size="14.00">question &#45;&gt; question</text>
</g>
<!-- node_3&#45;&gt;node_4 -->
<g id="edge5" class="edge">
<title>node_3&#45;&gt;node_4</title>
<path fill="none" stroke="blue" stroke-width="2" d="M134.17,-109.79C127.59,-104.32 121.44,-98.38 116.12,-92 105.97,-79.81 99.12,-63.51 94.71,-49.65"/>
<polygon fill="blue" stroke="blue" stroke-width="2" points="98.53,-50.28 92.4,-41.64 91.81,-52.21 98.53,-50.28"/>
<text text-anchor="middle" x="172" y="-78.7" font-family="Times,serif" font-size="14.00">?(no_feedback): . &#45;&gt;</text>
<text text-anchor="middle" x="172" y="-62.2" font-family="Times,serif" font-size="14.00">_</text>
</g>
<!-- node_5 -->
<g id="node6" class="node">
<title>node_5</title>
<polygon fill="#ececff" stroke="#9370db" points="357.38,-41 218.38,-41 218.38,0 357.38,0 357.38,-41"/>
<text text-anchor="middle" x="287.88" y="-23.7" font-family="Times,serif" font-size="14.00">as_system_messages[</text>
<text text-anchor="middle" x="287.88" y="-7.2" font-family="Times,serif" font-size="14.00">as_system_messages ]</text>
</g>
<!-- node_3&#45;&gt;node_5 -->
<g id="edge6" class="edge">
<title>node_3&#45;&gt;node_5</title>
<path fill="none" stroke="blue" stroke-width="2" d="M225.17,-109.5C230.25,-92.81 237.47,-74.24 247.38,-59 249.53,-55.69 252.04,-52.47 254.74,-49.4"/>
<polygon fill="blue" stroke="blue" stroke-width="2" points="256.14,-52.98 260.59,-43.36 251.11,-48.11 256.14,-52.98"/>
<text text-anchor="middle" x="282.62" y="-70.45" font-family="Times,serif" font-size="14.00">. &#45;&gt; message</text>
</g>
<!-- node_5&#45;&gt;node_0 -->
<g id="edge7" class="edge">
<title>node_5&#45;&gt;node_0</title>
<path fill="none" stroke="blue" stroke-width="2" d="M307.79,-41.38C311.91,-46.68 315.67,-52.71 317.88,-59 343.77,-132.81 355.4,-166.92 316.88,-235 314.15,-239.82 310.87,-244.32 307.2,-248.5"/>
<polygon fill="blue" stroke="blue" stroke-width="2" points="305.82,-244.92 301.28,-254.5 310.8,-249.84 305.82,-244.92"/>
<text text-anchor="middle" x="379.57" y="-150.2" font-family="Times,serif" font-size="14.00">. &#45;&gt; messages</text>
</g>
</g>
</svg>
