<?xml version="1.0" encoding="UTF-8" standalone="no"?>
<!DOCTYPE svg PUBLIC "-//W3C//DTD SVG 1.1//EN"
 "http://www.w3.org/Graphics/SVG/1.1/DTD/svg11.dtd">
<!-- Generated by graphviz version 12.2.1 (20241206.2353)
 -->
<!-- Title: monitor_add_answer Pages: 1 -->
<svg width="342pt" height="476pt"
 viewBox="0.00 0.00 342.47 476.00" xmlns="http://www.w3.org/2000/svg" xmlns:xlink="http://www.w3.org/1999/xlink">
<g id="graph0" class="graph" transform="scale(1 1) rotate(0) translate(4 472)">
<title>monitor_add_answer</title>
<polygon fill="white" stroke="none" points="-4,4 -4,-472 338.47,-472 338.47,4 -4,4"/>
<text text-anchor="middle" x="167.24" y="-450.7" font-family="Times,serif" font-size="14.00">monitor_add_answer</text>
<!-- node_0 -->
<g id="node1" class="node">
<title>node_0</title>
<polygon fill="#ececff" stroke="#9370db" points="168.25,-355 0,-355 0,-281 168.25,-281 168.25,-355"/>
<text text-anchor="middle" x="84.12" y="-337.7" font-family="Times,serif" font-size="14.00">acting_agent[</text>
<text text-anchor="middle" x="84.12" y="-321.2" font-family="Times,serif" font-size="14.00">Chat(model=&#39;gpt&#45;4o&#45;mini&#39;,</text>
<text text-anchor="middle" x="84.12" y="-304.7" font-family="Times,serif" font-size="14.00">required_keys={&#39;question&#39;},</text>
<text text-anchor="middle" x="84.12" y="-288.2" font-family="Times,serif" font-size="14.00">seed=42) ]</text>
</g>
<!-- node_2 -->
<g id="node3" class="node">
<title>node_2</title>
<polygon fill="#ececff" stroke="#9370db" points="292.25,-228.5 130,-228.5 130,-105 292.25,-105 292.25,-228.5"/>
<text text-anchor="middle" x="211.12" y="-211.2" font-family="Times,serif" font-size="14.00">monitor[</text>
<text text-anchor="middle" x="211.12" y="-194.7" font-family="Times,serif" font-size="14.00">Chat(model=&#39;gpt&#45;4o&#45;mini&#39;,</text>
<text text-anchor="middle" x="211.12" y="-178.2" font-family="Times,serif" font-size="14.00">required_keys={&#39;question&#39;,</text>
<text text-anchor="middle" x="211.12" y="-161.7" font-family="Times,serif" font-size="14.00">&#39;answer&#39;},</text>
<text text-anchor="middle" x="211.12" y="-145.2" font-family="Times,serif" font-size="14.00">choices=[&#39;safe&#39;,</text>
<text text-anchor="middle" x="211.12" y="-128.7" font-family="Times,serif" font-size="14.00">&#39;not safe&#39;],</text>
<text text-anchor="middle" x="211.12" y="-112.2" font-family="Times,serif" font-size="14.00">seed=42) ]</text>
</g>
<!-- node_0&#45;&gt;node_2 -->
<g id="edge1" class="edge">
<title>node_0&#45;&gt;node_2</title>
<path fill="none" stroke="black" d="M86.47,-280.55C88.54,-268.94 92.27,-256.52 98.88,-246.5 102.7,-240.7 110.62,-233.44 120.57,-225.7"/>
<polygon fill="black" stroke="black" points="122.67,-228.5 128.57,-219.71 118.47,-222.9 122.67,-228.5"/>
<text text-anchor="middle" x="148" y="-249.7" font-family="Times,serif" font-size="14.00">content &#45;&gt; answer</text>
</g>
<!-- node_3 -->
<g id="node4" class="node">
<title>node_3</title>
<polygon fill="#ececff" stroke="#9370db" points="57.12,-36 3.12,-36 3.12,0 57.12,0 57.12,-36"/>
<text text-anchor="middle" x="30.12" y="-12.95" font-family="Times,serif" font-size="14.00">End</text>
</g>
<!-- node_0&#45;&gt;node_3 -->
<g id="edge2" class="edge">
<title>node_0&#45;&gt;node_3</title>
<path fill="none" stroke="black" d="M51.76,-280.93C40.3,-265.83 28.78,-247.41 22.88,-228.5 3.42,-166.21 14.78,-88.41 23.32,-47.37"/>
<polygon fill="black" stroke="black" points="26.69,-48.35 25.42,-37.83 19.86,-46.85 26.69,-48.35"/>
<text text-anchor="middle" x="72" y="-161.7" font-family="Times,serif" font-size="14.00">content &#45;&gt; answer</text>
</g>
<!-- node_1 -->
<g id="node2" class="node">
<title>node_1</title>
<polygon fill="#ececff" stroke="#9370db" points="174.12,-443.5 120.12,-443.5 120.12,-407.5 174.12,-407.5 174.12,-443.5"/>
<text text-anchor="middle" x="147.12" y="-420.45" font-family="Times,serif" font-size="14.00">Start</text>
</g>
<!-- node_1&#45;&gt;node_0 -->
<g id="edge3" class="edge">
<title>node_1&#45;&gt;node_0</title>
<path fill="none" stroke="black" d="M119.76,-416.12C106.97,-410.7 92.93,-402.21 85.38,-389.5 81.29,-382.63 79.21,-374.69 78.37,-366.66"/>
<polygon fill="black" stroke="black" points="81.88,-366.73 78,-356.87 74.88,-367 81.88,-366.73"/>
<text text-anchor="middle" x="141.25" y="-376.2" font-family="Times,serif" font-size="14.00">question &#45;&gt; question</text>
</g>
<!-- node_1&#45;&gt;node_2 -->
<g id="edge4" class="edge">
<title>node_1&#45;&gt;node_2</title>
<path fill="none" stroke="black" d="M174.42,-411.64C183.17,-406.1 191.94,-398.74 197.12,-389.5 222.45,-344.38 225.08,-285.67 221.85,-239.99"/>
<polygon fill="black" stroke="black" points="225.35,-239.86 221.03,-230.18 218.37,-240.44 225.35,-239.86"/>
<text text-anchor="middle" x="278.6" y="-312.95" font-family="Times,serif" font-size="14.00">question &#45;&gt; question</text>
</g>
<!-- node_2&#45;&gt;node_3 -->
<g id="edge5" class="edge">
<title>node_2&#45;&gt;node_3</title>
<path fill="none" stroke="black" d="M135.68,-104.58C109.26,-83.16 81.09,-60.32 60.5,-43.63"/>
<polygon fill="black" stroke="black" points="62.75,-40.95 52.78,-37.37 58.35,-46.39 62.75,-40.95"/>
<text text-anchor="middle" x="141.66" y="-73.7" font-family="Times,serif" font-size="14.00">content &#45;&gt;</text>
<text text-anchor="middle" x="141.66" y="-57.2" font-family="Times,serif" font-size="14.00">safe_or_not</text>
</g>
</g>
</svg>
