<?xml version="1.0" encoding="UTF-8" standalone="no"?>
<!DOCTYPE svg PUBLIC "-//W3C//DTD SVG 1.1//EN"
 "http://www.w3.org/Graphics/SVG/1.1/DTD/svg11.dtd">
<!-- Generated by graphviz version 12.2.1 (20241206.2353)
 -->
<!-- Title: Stateful node example Pages: 1 -->
<svg width="415pt" height="324pt"
 viewBox="0.00 0.00 415.34 323.50" xmlns="http://www.w3.org/2000/svg" xmlns:xlink="http://www.w3.org/1999/xlink">
<g id="graph0" class="graph" transform="scale(1 1) rotate(0) translate(4 319.5)">
<title>Stateful node example</title>
<polygon fill="white" stroke="none" points="-4,4 -4,-319.5 411.34,-319.5 411.34,4 -4,4"/>
<text text-anchor="middle" x="203.67" y="-298.2" font-family="Times,serif" font-size="14.00">Stateful node example</text>
<!-- node_0 -->
<g id="node1" class="node">
<title>node_0</title>
<polygon fill="#ececff" stroke="#9370db" points="117.5,-291 63.5,-291 63.5,-255 117.5,-255 117.5,-291"/>
<text text-anchor="middle" x="90.5" y="-267.95" font-family="Times,serif" font-size="14.00">Start</text>
</g>
<!-- node_1 -->
<g id="node2" class="node">
<title>node_1</title>
<path fill="#ececff" stroke="#9370db" d="M103,-199.23C103,-201.03 79.92,-202.5 51.5,-202.5 23.08,-202.5 0,-201.03 0,-199.23 0,-199.23 0,-169.77 0,-169.77 0,-167.97 23.08,-166.5 51.5,-166.5 79.92,-166.5 103,-167.97 103,-169.77 103,-169.77 103,-199.23 103,-199.23"/>
<path fill="none" stroke="#9370db" d="M103,-199.23C103,-197.42 79.92,-195.95 51.5,-195.95 23.08,-195.95 0,-197.42 0,-199.23"/>
<text text-anchor="middle" x="51.5" y="-179.45" font-family="Times,serif" font-size="14.00">State[set_timer]</text>
</g>
<!-- node_0&#45;&gt;node_1 -->
<g id="edge1" class="edge">
<title>node_0&#45;&gt;node_1</title>
<path fill="none" stroke="black" stroke-dasharray="5,2" d="M65.88,-254.77C60.5,-249.71 55.52,-243.71 52.5,-237 49.37,-230.04 48.21,-222 48.06,-214.38"/>
<polygon fill="black" stroke="black" points="51.56,-214.59 48.46,-204.45 44.56,-214.31 51.56,-214.59"/>
<text text-anchor="middle" x="79.5" y="-223.7" font-family="Times,serif" font-size="14.00">turns &#45;&gt; 0</text>
</g>
<!-- node_2 -->
<g id="node3" class="node">
<title>node_2</title>
<polygon fill="#ececff" stroke="#9370db" points="234.75,-202.5 178.25,-202.5 178.25,-166.5 234.75,-166.5 234.75,-202.5"/>
<text text-anchor="middle" x="206.5" y="-179.45" font-family="Times,serif" font-size="14.00">counter</text>
</g>
<!-- node_0&#45;&gt;node_2 -->
<g id="edge3" class="edge">
<title>node_0&#45;&gt;node_2</title>
<path fill="none" stroke="blue" stroke-width="2" d="M98.8,-254.83C104.85,-243.81 113.96,-229.86 125.25,-220.5 137.5,-210.35 153.14,-202.68 167.42,-197.15"/>
<polygon fill="blue" stroke="blue" stroke-width="2" points="166.94,-201.05 175.15,-194.36 164.56,-194.46 166.94,-201.05"/>
<text text-anchor="middle" x="181.88" y="-223.7" font-family="Times,serif" font-size="14.00">message &#45;&gt; message</text>
</g>
<!-- node_4 -->
<g id="node5" class="node">
<title>node_4</title>
<polygon fill="#ececff" stroke="#9370db" points="119.5,-111.5 65.5,-111.5 65.5,-75.5 119.5,-75.5 119.5,-111.5"/>
<text text-anchor="middle" x="92.5" y="-88.45" font-family="Times,serif" font-size="14.00">End</text>
</g>
<!-- node_2&#45;&gt;node_4 -->
<g id="edge4" class="edge">
<title>node_2&#45;&gt;node_4</title>
<path fill="none" stroke="blue" stroke-width="2" d="M178.02,-175.59C161.68,-170 141.55,-161.21 126.75,-148.5 118.31,-141.25 111.22,-131.39 105.73,-122.09"/>
<polygon fill="blue" stroke="blue" stroke-width="2" points="109.53,-121.74 101.66,-114.64 103.38,-125.09 109.53,-121.74"/>
<text text-anchor="middle" x="164.62" y="-135.2" font-family="Times,serif" font-size="14.00">?(is_time_up)</text>
</g>
<!-- node_5 -->
<g id="node6" class="node">
<title>node_5</title>
<polygon fill="#ececff" stroke="#9370db" points="275.62,-114 137.38,-114 137.38,-73 275.62,-73 275.62,-114"/>
<text text-anchor="middle" x="206.5" y="-96.7" font-family="Times,serif" font-size="14.00">message[ StatefulSum</text>
<text text-anchor="middle" x="206.5" y="-80.2" font-family="Times,serif" font-size="14.00">]</text>
</g>
<!-- node_2&#45;&gt;node_5 -->
<g id="edge5" class="edge">
<title>node_2&#45;&gt;node_5</title>
<path fill="none" stroke="blue" stroke-width="2" d="M206.5,-166.34C206.5,-154.85 206.5,-139.4 206.5,-125.77"/>
<polygon fill="blue" stroke="blue" stroke-width="2" points="210,-127.43 206.5,-117.43 203,-127.43 210,-127.43"/>
<text text-anchor="middle" x="243.25" y="-135.2" font-family="Times,serif" font-size="14.00">message &#45;&gt; 0</text>
</g>
<!-- node_3 -->
<g id="node4" class="node">
<title>node_3</title>
<path fill="#ececff" stroke="#9370db" d="M300.62,-287.73C300.62,-289.53 284.43,-291 264.5,-291 244.57,-291 228.38,-289.53 228.38,-287.73 228.38,-287.73 228.38,-258.27 228.38,-258.27 228.38,-256.47 244.57,-255 264.5,-255 284.43,-255 300.62,-256.47 300.62,-258.27 300.62,-258.27 300.62,-287.73 300.62,-287.73"/>
<path fill="none" stroke="#9370db" d="M300.62,-287.73C300.62,-285.92 284.43,-284.45 264.5,-284.45 244.57,-284.45 228.38,-285.92 228.38,-287.73"/>
<text text-anchor="middle" x="264.5" y="-267.95" font-family="Times,serif" font-size="14.00">State[tick]</text>
</g>
<!-- node_3&#45;&gt;node_2 -->
<g id="edge2" class="edge">
<title>node_3&#45;&gt;node_2</title>
<path fill="none" stroke="black" stroke-dasharray="5,2" d="M259.13,-254.9C255.39,-244.44 249.76,-231.08 242.5,-220.5 240.26,-217.24 237.69,-214.03 234.96,-210.97"/>
<polygon fill="black" stroke="black" points="237.56,-208.63 228.1,-203.86 232.52,-213.48 237.56,-208.63"/>
<text text-anchor="middle" x="278.18" y="-223.7" font-family="Times,serif" font-size="14.00">. &#45;&gt; timer</text>
</g>
<!-- node_6 -->
<g id="node7" class="node">
<title>node_6</title>
<polygon fill="#ececff" stroke="#9370db" stroke-dasharray="5,2" points="285.5,-36 231.5,-36 231.5,0 285.5,0 285.5,-36"/>
<text text-anchor="middle" x="258.5" y="-12.95" font-family="Times,serif" font-size="14.00">break</text>
</g>
<!-- node_5&#45;&gt;node_6 -->
<g id="edge6" class="edge">
<title>node_5&#45;&gt;node_6</title>
<path fill="none" stroke="blue" stroke-width="2" d="M220.44,-72.8C226.36,-64.43 233.35,-54.55 239.72,-45.55"/>
<polygon fill="blue" stroke="blue" stroke-width="2" points="241.63,-48.9 244.55,-38.72 235.92,-44.86 241.63,-48.9"/>
</g>
<!-- node_6&#45;&gt;node_2 -->
<g id="edge7" class="edge">
<title>node_6&#45;&gt;node_2</title>
<path fill="none" stroke="blue" stroke-width="2" d="M269.45,-36.42C284.47,-62.79 307.18,-113.47 284.5,-148.5 275.82,-161.9 260.66,-170.22 246,-175.36"/>
<polygon fill="blue" stroke="blue" stroke-width="2" points="246.45,-171.57 237.9,-177.83 248.49,-178.27 246.45,-171.57"/>
<text text-anchor="middle" x="350.72" y="-88.45" font-family="Times,serif" font-size="14.00">message &#45;&gt; message</text>
</g>
</g>
</svg>
