<?xml version="1.0" encoding="UTF-8" standalone="no"?>
<!DOCTYPE svg PUBLIC "-//W3C//DTD SVG 1.1//EN"
 "http://www.w3.org/Graphics/SVG/1.1/DTD/svg11.dtd">
<!-- Generated by graphviz version 12.2.1 (20241206.2353)
 -->
<!-- Title: anon_from_add1_to_sum Pages: 1 -->
<svg width="282pt" height="230pt"
 viewBox="0.00 0.00 281.75 230.00" xmlns="http://www.w3.org/2000/svg" xmlns:xlink="http://www.w3.org/1999/xlink">
<g id="graph0" class="graph" transform="scale(1 1) rotate(0) translate(4 226)">
<title>anon_from_add1_to_sum</title>
<polygon fill="white" stroke="none" points="-4,4 -4,-226 277.75,-226 277.75,4 -4,4"/>
<text text-anchor="middle" x="136.88" y="-204.7" font-family="Times,serif" font-size="14.00">anon_from_add1_to_sum</text>
<!-- node_0 -->
<g id="node1" class="node">
<title>node_0</title>
<polygon fill="#ececff" stroke="#9370db" points="186.25,-197.5 78.75,-197.5 78.75,-161.5 186.25,-161.5 186.25,-197.5"/>
<text text-anchor="middle" x="132.5" y="-174.45" font-family="Times,serif" font-size="14.00">add1[ Adder(1) ]</text>
</g>
<!-- node_1 -->
<g id="node2" class="node">
<title>node_1</title>
<polygon fill="#ececff" stroke="#9370db" points="121,-124.5 0,-124.5 0,-88.5 121,-88.5 121,-124.5"/>
<text text-anchor="middle" x="60.5" y="-101.45" font-family="Times,serif" font-size="14.00">add10[ Adder(10) ]</text>
</g>
<!-- node_0&#45;&gt;node_1 -->
<g id="edge1" class="edge">
<title>node_0&#45;&gt;node_1</title>
<path fill="none" stroke="black" d="M115.07,-161.31C106.38,-152.74 95.7,-142.21 86.1,-132.74"/>
<polygon fill="black" stroke="black" points="88.67,-130.37 79.1,-125.84 83.76,-135.35 88.67,-130.37"/>
</g>
<!-- node_2 -->
<g id="node3" class="node">
<title>node_2</title>
<polygon fill="#ececff" stroke="#9370db" points="273.75,-124.5 139.25,-124.5 139.25,-88.5 273.75,-88.5 273.75,-124.5"/>
<text text-anchor="middle" x="206.5" y="-101.45" font-family="Times,serif" font-size="14.00">add100[ Adder(100) ]</text>
</g>
<!-- node_0&#45;&gt;node_2 -->
<g id="edge2" class="edge">
<title>node_0&#45;&gt;node_2</title>
<path fill="none" stroke="black" d="M150.41,-161.31C159.35,-152.74 170.32,-142.21 180.19,-132.74"/>
<polygon fill="black" stroke="black" points="182.61,-135.27 187.4,-125.82 177.76,-130.22 182.61,-135.27"/>
</g>
<!-- node_3 -->
<g id="node4" class="node">
<title>node_3</title>
<polygon fill="#ececff" stroke="#9370db" points="173,-36 94,-36 94,0 173,0 173,-36"/>
<text text-anchor="middle" x="133.5" y="-12.95" font-family="Times,serif" font-size="14.00">sum[ sum ]</text>
</g>
<!-- node_1&#45;&gt;node_3 -->
<g id="edge3" class="edge">
<title>node_1&#45;&gt;node_3</title>
<path fill="none" stroke="black" d="M74.92,-88.41C85.35,-76.05 99.64,-59.13 111.49,-45.08"/>
<polygon fill="black" stroke="black" points="114.11,-47.41 117.88,-37.51 108.76,-42.89 114.11,-47.41"/>
<text text-anchor="middle" x="118.91" y="-57.2" font-family="Times,serif" font-size="14.00">. &#45;&gt; y</text>
</g>
<!-- node_2&#45;&gt;node_3 -->
<g id="edge4" class="edge">
<title>node_2&#45;&gt;node_3</title>
<path fill="none" stroke="black" d="M192.08,-88.41C181.65,-76.05 167.36,-59.13 155.51,-45.08"/>
<polygon fill="black" stroke="black" points="158.24,-42.89 149.12,-37.51 152.89,-47.41 158.24,-42.89"/>
<text text-anchor="middle" x="191.91" y="-57.2" font-family="Times,serif" font-size="14.00">. &#45;&gt; x</text>
</g>
</g>
</svg>
