<?xml version="1.0" encoding="UTF-8" standalone="no"?>
<!DOCTYPE svg PUBLIC "-//W3C//DTD SVG 1.1//EN"
 "http://www.w3.org/Graphics/SVG/1.1/DTD/svg11.dtd">
<!-- Generated by graphviz version 12.2.1 (20241206.2353)
 -->
<!-- Title: test_d Pages: 1 -->
<svg width="391pt" height="432pt"
 viewBox="0.00 0.00 390.62 431.50" xmlns="http://www.w3.org/2000/svg" xmlns:xlink="http://www.w3.org/1999/xlink">
<g id="graph0" class="graph" transform="scale(1 1) rotate(0) translate(4 427.5)">
<title>test_d</title>
<polygon fill="white" stroke="none" points="-4,4 -4,-427.5 386.62,-427.5 386.62,4 -4,4"/>
<text text-anchor="middle" x="191.31" y="-406.2" font-family="Times,serif" font-size="14.00">test_d</text>
<!-- node_0 -->
<g id="node1" class="node">
<title>node_0</title>
<polygon fill="#ececff" stroke="#9370db" stroke-dasharray="5,2" points="63.25,-256.5 0,-256.5 0,-220.5 63.25,-220.5 63.25,-256.5"/>
<text text-anchor="middle" x="31.62" y="-233.45" font-family="Times,serif" font-size="14.00">process4</text>
</g>
<!-- node_2 -->
<g id="node3" class="node">
<title>node_2</title>
<polygon fill="#ececff" stroke="#9370db" points="67.62,-36 13.62,-36 13.62,0 67.62,0 67.62,-36"/>
<text text-anchor="middle" x="40.62" y="-12.95" font-family="Times,serif" font-size="14.00">End</text>
</g>
<!-- node_0&#45;&gt;node_2 -->
<g id="edge3" class="edge">
<title>node_0&#45;&gt;node_2</title>
<path fill="none" stroke="blue" stroke-width="2" d="M32.33,-220.35C33.87,-182.95 37.55,-93.7 39.45,-47.62"/>
<polygon fill="blue" stroke="blue" stroke-width="2" points="42.87,-49.53 39.79,-39.39 35.88,-49.24 42.87,-49.53"/>
</g>
<!-- node_1 -->
<g id="node2" class="node">
<title>node_1</title>
<polygon fill="#ececff" stroke="#9370db" points="108.62,-399 54.62,-399 54.62,-363 108.62,-363 108.62,-399"/>
<text text-anchor="middle" x="81.62" y="-375.95" font-family="Times,serif" font-size="14.00">Start</text>
</g>
<!-- node_1&#45;&gt;node_0 -->
<g id="edge4" class="edge">
<title>node_1&#45;&gt;node_0</title>
<path fill="none" stroke="blue" stroke-width="2" d="M75.49,-362.77C67.06,-339.07 51.78,-296.12 41.66,-267.7"/>
<polygon fill="blue" stroke="blue" stroke-width="2" points="45.47,-267.97 38.82,-259.72 38.88,-270.32 45.47,-267.97"/>
</g>
<!-- node_3 -->
<g id="node4" class="node">
<title>node_3</title>
<polygon fill="#ececff" stroke="#9370db" points="205.62,-310.5 99.62,-310.5 99.62,-274.5 205.62,-274.5 205.62,-310.5"/>
<text text-anchor="middle" x="152.62" y="-287.45" font-family="Times,serif" font-size="14.00">process1[ add1 ]</text>
</g>
<!-- node_1&#45;&gt;node_3 -->
<g id="edge5" class="edge">
<title>node_1&#45;&gt;node_3</title>
<path fill="none" stroke="blue" stroke-width="2" d="M95.65,-362.91C105.8,-350.55 119.69,-333.63 131.21,-319.58"/>
<polygon fill="blue" stroke="blue" stroke-width="2" points="132.82,-323.14 136.46,-313.19 127.41,-318.7 132.82,-323.14"/>
<text text-anchor="middle" x="151.61" y="-331.7" font-family="Times,serif" font-size="14.00">?(is_even)</text>
</g>
<!-- node_4 -->
<g id="node5" class="node">
<title>node_4</title>
<path fill="#ececff" stroke="#9370db" d="M138.62,-196.73C138.62,-198.53 120.25,-200 97.62,-200 75,-200 56.62,-198.53 56.62,-196.73 56.62,-196.73 56.62,-167.27 56.62,-167.27 56.62,-165.47 75,-164 97.62,-164 120.25,-164 138.62,-165.47 138.62,-167.27 138.62,-167.27 138.62,-196.73 138.62,-196.73"/>
<path fill="none" stroke="#9370db" d="M138.62,-196.73C138.62,-194.92 120.25,-193.45 97.62,-193.45 75,-193.45 56.62,-194.92 56.62,-196.73"/>
<text text-anchor="middle" x="97.62" y="-176.95" font-family="Times,serif" font-size="14.00">State[result]</text>
</g>
<!-- node_3&#45;&gt;node_4 -->
<g id="edge1" class="edge">
<title>node_3&#45;&gt;node_4</title>
<path fill="none" stroke="black" stroke-dasharray="5,2" d="M143.79,-274.07C135.09,-256.9 121.67,-230.43 111.54,-210.45"/>
<polygon fill="black" stroke="black" points="114.77,-209.08 107.12,-201.74 108.52,-212.24 114.77,-209.08"/>
</g>
<!-- node_6 -->
<g id="node7" class="node">
<title>node_6</title>
<polygon fill="#ececff" stroke="#9370db" stroke-width="2" points="258.38,-202.5 156.88,-202.5 156.88,-161.5 258.38,-161.5 258.38,-202.5"/>
<text text-anchor="middle" x="207.62" y="-185.2" font-family="Times,serif" font-size="14.00">process2[ add2,</text>
<text text-anchor="middle" x="207.62" y="-168.7" font-family="Times,serif" font-size="14.00">foreach=[0] ]</text>
</g>
<!-- node_3&#45;&gt;node_6 -->
<g id="edge6" class="edge">
<title>node_3&#45;&gt;node_6</title>
<path fill="none" stroke="black" d="M161.46,-274.07C169.76,-257.69 182.36,-232.84 192.3,-213.23"/>
<polygon fill="black" stroke="black" points="195.42,-214.82 196.82,-204.32 189.18,-211.65 195.42,-214.82"/>
</g>
<!-- node_7 -->
<g id="node8" class="node">
<title>node_7</title>
<polygon fill="#ececff" stroke="#9370db" points="382.62,-200 276.62,-200 276.62,-164 382.62,-164 382.62,-200"/>
<text text-anchor="middle" x="329.62" y="-176.95" font-family="Times,serif" font-size="14.00">process3[ add5 ]</text>
</g>
<!-- node_3&#45;&gt;node_7 -->
<g id="edge7" class="edge">
<title>node_3&#45;&gt;node_7</title>
<path fill="none" stroke="black" d="M181.06,-274.07C211,-255.72 258.29,-226.73 291.45,-206.4"/>
<polygon fill="black" stroke="black" points="293.27,-209.39 299.97,-201.18 289.61,-203.42 293.27,-209.39"/>
</g>
<!-- node_5 -->
<g id="node6" class="node">
<title>node_5</title>
<polygon fill="#ececff" stroke="#9370db" points="172.25,-109 115,-109 115,-73 172.25,-73 172.25,-109"/>
<text text-anchor="middle" x="143.62" y="-85.95" font-family="Times,serif" font-size="14.00">identity</text>
</g>
<!-- node_4&#45;&gt;node_5 -->
<g id="edge2" class="edge">
<title>node_4&#45;&gt;node_5</title>
<path fill="none" stroke="black" stroke-dasharray="5,2" d="M106.11,-163.92C111.43,-153.27 118.48,-139.3 124.88,-127 126.14,-124.57 127.46,-122.06 128.79,-119.54"/>
<polygon fill="black" stroke="black" points="131.87,-121.21 133.48,-110.74 125.69,-117.92 131.87,-121.21"/>
<text text-anchor="middle" x="150.75" y="-130.2" font-family="Times,serif" font-size="14.00">. &#45;&gt; input</text>
</g>
<!-- node_5&#45;&gt;node_2 -->
<g id="edge8" class="edge">
<title>node_5&#45;&gt;node_2</title>
<path fill="none" stroke="blue" stroke-width="2" d="M118.43,-72.63C105.46,-63.69 89.45,-52.66 75.33,-42.92"/>
<polygon fill="blue" stroke="blue" stroke-width="2" points="78.63,-40.95 68.41,-38.15 74.66,-46.71 78.63,-40.95"/>
</g>
<!-- node_6&#45;&gt;node_5 -->
<g id="edge9" class="edge">
<title>node_6&#45;&gt;node_5</title>
<path fill="none" stroke="black" d="M197.63,-161.06C192.02,-150.56 184.55,-137.68 176.62,-127 174.31,-123.89 171.76,-120.75 169.12,-117.71"/>
<polygon fill="black" stroke="black" points="171.94,-115.61 162.62,-110.57 166.77,-120.32 171.94,-115.61"/>
<text text-anchor="middle" x="203.59" y="-130.2" font-family="Times,serif" font-size="14.00">a &#45;&gt; x</text>
</g>
<!-- node_7&#45;&gt;node_5 -->
<g id="edge10" class="edge">
<title>node_7&#45;&gt;node_5</title>
<path fill="none" stroke="black" d="M296.93,-163.71C276.1,-152.86 248.46,-138.74 223.62,-127 210.56,-120.82 196.14,-114.39 183.18,-108.76"/>
<polygon fill="black" stroke="black" points="184.65,-105.58 174.08,-104.83 181.88,-112.01 184.65,-105.58"/>
<text text-anchor="middle" x="272.83" y="-130.2" font-family="Times,serif" font-size="14.00">b &#45;&gt; y</text>
</g>
</g>
</svg>
