<?xml version="1.0" encoding="UTF-8" standalone="no"?>
<!DOCTYPE svg PUBLIC "-//W3C//DTD SVG 1.1//EN"
 "http://www.w3.org/Graphics/SVG/1.1/DTD/svg11.dtd">
<!-- Generated by graphviz version 12.2.1 (20241206.2353)
 -->
<!-- Pages: 1 -->
<svg width="534pt" height="276pt"
 viewBox="0.00 0.00 533.82 275.50" xmlns="http://www.w3.org/2000/svg" xmlns:xlink="http://www.w3.org/1999/xlink">
<g id="graph0" class="graph" transform="scale(1 1) rotate(0) translate(4 271.5)">
<polygon fill="white" stroke="none" points="-4,4 -4,-271.5 529.82,-271.5 529.82,4 -4,4"/>
<!-- Start -->
<g id="node1" class="node">
<title>Start</title>
<polygon fill="#ececff" stroke="#9370db" points="218.98,-267.5 164.98,-267.5 164.98,-231.5 218.98,-231.5 218.98,-267.5"/>
<text text-anchor="middle" x="191.98" y="-244.45" font-family="Times,serif" font-size="14.00">Start</text>
</g>
<!-- anon_from_add1_to_sum -->
<g id="node4" class="node">
<title>anon_from_add1_to_sum</title>
<polygon fill="#ececff" stroke="#9370db" points="270.11,-162.5 113.86,-162.5 113.86,-121.5 270.11,-121.5 270.11,-162.5"/>
<text text-anchor="middle" x="191.98" y="-145.2" font-family="Times,serif" font-size="14.00">anon_from_add1_to_sum</text>
<text text-anchor="middle" x="191.98" y="-128.7" font-family="Times,serif" font-size="14.00">func=FlowDiagram</text>
</g>
<!-- Start&#45;&gt;anon_from_add1_to_sum -->
<g id="edge1" class="edge">
<title>Start&#45;&gt;anon_from_add1_to_sum</title>
<path fill="none" stroke="black" d="M191.98,-231.08C191.98,-215.72 191.98,-192.95 191.98,-174.42"/>
<polygon fill="black" stroke="black" points="195.48,-174.48 191.98,-164.48 188.48,-174.48 195.48,-174.48"/>
<text text-anchor="middle" x="269.98" y="-200.2" font-family="Times,serif" font-size="14.00">type=DiagramType.decision</text>
<text text-anchor="middle" x="269.98" y="-183.7" font-family="Times,serif" font-size="14.00">mapping={0: (&#39;.&#39;,)}</text>
</g>
<!-- End -->
<g id="node2" class="node">
<title>End</title>
<polygon fill="#ececff" stroke="#9370db" points="397.98,-36 343.98,-36 343.98,0 397.98,0 397.98,-36"/>
<text text-anchor="middle" x="370.98" y="-12.95" font-family="Times,serif" font-size="14.00">End</text>
</g>
<!-- add1_again -->
<g id="node3" class="node">
<title>add1_again</title>
<polygon fill="#ececff" stroke="#9370db" points="141.11,-36 62.86,-36 62.86,0 141.11,0 141.11,-36"/>
<text text-anchor="middle" x="101.98" y="-12.95" font-family="Times,serif" font-size="14.00">add1_again</text>
</g>
<!-- add1_again&#45;&gt;anon_from_add1_to_sum -->
<g id="edge2" class="edge">
<title>add1_again&#45;&gt;anon_from_add1_to_sum</title>
<path fill="none" stroke="black" d="M141.3,-32.26C151.94,-37.54 162.55,-44.65 169.98,-54 182.57,-69.83 188.05,-91.98 190.39,-109.96"/>
<polygon fill="black" stroke="black" points="186.9,-110.24 191.39,-119.84 193.86,-109.54 186.9,-110.24"/>
<text text-anchor="middle" x="267.29" y="-81.95" font-family="Times,serif" font-size="14.00">type=DiagramType.decision</text>
<text text-anchor="middle" x="267.29" y="-65.45" font-family="Times,serif" font-size="14.00">mapping={0: (&#39;.&#39;,)}</text>
</g>
<!-- anon_from_add1_to_sum&#45;&gt;End -->
<g id="edge3" class="edge">
<title>anon_from_add1_to_sum&#45;&gt;End</title>
<path fill="none" stroke="black" d="M270.22,-129.99C303.47,-123.79 337.27,-114.97 348.98,-103.5 363.73,-89.05 369.01,-66.07 370.73,-47.71"/>
<polygon fill="black" stroke="black" points="374.21,-48.16 371.31,-37.97 367.22,-47.74 374.21,-48.16"/>
<text text-anchor="middle" x="447.82" y="-81.95" font-family="Times,serif" font-size="14.00">type=DiagramType.decision</text>
<text text-anchor="middle" x="447.82" y="-65.45" font-family="Times,serif" font-size="14.00">mapping={0: (&#39;.&#39;,)}</text>
</g>
<!-- anon_from_add1_to_sum&#45;&gt;add1_again -->
<g id="edge4" class="edge">
<title>anon_from_add1_to_sum&#45;&gt;add1_again</title>
<path fill="none" stroke="black" d="M113.73,-134.63C70.68,-129.32 23.33,-119.88 9.98,-103.5 -3.92,-86.45 -2.51,-72.11 9.98,-54 19.6,-40.05 35.56,-31.66 51.51,-26.61"/>
<polygon fill="black" stroke="black" points="52.29,-30.03 61.02,-24.02 50.45,-23.27 52.29,-30.03"/>
<text text-anchor="middle" x="87.98" y="-90.2" font-family="Times,serif" font-size="14.00">type=DiagramType.decision</text>
<text text-anchor="middle" x="87.98" y="-73.7" font-family="Times,serif" font-size="14.00">mapping={0: (&#39;.&#39;,)}</text>
<text text-anchor="middle" x="87.98" y="-57.2" font-family="Times,serif" font-size="14.00">condition=is112</text>
</g>
</g>
</svg>
