<?xml version="1.0" encoding="UTF-8" standalone="no"?>
<!DOCTYPE svg PUBLIC "-//W3C//DTD SVG 1.1//EN"
 "http://www.w3.org/Graphics/SVG/1.1/DTD/svg11.dtd">
<!-- Generated by graphviz version 12.2.1 (20241206.2353)
 -->
<!-- Title: fill missing user with db Pages: 1 -->
<svg width="395pt" height="621pt"
 viewBox="0.00 0.00 394.75 621.00" xmlns="http://www.w3.org/2000/svg" xmlns:xlink="http://www.w3.org/1999/xlink">
<g id="graph0" class="graph" transform="scale(1 1) rotate(0) translate(4 617)">
<title>fill missing user with db</title>
<polygon fill="white" stroke="none" points="-4,4 -4,-617 390.75,-617 390.75,4 -4,4"/>
<text text-anchor="middle" x="193.38" y="-595.7" font-family="Times,serif" font-size="14.00">fill missing user with db</text>
<!-- node_0 -->
<g id="node1" class="node">
<title>node_0</title>
<polygon fill="#ececff" stroke="#9370db" points="73,-500 19,-500 19,-464 73,-464 73,-500"/>
<text text-anchor="middle" x="46" y="-476.95" font-family="Times,serif" font-size="14.00">Start</text>
</g>
<!-- node_2 -->
<g id="node3" class="node">
<title>node_2</title>
<polygon fill="#ececff" stroke="#9370db" points="238.62,-395 49.38,-395 49.38,-321 238.62,-321 238.62,-395"/>
<text text-anchor="middle" x="144" y="-377.7" font-family="Times,serif" font-size="14.00">ask_missing_data[</text>
<text text-anchor="middle" x="144" y="-361.2" font-family="Times,serif" font-size="14.00">Chat(model=&#39;gpt&#45;4o&#45;mini&#39;,</text>
<text text-anchor="middle" x="144" y="-344.7" font-family="Times,serif" font-size="14.00">required_keys={&#39;current_info&#39;},</text>
<text text-anchor="middle" x="144" y="-328.2" font-family="Times,serif" font-size="14.00">seed=42) ]</text>
</g>
<!-- node_0&#45;&gt;node_2 -->
<g id="edge5" class="edge">
<title>node_0&#45;&gt;node_2</title>
<path fill="none" stroke="blue" stroke-width="2" d="M41.91,-463.78C39.44,-449.19 38.31,-428.28 47.5,-413 49.54,-409.61 51.88,-406.41 54.45,-403.4"/>
<polygon fill="blue" stroke="blue" stroke-width="2" points="55.67,-407.16 60.17,-397.56 50.67,-402.26 55.67,-407.16"/>
<text text-anchor="middle" x="105.25" y="-432.7" font-family="Times,serif" font-size="14.00">?(has_missing_data):</text>
<text text-anchor="middle" x="105.25" y="-416.2" font-family="Times,serif" font-size="14.00">. &#45;&gt; _</text>
</g>
<!-- node_3 -->
<g id="node4" class="node">
<title>node_3</title>
<polygon fill="#ececff" stroke="#9370db" points="54,-36 0,-36 0,0 54,0 54,-36"/>
<text text-anchor="middle" x="27" y="-12.95" font-family="Times,serif" font-size="14.00">End</text>
</g>
<!-- node_0&#45;&gt;node_3 -->
<g id="edge6" class="edge">
<title>node_0&#45;&gt;node_3</title>
<path fill="none" stroke="blue" stroke-width="2" d="M38.18,-463.62C28.42,-440.31 13,-397.4 13,-359 13,-359 13,-359 13,-141 13,-108.75 17.89,-72.02 21.89,-47.37"/>
<polygon fill="blue" stroke="blue" stroke-width="2" points="25.04,-49.73 23.25,-39.29 18.13,-48.57 25.04,-49.73"/>
</g>
<!-- node_1 -->
<g id="node2" class="node">
<title>node_1</title>
<path fill="#ececff" stroke="#9370db" d="M225.88,-585.23C225.88,-587.03 203.97,-588.5 177,-588.5 150.03,-588.5 128.12,-587.03 128.12,-585.23 128.12,-585.23 128.12,-555.77 128.12,-555.77 128.12,-553.97 150.03,-552.5 177,-552.5 203.97,-552.5 225.88,-553.97 225.88,-555.77 225.88,-555.77 225.88,-585.23 225.88,-585.23"/>
<path fill="none" stroke="#9370db" d="M225.88,-585.23C225.88,-583.42 203.97,-581.95 177,-581.95 150.03,-581.95 128.12,-583.42 128.12,-585.23"/>
<text text-anchor="middle" x="177" y="-565.45" font-family="Times,serif" font-size="14.00">State[get_user]</text>
</g>
<!-- node_1&#45;&gt;node_0 -->
<g id="edge1" class="edge">
<title>node_1&#45;&gt;node_0</title>
<path fill="none" stroke="black" stroke-dasharray="5,2" d="M133.62,-553.15C122.02,-547.94 109.79,-541.64 99.25,-534.5 88.44,-527.17 77.83,-517.55 68.96,-508.61"/>
<polygon fill="black" stroke="black" points="71.53,-506.24 62.08,-501.44 66.48,-511.08 71.53,-506.24"/>
<text text-anchor="middle" x="131.12" y="-521.2" font-family="Times,serif" font-size="14.00">. &#45;&gt; content</text>
</g>
<!-- node_1&#45;&gt;node_2 -->
<g id="edge2" class="edge">
<title>node_1&#45;&gt;node_2</title>
<path fill="none" stroke="black" stroke-dasharray="5,2" d="M176.86,-552.39C176.3,-523.38 173.82,-462.85 163,-413 162.51,-410.72 161.94,-408.41 161.33,-406.09"/>
<polygon fill="black" stroke="black" points="164.74,-405.3 158.56,-396.7 158.03,-407.28 164.74,-405.3"/>
<text text-anchor="middle" x="219.86" y="-476.95" font-family="Times,serif" font-size="14.00">. &#45;&gt; current_info</text>
</g>
<!-- node_5 -->
<g id="node6" class="node">
<title>node_5</title>
<polygon fill="#ececff" stroke="#9370db" points="225.25,-195.5 42.75,-195.5 42.75,-88.5 225.25,-88.5 225.25,-195.5"/>
<text text-anchor="middle" x="134" y="-178.2" font-family="Times,serif" font-size="14.00">format_new_info[</text>
<text text-anchor="middle" x="134" y="-161.7" font-family="Times,serif" font-size="14.00">Chat(model=&#39;gpt&#45;4o&#45;mini&#39;,</text>
<text text-anchor="middle" x="134" y="-145.2" font-family="Times,serif" font-size="14.00">required_keys={&#39;current_info&#39;,</text>
<text text-anchor="middle" x="134" y="-128.7" font-family="Times,serif" font-size="14.00">&#39;input&#39;},</text>
<text text-anchor="middle" x="134" y="-112.2" font-family="Times,serif" font-size="14.00">output_schema=User,</text>
<text text-anchor="middle" x="134" y="-95.7" font-family="Times,serif" font-size="14.00">seed=42) ]</text>
</g>
<!-- node_1&#45;&gt;node_5 -->
<g id="edge3" class="edge">
<title>node_1&#45;&gt;node_5</title>
<path fill="none" stroke="black" stroke-dasharray="5,2" d="M226.09,-555.17C258.87,-542.23 296,-519.52 296,-483 296,-483 296,-483 296,-265 296,-227.51 267.97,-200.1 235.23,-180.87"/>
<polygon fill="black" stroke="black" points="237.18,-177.95 226.74,-176.15 233.78,-184.07 237.18,-177.95"/>
<text text-anchor="middle" x="341.38" y="-352.95" font-family="Times,serif" font-size="14.00">. &#45;&gt; current_info</text>
</g>
<!-- node_4 -->
<g id="node5" class="node">
<title>node_4</title>
<polygon fill="#ececff" stroke="#9370db" stroke-dasharray="5,2" points="110,-284 56,-284 56,-248 110,-248 110,-284"/>
<text text-anchor="middle" x="83" y="-260.95" font-family="Times,serif" font-size="14.00">break</text>
</g>
<!-- node_2&#45;&gt;node_4 -->
<g id="edge7" class="edge">
<title>node_2&#45;&gt;node_4</title>
<path fill="none" stroke="blue" stroke-width="2" d="M119.36,-320.65C113.28,-311.68 106.87,-302.22 101.16,-293.79"/>
<polygon fill="blue" stroke="blue" stroke-width="2" points="105.04,-293.28 96.53,-286.97 99.25,-297.21 105.04,-293.28"/>
</g>
<!-- node_4&#45;&gt;node_5 -->
<g id="edge8" class="edge">
<title>node_4&#45;&gt;node_5</title>
<path fill="none" stroke="blue" stroke-width="2" d="M80,-247.88C78.88,-237.65 78.63,-224.55 82.25,-213.5 83.09,-210.94 84.06,-208.4 85.14,-205.89"/>
<polygon fill="blue" stroke="blue" stroke-width="2" points="87.53,-208.96 88.8,-198.44 81.24,-205.87 87.53,-208.96"/>
<text text-anchor="middle" x="108.12" y="-216.7" font-family="Times,serif" font-size="14.00">. &#45;&gt; input</text>
</g>
<!-- node_5&#45;&gt;node_2 -->
<g id="edge9" class="edge">
<title>node_5&#45;&gt;node_2</title>
<path fill="none" stroke="blue" stroke-width="2" d="M136.47,-195.96C138.1,-230.69 140.2,-275.71 141.77,-309.32"/>
<polygon fill="blue" stroke="blue" stroke-width="2" points="138.2,-307.85 142.16,-317.67 145.19,-307.52 138.2,-307.85"/>
<text text-anchor="middle" x="198.31" y="-269.2" font-family="Times,serif" font-size="14.00">?(has_missing_data):</text>
<text text-anchor="middle" x="198.31" y="-252.7" font-family="Times,serif" font-size="14.00">. &#45;&gt; _</text>
</g>
<!-- node_5&#45;&gt;node_3 -->
<g id="edge10" class="edge">
<title>node_5&#45;&gt;node_3</title>
<path fill="none" stroke="blue" stroke-width="2" d="M87.69,-88.2C74.6,-73.27 60.93,-57.68 49.88,-45.09"/>
<polygon fill="blue" stroke="blue" stroke-width="2" points="53.57,-43.98 44.34,-38.77 48.3,-48.6 53.57,-43.98"/>
</g>
<!-- node_6 -->
<g id="node7" class="node">
<title>node_6</title>
<path fill="#ececff" stroke="#9370db" d="M184.38,-32.73C184.38,-34.53 161.8,-36 134,-36 106.2,-36 83.62,-34.53 83.62,-32.73 83.62,-32.73 83.62,-3.27 83.62,-3.27 83.62,-1.47 106.2,0 134,0 161.8,0 184.38,-1.47 184.38,-3.27 184.38,-3.27 184.38,-32.73 184.38,-32.73"/>
<path fill="none" stroke="#9370db" d="M184.38,-32.73C184.38,-30.92 161.8,-29.45 134,-29.45 106.2,-29.45 83.62,-30.92 83.62,-32.73"/>
<text text-anchor="middle" x="134" y="-12.95" font-family="Times,serif" font-size="14.00">State[add_user]</text>
</g>
<!-- node_5&#45;&gt;node_6 -->
<g id="edge4" class="edge">
<title>node_5&#45;&gt;node_6</title>
<path fill="none" stroke="black" stroke-dasharray="5,2" d="M134,-88.2C134,-74.29 134,-59.8 134,-47.7"/>
<polygon fill="black" stroke="black" points="137.5,-48.01 134,-38.01 130.5,-48.01 137.5,-48.01"/>
<text text-anchor="middle" x="167.38" y="-57.2" font-family="Times,serif" font-size="14.00">content &#45;&gt; 0</text>
</g>
</g>
</svg>
